<svg width="524" height="285" viewBox="0 0 524 285" fill="none" xmlns="http://www.w3.org/2000/svg">
<path d="M524 357.146L246.5 448.475L-31.0001 357.146M524 317.516L246.5 408.844L-31 317.516M524 277.886L246.5 369.214L-31 277.886M524 238.256L246.5 329.584L-31 238.256M524 198.626L246.5 289.954L-31 198.626M524 158.995L246.5 250.324L-31 158.995M524 119.365L246.5 210.693L-31 119.365M524 79.735L246.5 171.063L-31 79.735M524 40.1049L246.5 131.433L-31 40.1048M524 0.47467L246.5 91.8029L-31 0.474622" stroke="url(#paint0_linear_8462_518)" stroke-opacity="0.2" stroke-miterlimit="10"/>
<defs>
<linearGradient id="paint0_linear_8462_518" x1="267.736" y1="242.024" x2="392.435" y2="21.0024" gradientUnits="userSpaceOnUse">
<stop stop-color="#318EFF" stop-opacity="0"/>
<stop offset="1" stop-color="#318EFF"/>
</linearGradient>
</defs>
</svg>
