<svg width="320" height="98" viewBox="0 0 320 98" fill="none" xmlns="http://www.w3.org/2000/svg">
<path d="M363 168.472L181.5 211.486L-3.15255e-05 168.472M363 149.807L181.5 192.821L-2.98938e-05 149.807M363 131.142L181.5 174.156L-2.8262e-05 131.142M363 112.477L181.5 155.491L-2.66303e-05 112.477M363 93.8119L181.5 136.826L-2.49985e-05 93.8119M363 75.1468L181.5 118.161L-2.33668e-05 75.1468M363 56.4817L181.5 99.4957L-2.1735e-05 56.4817M363 37.8166L181.5 80.8306L-2.01033e-05 37.8165M363 19.1515L181.5 62.1654L-1.84715e-05 19.1514M363 0.486363L181.5 43.5003L-1.68397e-05 0.486332" stroke="url(#paint0_linear_8462_572)" stroke-opacity="0.2" stroke-miterlimit="10"/>
<defs>
<linearGradient id="paint0_linear_8462_572" x1="195.39" y1="114.252" x2="243.245" y2="-3.53864" gradientUnits="userSpaceOnUse">
<stop stop-color="#318EFF" stop-opacity="0"/>
<stop offset="1" stop-color="#318EFF"/>
</linearGradient>
</defs>
</svg>
