<svg width="232" height="164" viewBox="0 0 232 164" fill="none" xmlns="http://www.w3.org/2000/svg">
<g filter="url(#filter0_d_8462_701)">
<path d="M25.1875 36V122.5" stroke="#101828"/>
<rect x="4" y="1" width="224" height="44" rx="8" fill="white"/>
<rect x="4.5" y="1.5" width="223" height="43" rx="7.5" stroke="url(#paint0_linear_8462_701)" stroke-opacity="0.1"/>
<rect x="10" y="9" width="31" height="28" rx="4" fill="url(#paint1_linear_8462_701)"/>
<path d="M32.0143 19.4926C31.395 21.9078 30.138 24.1123 28.3749 25.8754C26.6118 27.6385 24.4073 28.8955 21.9921 29.5148C20.1336 29.9879 18.5547 28.3898 18.5547 26.4715V25.6035C18.5547 25.1243 18.9444 24.7398 19.421 24.6921C20.2112 24.6135 20.987 24.4269 21.7265 24.1374L23.0459 25.4568C25.1941 24.4269 26.9265 22.6946 27.9563 20.5464L26.6369 19.2269C26.9267 18.4875 27.1136 17.7118 27.1924 16.9215C27.2393 16.4441 27.6238 16.0552 28.103 16.0552H28.971C30.8894 16.0552 32.4874 17.6341 32.0143 19.4926Z" fill="white" stroke="white" stroke-width="1.5" stroke-linecap="round" stroke-linejoin="round"/>
<path d="M56.4063 22H55.4375C55.3802 21.7214 55.2799 21.4766 55.1367 21.2656C54.9961 21.0547 54.8242 20.8776 54.6211 20.7344C54.4206 20.5885 54.1979 20.4792 53.9531 20.4062C53.7083 20.3333 53.4531 20.2969 53.1875 20.2969C52.7031 20.2969 52.2643 20.4193 51.8711 20.6641C51.4805 20.9089 51.1693 21.2695 50.9375 21.7461C50.7083 22.2227 50.5938 22.8073 50.5938 23.5C50.5938 24.1927 50.7083 24.7773 50.9375 25.2539C51.1693 25.7305 51.4805 26.0911 51.8711 26.3359C52.2643 26.5807 52.7031 26.7031 53.1875 26.7031C53.4531 26.7031 53.7083 26.6667 53.9531 26.5937C54.1979 26.5208 54.4206 26.4128 54.6211 26.2695C54.8242 26.1237 54.9961 25.9453 55.1367 25.7344C55.2799 25.5208 55.3802 25.276 55.4375 25H56.4063C56.3333 25.4089 56.2005 25.7747 56.0078 26.0977C55.8151 26.4206 55.5755 26.6953 55.2891 26.9219C55.0026 27.1458 54.681 27.3164 54.3242 27.4336C53.9701 27.5508 53.5911 27.6094 53.1875 27.6094C52.5052 27.6094 51.8984 27.4427 51.3672 27.1094C50.8359 26.776 50.418 26.3021 50.1133 25.6875C49.8086 25.0729 49.6563 24.3437 49.6563 23.5C49.6563 22.6562 49.8086 21.9271 50.1133 21.3125C50.418 20.6979 50.8359 20.224 51.3672 19.8906C51.8984 19.5573 52.5052 19.3906 53.1875 19.3906C53.5911 19.3906 53.9701 19.4492 54.3242 19.5664C54.681 19.6836 55.0026 19.8555 55.2891 20.082C55.5755 20.306 55.8151 20.5794 56.0078 20.9023C56.2005 21.2227 56.3333 21.5885 56.4063 22ZM61.2979 25.0469V21.5H62.2198V27.5H61.2979V26.4844H61.2354C61.0948 26.7891 60.8761 27.0482 60.5792 27.2617C60.2823 27.4727 59.9073 27.5781 59.4542 27.5781C59.0792 27.5781 58.7458 27.4961 58.4542 27.332C58.1625 27.1654 57.9333 26.9154 57.7667 26.582C57.6 26.2461 57.5167 25.8229 57.5167 25.3125V21.5H58.4386V25.25C58.4386 25.6875 58.561 26.0365 58.8057 26.2969C59.0531 26.5573 59.3682 26.6875 59.7511 26.6875C59.9802 26.6875 60.2133 26.6289 60.4503 26.5117C60.6899 26.3945 60.8904 26.2148 61.0518 25.9727C61.2159 25.7305 61.2979 25.4219 61.2979 25.0469ZM67.8283 22.8437L67.0002 23.0781C66.9481 22.9401 66.8713 22.806 66.7697 22.6758C66.6707 22.543 66.5353 22.4336 66.3634 22.3477C66.1916 22.2617 65.9715 22.2187 65.7033 22.2187C65.3361 22.2187 65.0301 22.3034 64.7853 22.4727C64.5431 22.6393 64.422 22.8516 64.422 23.1094C64.422 23.3385 64.5054 23.5195 64.672 23.6523C64.8387 23.7852 65.0991 23.8958 65.4533 23.9844L66.3439 24.2031C66.8804 24.3333 67.2801 24.5326 67.5431 24.8008C67.8061 25.0664 67.9377 25.4089 67.9377 25.8281C67.9377 26.1719 67.8387 26.4792 67.6408 26.75C67.4455 27.0208 67.172 27.2344 66.8205 27.3906C66.4689 27.5469 66.0601 27.625 65.5939 27.625C64.9819 27.625 64.4754 27.4922 64.0744 27.2266C63.6733 26.9609 63.4194 26.5729 63.3127 26.0625L64.1877 25.8437C64.271 26.1667 64.4285 26.4089 64.6603 26.5703C64.8947 26.7318 65.2007 26.8125 65.5783 26.8125C66.008 26.8125 66.3491 26.7214 66.6017 26.5391C66.8569 26.3542 66.9845 26.1328 66.9845 25.875C66.9845 25.6667 66.9116 25.4922 66.7658 25.3516C66.6199 25.2083 66.396 25.1016 66.0939 25.0312L65.0939 24.7969C64.5444 24.6667 64.1408 24.4648 63.883 24.1914C63.6278 23.9154 63.5002 23.5703 63.5002 23.1562C63.5002 22.8177 63.5952 22.5182 63.7853 22.2578C63.978 21.9974 64.2397 21.793 64.5705 21.6445C64.9038 21.4961 65.2814 21.4219 65.7033 21.4219C66.297 21.4219 66.7632 21.5521 67.1017 21.8125C67.4429 22.0729 67.6851 22.4167 67.8283 22.8437ZM71.6047 21.5V22.2812H68.4954V21.5H71.6047ZM69.4016 20.0625H70.3235V25.7812C70.3235 26.0417 70.3612 26.237 70.4368 26.3672C70.5149 26.4948 70.6138 26.5807 70.7336 26.625C70.856 26.6667 70.9849 26.6875 71.1204 26.6875C71.2219 26.6875 71.3052 26.6823 71.3704 26.6719C71.4355 26.6589 71.4875 26.6484 71.5266 26.6406L71.7141 27.4687C71.6516 27.4922 71.5644 27.5156 71.4524 27.5391C71.3404 27.5651 71.1985 27.5781 71.0266 27.5781C70.7662 27.5781 70.511 27.5221 70.261 27.4102C70.0136 27.2982 69.8079 27.1276 69.6438 26.8984C69.4823 26.6693 69.4016 26.3802 69.4016 26.0312V20.0625ZM75.0345 27.625C74.4928 27.625 74.0176 27.4961 73.6087 27.2383C73.2025 26.9805 72.8848 26.6198 72.6556 26.1562C72.429 25.6927 72.3157 25.151 72.3157 24.5312C72.3157 23.9062 72.429 23.3607 72.6556 22.8945C72.8848 22.4284 73.2025 22.0664 73.6087 21.8086C74.0176 21.5508 74.4928 21.4219 75.0345 21.4219C75.5762 21.4219 76.0501 21.5508 76.4564 21.8086C76.8652 22.0664 77.1829 22.4284 77.4095 22.8945C77.6387 23.3607 77.7532 23.9062 77.7532 24.5312C77.7532 25.151 77.6387 25.6927 77.4095 26.1562C77.1829 26.6198 76.8652 26.9805 76.4564 27.2383C76.0501 27.4961 75.5762 27.625 75.0345 27.625ZM75.0345 26.7969C75.446 26.7969 75.7845 26.6914 76.0501 26.4805C76.3157 26.2695 76.5124 25.9922 76.64 25.6484C76.7676 25.3047 76.8314 24.9323 76.8314 24.5312C76.8314 24.1302 76.7676 23.7565 76.64 23.4102C76.5124 23.0638 76.3157 22.7839 76.0501 22.5703C75.7845 22.3568 75.446 22.25 75.0345 22.25C74.623 22.25 74.2845 22.3568 74.0189 22.5703C73.7532 22.7839 73.5566 23.0638 73.429 23.4102C73.3014 23.7565 73.2376 24.1302 73.2376 24.5312C73.2376 24.9323 73.3014 25.3047 73.429 25.6484C73.5566 25.9922 73.7532 26.2695 74.0189 26.4805C74.2845 26.6914 74.623 26.7969 75.0345 26.7969ZM78.8305 27.5V21.5H79.7211V22.4375H79.7992C79.9242 22.1172 80.126 21.8685 80.4047 21.6914C80.6833 21.5117 81.018 21.4219 81.4086 21.4219C81.8044 21.4219 82.1339 21.5117 82.3969 21.6914C82.6625 21.8685 82.8695 22.1172 83.018 22.4375H83.0805C83.2341 22.1276 83.4646 21.8815 83.7719 21.6992C84.0792 21.5143 84.4477 21.4219 84.8773 21.4219C85.4138 21.4219 85.8526 21.5898 86.1938 21.9258C86.5349 22.2591 86.7055 22.7786 86.7055 23.4844V27.5H85.7836V23.4844C85.7836 23.0417 85.6625 22.7253 85.4203 22.5352C85.1781 22.3451 84.893 22.25 84.5648 22.25C84.143 22.25 83.8161 22.3776 83.5844 22.6328C83.3526 22.8854 83.2367 23.2057 83.2367 23.5937V27.5H82.2992V23.3906C82.2992 23.0495 82.1885 22.7747 81.9672 22.5664C81.7458 22.3555 81.4607 22.25 81.1117 22.25C80.8721 22.25 80.6482 22.3138 80.4398 22.4414C80.2341 22.569 80.0674 22.7461 79.9398 22.9727C79.8148 23.1966 79.7523 23.4557 79.7523 23.75V27.5H78.8305ZM90.5766 27.625C89.9985 27.625 89.4998 27.4974 89.0805 27.2422C88.6639 26.9844 88.3423 26.625 88.1157 26.1641C87.8917 25.7005 87.7798 25.1615 87.7798 24.5469C87.7798 23.9323 87.8917 23.3906 88.1157 22.9219C88.3423 22.4505 88.6574 22.0833 89.061 21.8203C89.4673 21.5547 89.9412 21.4219 90.4829 21.4219C90.7954 21.4219 91.104 21.474 91.4087 21.5781C91.7134 21.6823 91.9907 21.8516 92.2407 22.0859C92.4907 22.3177 92.6899 22.625 92.8384 23.0078C92.9868 23.3906 93.061 23.862 93.061 24.4219V24.8125H88.436V24.0156H92.1235C92.1235 23.6771 92.0558 23.375 91.9204 23.1094C91.7876 22.8437 91.5975 22.6341 91.3501 22.4805C91.1053 22.3268 90.8162 22.25 90.4829 22.25C90.1157 22.25 89.798 22.3411 89.5298 22.5234C89.2641 22.7031 89.0597 22.9375 88.9165 23.2266C88.7733 23.5156 88.7016 23.8255 88.7016 24.1562V24.6875C88.7016 25.1406 88.7798 25.5247 88.936 25.8398C89.0949 26.1523 89.3149 26.3906 89.5962 26.5547C89.8774 26.7161 90.2042 26.7969 90.5766 26.7969C90.8188 26.7969 91.0376 26.763 91.2329 26.6953C91.4308 26.625 91.6014 26.5208 91.7446 26.3828C91.8878 26.2422 91.9985 26.0677 92.0766 25.8594L92.9673 26.1094C92.8735 26.4115 92.716 26.6771 92.4946 26.9062C92.2733 27.1328 91.9998 27.3099 91.6743 27.4375C91.3488 27.5625 90.9829 27.625 90.5766 27.625ZM94.1334 27.5V21.5H95.024V22.4062H95.0865C95.1959 22.1094 95.3938 21.8685 95.6802 21.6836C95.9667 21.4987 96.2896 21.4062 96.649 21.4062C96.7167 21.4062 96.8013 21.4076 96.9029 21.4102C97.0045 21.4128 97.0813 21.4167 97.1334 21.4219V22.3594C97.1021 22.3516 97.0305 22.3398 96.9185 22.3242C96.8091 22.306 96.6933 22.2969 96.5709 22.2969C96.2792 22.2969 96.0188 22.3581 95.7896 22.4805C95.563 22.6003 95.3834 22.7669 95.2505 22.9805C95.1203 23.1914 95.0552 23.4323 95.0552 23.7031V27.5H94.1334ZM103.097 27.625C102.535 27.625 102.051 27.4922 101.644 27.2266C101.238 26.9609 100.926 26.5951 100.707 26.1289C100.488 25.6628 100.379 25.1302 100.379 24.5312C100.379 23.9219 100.491 23.3841 100.715 22.918C100.941 22.4492 101.256 22.0833 101.66 21.8203C102.066 21.5547 102.54 21.4219 103.082 21.4219C103.504 21.4219 103.884 21.5 104.222 21.6562C104.561 21.8125 104.838 22.0312 105.054 22.3125C105.271 22.5937 105.405 22.9219 105.457 23.2969H104.535C104.465 23.0234 104.308 22.7812 104.066 22.5703C103.827 22.3568 103.504 22.25 103.097 22.25C102.738 22.25 102.423 22.3437 102.152 22.5312C101.884 22.7161 101.674 22.9779 101.523 23.3164C101.375 23.6523 101.301 24.0469 101.301 24.5C101.301 24.9635 101.373 25.3672 101.519 25.7109C101.668 26.0547 101.876 26.3216 102.144 26.5117C102.415 26.7018 102.733 26.7969 103.097 26.7969C103.337 26.7969 103.554 26.7552 103.75 26.6719C103.945 26.5885 104.11 26.4688 104.246 26.3125C104.381 26.1562 104.478 25.9687 104.535 25.75H105.457C105.405 26.1042 105.276 26.4232 105.07 26.707C104.867 26.9883 104.597 27.2122 104.261 27.3789C103.928 27.543 103.54 27.625 103.097 27.625ZM108.24 27.6406C107.86 27.6406 107.515 27.569 107.205 27.4258C106.895 27.2799 106.649 27.0703 106.467 26.7969C106.284 26.5208 106.193 26.1875 106.193 25.7969C106.193 25.4531 106.261 25.1745 106.396 24.9609C106.532 24.7448 106.713 24.5755 106.939 24.4531C107.166 24.3307 107.416 24.2396 107.689 24.1797C107.965 24.1172 108.243 24.0677 108.521 24.0313C108.886 23.9844 109.181 23.9492 109.408 23.9258C109.637 23.8997 109.804 23.8568 109.908 23.7969C110.015 23.737 110.068 23.6328 110.068 23.4844V23.4531C110.068 23.0677 109.963 22.7682 109.752 22.5547C109.543 22.3411 109.227 22.2344 108.803 22.2344C108.362 22.2344 108.017 22.3307 107.767 22.5234C107.517 22.7161 107.342 22.9219 107.24 23.1406L106.365 22.8281C106.521 22.4635 106.73 22.1797 106.99 21.9766C107.253 21.7708 107.54 21.6276 107.849 21.5469C108.162 21.4635 108.469 21.4219 108.771 21.4219C108.964 21.4219 109.185 21.4453 109.435 21.4922C109.688 21.5365 109.931 21.6289 110.166 21.7695C110.403 21.9102 110.599 22.1224 110.756 22.4062C110.912 22.6901 110.99 23.0703 110.99 23.5469V27.5H110.068V26.6875H110.021C109.959 26.8177 109.855 26.957 109.709 27.1055C109.563 27.2539 109.369 27.3802 109.127 27.4844C108.885 27.5885 108.589 27.6406 108.24 27.6406ZM108.381 26.8125C108.745 26.8125 109.053 26.7409 109.303 26.5977C109.555 26.4544 109.745 26.2695 109.873 26.043C110.003 25.8164 110.068 25.5781 110.068 25.3281V24.4844C110.029 24.5312 109.943 24.5742 109.81 24.6133C109.68 24.6497 109.529 24.6823 109.357 24.7109C109.188 24.737 109.023 24.7604 108.861 24.7812C108.702 24.7995 108.573 24.8151 108.474 24.8281C108.235 24.8594 108.011 24.9102 107.803 24.9805C107.597 25.0482 107.43 25.151 107.303 25.2891C107.178 25.4245 107.115 25.6094 107.115 25.8437C107.115 26.1641 107.234 26.4062 107.471 26.5703C107.71 26.7318 108.013 26.8125 108.381 26.8125ZM113.265 19.5V27.5H112.343V19.5H113.265ZM115.545 19.5V27.5H114.623V19.5H115.545ZM121.153 22.8437L120.325 23.0781C120.273 22.9401 120.196 22.806 120.095 22.6758C119.996 22.543 119.86 22.4336 119.689 22.3477C119.517 22.2617 119.297 22.2187 119.028 22.2187C118.661 22.2187 118.355 22.3034 118.11 22.4727C117.868 22.6393 117.747 22.8516 117.747 23.1094C117.747 23.3385 117.83 23.5195 117.997 23.6523C118.164 23.7852 118.424 23.8958 118.778 23.9844L119.669 24.2031C120.205 24.3333 120.605 24.5326 120.868 24.8008C121.131 25.0664 121.263 25.4089 121.263 25.8281C121.263 26.1719 121.164 26.4792 120.966 26.75C120.771 27.0208 120.497 27.2344 120.146 27.3906C119.794 27.5469 119.385 27.625 118.919 27.625C118.307 27.625 117.8 27.4922 117.399 27.2266C116.998 26.9609 116.745 26.5729 116.638 26.0625L117.513 25.8437C117.596 26.1667 117.754 26.4089 117.985 26.5703C118.22 26.7318 118.526 26.8125 118.903 26.8125C119.333 26.8125 119.674 26.7214 119.927 26.5391C120.182 26.3542 120.31 26.1328 120.31 25.875C120.31 25.6667 120.237 25.4922 120.091 25.3516C119.945 25.2083 119.721 25.1016 119.419 25.0312L118.419 24.7969C117.87 24.6667 117.466 24.4648 117.208 24.1914C116.953 23.9154 116.825 23.5703 116.825 23.1562C116.825 22.8177 116.92 22.5182 117.11 22.2578C117.303 21.9974 117.565 21.793 117.896 21.6445C118.229 21.4961 118.606 21.4219 119.028 21.4219C119.622 21.4219 120.088 21.5521 120.427 21.8125C120.768 22.0729 121.01 22.4167 121.153 22.8437ZM127.694 21.5V22.2812H124.584V21.5H127.694ZM125.49 20.0625H126.412V25.7812C126.412 26.0417 126.45 26.237 126.526 26.3672C126.604 26.4948 126.703 26.5807 126.822 26.625C126.945 26.6667 127.074 26.6875 127.209 26.6875C127.311 26.6875 127.394 26.6823 127.459 26.6719C127.524 26.6589 127.576 26.6484 127.615 26.6406L127.803 27.4687C127.74 27.4922 127.653 27.5156 127.541 27.5391C127.429 27.5651 127.287 27.5781 127.115 27.5781C126.855 27.5781 126.6 27.5221 126.35 27.4102C126.102 27.2982 125.897 27.1276 125.733 26.8984C125.571 26.6693 125.49 26.3802 125.49 26.0312V20.0625ZM131.123 27.625C130.582 27.625 130.106 27.4961 129.698 27.2383C129.291 26.9805 128.974 26.6198 128.744 26.1562C128.518 25.6927 128.405 25.151 128.405 24.5312C128.405 23.9062 128.518 23.3607 128.744 22.8945C128.974 22.4284 129.291 22.0664 129.698 21.8086C130.106 21.5508 130.582 21.4219 131.123 21.4219C131.665 21.4219 132.139 21.5508 132.545 21.8086C132.954 22.0664 133.272 22.4284 133.498 22.8945C133.727 23.3607 133.842 23.9062 133.842 24.5312C133.842 25.151 133.727 25.6927 133.498 26.1562C133.272 26.6198 132.954 26.9805 132.545 27.2383C132.139 27.4961 131.665 27.625 131.123 27.625ZM131.123 26.7969C131.535 26.7969 131.873 26.6914 132.139 26.4805C132.405 26.2695 132.601 25.9922 132.729 25.6484C132.856 25.3047 132.92 24.9323 132.92 24.5312C132.92 24.1302 132.856 23.7565 132.729 23.4102C132.601 23.0638 132.405 22.7839 132.139 22.5703C131.873 22.3568 131.535 22.25 131.123 22.25C130.712 22.25 130.373 22.3568 130.108 22.5703C129.842 22.7839 129.645 23.0638 129.518 23.4102C129.39 23.7565 129.326 24.1302 129.326 24.5312C129.326 24.9323 129.39 25.3047 129.518 25.6484C129.645 25.9922 129.842 26.2695 130.108 26.4805C130.373 26.6914 130.712 26.7969 131.123 26.7969ZM137.683 29.75V21.5H138.574V22.4531H138.683C138.751 22.349 138.845 22.2161 138.964 22.0547C139.087 21.8906 139.261 21.7448 139.488 21.6172C139.717 21.487 140.027 21.4219 140.417 21.4219C140.923 21.4219 141.368 21.5482 141.753 21.8008C142.139 22.0534 142.44 22.4115 142.656 22.875C142.872 23.3385 142.98 23.8854 142.98 24.5156C142.98 25.151 142.872 25.7018 142.656 26.168C142.44 26.6315 142.14 26.9909 141.757 27.2461C141.374 27.4987 140.933 27.625 140.433 27.625C140.048 27.625 139.739 27.5612 139.507 27.4336C139.275 27.3034 139.097 27.1562 138.972 26.9922C138.847 26.8255 138.751 26.6875 138.683 26.5781H138.605V29.75H137.683ZM138.589 24.5C138.589 24.9531 138.656 25.3529 138.789 25.6992C138.921 26.043 139.115 26.3125 139.371 26.5078C139.626 26.7005 139.938 26.7969 140.308 26.7969C140.693 26.7969 141.015 26.6953 141.273 26.4922C141.533 26.2865 141.729 26.0104 141.859 25.6641C141.992 25.3151 142.058 24.9271 142.058 24.5C142.058 24.0781 141.993 23.6979 141.863 23.3594C141.735 23.0182 141.541 22.7487 141.281 22.5508C141.023 22.3503 140.699 22.25 140.308 22.25C139.933 22.25 139.618 22.3451 139.363 22.5352C139.108 22.7227 138.915 22.9857 138.785 23.3242C138.654 23.6602 138.589 24.0521 138.589 24.5ZM144.978 19.5V27.5H144.056V19.5H144.978ZM148.102 27.6406C147.722 27.6406 147.377 27.569 147.067 27.4258C146.757 27.2799 146.511 27.0703 146.329 26.7969C146.146 26.5208 146.055 26.1875 146.055 25.7969C146.055 25.4531 146.123 25.1745 146.258 24.9609C146.394 24.7448 146.575 24.5755 146.801 24.4531C147.028 24.3307 147.278 24.2396 147.551 24.1797C147.827 24.1172 148.105 24.0677 148.383 24.0313C148.748 23.9844 149.044 23.9492 149.27 23.9258C149.499 23.8997 149.666 23.8568 149.77 23.7969C149.877 23.737 149.93 23.6328 149.93 23.4844V23.4531C149.93 23.0677 149.825 22.7682 149.614 22.5547C149.406 22.3411 149.089 22.2344 148.665 22.2344C148.225 22.2344 147.879 22.3307 147.629 22.5234C147.379 22.7161 147.204 22.9219 147.102 23.1406L146.227 22.8281C146.383 22.4635 146.592 22.1797 146.852 21.9766C147.115 21.7708 147.402 21.6276 147.712 21.5469C148.024 21.4635 148.331 21.4219 148.633 21.4219C148.826 21.4219 149.047 21.4453 149.297 21.4922C149.55 21.5365 149.794 21.6289 150.028 21.7695C150.265 21.9102 150.462 22.1224 150.618 22.4062C150.774 22.6901 150.852 23.0703 150.852 23.5469V27.5H149.93V26.6875H149.883C149.821 26.8177 149.717 26.957 149.571 27.1055C149.425 27.2539 149.231 27.3802 148.989 27.4844C148.747 27.5885 148.451 27.6406 148.102 27.6406ZM148.243 26.8125C148.607 26.8125 148.915 26.7409 149.165 26.5977C149.417 26.4544 149.607 26.2695 149.735 26.043C149.865 25.8164 149.93 25.5781 149.93 25.3281V24.4844C149.891 24.5312 149.805 24.5742 149.672 24.6133C149.542 24.6497 149.391 24.6823 149.219 24.7109C149.05 24.737 148.885 24.7604 148.723 24.7812C148.564 24.7995 148.435 24.8151 148.337 24.8281C148.097 24.8594 147.873 24.9102 147.665 24.9805C147.459 25.0482 147.292 25.151 147.165 25.2891C147.04 25.4245 146.977 25.6094 146.977 25.8437C146.977 26.1641 147.096 26.4062 147.333 26.5703C147.572 26.7318 147.876 26.8125 148.243 26.8125ZM154.642 27.625C154.08 27.625 153.595 27.4922 153.189 27.2266C152.783 26.9609 152.47 26.5951 152.252 26.1289C152.033 25.6628 151.924 25.1302 151.924 24.5312C151.924 23.9219 152.035 23.3841 152.259 22.918C152.486 22.4492 152.801 22.0833 153.205 21.8203C153.611 21.5547 154.085 21.4219 154.627 21.4219C155.049 21.4219 155.429 21.5 155.767 21.6562C156.106 21.8125 156.383 22.0312 156.599 22.3125C156.815 22.5937 156.95 22.9219 157.002 23.2969H156.08C156.009 23.0234 155.853 22.7812 155.611 22.5703C155.371 22.3568 155.049 22.25 154.642 22.25C154.283 22.25 153.968 22.3437 153.697 22.5312C153.429 22.7161 153.219 22.9779 153.068 23.3164C152.92 23.6523 152.845 24.0469 152.845 24.5C152.845 24.9635 152.918 25.3672 153.064 25.7109C153.213 26.0547 153.421 26.3216 153.689 26.5117C153.96 26.7018 154.278 26.7969 154.642 26.7969C154.882 26.7969 155.099 26.7552 155.295 26.6719C155.49 26.5885 155.655 26.4688 155.791 26.3125C155.926 26.1562 156.022 25.9687 156.08 25.75H157.002C156.95 26.1042 156.821 26.4232 156.615 26.707C156.412 26.9883 156.142 27.2122 155.806 27.3789C155.473 27.543 155.085 27.625 154.642 27.625ZM160.535 27.625C159.957 27.625 159.458 27.4974 159.039 27.2422C158.622 26.9844 158.301 26.625 158.074 26.1641C157.85 25.7005 157.738 25.1615 157.738 24.5469C157.738 23.9323 157.85 23.3906 158.074 22.9219C158.301 22.4505 158.616 22.0833 159.019 21.8203C159.426 21.5547 159.9 21.4219 160.441 21.4219C160.754 21.4219 161.062 21.474 161.367 21.5781C161.672 21.6823 161.949 21.8516 162.199 22.0859C162.449 22.3177 162.648 22.625 162.797 23.0078C162.945 23.3906 163.019 23.862 163.019 24.4219V24.8125H158.394V24.0156H162.082C162.082 23.6771 162.014 23.375 161.879 23.1094C161.746 22.8437 161.556 22.6341 161.308 22.4805C161.064 22.3268 160.775 22.25 160.441 22.25C160.074 22.25 159.756 22.3411 159.488 22.5234C159.222 22.7031 159.018 22.9375 158.875 23.2266C158.732 23.5156 158.66 23.8255 158.66 24.1562V24.6875C158.66 25.1406 158.738 25.5247 158.894 25.8398C159.053 26.1523 159.273 26.3906 159.554 26.5547C159.836 26.7161 160.163 26.7969 160.535 26.7969C160.777 26.7969 160.996 26.763 161.191 26.6953C161.389 26.625 161.56 26.5208 161.703 26.3828C161.846 26.2422 161.957 26.0677 162.035 25.8594L162.926 26.1094C162.832 26.4115 162.674 26.6771 162.453 26.9062C162.232 27.1328 161.958 27.3099 161.633 27.4375C161.307 27.5625 160.941 27.625 160.535 27.625ZM168.621 27.6406C168.241 27.6406 167.896 27.569 167.586 27.4258C167.276 27.2799 167.03 27.0703 166.848 26.7969C166.665 26.5208 166.574 26.1875 166.574 25.7969C166.574 25.4531 166.642 25.1745 166.777 24.9609C166.913 24.7448 167.094 24.5755 167.32 24.4531C167.547 24.3307 167.797 24.2396 168.07 24.1797C168.346 24.1172 168.624 24.0677 168.902 24.0313C169.267 23.9844 169.562 23.9492 169.789 23.9258C170.018 23.8997 170.185 23.8568 170.289 23.7969C170.396 23.737 170.449 23.6328 170.449 23.4844V23.4531C170.449 23.0677 170.344 22.7682 170.133 22.5547C169.924 22.3411 169.608 22.2344 169.184 22.2344C168.743 22.2344 168.398 22.3307 168.148 22.5234C167.898 22.7161 167.723 22.9219 167.621 23.1406L166.746 22.8281C166.902 22.4635 167.111 22.1797 167.371 21.9766C167.634 21.7708 167.92 21.6276 168.23 21.5469C168.543 21.4635 168.85 21.4219 169.152 21.4219C169.345 21.4219 169.566 21.4453 169.816 21.4922C170.069 21.5365 170.312 21.6289 170.547 21.7695C170.784 21.9102 170.98 22.1224 171.137 22.4062C171.293 22.6901 171.371 23.0703 171.371 23.5469V27.5H170.449V26.6875H170.402C170.34 26.8177 170.236 26.957 170.09 27.1055C169.944 27.2539 169.75 27.3802 169.508 27.4844C169.266 27.5885 168.97 27.6406 168.621 27.6406ZM168.762 26.8125C169.126 26.8125 169.434 26.7409 169.684 26.5977C169.936 26.4544 170.126 26.2695 170.254 26.043C170.384 25.8164 170.449 25.5781 170.449 25.3281V24.4844C170.41 24.5312 170.324 24.5742 170.191 24.6133C170.061 24.6497 169.91 24.6823 169.738 24.7109C169.569 24.737 169.404 24.7604 169.242 24.7812C169.083 24.7995 168.954 24.8151 168.855 24.8281C168.616 24.8594 168.392 24.9102 168.184 24.9805C167.978 25.0482 167.811 25.151 167.684 25.2891C167.559 25.4245 167.496 25.6094 167.496 25.8437C167.496 26.1641 167.615 26.4062 167.851 26.5703C168.091 26.7318 168.394 26.8125 168.762 26.8125ZM173.646 23.8906V27.5H172.724V21.5H173.614V22.4375H173.692C173.833 22.1328 174.047 21.888 174.333 21.7031C174.619 21.5156 174.989 21.4219 175.442 21.4219C175.849 21.4219 176.204 21.5052 176.509 21.6719C176.813 21.8359 177.05 22.0859 177.22 22.4219C177.389 22.7552 177.474 23.1771 177.474 23.6875V27.5H176.552V23.75C176.552 23.2786 176.429 22.9115 176.185 22.6484C175.94 22.3828 175.604 22.25 175.177 22.25C174.882 22.25 174.619 22.3138 174.388 22.4414C174.159 22.569 173.978 22.7552 173.845 23C173.712 23.2448 173.646 23.5417 173.646 23.8906ZM184.029 27.625C183.488 27.625 183.013 27.4961 182.604 27.2383C182.197 26.9805 181.88 26.6198 181.651 26.1562C181.424 25.6927 181.311 25.151 181.311 24.5312C181.311 23.9062 181.424 23.3607 181.651 22.8945C181.88 22.4284 182.197 22.0664 182.604 21.8086C183.013 21.5508 183.488 21.4219 184.029 21.4219C184.571 21.4219 185.045 21.5508 185.451 21.8086C185.86 22.0664 186.178 22.4284 186.404 22.8945C186.634 23.3607 186.748 23.9062 186.748 24.5312C186.748 25.151 186.634 25.6927 186.404 26.1562C186.178 26.6198 185.86 26.9805 185.451 27.2383C185.045 27.4961 184.571 27.625 184.029 27.625ZM184.029 26.7969C184.441 26.7969 184.779 26.6914 185.045 26.4805C185.311 26.2695 185.507 25.9922 185.635 25.6484C185.763 25.3047 185.826 24.9323 185.826 24.5312C185.826 24.1302 185.763 23.7565 185.635 23.4102C185.507 23.0638 185.311 22.7839 185.045 22.5703C184.779 22.3568 184.441 22.25 184.029 22.25C183.618 22.25 183.279 22.3568 183.014 22.5703C182.748 22.7839 182.552 23.0638 182.424 23.4102C182.296 23.7565 182.233 24.1302 182.233 24.5312C182.233 24.9323 182.296 25.3047 182.424 25.6484C182.552 25.9922 182.748 26.2695 183.014 26.4805C183.279 26.6914 183.618 26.7969 184.029 26.7969ZM187.825 27.5V21.5H188.716V22.4062H188.779C188.888 22.1094 189.086 21.8685 189.372 21.6836C189.659 21.4987 189.982 21.4062 190.341 21.4062C190.409 21.4062 190.493 21.4076 190.595 21.4102C190.697 21.4128 190.773 21.4167 190.825 21.4219V22.3594C190.794 22.3516 190.723 22.3398 190.611 22.3242C190.501 22.306 190.385 22.2969 190.263 22.2969C189.971 22.2969 189.711 22.3581 189.482 22.4805C189.255 22.6003 189.075 22.7669 188.943 22.9805C188.812 23.1914 188.747 23.4323 188.747 23.7031V27.5H187.825ZM193.671 27.625C193.171 27.625 192.73 27.4987 192.347 27.2461C191.964 26.9909 191.665 26.6315 191.449 26.168C191.232 25.7018 191.124 25.151 191.124 24.5156C191.124 23.8854 191.232 23.3385 191.449 22.875C191.665 22.4115 191.965 22.0534 192.351 21.8008C192.736 21.5482 193.182 21.4219 193.687 21.4219C194.077 21.4219 194.386 21.487 194.613 21.6172C194.842 21.7448 195.016 21.8906 195.136 22.0547C195.258 22.2161 195.353 22.349 195.421 22.4531H195.499V19.5H196.421V27.5H195.531V26.5781H195.421C195.353 26.6875 195.257 26.8255 195.132 26.9922C195.007 27.1562 194.829 27.3034 194.597 27.4336C194.365 27.5612 194.057 27.625 193.671 27.625ZM193.796 26.7969C194.166 26.7969 194.478 26.7005 194.734 26.5078C194.989 26.3125 195.183 26.043 195.316 25.6992C195.449 25.3529 195.515 24.9531 195.515 24.5C195.515 24.0521 195.45 23.6602 195.32 23.3242C195.189 22.9857 194.997 22.7227 194.742 22.5352C194.486 22.3451 194.171 22.25 193.796 22.25C193.406 22.25 193.08 22.3503 192.82 22.5508C192.562 22.7487 192.368 23.0182 192.238 23.3594C192.11 23.6979 192.046 24.0781 192.046 24.5C192.046 24.9271 192.111 25.3151 192.242 25.6641C192.374 26.0104 192.57 26.2865 192.827 26.4922C193.088 26.6953 193.411 26.7969 193.796 26.7969ZM200.423 27.625C199.845 27.625 199.346 27.4974 198.927 27.2422C198.51 26.9844 198.189 26.625 197.962 26.1641C197.738 25.7005 197.626 25.1615 197.626 24.5469C197.626 23.9323 197.738 23.3906 197.962 22.9219C198.189 22.4505 198.504 22.0833 198.908 21.8203C199.314 21.5547 199.788 21.4219 200.329 21.4219C200.642 21.4219 200.951 21.474 201.255 21.5781C201.56 21.6823 201.837 21.8516 202.087 22.0859C202.337 22.3177 202.537 22.625 202.685 23.0078C202.833 23.3906 202.908 23.862 202.908 24.4219V24.8125H198.283V24.0156H201.97C201.97 23.6771 201.902 23.375 201.767 23.1094C201.634 22.8437 201.444 22.6341 201.197 22.4805C200.952 22.3268 200.663 22.25 200.329 22.25C199.962 22.25 199.645 22.3411 199.376 22.5234C199.111 22.7031 198.906 22.9375 198.763 23.2266C198.62 23.5156 198.548 23.8255 198.548 24.1562V24.6875C198.548 25.1406 198.626 25.5247 198.783 25.8398C198.941 26.1523 199.162 26.3906 199.443 26.5547C199.724 26.7161 200.051 26.7969 200.423 26.7969C200.665 26.7969 200.884 26.763 201.079 26.6953C201.277 26.625 201.448 26.5208 201.591 26.3828C201.734 26.2422 201.845 26.0677 201.923 25.8594L202.814 26.1094C202.72 26.4115 202.563 26.6771 202.341 26.9062C202.12 27.1328 201.846 27.3099 201.521 27.4375C201.195 27.5625 200.829 27.625 200.423 27.625ZM203.98 27.5V21.5H204.871V22.4062H204.933C205.042 22.1094 205.24 21.8685 205.527 21.6836C205.813 21.4987 206.136 21.4062 206.496 21.4062C206.563 21.4062 206.648 21.4076 206.749 21.4102C206.851 21.4128 206.928 21.4167 206.98 21.4219V22.3594C206.949 22.3516 206.877 22.3398 206.765 22.3242C206.656 22.306 206.54 22.2969 206.417 22.2969C206.126 22.2969 205.865 22.3581 205.636 22.4805C205.41 22.6003 205.23 22.7669 205.097 22.9805C204.967 23.1914 204.902 23.4323 204.902 23.7031V27.5H203.98Z" fill="#101828"/>
<rect x="4" y="57" width="224" height="44" rx="8" fill="white"/>
<rect x="4.5" y="57.5" width="223" height="43" rx="7.5" stroke="url(#paint2_linear_8462_701)" stroke-opacity="0.1"/>
<path d="M40.987 90.5156C40.9798 90.6391 40.9684 90.7607 40.9519 90.8801C40.9432 90.9415 40.9336 91.0026 40.9228 91.0631C40.9184 91.0876 40.9132 91.1149 40.907 91.145C40.9051 91.1565 40.9033 91.168 40.9011 91.1791C40.8986 91.1912 40.8958 91.2036 40.8933 91.216C40.8933 91.2167 40.893 91.2173 40.893 91.2176C40.8915 91.2254 40.8893 91.2334 40.8874 91.2412C40.8803 91.2759 40.871 91.3125 40.8617 91.351C40.8592 91.3609 40.8568 91.3712 40.8543 91.3814C40.849 91.4019 40.8431 91.4227 40.8369 91.4441C40.822 91.4983 40.8056 91.5523 40.7879 91.6057C40.7839 91.6168 40.7802 91.628 40.7759 91.6395V91.6401L40.7641 91.6752C40.743 91.7369 40.7194 91.7977 40.6937 91.8576C40.6779 91.8954 40.6612 91.9339 40.6435 91.9727C40.6311 91.9987 40.619 92.0251 40.6057 92.0518C40.5812 92.102 40.5558 92.152 40.5285 92.1994C40.5155 92.2236 40.5022 92.2488 40.4873 92.2733C40.4237 92.3815 40.3558 92.487 40.2808 92.5884C40.2055 92.6899 40.1249 92.7885 40.0394 92.8841C40.0338 92.8918 40.0267 92.8971 40.0211 92.9036C40.0009 92.9269 39.9795 92.9501 39.9575 92.9734C39.9408 92.9911 39.924 93.0082 39.9073 93.0249C39.8906 93.0417 39.8741 93.0578 39.8577 93.0736C39.8239 93.1077 39.7883 93.1422 39.7517 93.1754L39.748 93.1791C39.7058 93.2188 39.6606 93.256 39.6138 93.2883C39.6128 93.2892 39.6122 93.2898 39.6113 93.2904H39.611C39.5623 93.3255 39.5105 93.3565 39.4572 93.382C39.4572 93.3848 39.4551 93.3848 39.4551 93.3848C39.4513 93.3866 39.4458 93.39 39.442 93.3919C39.4021 93.4145 39.3618 93.4338 39.3181 93.4508H39.3162C39.2027 93.4939 39.0837 93.5247 38.9606 93.5402L30.2966 94.6709C30.1103 94.6945 29.9187 94.6852 29.7358 94.6337C29.6403 94.6064 29.5436 94.5769 29.4482 94.5459C29.3223 94.5056 29.1986 94.4634 29.0777 94.4196C28.9265 94.3675 28.7712 94.3089 28.6146 94.249C27.9873 94.0095 27.288 93.659 27.288 93.659C27.1296 93.5799 26.9594 93.4918 26.7784 93.3944C26.3267 93.1499 26.2762 92.5202 26.6819 92.2053L30.1468 89.5176C30.4072 89.316 30.7714 89.3191 31.0284 89.5251C31.5544 89.9476 32.0805 90.3701 32.6065 90.7926V90.7811C32.6065 90.7051 32.6049 90.6282 32.6028 90.55C32.6012 90.4979 32.5994 90.4452 32.5966 90.3921C32.5851 90.153 32.5646 89.9042 32.5352 89.6454C32.5287 89.588 32.5216 89.53 32.5141 89.4717C32.5073 89.4156 32.5002 89.3588 32.4918 89.3027C32.4887 89.2837 32.4856 89.2651 32.4828 89.2462C32.4769 89.2037 32.4704 89.1606 32.4642 89.1178C32.4512 89.0315 32.4376 88.9444 32.4227 88.8566C32.3855 88.6369 32.3421 88.4108 32.2925 88.1791C32.1415 87.4451 31.9298 86.6531 31.6623 85.8084C29.8217 80.4442 27.9807 75.0794 26.1401 69.7152C24.2208 74.0513 20.7847 81.806 20.1204 83.255C18.6871 86.3721 18.0699 88.9791 18.3229 90.7501C18.3542 90.9862 18.4028 91.2061 18.4704 91.4115C18.4757 91.4313 18.481 91.4534 18.489 91.4732L18.49 91.4723C18.5647 91.7146 18.8071 92.3936 19.4933 92.9027C20.0321 93.3035 20.5786 93.4018 20.8374 93.4304C20.8578 93.4279 20.878 93.426 20.8981 93.4235C20.8777 93.4263 20.8572 93.4285 20.8374 93.4316C18.251 93.7623 15.6652 94.0923 13.0803 94.423C12.792 94.4599 12.4982 94.46 12.2136 94.4023C11.9458 94.347 11.6975 94.2565 11.4706 94.129C10.8162 93.7601 10.3733 93.1015 10.1544 92.1743C10.1244 92.0558 10.0996 91.9308 10.0807 91.802C10.0742 91.7605 10.0661 91.7186 10.0633 91.6749C9.78774 89.6938 10.4148 86.8237 11.8866 83.3276C12.8137 81.1251 19.1552 65.4882 19.219 65.3315C19.555 64.5166 20.1458 63.8878 20.8845 63.5624C21.3994 63.3353 21.8699 63.3133 22.1842 63.3167C24.4694 63.3443 30.3672 64.7304 30.7869 64.8309C31.1459 64.9506 31.6174 65.1656 32.06 65.5596C32.5485 66.0001 32.7962 66.4685 32.8985 66.6943C33.4326 67.8579 34.8191 71.457 36.5804 76.3751C36.6079 76.4533 36.6365 76.5302 36.6644 76.61C36.6758 76.6379 36.6833 76.6615 36.6901 76.6816C36.7518 76.8491 36.7586 76.8473 37.5431 78.8987C38.9089 82.4665 39.5958 84.262 39.7635 84.798C39.8097 84.9491 39.8559 85.0965 39.903 85.2435C40.3134 86.5579 40.6652 87.7234 40.8524 88.7669C40.924 89.1556 40.9699 89.5279 40.9885 89.8812V89.8818C40.9922 89.9544 40.995 90.0261 40.9959 90.0974C40.9984 90.2398 40.9959 90.3794 40.9879 90.5159L40.987 90.5156Z" fill="url(#paint3_linear_8462_701)"/>
<path opacity="0.83" d="M26.2422 69.4902C26.7654 68.3517 27.0664 67.6699 27.1963 67.3358C27.2282 67.2539 27.3441 66.9464 27.5537 66.5764C27.5989 66.4963 27.6451 66.4194 27.6916 66.3459C27.8072 66.1753 27.9951 65.9367 28.2784 65.7115C28.8866 65.2279 29.5323 65.1255 29.8177 65.0991C30.0406 65.0786 30.3816 65.0731 30.7883 65.1717C31.0409 65.2338 31.4578 65.3727 31.8716 65.7028C32.1404 65.9172 32.3236 66.1452 32.4432 66.322C32.3818 66.4054 32.318 66.4879 32.252 66.5695C31.4401 67.5706 29.7623 69.0385 26.2422 69.4905V69.4902Z" fill="url(#paint4_linear_8462_701)" style="mix-blend-mode:multiply"/>
<path d="M40.9284 91.0633C40.8931 91.2606 40.8168 91.6282 40.611 92.0511C40.3252 92.638 39.9263 93.0388 39.6157 93.2901C38.8085 93.3412 37.3929 93.327 35.7751 92.7307C34.2413 92.1655 33.1924 91.3233 32.6112 90.7801C32.6093 90.375 32.5783 89.9379 32.5182 89.4704C32.5098 89.395 32.4996 89.3199 32.4872 89.2446C32.4385 88.9036 32.3765 88.5487 32.2969 88.1777C33.1366 88.7513 34.702 89.6612 36.8705 90.004C38.6182 90.2813 40.0751 90.0806 40.9929 89.8811C41.0143 90.2984 40.9948 90.6911 40.9284 91.0633Z" fill="url(#paint5_linear_8462_701)" style="mix-blend-mode:multiply"/>
<path d="M35.2596 78.1053C35.0361 78.7304 34.7556 79.4432 34.5901 79.827C34.2928 80.5172 34.312 80.5429 34.0526 81.1621C33.6161 82.202 32.8201 84.0989 31.6649 85.8066V85.8076C31.6649 85.8076 31.6645 85.8076 31.6642 85.8076C31.6614 85.8113 31.659 85.8153 31.6559 85.8187C31.0781 86.6092 30.3871 87.4371 29.5611 88.2617C28.8999 88.9184 28.2232 89.5038 27.5456 90.024C27.4737 90.0783 27.4036 90.1307 27.3367 90.1816C27.3128 90.1999 27.288 90.2182 27.2641 90.2356C27.2124 90.2734 27.1615 90.3109 27.1098 90.3488C26.9768 90.4465 26.8438 90.5408 26.7105 90.6329C26.6513 90.6742 26.5921 90.7145 26.5326 90.7552C25.758 91.2785 24.9923 91.7205 24.2565 92.0968C24.2552 92.0968 24.254 92.0975 24.2527 92.0987C23.7066 92.3779 23.1781 92.6211 22.6756 92.8302C22.2444 93.0098 21.8318 93.1658 21.4459 93.302C21.2913 93.3566 21.1307 93.3938 20.9673 93.4146C20.9351 93.419 20.9029 93.4227 20.8706 93.4264H20.8133C20.5451 93.3945 20.0166 93.2896 19.4956 92.9018C18.8093 92.3928 18.5669 91.7134 18.4922 91.4714C18.5746 91.401 18.6583 91.3303 18.7408 91.2571C18.782 91.2202 18.8245 91.1842 18.8657 91.1473C18.9503 91.0741 19.0337 90.9996 19.1183 90.9217C19.203 90.8448 19.2876 90.7673 19.3731 90.6875C19.4605 90.6072 19.5489 90.5247 19.6363 90.4397C19.7708 90.3122 19.9016 90.1853 20.0287 90.0584C20.1096 89.9787 20.1887 89.8999 20.2646 89.8211C20.2646 89.8211 20.3942 89.6896 20.521 89.5577C23.6641 86.2977 25.3451 83.1894 25.3451 83.1894C26.1086 81.7776 27.093 79.5999 27.6956 76.705C27.761 76.3904 28.0391 76.1658 28.3602 76.1705C30.5592 76.2015 32.7581 76.2325 34.9571 76.2635C35.4056 76.2697 35.7206 76.7075 35.5854 77.1352C35.4676 77.5081 35.3566 77.8332 35.2593 78.1053H35.2596Z" fill="url(#paint6_linear_8462_701)"/>
<g style="mix-blend-mode:multiply">
<path d="M35.2596 78.1048C35.0361 78.7299 34.7556 79.4427 34.5901 79.8265C34.2928 80.5167 34.312 80.5424 34.0526 81.1616C33.6161 82.2015 32.8201 84.0984 31.6649 85.8062V85.8071C31.6649 85.8071 31.6645 85.8071 31.6642 85.8071C31.6614 85.8108 31.659 85.8148 31.6559 85.8182C31.0781 86.6087 30.3871 87.4366 29.5611 88.2612C28.8999 88.9179 28.2232 89.5033 27.5456 90.0235C27.4737 90.0778 27.4036 90.1302 27.3367 90.1811C27.3128 90.1994 27.288 90.2177 27.2641 90.2351C27.2124 90.2729 27.1615 90.3104 27.1098 90.3483C26.9768 90.446 26.8438 90.5403 26.7105 90.6324C26.6513 90.6737 26.5921 90.714 26.5326 90.7547C25.758 91.278 24.9923 91.7201 24.2565 92.0963C24.2552 92.0963 24.254 92.097 24.2527 92.0982C23.7066 92.3774 23.1781 92.6206 22.6756 92.8297C22.2444 93.0093 21.8318 93.1653 21.4459 93.3015C21.2913 93.3561 21.1307 93.3933 20.9673 93.4141C20.9351 93.4185 20.9029 93.4222 20.8706 93.4259H20.8133C20.5451 93.394 20.0166 93.2891 19.4956 92.9013C18.8093 92.3923 18.5669 91.7129 18.4922 91.471C18.5746 91.4005 18.6583 91.3298 18.7408 91.2566C18.782 91.2197 18.8245 91.1837 18.8657 91.1468C18.9503 91.0736 19.0337 90.9991 19.1183 90.9213C19.203 90.8443 19.2876 90.7668 19.3731 90.687C19.4605 90.6067 19.5489 90.5242 19.6363 90.4392C19.7708 90.3117 19.9016 90.1848 20.0287 90.0579C20.1096 89.9782 20.1887 89.8994 20.2646 89.8206C20.2646 89.8206 20.3942 89.6891 20.521 89.5572C23.6641 86.2972 25.3451 83.1889 25.3451 83.1889C26.1086 81.7771 27.093 79.5994 27.6956 76.7045C27.761 76.3899 28.0391 76.1653 28.3602 76.17C30.5592 76.201 32.7581 76.232 34.9571 76.2631C35.4056 76.2693 35.7206 76.707 35.5854 77.1348C35.4676 77.5076 35.3566 77.8327 35.2593 78.1048H35.2596Z" fill="url(#paint7_linear_8462_701)"/>
</g>
<path d="M50.2969 83.5H49.2813L52.2188 75.5H53.2188L56.1563 83.5H55.1406L52.75 76.7656H52.6875L50.2969 83.5ZM50.6719 80.375H54.7656V81.2344H50.6719V80.375ZM57.0723 83.5V75.5H59.7755C60.4005 75.5 60.9135 75.6068 61.3145 75.8203C61.7156 76.0312 62.0124 76.3216 62.2052 76.6914C62.3979 77.0612 62.4942 77.4818 62.4942 77.9531C62.4942 78.4245 62.3979 78.8424 62.2052 79.207C62.0124 79.5716 61.7169 79.8581 61.3184 80.0664C60.92 80.2721 60.4109 80.375 59.7911 80.375H57.6036V79.5H59.7598C60.1869 79.5 60.5307 79.4375 60.7911 79.3125C61.0541 79.1875 61.2442 79.0104 61.3614 78.7812C61.4812 78.5495 61.5411 78.2734 61.5411 77.9531C61.5411 77.6328 61.4812 77.3529 61.3614 77.1133C61.2416 76.8737 61.0502 76.6888 60.7872 76.5586C60.5242 76.4258 60.1765 76.3594 59.7442 76.3594H58.0411V83.5H57.0723ZM60.838 79.9062L62.8067 83.5H61.6817L59.7442 79.9062H60.838ZM64.7472 75.5V83.5H63.7785V75.5H64.7472ZM67.3284 75.5V83.5H66.3596V75.5H67.3284ZM69.2689 83.5H68.2532L71.1907 75.5H72.1907L75.1282 83.5H74.1126L71.722 76.7656H71.6595L69.2689 83.5ZM69.6439 80.375H73.7376V81.2344H69.6439V80.375ZM82.9331 78.8437L82.105 79.0781C82.0529 78.9401 81.9761 78.806 81.8745 78.6758C81.7755 78.543 81.6401 78.4336 81.4682 78.3477C81.2964 78.2617 81.0763 78.2187 80.8081 78.2187C80.4409 78.2187 80.1349 78.3034 79.8901 78.4727C79.6479 78.6393 79.5268 78.8516 79.5268 79.1094C79.5268 79.3385 79.6102 79.5195 79.7768 79.6523C79.9435 79.7852 80.2039 79.8958 80.5581 79.9844L81.4487 80.2031C81.9852 80.3333 82.3849 80.5326 82.6479 80.8008C82.911 81.0664 83.0425 81.4089 83.0425 81.8281C83.0425 82.1719 82.9435 82.4792 82.7456 82.75C82.5503 83.0208 82.2768 83.2344 81.9253 83.3906C81.5737 83.5469 81.1649 83.625 80.6987 83.625C80.0867 83.625 79.5802 83.4922 79.1792 83.2266C78.7781 82.9609 78.5242 82.5729 78.4175 82.0625L79.2925 81.8437C79.3758 82.1667 79.5333 82.4089 79.7651 82.5703C79.9995 82.7318 80.3055 82.8125 80.6831 82.8125C81.1128 82.8125 81.4539 82.7214 81.7065 82.5391C81.9617 82.3542 82.0893 82.1328 82.0893 81.875C82.0893 81.6667 82.0164 81.4922 81.8706 81.3516C81.7248 81.2083 81.5008 81.1016 81.1987 81.0312L80.1987 80.7969C79.6492 80.6667 79.2456 80.4648 78.9878 80.1914C78.7326 79.9154 78.605 79.5703 78.605 79.1562C78.605 78.8177 78.7 78.5182 78.8901 78.2578C79.0828 77.9974 79.3445 77.793 79.6753 77.6445C80.0086 77.4961 80.3862 77.4219 80.8081 77.4219C81.4018 77.4219 81.868 77.5521 82.2065 77.8125C82.5477 78.0729 82.7899 78.4167 82.9331 78.8437ZM86.6158 83.625C86.0377 83.625 85.539 83.4974 85.1197 83.2422C84.703 82.9844 84.3814 82.625 84.1548 82.1641C83.9309 81.7005 83.8189 81.1615 83.8189 80.5469C83.8189 79.9323 83.9309 79.3906 84.1548 78.9219C84.3814 78.4505 84.6965 78.0833 85.1002 77.8203C85.5064 77.5547 85.9804 77.4219 86.522 77.4219C86.8345 77.4219 87.1431 77.474 87.4478 77.5781C87.7525 77.6823 88.0298 77.8516 88.2798 78.0859C88.5298 78.3177 88.7291 78.625 88.8775 79.0078C89.0259 79.3906 89.1002 79.862 89.1002 80.4219V80.8125H84.4752V80.0156H88.1627C88.1627 79.6771 88.0949 79.375 87.9595 79.1094C87.8267 78.8437 87.6366 78.6341 87.3892 78.4805C87.1444 78.3268 86.8554 78.25 86.522 78.25C86.1548 78.25 85.8371 78.3411 85.5689 78.5234C85.3033 78.7031 85.0989 78.9375 84.9556 79.2266C84.8124 79.5156 84.7408 79.8255 84.7408 80.1562V80.6875C84.7408 81.1406 84.8189 81.5247 84.9752 81.8398C85.134 82.1523 85.3541 82.3906 85.6353 82.5547C85.9166 82.7161 86.2434 82.7969 86.6158 82.7969C86.858 82.7969 87.0767 82.763 87.272 82.6953C87.4699 82.625 87.6405 82.5208 87.7837 82.3828C87.927 82.2422 88.0377 82.0677 88.1158 81.8594L89.0064 82.1094C88.9127 82.4115 88.7551 82.6771 88.5337 82.9062C88.3124 83.1328 88.039 83.3099 87.7134 83.4375C87.3879 83.5625 87.022 83.625 86.6158 83.625ZM91.0944 79.8906V83.5H90.1725V77.5H91.0631V78.4375H91.1413C91.2819 78.1328 91.4954 77.888 91.7819 77.7031C92.0683 77.5156 92.4381 77.4219 92.8913 77.4219C93.2975 77.4219 93.653 77.5052 93.9577 77.6719C94.2623 77.8359 94.4993 78.0859 94.6686 78.4219C94.8379 78.7552 94.9225 79.1771 94.9225 79.6875V83.5H94.0006V79.75C94.0006 79.2786 93.8782 78.9115 93.6334 78.6484C93.3886 78.3828 93.0527 78.25 92.6256 78.25C92.3314 78.25 92.0683 78.3138 91.8366 78.4414C91.6074 78.569 91.4264 78.7552 91.2936 79C91.1608 79.2448 91.0944 79.5417 91.0944 79.8906ZM98.5427 83.625C98.0427 83.625 97.6013 83.4987 97.2185 83.2461C96.8357 82.9909 96.5362 82.6315 96.32 82.168C96.1039 81.7018 95.9958 81.151 95.9958 80.5156C95.9958 79.8854 96.1039 79.3385 96.32 78.875C96.5362 78.4115 96.837 78.0534 97.2224 77.8008C97.6078 77.5482 98.0531 77.4219 98.5583 77.4219C98.9489 77.4219 99.2575 77.487 99.4841 77.6172C99.7133 77.7448 99.8877 77.8906 100.008 78.0547C100.13 78.2161 100.225 78.349 100.293 78.4531H100.371V75.5H101.293V83.5H100.402V82.5781H100.293C100.225 82.6875 100.129 82.8255 100.004 82.9922C99.8786 83.1562 99.7002 83.3034 99.4685 83.4336C99.2367 83.5612 98.9281 83.625 98.5427 83.625ZM98.6677 82.7969C99.0375 82.7969 99.35 82.7005 99.6052 82.5078C99.8604 82.3125 100.054 82.043 100.187 81.6992C100.32 81.3529 100.386 80.9531 100.386 80.5C100.386 80.0521 100.321 79.6602 100.191 79.3242C100.061 78.9857 99.8682 78.7227 99.613 78.5352C99.3578 78.3451 99.0427 78.25 98.6677 78.25C98.2771 78.25 97.9515 78.3503 97.6911 78.5508C97.4333 78.7487 97.2393 79.0182 97.1091 79.3594C96.9815 79.6979 96.9177 80.0781 96.9177 80.5C96.9177 80.9271 96.9828 81.3151 97.113 81.6641C97.2458 82.0104 97.4411 82.2865 97.6989 82.4922C97.9594 82.6953 98.2823 82.7969 98.6677 82.7969ZM107.029 78.8437L106.201 79.0781C106.149 78.9401 106.072 78.806 105.971 78.6758C105.872 78.543 105.736 78.4336 105.564 78.3477C105.392 78.2617 105.172 78.2187 104.904 78.2187C104.537 78.2187 104.231 78.3034 103.986 78.4727C103.744 78.6393 103.623 78.8516 103.623 79.1094C103.623 79.3385 103.706 79.5195 103.873 79.6523C104.04 79.7852 104.3 79.8958 104.654 79.9844L105.545 80.2031C106.081 80.3333 106.481 80.5326 106.744 80.8008C107.007 81.0664 107.138 81.4089 107.138 81.8281C107.138 82.1719 107.04 82.4792 106.842 82.75C106.646 83.0208 106.373 83.2344 106.021 83.3906C105.67 83.5469 105.261 83.625 104.795 83.625C104.183 83.625 103.676 83.4922 103.275 83.2266C102.874 82.9609 102.62 82.5729 102.513 82.0625L103.388 81.8437C103.472 82.1667 103.629 82.4089 103.861 82.5703C104.096 82.7318 104.401 82.8125 104.779 82.8125C105.209 82.8125 105.55 82.7214 105.803 82.5391C106.058 82.3542 106.185 82.1328 106.185 81.875C106.185 81.6667 106.112 81.4922 105.967 81.3516C105.821 81.2083 105.597 81.1016 105.295 81.0312L104.295 80.7969C103.745 80.6667 103.342 80.4648 103.084 80.1914C102.829 79.9154 102.701 79.5703 102.701 79.1562C102.701 78.8177 102.796 78.5182 102.986 78.2578C103.179 77.9974 103.441 77.793 103.771 77.6445C104.105 77.4961 104.482 77.4219 104.904 77.4219C105.498 77.4219 105.964 77.5521 106.303 77.8125C106.644 78.0729 106.886 78.4167 107.029 78.8437ZM113.397 83.625C112.856 83.625 112.38 83.4961 111.972 83.2383C111.565 82.9805 111.248 82.6198 111.019 82.1562C110.792 81.6927 110.679 81.151 110.679 80.5312C110.679 79.9062 110.792 79.3607 111.019 78.8945C111.248 78.4284 111.565 78.0664 111.972 77.8086C112.38 77.5508 112.856 77.4219 113.397 77.4219C113.939 77.4219 114.413 77.5508 114.819 77.8086C115.228 78.0664 115.546 78.4284 115.772 78.8945C116.002 79.3607 116.116 79.9062 116.116 80.5312C116.116 81.151 116.002 81.6927 115.772 82.1562C115.546 82.6198 115.228 82.9805 114.819 83.2383C114.413 83.4961 113.939 83.625 113.397 83.625ZM113.397 82.7969C113.809 82.7969 114.147 82.6914 114.413 82.4805C114.679 82.2695 114.875 81.9922 115.003 81.6484C115.13 81.3047 115.194 80.9323 115.194 80.5312C115.194 80.1302 115.13 79.7565 115.003 79.4102C114.875 79.0638 114.679 78.7839 114.413 78.5703C114.147 78.3568 113.809 78.25 113.397 78.25C112.986 78.25 112.647 78.3568 112.382 78.5703C112.116 78.7839 111.92 79.0638 111.792 79.4102C111.664 79.7565 111.601 80.1302 111.601 80.5312C111.601 80.9323 111.664 81.3047 111.792 81.6484C111.92 81.9922 112.116 82.2695 112.382 82.4805C112.647 82.6914 112.986 82.7969 113.397 82.7969ZM117.193 83.5V77.5H118.084V78.4062H118.147C118.256 78.1094 118.454 77.8685 118.74 77.6836C119.027 77.4987 119.35 77.4062 119.709 77.4062C119.777 77.4062 119.861 77.4076 119.963 77.4102C120.064 77.4128 120.141 77.4167 120.193 77.4219V78.3594C120.162 78.3516 120.091 78.3398 119.979 78.3242C119.869 78.306 119.753 78.2969 119.631 78.2969C119.339 78.2969 119.079 78.3581 118.85 78.4805C118.623 78.6003 118.443 78.7669 118.311 78.9805C118.18 79.1914 118.115 79.4323 118.115 79.7031V83.5H117.193ZM123.039 83.625C122.539 83.625 122.098 83.4987 121.715 83.2461C121.332 82.9909 121.033 82.6315 120.817 82.168C120.6 81.7018 120.492 81.151 120.492 80.5156C120.492 79.8854 120.6 79.3385 120.817 78.875C121.033 78.4115 121.333 78.0534 121.719 77.8008C122.104 77.5482 122.55 77.4219 123.055 77.4219C123.445 77.4219 123.754 77.487 123.981 77.6172C124.21 77.7448 124.384 77.8906 124.504 78.0547C124.626 78.2161 124.721 78.349 124.789 78.4531H124.867V75.5H125.789V83.5H124.899V82.5781H124.789C124.721 82.6875 124.625 82.8255 124.5 82.9922C124.375 83.1562 124.197 83.3034 123.965 83.4336C123.733 83.5612 123.425 83.625 123.039 83.625ZM123.164 82.7969C123.534 82.7969 123.846 82.7005 124.102 82.5078C124.357 82.3125 124.551 82.043 124.684 81.6992C124.817 81.3529 124.883 80.9531 124.883 80.5C124.883 80.0521 124.818 79.6602 124.688 79.3242C124.557 78.9857 124.365 78.7227 124.109 78.5352C123.854 78.3451 123.539 78.25 123.164 78.25C122.774 78.25 122.448 78.3503 122.188 78.5508C121.93 78.7487 121.736 79.0182 121.606 79.3594C121.478 79.6979 121.414 80.0781 121.414 80.5C121.414 80.9271 121.479 81.3151 121.609 81.6641C121.742 82.0104 121.938 82.2865 122.195 82.4922C122.456 82.6953 122.779 82.7969 123.164 82.7969ZM129.791 83.625C129.213 83.625 128.714 83.4974 128.295 83.2422C127.878 82.9844 127.557 82.625 127.33 82.1641C127.106 81.7005 126.994 81.1615 126.994 80.5469C126.994 79.9323 127.106 79.3906 127.33 78.9219C127.557 78.4505 127.872 78.0833 128.276 77.8203C128.682 77.5547 129.156 77.4219 129.697 77.4219C130.01 77.4219 130.319 77.474 130.623 77.5781C130.928 77.6823 131.205 77.8516 131.455 78.0859C131.705 78.3177 131.904 78.625 132.053 79.0078C132.201 79.3906 132.276 79.862 132.276 80.4219V80.8125H127.651V80.0156H131.338C131.338 79.6771 131.27 79.375 131.135 79.1094C131.002 78.8437 130.812 78.6341 130.565 78.4805C130.32 78.3268 130.031 78.25 129.697 78.25C129.33 78.25 129.013 78.3411 128.744 78.5234C128.479 78.7031 128.274 78.9375 128.131 79.2266C127.988 79.5156 127.916 79.8255 127.916 80.1562V80.6875C127.916 81.1406 127.994 81.5247 128.151 81.8398C128.309 82.1523 128.529 82.3906 128.811 82.5547C129.092 82.7161 129.419 82.7969 129.791 82.7969C130.033 82.7969 130.252 82.763 130.447 82.6953C130.645 82.625 130.816 82.5208 130.959 82.3828C131.102 82.2422 131.213 82.0677 131.291 81.8594L132.182 82.1094C132.088 82.4115 131.931 82.6771 131.709 82.9062C131.488 83.1328 131.214 83.3099 130.889 83.4375C130.563 83.5625 130.197 83.625 129.791 83.625ZM133.348 83.5V77.5H134.239V78.4062H134.301C134.41 78.1094 134.608 77.8685 134.895 77.6836C135.181 77.4987 135.504 77.4062 135.864 77.4062C135.931 77.4062 136.016 77.4076 136.117 77.4102C136.219 77.4128 136.296 77.4167 136.348 77.4219V78.3594C136.317 78.3516 136.245 78.3398 136.133 78.3242C136.024 78.306 135.908 78.2969 135.785 78.2969C135.494 78.2969 135.233 78.3581 135.004 78.4805C134.778 78.6003 134.598 78.7669 134.465 78.9805C134.335 79.1914 134.27 79.4323 134.27 79.7031V83.5H133.348ZM142.484 77.5V78.2812H139.374V77.5H142.484ZM140.281 76.0625H141.203V81.7812C141.203 82.0417 141.24 82.237 141.316 82.3672C141.394 82.4948 141.493 82.5807 141.613 82.625C141.735 82.6667 141.864 82.6875 141.999 82.6875C142.101 82.6875 142.184 82.6823 142.249 82.6719C142.315 82.6589 142.367 82.6484 142.406 82.6406L142.593 83.4687C142.531 83.4922 142.443 83.5156 142.331 83.5391C142.22 83.5651 142.078 83.5781 141.906 83.5781C141.645 83.5781 141.39 83.5221 141.14 83.4102C140.893 83.2982 140.687 83.1276 140.523 82.8984C140.361 82.6693 140.281 82.3802 140.281 82.0312V76.0625ZM145.914 83.625C145.372 83.625 144.897 83.4961 144.488 83.2383C144.082 82.9805 143.764 82.6198 143.535 82.1562C143.308 81.6927 143.195 81.151 143.195 80.5312C143.195 79.9062 143.308 79.3607 143.535 78.8945C143.764 78.4284 144.082 78.0664 144.488 77.8086C144.897 77.5508 145.372 77.4219 145.914 77.4219C146.455 77.4219 146.929 77.5508 147.335 77.8086C147.744 78.0664 148.062 78.4284 148.289 78.8945C148.518 79.3607 148.632 79.9062 148.632 80.5312C148.632 81.151 148.518 81.6927 148.289 82.1562C148.062 82.6198 147.744 82.9805 147.335 83.2383C146.929 83.4961 146.455 83.625 145.914 83.625ZM145.914 82.7969C146.325 82.7969 146.664 82.6914 146.929 82.4805C147.195 82.2695 147.391 81.9922 147.519 81.6484C147.647 81.3047 147.71 80.9323 147.71 80.5312C147.71 80.1302 147.647 79.7565 147.519 79.4102C147.391 79.0638 147.195 78.7839 146.929 78.5703C146.664 78.3568 146.325 78.25 145.914 78.25C145.502 78.25 145.164 78.3568 144.898 78.5703C144.632 78.7839 144.436 79.0638 144.308 79.4102C144.181 79.7565 144.117 80.1302 144.117 80.5312C144.117 80.9323 144.181 81.3047 144.308 81.6484C144.436 81.9922 144.632 82.2695 144.898 82.4805C145.164 82.6914 145.502 82.7969 145.914 82.7969ZM153.067 85.75C152.911 85.75 152.771 85.737 152.649 85.7109C152.527 85.6875 152.442 85.6641 152.395 85.6406L152.63 84.8281C152.854 84.8854 153.051 84.9063 153.223 84.8906C153.395 84.875 153.548 84.7982 153.68 84.6602C153.816 84.5247 153.939 84.3047 154.051 84L154.223 83.5313L152.005 77.5H153.005L154.661 82.2812H154.723L156.38 77.5H157.38L154.833 84.375C154.718 84.6849 154.576 84.9414 154.407 85.1445C154.238 85.3503 154.041 85.5026 153.817 85.6016C153.596 85.7005 153.346 85.75 153.067 85.75ZM160.489 83.625C159.947 83.625 159.472 83.4961 159.063 83.2383C158.657 82.9805 158.339 82.6198 158.11 82.1562C157.884 81.6927 157.77 81.151 157.77 80.5312C157.77 79.9062 157.884 79.3607 158.11 78.8945C158.339 78.4284 158.657 78.0664 159.063 77.8086C159.472 77.5508 159.947 77.4219 160.489 77.4219C161.031 77.4219 161.505 77.5508 161.911 77.8086C162.32 78.0664 162.637 78.4284 162.864 78.8945C163.093 79.3607 163.208 79.9062 163.208 80.5312C163.208 81.151 163.093 81.6927 162.864 82.1562C162.637 82.6198 162.32 82.9805 161.911 83.2383C161.505 83.4961 161.031 83.625 160.489 83.625ZM160.489 82.7969C160.9 82.7969 161.239 82.6914 161.505 82.4805C161.77 82.2695 161.967 81.9922 162.094 81.6484C162.222 81.3047 162.286 80.9323 162.286 80.5312C162.286 80.1302 162.222 79.7565 162.094 79.4102C161.967 79.0638 161.77 78.7839 161.505 78.5703C161.239 78.3568 160.9 78.25 160.489 78.25C160.078 78.25 159.739 78.3568 159.473 78.5703C159.208 78.7839 159.011 79.0638 158.884 79.4102C158.756 79.7565 158.692 80.1302 158.692 80.5312C158.692 80.9323 158.756 81.3047 158.884 81.6484C159.011 81.9922 159.208 82.2695 159.473 82.4805C159.739 82.6914 160.078 82.7969 160.489 82.7969ZM168.066 81.0469V77.5H168.988V83.5H168.066V82.4844H168.004C167.863 82.7891 167.644 83.0482 167.347 83.2617C167.051 83.4727 166.676 83.5781 166.222 83.5781C165.847 83.5781 165.514 83.4961 165.222 83.332C164.931 83.1654 164.702 82.9154 164.535 82.582C164.368 82.2461 164.285 81.8229 164.285 81.3125V77.5H165.207V81.25C165.207 81.6875 165.329 82.0365 165.574 82.2969C165.821 82.5573 166.137 82.6875 166.519 82.6875C166.749 82.6875 166.982 82.6289 167.219 82.5117C167.458 82.3945 167.659 82.2148 167.82 81.9727C167.984 81.7305 168.066 81.4219 168.066 81.0469ZM170.347 83.5V77.5H171.237V78.4062H171.3C171.409 78.1094 171.607 77.8685 171.893 77.6836C172.18 77.4987 172.503 77.4062 172.862 77.4062C172.93 77.4062 173.015 77.4076 173.116 77.4102C173.218 77.4128 173.295 77.4167 173.347 77.4219V78.3594C173.315 78.3516 173.244 78.3398 173.132 78.3242C173.022 78.306 172.906 78.2969 172.784 78.2969C172.492 78.2969 172.232 78.3581 172.003 78.4805C171.776 78.6003 171.597 78.7669 171.464 78.9805C171.334 79.1914 171.268 79.4323 171.268 79.7031V83.5H170.347ZM176.998 83.5V75.5H179.701C180.329 75.5 180.842 75.6133 181.24 75.8398C181.641 76.0638 181.938 76.3672 182.131 76.75C182.324 77.1328 182.42 77.5599 182.42 78.0312C182.42 78.5026 182.324 78.931 182.131 79.3164C181.941 79.7018 181.647 80.0091 181.248 80.2383C180.85 80.4648 180.339 80.5781 179.717 80.5781H177.779V79.7188H179.686C180.115 79.7188 180.46 79.6445 180.721 79.4961C180.981 79.3477 181.17 79.1471 181.287 78.8945C181.407 78.6393 181.467 78.3516 181.467 78.0312C181.467 77.7109 181.407 77.4245 181.287 77.1719C181.17 76.9193 180.98 76.7214 180.717 76.5781C180.454 76.4323 180.105 76.3594 179.67 76.3594H177.967V83.5H176.998ZM190.401 79.5C190.401 80.3437 190.248 81.0729 189.944 81.6875C189.639 82.3021 189.221 82.776 188.69 83.1094C188.158 83.4427 187.552 83.6094 186.869 83.6094C186.187 83.6094 185.58 83.4427 185.049 83.1094C184.518 82.776 184.1 82.3021 183.795 81.6875C183.49 81.0729 183.338 80.3437 183.338 79.5C183.338 78.6562 183.49 77.9271 183.795 77.3125C184.1 76.6979 184.518 76.224 185.049 75.8906C185.58 75.5573 186.187 75.3906 186.869 75.3906C187.552 75.3906 188.158 75.5573 188.69 75.8906C189.221 76.224 189.639 76.6979 189.944 77.3125C190.248 77.9271 190.401 78.6562 190.401 79.5ZM189.463 79.5C189.463 78.8073 189.347 78.2227 189.115 77.7461C188.886 77.2695 188.575 76.9089 188.182 76.6641C187.791 76.4193 187.354 76.2969 186.869 76.2969C186.385 76.2969 185.946 76.4193 185.553 76.6641C185.162 76.9089 184.851 77.2695 184.619 77.7461C184.39 78.2227 184.276 78.8073 184.276 79.5C184.276 80.1927 184.39 80.7773 184.619 81.2539C184.851 81.7305 185.162 82.0911 185.553 82.3359C185.946 82.5807 186.385 82.7031 186.869 82.7031C187.354 82.7031 187.791 82.5807 188.182 82.3359C188.575 82.0911 188.886 81.7305 189.115 81.2539C189.347 80.7773 189.463 80.1927 189.463 79.5ZM196.074 77.5C196.028 77.1042 195.837 76.7969 195.504 76.5781C195.171 76.3594 194.762 76.25 194.278 76.25C193.923 76.25 193.614 76.3073 193.348 76.4219C193.085 76.5365 192.879 76.694 192.731 76.8945C192.585 77.0951 192.512 77.3229 192.512 77.5781C192.512 77.7917 192.563 77.9753 192.664 78.1289C192.768 78.2799 192.901 78.4062 193.063 78.5078C193.224 78.6068 193.393 78.6888 193.571 78.7539C193.748 78.8164 193.91 78.8672 194.059 78.9062L194.871 79.125C195.08 79.1797 195.311 79.2552 195.567 79.3516C195.824 79.4479 196.071 79.5794 196.305 79.7461C196.542 79.9102 196.737 80.1211 196.891 80.3789C197.045 80.6367 197.121 80.9531 197.121 81.3281C197.121 81.7604 197.008 82.151 196.781 82.5C196.558 82.849 196.229 83.1263 195.797 83.332C195.367 83.5378 194.845 83.6406 194.231 83.6406C193.658 83.6406 193.162 83.5482 192.742 83.3633C192.326 83.1784 191.998 82.9206 191.758 82.5898C191.521 82.2591 191.387 81.875 191.356 81.4375H192.356C192.382 81.7396 192.483 81.9896 192.66 82.1875C192.84 82.3828 193.067 82.5286 193.34 82.625C193.616 82.7187 193.913 82.7656 194.231 82.7656C194.6 82.7656 194.933 82.7057 195.227 82.5859C195.521 82.4635 195.754 82.2943 195.926 82.0781C196.098 81.8594 196.184 81.6042 196.184 81.3125C196.184 81.0469 196.11 80.8307 195.961 80.6641C195.813 80.4974 195.617 80.362 195.375 80.2578C195.133 80.1536 194.871 80.0625 194.59 79.9844L193.606 79.7031C192.981 79.5234 192.486 79.2669 192.121 78.9336C191.757 78.6003 191.574 78.1641 191.574 77.625C191.574 77.1771 191.696 76.7865 191.938 76.4531C192.183 76.1172 192.511 75.8568 192.922 75.6719C193.336 75.4844 193.798 75.3906 194.309 75.3906C194.824 75.3906 195.283 75.4831 195.684 75.668C196.085 75.8503 196.403 76.1003 196.637 76.418C196.874 76.7357 196.999 77.0964 197.012 77.5H196.074Z" fill="#101828"/>
<rect x="4" y="113" width="224" height="44" rx="8" fill="white"/>
<rect x="4.5" y="113.5" width="223" height="43" rx="7.5" stroke="url(#paint8_linear_8462_701)" stroke-opacity="0.1"/>
<g clip-path="url(#clip0_8462_701)">
<path d="M10.0391 123H15.5951C15.6305 123.193 15.6482 123.368 15.6836 123.543C15.7013 123.701 15.7013 123.876 15.7013 124.016C15.7013 124.314 15.6659 124.647 15.5951 125.05H12.3747V126.661H14.905C14.9935 127.064 15.0289 127.397 15.0289 127.695C15.0289 127.993 14.9935 128.343 14.905 128.728H12.3747V132.688C11.9147 132.775 11.5254 132.81 11.2069 132.81C10.8884 132.81 10.4991 132.775 10.0391 132.688V123Z" fill="#D82C27"/>
<path d="M35.8492 130.743C35.9023 130.743 35.9731 130.761 36.0615 130.761H36.3093C36.6455 130.761 36.9817 130.726 37.2825 130.638C37.5833 130.55 37.8487 130.41 38.061 130.2C38.2733 129.99 38.4503 129.71 38.5741 129.342C38.698 128.974 38.7688 128.518 38.7688 127.958C38.7688 127.397 38.698 126.942 38.5741 126.574C38.4503 126.206 38.2733 125.908 38.061 125.698C37.8487 125.488 37.601 125.33 37.3002 125.242C37.017 125.155 36.7162 125.102 36.3977 125.102C36.2208 125.102 36.0969 125.102 36.0085 125.102C35.92 125.102 35.8846 125.102 35.8492 125.102V130.743ZM36.15 123.018C37.8133 123.018 39.0696 123.438 39.9189 124.261C40.7859 125.085 41.2106 126.329 41.2106 127.975C41.2106 129.639 40.7682 130.866 39.9012 131.654C39.0165 132.425 37.7248 132.828 36.0085 132.828C35.5661 132.828 35.1414 132.81 34.7345 132.775C34.3275 132.74 33.9205 132.688 33.5312 132.635V123.193C33.6551 123.175 33.8321 123.158 34.0267 123.14C34.2213 123.123 34.4514 123.105 34.6814 123.088C34.9114 123.07 35.1591 123.053 35.4069 123.035C35.6546 123.018 35.9023 123.018 36.15 123.018Z" fill="#D82C27"/>
<path d="M23.9687 125.996C23.8094 125.4 23.5617 124.875 23.2255 124.437C22.8893 123.999 22.4647 123.648 21.9515 123.403C21.4207 123.14 20.8014 123.018 20.0936 123.018C19.3681 123.018 18.7488 123.14 18.2357 123.403C17.7049 123.648 17.2802 123.999 16.944 124.437C16.6078 124.875 16.3601 125.4 16.2008 125.996C16.0416 126.591 15.9531 127.257 15.9531 127.958C15.9531 128.658 16.0416 129.307 16.2008 129.902C16.3601 130.498 16.6078 131.006 16.944 131.444C17.2802 131.882 17.7049 132.215 18.2357 132.46C18.6958 132.67 19.2266 132.793 19.8459 132.81C19.8459 131.426 19.8459 131.304 19.8459 131.181C19.8459 130.603 19.5628 130.323 19.2797 130.06C19.0496 129.867 18.8373 129.675 18.6781 128.991C18.5011 128.203 18.9966 126.118 19.1735 125.453C19.2089 125.33 19.2443 125.33 19.2443 125.453C19.2443 125.453 19.2797 127.467 19.2974 128.133C19.2974 128.168 19.2974 128.273 19.4035 128.273C19.492 128.273 19.5097 128.185 19.5097 128.133C19.6159 127.467 19.7751 125.453 19.7751 125.453C19.7928 125.312 19.8459 125.312 19.8459 125.453C19.8459 125.453 19.899 127.467 20.0051 128.15C20.0051 128.203 20.0228 128.273 20.1113 128.273H20.129C20.2175 128.273 20.2352 128.203 20.2352 128.15C20.3413 127.467 20.3944 125.453 20.3944 125.453C20.3944 125.312 20.4475 125.312 20.4652 125.453C20.4652 125.453 20.6244 127.467 20.7306 128.133C20.7306 128.168 20.7483 128.273 20.8368 128.273C20.9429 128.273 20.9429 128.185 20.9429 128.133C20.9783 127.467 20.996 125.453 20.996 125.453C20.996 125.312 21.0314 125.312 21.0668 125.453C21.2437 126.118 21.7392 128.203 21.5622 128.991C21.403 129.692 21.1907 129.867 20.9606 130.06C20.6775 130.323 20.3944 130.603 20.3944 131.181C20.3944 131.304 20.3944 131.426 20.3944 132.81C20.996 132.775 21.5092 132.67 21.9692 132.46C22.4823 132.215 22.907 131.882 23.2432 131.444C23.5794 131.006 23.8271 130.498 23.9864 129.902C24.1456 129.307 24.2341 128.658 24.2341 127.958C24.2164 127.257 24.1279 126.591 23.9687 125.996Z" fill="#D82C27"/>
<path d="M32.6718 125.996C32.5126 125.4 32.2648 124.875 31.9286 124.437C31.5924 123.999 31.1678 123.648 30.6546 123.403C30.1415 123.158 29.5222 123.018 28.7967 123.018C28.0713 123.018 27.452 123.14 26.9388 123.403C26.408 123.648 25.9833 123.999 25.6471 124.437C25.3109 124.875 25.0632 125.4 24.904 125.996C24.7447 126.591 24.6562 127.257 24.6562 127.958C24.6562 128.658 24.7447 129.307 24.904 129.902C25.0632 130.498 25.3109 131.006 25.6471 131.444C25.9833 131.882 26.408 132.215 26.9388 132.46C27.3635 132.653 27.8412 132.775 28.4075 132.81L28.4959 130.603C27.7351 130.358 27.1689 129.307 27.1689 128.028C27.1689 126.574 27.912 125.4 28.8144 125.4C29.7168 125.4 30.46 126.574 30.46 128.028C30.46 129.307 29.8938 130.358 29.1329 130.603L29.2214 132.81C29.7699 132.775 30.2477 132.653 30.6546 132.46C31.1678 132.215 31.5924 131.882 31.9286 131.444C32.2648 131.006 32.5126 130.498 32.6718 129.902C32.831 129.307 32.9195 128.658 32.9195 127.958C32.9195 127.257 32.831 126.609 32.6718 125.996Z" fill="#D82C27"/>
<path d="M18.0489 147.001C17.6065 147.001 17.058 146.948 16.4387 146.843V141.412H13.2183V146.843C12.5813 146.948 12.0505 147.001 11.6258 147.001C11.1835 147.001 10.6349 146.948 10.0156 146.843V133.634C10.3341 133.582 10.6349 133.547 10.9003 133.529C11.1658 133.512 11.3958 133.494 11.6081 133.494C11.8205 133.494 12.0682 133.512 12.3513 133.529C12.6167 133.547 12.9175 133.582 13.236 133.634V138.574H16.4564V133.634C16.7749 133.582 17.0757 133.547 17.3411 133.529C17.6065 133.512 17.8365 133.494 18.0666 133.494C18.2789 133.494 18.5266 133.512 18.8097 133.529C19.0751 133.547 19.3759 133.582 19.6944 133.634V146.843C19.0044 146.948 18.4735 147.001 18.0489 147.001Z" fill="#D82C27"/>
<path d="M25.8356 147C24.8624 147 24.0485 146.86 23.3938 146.597C22.7391 146.334 22.226 145.949 21.8544 145.441C21.4828 144.933 21.2174 144.32 21.0582 143.619C20.8989 142.901 20.8281 142.095 20.8281 141.201V133.651C21.182 133.598 21.4828 133.563 21.7305 133.546C21.9783 133.528 22.226 133.511 22.456 133.511C22.6683 133.511 22.8807 133.528 23.1461 133.546C23.3938 133.563 23.6946 133.598 24.0485 133.651V140.816C24.0485 141.429 24.0662 141.937 24.1193 142.357C24.1724 142.778 24.2608 143.128 24.3847 143.391C24.5086 143.654 24.6855 143.847 24.9155 143.969C25.1456 144.092 25.4464 144.144 25.8179 144.144C26.1895 144.144 26.508 144.092 26.738 143.969C26.9681 143.847 27.1627 143.671 27.2866 143.391C27.4104 143.128 27.4989 142.778 27.5343 142.357C27.5697 141.937 27.6051 141.411 27.6051 140.816V133.651C27.959 133.598 28.2775 133.563 28.5252 133.546C28.7729 133.528 29.0029 133.511 29.2153 133.511C29.4276 133.511 29.6753 133.528 29.923 133.546C30.1708 133.563 30.4716 133.598 30.8254 133.651V141.201C30.8254 142.095 30.7547 142.901 30.5954 143.619C30.4362 144.337 30.1884 144.95 29.7992 145.441C29.4276 145.949 28.9145 146.334 28.2598 146.597C27.6228 146.86 26.8088 147 25.8356 147Z" fill="#D82C27"/>
<path d="M35.1595 141.29V144.338C35.248 144.355 35.3541 144.355 35.478 144.373C35.6018 144.373 35.7788 144.39 35.9734 144.39C36.2034 144.39 36.4335 144.373 36.6812 144.32C36.9112 144.268 37.1236 144.198 37.3182 144.075C37.5128 143.953 37.6721 143.795 37.7782 143.602C37.9021 143.409 37.9552 143.147 37.9552 142.849C37.9552 142.271 37.7606 141.868 37.389 141.64C36.9997 141.412 36.5219 141.307 35.9026 141.307L35.1595 141.29ZM35.1595 138.697H35.6726C36.1858 138.697 36.5927 138.592 36.8935 138.382C37.1766 138.172 37.3359 137.804 37.3359 137.278C37.3359 137.015 37.2828 136.805 37.1766 136.647C37.0705 136.472 36.9466 136.35 36.7874 136.245C36.6281 136.139 36.4512 136.087 36.2565 136.052C36.0619 136.017 35.8673 135.999 35.6903 135.999H35.4249C35.3187 135.999 35.2303 135.999 35.1595 136.017V138.697ZM41.1933 142.954C41.1933 143.76 41.0517 144.408 40.7509 144.934C40.4678 145.459 40.0608 145.862 39.5477 146.177C39.0345 146.475 38.4329 146.703 37.7252 146.808C37.0174 146.931 36.2565 146.983 35.4426 146.983C34.7879 146.983 34.204 146.966 33.6732 146.913C33.16 146.861 32.5938 146.808 31.9922 146.738V133.739C32.4522 133.669 32.9477 133.599 33.4962 133.564C34.0447 133.512 34.6817 133.494 35.4072 133.494C36.0973 133.494 36.7343 133.547 37.3359 133.669C37.9375 133.792 38.4506 133.985 38.9107 134.247C39.353 134.528 39.7069 134.878 39.9723 135.334C40.2378 135.789 40.3616 136.367 40.3616 137.05C40.3616 137.628 40.2378 138.136 39.9723 138.609C39.7246 139.082 39.3884 139.433 39.0169 139.696C39.3 139.801 39.5654 139.941 39.8308 140.116C40.0962 140.291 40.3262 140.519 40.5209 140.764C40.7155 141.027 40.8748 141.342 40.9986 141.71C41.1402 142.078 41.1933 142.481 41.1933 142.954Z" fill="#D82C27"/>
<path d="M41.9562 123.035V123.14H41.6377V123.981H41.5138V123.14H41.1953V123.035H41.9562Z" fill="#D82C27"/>
<path d="M42.0781 123.035H42.2728L42.5559 123.841L42.8213 123.035H42.9982V123.981H42.8744V123.421C42.8744 123.403 42.8744 123.368 42.8744 123.333C42.8744 123.28 42.8744 123.245 42.8744 123.193L42.609 123.999H42.4851L42.202 123.175V123.21C42.202 123.228 42.202 123.263 42.202 123.315C42.202 123.368 42.202 123.403 42.202 123.421V123.981H42.0781V123.035Z" fill="#D82C27"/>
</g>
<path d="M51.9688 139.5V131.5H56.7656V132.359H52.9375V135.062H56.4063V135.922H52.9375V139.5H51.9688ZM59.9669 139.625C59.4252 139.625 58.9499 139.496 58.5411 139.238C58.1348 138.98 57.8171 138.62 57.588 138.156C57.3614 137.693 57.2481 137.151 57.2481 136.531C57.2481 135.906 57.3614 135.361 57.588 134.895C57.8171 134.428 58.1348 134.066 58.5411 133.809C58.9499 133.551 59.4252 133.422 59.9669 133.422C60.5085 133.422 60.9825 133.551 61.3888 133.809C61.7976 134.066 62.1153 134.428 62.3419 134.895C62.571 135.361 62.6856 135.906 62.6856 136.531C62.6856 137.151 62.571 137.693 62.3419 138.156C62.1153 138.62 61.7976 138.98 61.3888 139.238C60.9825 139.496 60.5085 139.625 59.9669 139.625ZM59.9669 138.797C60.3783 138.797 60.7169 138.691 60.9825 138.48C61.2481 138.27 61.4447 137.992 61.5723 137.648C61.6999 137.305 61.7638 136.932 61.7638 136.531C61.7638 136.13 61.6999 135.757 61.5723 135.41C61.4447 135.064 61.2481 134.784 60.9825 134.57C60.7169 134.357 60.3783 134.25 59.9669 134.25C59.5554 134.25 59.2169 134.357 58.9513 134.57C58.6856 134.784 58.489 135.064 58.3614 135.41C58.2338 135.757 58.17 136.13 58.17 136.531C58.17 136.932 58.2338 137.305 58.3614 137.648C58.489 137.992 58.6856 138.27 58.9513 138.48C59.2169 138.691 59.5554 138.797 59.9669 138.797ZM66.2004 139.625C65.6587 139.625 65.1834 139.496 64.7746 139.238C64.3683 138.98 64.0506 138.62 63.8214 138.156C63.5949 137.693 63.4816 137.151 63.4816 136.531C63.4816 135.906 63.5949 135.361 63.8214 134.895C64.0506 134.428 64.3683 134.066 64.7746 133.809C65.1834 133.551 65.6587 133.422 66.2004 133.422C66.742 133.422 67.216 133.551 67.6222 133.809C68.0311 134.066 68.3488 134.428 68.5754 134.895C68.8045 135.361 68.9191 135.906 68.9191 136.531C68.9191 137.151 68.8045 137.693 68.5754 138.156C68.3488 138.62 68.0311 138.98 67.6222 139.238C67.216 139.496 66.742 139.625 66.2004 139.625ZM66.2004 138.797C66.6118 138.797 66.9504 138.691 67.216 138.48C67.4816 138.27 67.6782 137.992 67.8058 137.648C67.9334 137.305 67.9972 136.932 67.9972 136.531C67.9972 136.13 67.9334 135.757 67.8058 135.41C67.6782 135.064 67.4816 134.784 67.216 134.57C66.9504 134.357 66.6118 134.25 66.2004 134.25C65.7889 134.25 65.4504 134.357 65.1847 134.57C64.9191 134.784 64.7225 135.064 64.5949 135.41C64.4673 135.757 64.4035 136.13 64.4035 136.531C64.4035 136.932 64.4673 137.305 64.5949 137.648C64.7225 137.992 64.9191 138.27 65.1847 138.48C65.4504 138.691 65.7889 138.797 66.2004 138.797ZM72.262 139.625C71.762 139.625 71.3205 139.499 70.9377 139.246C70.5549 138.991 70.2554 138.632 70.0393 138.168C69.8232 137.702 69.7151 137.151 69.7151 136.516C69.7151 135.885 69.8232 135.339 70.0393 134.875C70.2554 134.411 70.5562 134.053 70.9416 133.801C71.3271 133.548 71.7724 133.422 72.2776 133.422C72.6682 133.422 72.9768 133.487 73.2034 133.617C73.4325 133.745 73.607 133.891 73.7268 134.055C73.8492 134.216 73.9442 134.349 74.012 134.453H74.0901V131.5H75.012V139.5H74.1213V138.578H74.012C73.9442 138.687 73.8479 138.826 73.7229 138.992C73.5979 139.156 73.4195 139.303 73.1877 139.434C72.956 139.561 72.6474 139.625 72.262 139.625ZM72.387 138.797C72.7567 138.797 73.0692 138.701 73.3245 138.508C73.5797 138.312 73.7737 138.043 73.9065 137.699C74.0393 137.353 74.1057 136.953 74.1057 136.5C74.1057 136.052 74.0406 135.66 73.9104 135.324C73.7802 134.986 73.5875 134.723 73.3323 134.535C73.0771 134.345 72.762 134.25 72.387 134.25C71.9963 134.25 71.6708 134.35 71.4104 134.551C71.1526 134.749 70.9586 135.018 70.8284 135.359C70.7008 135.698 70.637 136.078 70.637 136.5C70.637 136.927 70.7021 137.315 70.8323 137.664C70.9651 138.01 71.1604 138.286 71.4182 138.492C71.6786 138.695 72.0015 138.797 72.387 138.797ZM76.6234 139.5V131.5H77.5921V135.062H81.8577V131.5H82.8265V139.5H81.8577V135.922H77.5921V139.5H76.6234ZM88.0922 137.047V133.5H89.0141V139.5H88.0922V138.484H88.0297C87.8891 138.789 87.6703 139.048 87.3734 139.262C87.0766 139.473 86.7016 139.578 86.2484 139.578C85.8734 139.578 85.5401 139.496 85.2484 139.332C84.9568 139.165 84.7276 138.915 84.5609 138.582C84.3943 138.246 84.3109 137.823 84.3109 137.312V133.5H85.2328V137.25C85.2328 137.687 85.3552 138.036 85.6 138.297C85.8474 138.557 86.1625 138.687 86.5453 138.687C86.7745 138.687 87.0076 138.629 87.2445 138.512C87.4841 138.395 87.6846 138.215 87.8461 137.973C88.0102 137.73 88.0922 137.422 88.0922 137.047ZM90.4975 139.5V131.5H91.4194V134.453H91.4975C91.5652 134.349 91.659 134.216 91.7788 134.055C91.9012 133.891 92.0757 133.745 92.3022 133.617C92.5314 133.487 92.8413 133.422 93.2319 133.422C93.7371 133.422 94.1824 133.548 94.5679 133.801C94.9533 134.053 95.2541 134.411 95.4702 134.875C95.6863 135.339 95.7944 135.885 95.7944 136.516C95.7944 137.151 95.6863 137.702 95.4702 138.168C95.2541 138.632 94.9546 138.991 94.5718 139.246C94.1889 139.499 93.7475 139.625 93.2475 139.625C92.8621 139.625 92.5535 139.561 92.3218 139.434C92.09 139.303 91.9116 139.156 91.7866 138.992C91.6616 138.826 91.5652 138.687 91.4975 138.578H91.3882V139.5H90.4975ZM91.4038 136.5C91.4038 136.953 91.4702 137.353 91.603 137.699C91.7358 138.043 91.9298 138.312 92.185 138.508C92.4402 138.701 92.7527 138.797 93.1225 138.797C93.508 138.797 93.8296 138.695 94.0874 138.492C94.3478 138.286 94.5431 138.01 94.6733 137.664C94.8061 137.315 94.8725 136.927 94.8725 136.5C94.8725 136.078 94.8074 135.698 94.6772 135.359C94.5496 135.018 94.3556 134.749 94.0952 134.551C93.8374 134.35 93.5132 134.25 93.1225 134.25C92.7475 134.25 92.4324 134.345 92.1772 134.535C91.922 134.723 91.7293 134.986 91.5991 135.324C91.4689 135.66 91.4038 136.052 91.4038 136.5ZM99.7633 139.5V131.5H102.466C103.094 131.5 103.607 131.613 104.006 131.84C104.407 132.064 104.703 132.367 104.896 132.75C105.089 133.133 105.185 133.56 105.185 134.031C105.185 134.503 105.089 134.931 104.896 135.316C104.706 135.702 104.412 136.009 104.013 136.238C103.615 136.465 103.104 136.578 102.482 136.578H100.545V135.719H102.451C102.881 135.719 103.226 135.645 103.486 135.496C103.746 135.348 103.935 135.147 104.052 134.895C104.172 134.639 104.232 134.352 104.232 134.031C104.232 133.711 104.172 133.424 104.052 133.172C103.935 132.919 103.745 132.721 103.482 132.578C103.219 132.432 102.87 132.359 102.435 132.359H100.732V139.5H99.7633ZM113.166 135.5C113.166 136.344 113.013 137.073 112.709 137.687C112.404 138.302 111.986 138.776 111.455 139.109C110.924 139.443 110.317 139.609 109.634 139.609C108.952 139.609 108.345 139.443 107.814 139.109C107.283 138.776 106.865 138.302 106.56 137.687C106.256 137.073 106.103 136.344 106.103 135.5C106.103 134.656 106.256 133.927 106.56 133.312C106.865 132.698 107.283 132.224 107.814 131.891C108.345 131.557 108.952 131.391 109.634 131.391C110.317 131.391 110.924 131.557 111.455 131.891C111.986 132.224 112.404 132.698 112.709 133.312C113.013 133.927 113.166 134.656 113.166 135.5ZM112.228 135.5C112.228 134.807 112.112 134.223 111.881 133.746C111.651 133.27 111.34 132.909 110.947 132.664C110.556 132.419 110.119 132.297 109.634 132.297C109.15 132.297 108.711 132.419 108.318 132.664C107.927 132.909 107.616 133.27 107.384 133.746C107.155 134.223 107.041 134.807 107.041 135.5C107.041 136.193 107.155 136.777 107.384 137.254C107.616 137.73 107.927 138.091 108.318 138.336C108.711 138.581 109.15 138.703 109.634 138.703C110.119 138.703 110.556 138.581 110.947 138.336C111.34 138.091 111.651 137.73 111.881 137.254C112.112 136.777 112.228 136.193 112.228 135.5ZM118.84 133.5C118.793 133.104 118.603 132.797 118.269 132.578C117.936 132.359 117.527 132.25 117.043 132.25C116.689 132.25 116.379 132.307 116.113 132.422C115.85 132.536 115.644 132.694 115.496 132.895C115.35 133.095 115.277 133.323 115.277 133.578C115.277 133.792 115.328 133.975 115.429 134.129C115.534 134.28 115.666 134.406 115.828 134.508C115.989 134.607 116.159 134.689 116.336 134.754C116.513 134.816 116.676 134.867 116.824 134.906L117.637 135.125C117.845 135.18 118.077 135.255 118.332 135.352C118.59 135.448 118.836 135.579 119.07 135.746C119.307 135.91 119.502 136.121 119.656 136.379C119.81 136.637 119.887 136.953 119.887 137.328C119.887 137.76 119.773 138.151 119.547 138.5C119.323 138.849 118.995 139.126 118.562 139.332C118.133 139.538 117.61 139.641 116.996 139.641C116.423 139.641 115.927 139.548 115.508 139.363C115.091 139.178 114.763 138.921 114.523 138.59C114.286 138.259 114.152 137.875 114.121 137.438H115.121C115.147 137.74 115.249 137.99 115.426 138.187C115.605 138.383 115.832 138.529 116.105 138.625C116.381 138.719 116.678 138.766 116.996 138.766C117.366 138.766 117.698 138.706 117.992 138.586C118.286 138.464 118.519 138.294 118.691 138.078C118.863 137.859 118.949 137.604 118.949 137.312C118.949 137.047 118.875 136.831 118.726 136.664C118.578 136.497 118.383 136.362 118.14 136.258C117.898 136.154 117.637 136.062 117.355 135.984L116.371 135.703C115.746 135.523 115.251 135.267 114.887 134.934C114.522 134.6 114.34 134.164 114.34 133.625C114.34 133.177 114.461 132.786 114.703 132.453C114.948 132.117 115.276 131.857 115.687 131.672C116.101 131.484 116.564 131.391 117.074 131.391C117.59 131.391 118.048 131.483 118.449 131.668C118.85 131.85 119.168 132.1 119.402 132.418C119.639 132.736 119.764 133.096 119.777 133.5H118.84Z" fill="#101828"/>
</g>
<defs>
<filter id="filter0_d_8462_701" x="0" y="0" width="232" height="164" filterUnits="userSpaceOnUse" color-interpolation-filters="sRGB">
<feFlood flood-opacity="0" result="BackgroundImageFix"/>
<feColorMatrix in="SourceAlpha" type="matrix" values="0 0 0 0 0 0 0 0 0 0 0 0 0 0 0 0 0 0 127 0" result="hardAlpha"/>
<feOffset dy="3"/>
<feGaussianBlur stdDeviation="2"/>
<feComposite in2="hardAlpha" operator="out"/>
<feColorMatrix type="matrix" values="0 0 0 0 0 0 0 0 0 0 0 0 0 0 0 0 0 0 0.25 0"/>
<feBlend mode="normal" in2="BackgroundImageFix" result="effect1_dropShadow_8462_701"/>
<feBlend mode="normal" in="SourceGraphic" in2="effect1_dropShadow_8462_701" result="shape"/>
</filter>
<linearGradient id="paint0_linear_8462_701" x1="4" y1="23" x2="228" y2="23" gradientUnits="userSpaceOnUse">
<stop stop-color="#3B6BFF"/>
<stop offset="1" stop-color="#2E96FF"/>
</linearGradient>
<linearGradient id="paint1_linear_8462_701" x1="10" y1="23" x2="41" y2="23" gradientUnits="userSpaceOnUse">
<stop stop-color="#3B6BFF"/>
<stop offset="1" stop-color="#2E96FF"/>
</linearGradient>
<linearGradient id="paint2_linear_8462_701" x1="4" y1="79" x2="228" y2="79" gradientUnits="userSpaceOnUse">
<stop stop-color="#3B6BFF"/>
<stop offset="1" stop-color="#2E96FF"/>
</linearGradient>
<linearGradient id="paint3_linear_8462_701" x1="10.2315" y1="78.7407" x2="41.21" y2="79.3458" gradientUnits="userSpaceOnUse">
<stop stop-color="#249AE9"/>
<stop offset="0.06" stop-color="#2EA4EA"/>
<stop offset="0.23" stop-color="#44BAEE"/>
<stop offset="0.39" stop-color="#51C7F1"/>
<stop offset="0.54" stop-color="#56CCF2"/>
<stop offset="1" stop-color="#2F80ED"/>
</linearGradient>
<linearGradient id="paint4_linear_8462_701" x1="28.4137" y1="66.098" x2="29.952" y2="69.0846" gradientUnits="userSpaceOnUse">
<stop stop-color="#021C42"/>
<stop offset="0.54" stop-color="#56CCF2" stop-opacity="0"/>
</linearGradient>
<linearGradient id="paint5_linear_8462_701" x1="36.5978" y1="90.0057" x2="36.3692" y2="93.135" gradientUnits="userSpaceOnUse">
<stop stop-color="#56CCF2" stop-opacity="0"/>
<stop offset="1" stop-color="#021C42"/>
</linearGradient>
<linearGradient id="paint6_linear_8462_701" x1="18.6266" y1="84.6636" x2="35.4606" y2="84.9925" gradientUnits="userSpaceOnUse">
<stop stop-color="#2F80ED"/>
<stop offset="1" stop-color="#30B9EC"/>
</linearGradient>
<linearGradient id="paint7_linear_8462_701" x1="32.6238" y1="77.1218" x2="20.9858" y2="93.2468" gradientUnits="userSpaceOnUse">
<stop stop-color="#56CCF2" stop-opacity="0"/>
<stop offset="0.1" stop-color="#43A6D5" stop-opacity="0.21"/>
<stop offset="0.25" stop-color="#2C74AF" stop-opacity="0.5"/>
<stop offset="0.42" stop-color="#194D92" stop-opacity="0.72"/>
<stop offset="0.59" stop-color="#0C317D" stop-opacity="0.88"/>
<stop offset="0.77" stop-color="#042170" stop-opacity="0.97"/>
<stop offset="1" stop-color="#021C6D"/>
</linearGradient>
<linearGradient id="paint8_linear_8462_701" x1="4" y1="135" x2="228" y2="135" gradientUnits="userSpaceOnUse">
<stop stop-color="#3B6BFF"/>
<stop offset="1" stop-color="#2E96FF"/>
</linearGradient>
<clipPath id="clip0_8462_701">
<rect width="33" height="24" fill="white" transform="translate(10 123)"/>
</clipPath>
</defs>
</svg>
