<svg xmlns="http://www.w3.org/2000/svg" width="1086" height="337" viewBox="0 0 1086 337" fill="none">
<g clip-path="url(#clip0_230_6)">
<path d="M543 303.138V336.626ZM543 269.277V302.764ZM543 235.415V268.903ZM543 201.553V235.041ZM543 167.682V201.17ZM543 133.821V167.308ZM543 99.959V133.447ZM543 66.0973V99.585ZM543 32.2356V65.7233ZM543 -1.62604V31.8617ZM543 337H1086V336.626V303.138V302.764V269.277V268.903V235.415V235.041V201.553V201.179V167.692V167.318V133.83V133.456V99.9683V99.5944V66.1066V65.7327V32.245V31.871V-1.62604V-2H543M712.945 167.682H746.485V201.17H712.945V167.682ZM746.859 167.682H780.399V201.17H746.859V167.682ZM780.773 167.682H814.313V201.17H780.773V167.682ZM814.687 167.682H848.227V201.17H814.687V167.682ZM848.601 167.682H882.141V201.17H848.601V167.682ZM882.515 167.682H916.055V201.17H882.515V167.682ZM916.429 167.682H949.97V201.17H916.429V167.682ZM916.429 167.318V133.83H949.97V167.318H916.429ZM916.055 167.318H882.515V133.83H916.055V167.318ZM882.141 167.318H848.601V133.83H882.141V167.318ZM848.227 167.318H814.687V133.83H848.227V167.318ZM814.313 167.318H780.773V133.83H814.313V167.318ZM780.399 167.318H746.859V133.83H780.399V167.318ZM746.485 167.318H712.945V133.83H746.485V167.318ZM712.571 167.318H679.03V133.83H712.571V167.318ZM712.571 167.682V201.17H679.03V167.682H712.571ZM679.03 201.553H712.571V235.041H679.03V201.553ZM712.945 201.553H746.485V235.041H712.945V201.553ZM746.859 201.553H780.399V235.041H746.859V201.553ZM780.773 201.553H814.313V235.041H780.773V201.553ZM814.687 201.553H848.227V235.041H814.687V201.553ZM848.601 201.553H882.141V235.041H848.601V201.553ZM882.515 201.553H916.055V235.041H882.515V201.553ZM916.429 201.553H949.97V235.041H916.429V201.553ZM950.343 201.553H983.884V235.041H950.343V201.553ZM950.343 201.179V167.692H983.884V201.179H950.343ZM950.343 167.318V133.83H983.884V167.318H950.343ZM950.343 133.456V99.9683H983.884V133.456H950.343ZM949.97 133.456H916.429V99.9683H949.97V133.456ZM916.055 133.456H882.515V99.9683H916.055V133.456ZM882.141 133.456H848.601V99.9683H882.141V133.456ZM848.227 133.456H814.687V99.9683H848.227V133.456ZM814.313 133.456H780.773V99.9683H814.313V133.456ZM780.399 133.456H746.859V99.9683H780.399V133.456ZM746.485 133.456H712.945V99.9683H746.485V133.456ZM712.571 133.456H679.03V99.9683H712.571V133.456ZM678.657 133.456H645.116V99.9683H678.657V133.456ZM678.657 133.821V167.308H645.116V133.821H678.657ZM678.657 167.682V201.17H645.116V167.682H678.657ZM678.657 201.553V235.041H645.116V201.553H678.657ZM645.116 235.415H678.657V268.903H645.116V235.415ZM679.03 235.415H712.571V268.903H679.03V235.415ZM712.945 235.415H746.485V268.903H712.945V235.415ZM746.859 235.415H780.399V268.903H746.859V235.415ZM780.773 235.415H814.313V268.903H780.773V235.415ZM814.687 235.415H848.227V268.903H814.687V235.415ZM848.601 235.415H882.141V268.903H848.601V235.415ZM882.515 235.415H916.055V268.903H882.515V235.415ZM916.429 235.415H949.97V268.903H916.429V235.415ZM950.343 235.415H983.884V268.903H950.343V235.415ZM984.258 235.415H1017.8V268.903H984.258V235.415ZM984.258 235.041V201.553H1017.8V235.041H984.258ZM984.258 201.179V167.692H1017.8V201.179H984.258ZM984.258 167.318V133.83H1017.8V167.318H984.258ZM984.258 133.456V99.9683H1017.8V133.456H984.258ZM984.258 99.585V66.0973H1017.8V99.585H984.258ZM983.884 99.585H950.343V66.0973H983.884V99.585ZM949.97 99.585H916.429V66.0973H949.97V99.585ZM916.055 99.585H882.515V66.0973H916.055V99.585ZM882.141 99.585H848.601V66.0973H882.141V99.585ZM848.227 99.585H814.687V66.0973H848.227V99.585ZM814.313 99.585H780.773V66.0973H814.313V99.585ZM780.399 99.585H746.859V66.0973H780.399V99.585ZM746.485 99.585H712.945V66.0973H746.485V99.585ZM712.571 99.585H679.03V66.0973H712.571V99.585ZM678.657 99.585H645.116V66.0973H678.657V99.585ZM644.742 99.585H611.202V66.0973H644.742V99.585ZM644.742 99.959V133.447H611.202V99.959H644.742ZM644.742 133.821V167.308H611.202V133.821H644.742ZM644.742 167.682V201.17H611.202V167.682H644.742ZM644.742 201.553V235.041H611.202V201.553H644.742ZM644.742 235.415V268.903H611.202V235.415H644.742ZM611.202 269.277H644.742V302.764H611.202V269.277ZM645.116 269.277H678.657V302.764H645.116V269.277ZM679.03 269.277H712.571V302.764H679.03V269.277ZM712.945 269.277H746.485V302.764H712.945V269.277ZM746.859 269.277H780.399V302.764H746.859V269.277ZM780.773 269.277H814.313V302.764H780.773V269.277ZM814.687 269.277H848.227V302.764H814.687V269.277ZM848.601 269.277H882.141V302.764H848.601V269.277ZM882.515 269.277H916.055V302.764H882.515V269.277ZM916.429 269.277H949.97V302.764H916.429V269.277ZM950.343 269.277H983.884V302.764H950.343V269.277ZM984.258 269.277H1017.8V302.764H984.258V269.277ZM1018.17 269.277H1051.71V302.764H1018.17V269.277ZM1018.17 268.903V235.415H1051.71V268.903H1018.17ZM1018.17 235.041V201.553H1051.71V235.041H1018.17ZM1018.17 201.179V167.692H1051.71V201.179H1018.17ZM1018.17 167.318V133.83H1051.71V167.318H1018.17ZM1018.17 133.456V99.9683H1051.71V133.456H1018.17ZM1018.17 99.585V66.0973H1051.71V99.585H1018.17ZM1018.17 65.7233V32.2356H1051.71V65.7233H1018.17ZM1017.8 65.7233H984.258V32.2356H1017.8V65.7233ZM983.884 65.7233H950.343V32.2356H983.884V65.7233ZM949.97 65.7233H916.429V32.2356H949.97V65.7233ZM916.055 65.7233H882.515V32.2356H916.055V65.7233ZM882.141 65.7233H848.601V32.2356H882.141V65.7233ZM848.227 65.7233H814.687V32.2356H848.227V65.7233ZM814.313 65.7233H780.773V32.2356H814.313V65.7233ZM780.399 65.7233H746.859V32.2356H780.399V65.7233ZM746.485 65.7233H712.945V32.2356H746.485V65.7233ZM712.571 65.7233H679.03V32.2356H712.571V65.7233ZM678.657 65.7233H645.116V32.2356H678.657V65.7233ZM644.742 65.7233H611.202V32.2356H644.742V65.7233ZM610.828 65.7233H577.288V32.2356H610.828V65.7233ZM610.828 66.0973V99.585H577.288V66.0973H610.828ZM610.828 99.959V133.447H577.288V99.959H610.828ZM610.828 133.821V167.308H577.288V133.821H610.828ZM610.828 167.682V201.17H577.288V167.682H610.828ZM610.828 201.553V235.041H577.288V201.553H610.828ZM610.828 235.415V268.903H577.288V235.415H610.828ZM610.828 269.277V302.764H577.288V269.277H610.828ZM577.288 303.138H610.828V336.626H577.288V303.138ZM611.202 303.138H644.742V336.626H611.202V303.138ZM645.116 303.138H678.657V336.626H645.116V303.138ZM679.03 303.138H712.571V336.626H679.03V303.138ZM712.945 303.138H746.485V336.626H712.945V303.138ZM746.859 303.138H780.399V336.626H746.859V303.138ZM780.773 303.138H814.313V336.626H780.773V303.138ZM814.687 303.138H848.227V336.626H814.687V303.138ZM848.601 303.138H882.141V336.626H848.601V303.138ZM882.515 303.138H916.055V336.626H882.515V303.138ZM916.429 303.138H949.97V336.626H916.429V303.138ZM950.343 303.138H983.884V336.626H950.343V303.138ZM984.258 303.138H1017.8V336.626H984.258V303.138ZM1018.17 303.138H1051.71V336.626H1018.17V303.138ZM1052.09 303.138H1085.63V336.626H1052.09V303.138ZM1052.09 302.764V269.277H1085.63V302.764H1052.09ZM1052.09 268.903V235.415H1085.63V268.903H1052.09ZM1052.09 235.041V201.553H1085.63V235.041H1052.09ZM1052.09 201.179V167.692H1085.63V201.179H1052.09ZM1052.09 167.318V133.83H1085.63V167.318H1052.09ZM1052.09 133.456V99.9683H1085.63V133.456H1052.09ZM1052.09 99.585V66.0973H1085.63V99.585H1052.09ZM1052.09 65.7233V32.2356H1085.63V65.7233H1052.09ZM1052.09 31.8617V-1.62604H1085.63V31.8617H1052.09ZM1051.71 31.8617H1018.17V-1.62604H1051.71V31.8617ZM1017.8 31.8617H984.258V-1.62604H1017.8V31.8617ZM983.884 31.8617H950.343V-1.62604H983.884V31.8617ZM949.97 31.8617H916.429V-1.62604H949.97V31.8617ZM916.055 31.8617H882.515V-1.62604H916.055V31.8617ZM882.141 31.8617H848.601V-1.62604H882.141V31.8617ZM848.227 31.8617H814.687V-1.62604H848.227V31.8617ZM814.313 31.8617H780.773V-1.62604H814.313V31.8617ZM780.399 31.8617H746.859V-1.62604H780.399V31.8617ZM746.485 31.8617H712.945V-1.62604H746.485V31.8617ZM712.571 31.8617H679.03V-1.62604H712.571V31.8617ZM678.657 31.8617H645.116V-1.62604H678.657V31.8617ZM644.742 31.8617H611.202V-1.62604H644.742V31.8617ZM610.828 31.8617H577.288V-1.62604H610.828V31.8617ZM576.914 31.8617H543.374V-1.62604H576.914V31.8617ZM576.914 32.2356V65.7233H543.374V32.2356H576.914ZM576.914 66.0973V99.585H543.374V66.0973H576.914ZM576.914 99.959V133.447H543.374V99.959H576.914ZM576.914 133.821V167.308H543.374V133.821H576.914ZM576.914 167.682V201.17H543.374V167.682H576.914ZM576.914 201.553V235.041H543.374V201.553H576.914ZM576.914 235.415V268.903H543.374V235.415H576.914ZM576.914 269.277V302.764H543.374V269.277H576.914ZM576.914 303.138V336.626H543.374V303.138H576.914Z" fill="white"/>
<path d="M0 303.138V336.626ZM0 269.277V302.764ZM0 235.415V268.903ZM0 201.553V235.041ZM0 167.682V201.17ZM0 133.821V167.308ZM0 99.959V133.447ZM0 66.0973V99.585ZM0 32.2356V65.7233ZM0 -1.62604V31.8617ZM0 337H543V336.626V303.138V302.764V269.277V268.903V235.415V235.041V201.553V201.179V167.692V167.318V133.83V133.456V99.9683V99.5944V66.1066V65.7327V32.245V31.871V-1.62604V-2H0M169.945 167.682H203.485V201.17H169.945V167.682ZM203.859 167.682H237.399V201.17H203.859V167.682ZM237.773 167.682H271.313V201.17H237.773V167.682ZM271.687 167.682H305.227V201.17H271.687V167.682ZM305.601 167.682H339.141V201.17H305.601V167.682ZM339.515 167.682H373.055V201.17H339.515V167.682ZM373.429 167.682H406.97V201.17H373.429V167.682ZM373.429 167.318V133.83H406.97V167.318H373.429ZM373.055 167.318H339.515V133.83H373.055V167.318ZM339.141 167.318H305.601V133.83H339.141V167.318ZM305.227 167.318H271.687V133.83H305.227V167.318ZM271.313 167.318H237.773V133.83H271.313V167.318ZM237.399 167.318H203.859V133.83H237.399V167.318ZM203.485 167.318H169.945V133.83H203.485V167.318ZM169.571 167.318H136.03V133.83H169.571V167.318ZM169.571 167.682V201.17H136.03V167.682H169.571ZM136.03 201.553H169.571V235.041H136.03V201.553ZM169.945 201.553H203.485V235.041H169.945V201.553ZM203.859 201.553H237.399V235.041H203.859V201.553ZM237.773 201.553H271.313V235.041H237.773V201.553ZM271.687 201.553H305.227V235.041H271.687V201.553ZM305.601 201.553H339.141V235.041H305.601V201.553ZM339.515 201.553H373.055V235.041H339.515V201.553ZM373.429 201.553H406.97V235.041H373.429V201.553ZM407.343 201.553H440.884V235.041H407.343V201.553ZM407.343 201.179V167.692H440.884V201.179H407.343ZM407.343 167.318V133.83H440.884V167.318H407.343ZM407.343 133.456V99.9683H440.884V133.456H407.343ZM406.97 133.456H373.429V99.9683H406.97V133.456ZM373.055 133.456H339.515V99.9683H373.055V133.456ZM339.141 133.456H305.601V99.9683H339.141V133.456ZM305.227 133.456H271.687V99.9683H305.227V133.456ZM271.313 133.456H237.773V99.9683H271.313V133.456ZM237.399 133.456H203.859V99.9683H237.399V133.456ZM203.485 133.456H169.945V99.9683H203.485V133.456ZM169.571 133.456H136.03V99.9683H169.571V133.456ZM135.657 133.456H102.116V99.9683H135.657V133.456ZM135.657 133.821V167.308H102.116V133.821H135.657ZM135.657 167.682V201.17H102.116V167.682H135.657ZM135.657 201.553V235.041H102.116V201.553H135.657ZM102.116 235.415H135.657V268.903H102.116V235.415ZM136.03 235.415H169.571V268.903H136.03V235.415ZM169.945 235.415H203.485V268.903H169.945V235.415ZM203.859 235.415H237.399V268.903H203.859V235.415ZM237.773 235.415H271.313V268.903H237.773V235.415ZM271.687 235.415H305.227V268.903H271.687V235.415ZM305.601 235.415H339.141V268.903H305.601V235.415ZM339.515 235.415H373.055V268.903H339.515V235.415ZM373.429 235.415H406.97V268.903H373.429V235.415ZM407.343 235.415H440.884V268.903H407.343V235.415ZM441.258 235.415H474.798V268.903H441.258V235.415ZM441.258 235.041V201.553H474.798V235.041H441.258ZM441.258 201.179V167.692H474.798V201.179H441.258ZM441.258 167.318V133.83H474.798V167.318H441.258ZM441.258 133.456V99.9683H474.798V133.456H441.258ZM441.258 99.585V66.0973H474.798V99.585H441.258ZM440.884 99.585H407.343V66.0973H440.884V99.585ZM406.97 99.585H373.429V66.0973H406.97V99.585ZM373.055 99.585H339.515V66.0973H373.055V99.585ZM339.141 99.585H305.601V66.0973H339.141V99.585ZM305.227 99.585H271.687V66.0973H305.227V99.585ZM271.313 99.585H237.773V66.0973H271.313V99.585ZM237.399 99.585H203.859V66.0973H237.399V99.585ZM203.485 99.585H169.945V66.0973H203.485V99.585ZM169.571 99.585H136.03V66.0973H169.571V99.585ZM135.657 99.585H102.116V66.0973H135.657V99.585ZM101.742 99.585H68.2022V66.0973H101.742V99.585ZM101.742 99.959V133.447H68.2022V99.959H101.742ZM101.742 133.821V167.308H68.2022V133.821H101.742ZM101.742 167.682V201.17H68.2022V167.682H101.742ZM101.742 201.553V235.041H68.2022V201.553H101.742ZM101.742 235.415V268.903H68.2022V235.415H101.742ZM68.2022 269.277H101.742V302.764H68.2022V269.277ZM102.116 269.277H135.657V302.764H102.116V269.277ZM136.03 269.277H169.571V302.764H136.03V269.277ZM169.945 269.277H203.485V302.764H169.945V269.277ZM203.859 269.277H237.399V302.764H203.859V269.277ZM237.773 269.277H271.313V302.764H237.773V269.277ZM271.687 269.277H305.227V302.764H271.687V269.277ZM305.601 269.277H339.141V302.764H305.601V269.277ZM339.515 269.277H373.055V302.764H339.515V269.277ZM373.429 269.277H406.97V302.764H373.429V269.277ZM407.343 269.277H440.884V302.764H407.343V269.277ZM441.258 269.277H474.798V302.764H441.258V269.277ZM475.172 269.277H508.712V302.764H475.172V269.277ZM475.172 268.903V235.415H508.712V268.903H475.172ZM475.172 235.041V201.553H508.712V235.041H475.172ZM475.172 201.179V167.692H508.712V201.179H475.172ZM475.172 167.318V133.83H508.712V167.318H475.172ZM475.172 133.456V99.9683H508.712V133.456H475.172ZM475.172 99.585V66.0973H508.712V99.585H475.172ZM475.172 65.7233V32.2356H508.712V65.7233H475.172ZM474.798 65.7233H441.258V32.2356H474.798V65.7233ZM440.884 65.7233H407.343V32.2356H440.884V65.7233ZM406.97 65.7233H373.429V32.2356H406.97V65.7233ZM373.055 65.7233H339.515V32.2356H373.055V65.7233ZM339.141 65.7233H305.601V32.2356H339.141V65.7233ZM305.227 65.7233H271.687V32.2356H305.227V65.7233ZM271.313 65.7233H237.773V32.2356H271.313V65.7233ZM237.399 65.7233H203.859V32.2356H237.399V65.7233ZM203.485 65.7233H169.945V32.2356H203.485V65.7233ZM169.571 65.7233H136.03V32.2356H169.571V65.7233ZM135.657 65.7233H102.116V32.2356H135.657V65.7233ZM101.742 65.7233H68.2022V32.2356H101.742V65.7233ZM67.8283 65.7233H34.288V32.2356H67.8283V65.7233ZM67.8283 66.0973V99.585H34.288V66.0973H67.8283ZM67.8283 99.959V133.447H34.288V99.959H67.8283ZM67.8283 133.821V167.308H34.288V133.821H67.8283ZM67.8283 167.682V201.17H34.288V167.682H67.8283ZM67.8283 201.553V235.041H34.288V201.553H67.8283ZM67.8283 235.415V268.903H34.288V235.415H67.8283ZM67.8283 269.277V302.764H34.288V269.277H67.8283ZM34.288 303.138H67.8283V336.626H34.288V303.138ZM68.2022 303.138H101.742V336.626H68.2022V303.138ZM102.116 303.138H135.657V336.626H102.116V303.138ZM136.03 303.138H169.571V336.626H136.03V303.138ZM169.945 303.138H203.485V336.626H169.945V303.138ZM203.859 303.138H237.399V336.626H203.859V303.138ZM237.773 303.138H271.313V336.626H237.773V303.138ZM271.687 303.138H305.227V336.626H271.687V303.138ZM305.601 303.138H339.141V336.626H305.601V303.138ZM339.515 303.138H373.055V336.626H339.515V303.138ZM373.429 303.138H406.97V336.626H373.429V303.138ZM407.343 303.138H440.884V336.626H407.343V303.138ZM441.258 303.138H474.798V336.626H441.258V303.138ZM475.172 303.138H508.712V336.626H475.172V303.138ZM509.086 303.138H542.626V336.626H509.086V303.138ZM509.086 302.764V269.277H542.626V302.764H509.086ZM509.086 268.903V235.415H542.626V268.903H509.086ZM509.086 235.041V201.553H542.626V235.041H509.086ZM509.086 201.179V167.692H542.626V201.179H509.086ZM509.086 167.318V133.83H542.626V167.318H509.086ZM509.086 133.456V99.9683H542.626V133.456H509.086ZM509.086 99.585V66.0973H542.626V99.585H509.086ZM509.086 65.7233V32.2356H542.626V65.7233H509.086ZM509.086 31.8617V-1.62604H542.626V31.8617H509.086ZM508.712 31.8617H475.172V-1.62604H508.712V31.8617ZM474.798 31.8617H441.258V-1.62604H474.798V31.8617ZM440.884 31.8617H407.343V-1.62604H440.884V31.8617ZM406.97 31.8617H373.429V-1.62604H406.97V31.8617ZM373.055 31.8617H339.515V-1.62604H373.055V31.8617ZM339.141 31.8617H305.601V-1.62604H339.141V31.8617ZM305.227 31.8617H271.687V-1.62604H305.227V31.8617ZM271.313 31.8617H237.773V-1.62604H271.313V31.8617ZM237.399 31.8617H203.859V-1.62604H237.399V31.8617ZM203.485 31.8617H169.945V-1.62604H203.485V31.8617ZM169.571 31.8617H136.03V-1.62604H169.571V31.8617ZM135.657 31.8617H102.116V-1.62604H135.657V31.8617ZM101.742 31.8617H68.2022V-1.62604H101.742V31.8617ZM67.8283 31.8617H34.288V-1.62604H67.8283V31.8617ZM33.9141 31.8617H0.373915V-1.62604H33.9141V31.8617ZM33.9141 32.2356V65.7233H0.373915V32.2356H33.9141ZM33.9141 66.0973V99.585H0.373915V66.0973H33.9141ZM33.9141 99.959V133.447H0.373915V99.959H33.9141ZM33.9141 133.821V167.308H0.373915V133.821H33.9141ZM33.9141 167.682V201.17H0.373915V167.682H33.9141ZM33.9141 201.553V235.041H0.373915V201.553H33.9141ZM33.9141 235.415V268.903H0.373915V235.415H33.9141ZM33.9141 269.277V302.764H0.373915V269.277H33.9141ZM33.9141 303.138V336.626H0.373915V303.138H33.9141Z" fill="white"/>
</g>
<defs>
<clipPath id="clip0_230_6">
<rect width="1086" height="337" fill="white"/>
</clipPath>
</defs>
</svg>