<svg width="551" height="388" viewBox="0 0 551 388" fill="none" xmlns="http://www.w3.org/2000/svg">
<g filter="url(#filter0_dd_8655_7809)">
<g clip-path="url(#clip0_8655_7809)">
<rect x="5" y="1" width="541" height="378" rx="28" fill="url(#paint0_linear_8655_7809)"/>
<path d="M602 259.796L436 334L270 259.796M602 227.596L436 301.8L270 227.596M602 195.397L436 269.601L270 195.397M602 163.197L436 237.401L270 163.197M602 130.998L436 205.202L270 130.998M602 98.7981L436 173.002L270 98.7981M602 66.5986L436 140.803L270 66.5986M602 34.3991L436 108.603L270 34.399M602 2.19955L436 76.4038L270 2.19953M602 -30L436 44.2042L270 -30" stroke="url(#paint1_linear_8655_7809)" stroke-opacity="0.2" stroke-miterlimit="10"/>
</g>
</g>
<defs>
<filter id="filter0_dd_8655_7809" x="0" y="0" width="551" height="388" filterUnits="userSpaceOnUse" color-interpolation-filters="sRGB">
<feFlood flood-opacity="0" result="BackgroundImageFix"/>
<feColorMatrix in="SourceAlpha" type="matrix" values="0 0 0 0 0 0 0 0 0 0 0 0 0 0 0 0 0 0 127 0" result="hardAlpha"/>
<feMorphology radius="2" operator="erode" in="SourceAlpha" result="effect1_dropShadow_8655_7809"/>
<feOffset dy="2"/>
<feGaussianBlur stdDeviation="2"/>
<feComposite in2="hardAlpha" operator="out"/>
<feColorMatrix type="matrix" values="0 0 0 0 0 0 0 0 0 0 0 0 0 0 0 0 0 0 0.1 0"/>
<feBlend mode="normal" in2="BackgroundImageFix" result="effect1_dropShadow_8655_7809"/>
<feColorMatrix in="SourceAlpha" type="matrix" values="0 0 0 0 0 0 0 0 0 0 0 0 0 0 0 0 0 0 127 0" result="hardAlpha"/>
<feMorphology radius="1" operator="erode" in="SourceAlpha" result="effect2_dropShadow_8655_7809"/>
<feOffset dy="4"/>
<feGaussianBlur stdDeviation="3"/>
<feComposite in2="hardAlpha" operator="out"/>
<feColorMatrix type="matrix" values="0 0 0 0 0 0 0 0 0 0 0 0 0 0 0 0 0 0 0.1 0"/>
<feBlend mode="normal" in2="effect1_dropShadow_8655_7809" result="effect2_dropShadow_8655_7809"/>
<feBlend mode="normal" in="SourceGraphic" in2="effect2_dropShadow_8655_7809" result="shape"/>
</filter>
<linearGradient id="paint0_linear_8655_7809" x1="612.5" y1="439" x2="72" y2="64.5" gradientUnits="userSpaceOnUse">
<stop offset="0.144231" stop-color="#D8EBFF"/>
<stop offset="1" stop-color="white"/>
</linearGradient>
<linearGradient id="paint1_linear_8655_7809" x1="448.704" y1="166.259" x2="563.002" y2="17.1044" gradientUnits="userSpaceOnUse">
<stop stop-color="#318EFF" stop-opacity="0"/>
<stop offset="1" stop-color="#318EFF"/>
</linearGradient>
<clipPath id="clip0_8655_7809">
<rect x="5" y="1" width="541" height="378" rx="28" fill="white"/>
</clipPath>
</defs>
</svg>
