<svg width="551" height="440" viewBox="0 0 551 440" fill="none" xmlns="http://www.w3.org/2000/svg">
<g filter="url(#filter0_dd_8655_8020)">
<g clip-path="url(#clip0_8655_8020)">
<path d="M5 29C5 13.536 17.536 1 33 1H518C533.464 1 546 13.536 546 29V403C546 418.464 533.464 431 518 431H33C17.536 431 5 418.464 5 403V29Z" fill="url(#paint0_linear_8655_8020)" shape-rendering="crispEdges"/>
<path d="M45.0307 26.3655H77.6289M45.0307 26.3655L28.7344 -1.90124L45.0307 -30.168H77.6289L93.9252 -1.90124M45.0307 26.3655L28.7344 54.6323L45.0307 82.899M77.6289 26.3655L93.9252 -1.90124M77.6289 26.3655L93.9252 54.6323M93.9252 -1.90124L110.221 -30.168H142.82L159.116 -1.90124M93.9252 -1.90124L110.221 26.3655M45.0307 252.499H77.6289M45.0307 252.499L28.7344 224.233L45.0307 195.966M45.0307 252.499L28.7344 280.766L45.0307 309.033M77.6289 252.499L93.9252 224.233M77.6289 252.499L93.9252 280.766M93.9252 224.233L77.6289 195.966M93.9252 224.233L110.221 195.966M93.9252 224.233L110.221 252.499M77.6289 195.966H45.0307M77.6289 195.966L93.9252 167.699M45.0307 195.966L28.7344 167.699L45.0307 139.432M45.0307 139.432H77.6289M45.0307 139.432L28.7344 111.166L45.0307 82.899M77.6289 139.432L93.9252 111.166M77.6289 139.432L93.9252 167.699M93.9252 111.166L77.6289 82.899M93.9252 111.166L110.221 82.899M93.9252 111.166L110.221 139.432M77.6289 82.899H45.0307M77.6289 82.899L93.9252 54.6323M45.0307 365.566H77.6289M45.0307 365.566L28.7344 337.3L45.0307 309.033M45.0307 365.566L28.7344 393.833L45.0307 422.1M77.6289 365.566L93.9252 337.3M77.6289 365.566L93.9252 393.833M93.9252 337.3L77.6289 309.033M93.9252 337.3L110.221 309.033M93.9252 337.3L110.221 365.566M77.6289 309.033H45.0307M77.6289 309.033L93.9252 280.766M45.0307 478.633H77.6289M45.0307 478.633L28.7344 450.367L45.0307 422.1M45.0307 478.633L28.7344 506.9L45.0307 535.167H77.6289L93.9252 506.9M77.6289 478.633L93.9252 450.367M77.6289 478.633L93.9252 506.9M93.9252 450.367L77.6289 422.1M93.9252 450.367L110.221 422.1M93.9252 450.367L110.221 478.633M77.6289 422.1H45.0307M77.6289 422.1L93.9252 393.833M93.9252 54.6323L110.221 26.3655M93.9252 54.6323L110.221 82.899M93.9252 280.766L110.221 252.499M93.9252 280.766L110.221 309.033M93.9252 167.699L110.221 139.432M93.9252 167.699L110.221 195.966M93.9252 393.833L110.221 365.566M93.9252 393.833L110.221 422.1M93.9252 506.9L110.221 478.633M93.9252 506.9L110.221 535.167H142.82L159.116 506.9M305.794 26.3655H338.392M305.794 26.3655L289.498 -1.90124M305.794 26.3655L289.498 54.6323M338.392 26.3655L354.688 -1.90124M338.392 26.3655L354.688 54.6323M354.688 -1.90124L338.392 -30.168H305.794L289.498 -1.90124M354.688 -1.90124L370.985 -30.168H403.583L419.879 -1.90124M354.688 -1.90124L370.985 26.3655M289.498 -1.90124L273.201 26.3655M289.498 -1.90124L273.201 -30.168H240.603L224.307 -1.90124M305.794 252.499H338.392M305.794 252.499L289.498 224.233M305.794 252.499L289.498 280.766M338.392 252.499L354.688 224.233M338.392 252.499L354.688 280.766M354.688 224.233L338.392 195.966M354.688 224.233L370.985 195.966M354.688 224.233L370.985 252.499M338.392 195.966H305.794M338.392 195.966L354.688 167.699M305.794 195.966L289.498 224.233M305.794 195.966L289.498 167.699M289.498 224.233L273.201 252.499M289.498 224.233L273.201 195.966M305.794 139.432H338.392M305.794 139.432L289.498 111.166M305.794 139.432L289.498 167.699M338.392 139.432L354.688 111.166M338.392 139.432L354.688 167.699M354.688 111.166L338.392 82.899M354.688 111.166L370.985 82.899M354.688 111.166L370.985 139.432M338.392 82.899H305.794M338.392 82.899L354.688 54.6323M305.794 82.899L289.498 111.166M305.794 82.899L289.498 54.6323M289.498 111.166L273.201 139.432M289.498 111.166L273.201 82.899M305.794 365.566H338.392M305.794 365.566L289.498 337.3M305.794 365.566L289.498 393.833M338.392 365.566L354.688 337.3M338.392 365.566L354.688 393.833M354.688 337.3L338.392 309.033M354.688 337.3L370.985 309.033M354.688 337.3L370.985 365.566M338.392 309.033H305.794M338.392 309.033L354.688 280.766M305.794 309.033L289.498 337.3M305.794 309.033L289.498 280.766M289.498 337.3L273.201 365.566M289.498 337.3L273.201 309.033M305.794 478.633H338.392M305.794 478.633L289.498 450.367M305.794 478.633L289.498 506.9M338.392 478.633L354.688 450.367M338.392 478.633L354.688 506.9M354.688 450.367L338.392 422.1M354.688 450.367L370.985 422.1M354.688 450.367L370.985 478.633M338.392 422.1H305.794M338.392 422.1L354.688 393.833M305.794 422.1L289.498 450.367M305.794 422.1L289.498 393.833M289.498 450.367L273.201 478.633M289.498 450.367L273.201 422.1M354.688 54.6323L370.985 26.3655M354.688 54.6323L370.985 82.899M289.498 54.6323L273.201 82.899M289.498 54.6323L273.201 26.3655M354.688 280.766L370.985 252.499M354.688 280.766L370.985 309.033M289.498 280.766L273.201 309.033M289.498 280.766L273.201 252.499M354.688 167.699L370.985 139.432M354.688 167.699L370.985 195.966M289.498 167.699L273.201 195.966M289.498 167.699L273.201 139.432M354.688 393.833L370.985 365.566M354.688 393.833L370.985 422.1M289.498 393.833L273.201 422.1M289.498 393.833L273.201 365.566M354.688 506.9L338.392 535.167H305.794L289.498 506.9M354.688 506.9L370.985 478.633M354.688 506.9L370.985 535.167H403.583L419.879 506.9M289.498 506.9L273.201 535.167H240.603L224.307 506.9M289.498 506.9L273.201 478.633M175.412 26.3655H208.01M175.412 26.3655L159.116 -1.90124M175.412 26.3655L159.116 54.6323M208.01 26.3655L224.307 -1.90124M208.01 26.3655L224.307 54.6323M224.307 -1.90124L208.01 -30.168H175.412L159.116 -1.90124M224.307 -1.90124L240.603 26.3655M159.116 -1.90124L142.82 26.3655M175.412 252.499H208.01M175.412 252.499L159.116 224.233M175.412 252.499L159.116 280.766M208.01 252.499L224.307 224.233M208.01 252.499L224.307 280.766M224.307 224.233L208.01 195.966M224.307 224.233L240.603 195.966M224.307 224.233L240.603 252.499M208.01 195.966H175.412M208.01 195.966L224.307 167.699M175.412 195.966L159.116 224.233M175.412 195.966L159.116 167.699M159.116 224.233L142.82 252.499M159.116 224.233L142.82 195.966M175.412 139.432H208.01M175.412 139.432L159.116 111.166M175.412 139.432L159.116 167.699M208.01 139.432L224.307 111.166M208.01 139.432L224.307 167.699M224.307 111.166L208.01 82.899M224.307 111.166L240.603 82.899M224.307 111.166L240.603 139.432M208.01 82.899H175.412M208.01 82.899L224.307 54.6323M175.412 82.899L159.116 111.166M175.412 82.899L159.116 54.6323M159.116 111.166L142.82 139.432M159.116 111.166L142.82 82.899M175.412 365.566H208.01M175.412 365.566L159.116 337.3M175.412 365.566L159.116 393.833M208.01 365.566L224.307 337.3M208.01 365.566L224.307 393.833M224.307 337.3L208.01 309.033M224.307 337.3L240.603 309.033M224.307 337.3L240.603 365.566M208.01 309.033H175.412M208.01 309.033L224.307 280.766M175.412 309.033L159.116 337.3M175.412 309.033L159.116 280.766M159.116 337.3L142.82 365.566M159.116 337.3L142.82 309.033M175.412 478.633H208.01M175.412 478.633L159.116 450.367M175.412 478.633L159.116 506.9M208.01 478.633L224.307 450.367M208.01 478.633L224.307 506.9M224.307 450.367L208.01 422.1M224.307 450.367L240.603 422.1M224.307 450.367L240.603 478.633M208.01 422.1H175.412M208.01 422.1L224.307 393.833M175.412 422.1L159.116 450.367M175.412 422.1L159.116 393.833M159.116 450.367L142.82 478.633M159.116 450.367L142.82 422.1M224.307 54.6323L240.603 26.3655M224.307 54.6323L240.603 82.899M159.116 54.6323L142.82 82.899M159.116 54.6323L142.82 26.3655M224.307 280.766L240.603 252.499M224.307 280.766L240.603 309.033M159.116 280.766L142.82 309.033M159.116 280.766L142.82 252.499M224.307 167.699L240.603 139.432M224.307 167.699L240.603 195.966M159.116 167.699L142.82 195.966M159.116 167.699L142.82 139.432M224.307 393.833L240.603 365.566M224.307 393.833L240.603 422.1M159.116 393.833L142.82 422.1M159.116 393.833L142.82 365.566M224.307 506.9L208.01 535.167H175.412L159.116 506.9M224.307 506.9L240.603 478.633M159.116 506.9L142.82 478.633M436.176 26.3655H468.774M436.176 26.3655L419.879 -1.90124M436.176 26.3655L419.879 54.6323M468.774 26.3655L485.07 -1.90124M468.774 26.3655L485.07 54.6323M485.07 -1.90124L468.774 -30.168H436.176L419.879 -1.90124M485.07 -1.90124L501.366 -30.168H533.965L550.261 -1.90124L533.965 26.3655M485.07 -1.90124L501.366 26.3655M419.879 -1.90124L403.583 26.3655M436.176 252.499H468.774M436.176 252.499L419.879 224.233M436.176 252.499L419.879 280.766M468.774 252.499L485.07 224.233M468.774 252.499L485.07 280.766M485.07 224.233L468.774 195.966M485.07 224.233L501.366 195.966M485.07 224.233L501.366 252.499M468.774 195.966H436.176M468.774 195.966L485.07 167.699M436.176 195.966L419.879 224.233M436.176 195.966L419.879 167.699M419.879 224.233L403.583 252.499M419.879 224.233L403.583 195.966M436.176 139.432H468.774M436.176 139.432L419.879 111.166M436.176 139.432L419.879 167.699M468.774 139.432L485.07 111.166M468.774 139.432L485.07 167.699M485.07 111.166L468.774 82.899M485.07 111.166L501.366 82.899M485.07 111.166L501.366 139.432M468.774 82.899H436.176M468.774 82.899L485.07 54.6323M436.176 82.899L419.879 111.166M436.176 82.899L419.879 54.6323M419.879 111.166L403.583 139.432M419.879 111.166L403.583 82.899M436.176 365.566H468.774M436.176 365.566L419.879 337.3M436.176 365.566L419.879 393.833M468.774 365.566L485.07 337.3M468.774 365.566L485.07 393.833M485.07 337.3L468.774 309.033M485.07 337.3L501.366 309.033M485.07 337.3L501.366 365.566M468.774 309.033H436.176M468.774 309.033L485.07 280.766M436.176 309.033L419.879 337.3M436.176 309.033L419.879 280.766M419.879 337.3L403.583 365.566M419.879 337.3L403.583 309.033M436.176 478.633H468.774M436.176 478.633L419.879 450.367M436.176 478.633L419.879 506.9M468.774 478.633L485.07 450.367M468.774 478.633L485.07 506.9M485.07 450.367L468.774 422.1M485.07 450.367L501.366 422.1M485.07 450.367L501.366 478.633M468.774 422.1H436.176M468.774 422.1L485.07 393.833M436.176 422.1L419.879 450.367M436.176 422.1L419.879 393.833M419.879 450.367L403.583 478.633M419.879 450.367L403.583 422.1M485.07 54.6323L501.366 26.3655M485.07 54.6323L501.366 82.899M419.879 54.6323L403.583 82.899M419.879 54.6323L403.583 26.3655M485.07 280.766L501.366 252.499M485.07 280.766L501.366 309.033M419.879 280.766L403.583 309.033M419.879 280.766L403.583 252.499M485.07 167.699L501.366 139.432M485.07 167.699L501.366 195.966M419.879 167.699L403.583 195.966M419.879 167.699L403.583 139.432M485.07 393.833L501.366 365.566M485.07 393.833L501.366 422.1M419.879 393.833L403.583 422.1M419.879 393.833L403.583 365.566M485.07 506.9L468.774 535.167H436.176L419.879 506.9M485.07 506.9L501.366 478.633M485.07 506.9L501.366 535.167H533.965L550.261 506.9L533.965 478.633M419.879 506.9L403.583 478.633M110.221 26.3655H142.82M110.221 252.499H142.82M142.82 195.966H110.221M110.221 139.432H142.82M142.82 82.899H110.221M110.221 365.566H142.82M142.82 309.033H110.221M110.221 478.633H142.82M142.82 422.1H110.221M370.985 26.3655H403.583M370.985 252.499H403.583M403.583 195.966H370.985M370.985 139.432H403.583M403.583 82.899H370.985M370.985 365.566H403.583M403.583 309.033H370.985M370.985 478.633H403.583M403.583 422.1H370.985M240.603 26.3655H273.201M240.603 252.499H273.201M273.201 195.966H240.603M240.603 139.432H273.201M273.201 82.899H240.603M240.603 365.566H273.201M273.201 309.033H240.603M240.603 478.633H273.201M273.201 422.1H240.603M501.366 26.3655H533.965M533.965 26.3655L550.261 54.6323L533.965 82.899M501.366 252.499H533.965M533.965 252.499L550.261 224.233L533.965 195.966M533.965 252.499L550.261 280.766L533.965 309.033M533.965 195.966H501.366M533.965 195.966L550.261 167.699L533.965 139.432M501.366 139.432H533.965M533.965 139.432L550.261 111.166L533.965 82.899M533.965 82.899H501.366M501.366 365.566H533.965M533.965 365.566L550.261 337.3L533.965 309.033M533.965 365.566L550.261 393.833L533.965 422.1M533.965 309.033H501.366M501.366 478.633H533.965M533.965 478.633L550.261 450.367L533.965 422.1M533.965 422.1H501.366" stroke="url(#paint1_linear_8655_8020)" stroke-opacity="0.15" stroke-miterlimit="10"/>
</g>
</g>
<defs>
<filter id="filter0_dd_8655_8020" x="0" y="0" width="551" height="440" filterUnits="userSpaceOnUse" color-interpolation-filters="sRGB">
<feFlood flood-opacity="0" result="BackgroundImageFix"/>
<feColorMatrix in="SourceAlpha" type="matrix" values="0 0 0 0 0 0 0 0 0 0 0 0 0 0 0 0 0 0 127 0" result="hardAlpha"/>
<feMorphology radius="2" operator="erode" in="SourceAlpha" result="effect1_dropShadow_8655_8020"/>
<feOffset dy="2"/>
<feGaussianBlur stdDeviation="2"/>
<feComposite in2="hardAlpha" operator="out"/>
<feColorMatrix type="matrix" values="0 0 0 0 0 0 0 0 0 0 0 0 0 0 0 0 0 0 0.1 0"/>
<feBlend mode="normal" in2="BackgroundImageFix" result="effect1_dropShadow_8655_8020"/>
<feColorMatrix in="SourceAlpha" type="matrix" values="0 0 0 0 0 0 0 0 0 0 0 0 0 0 0 0 0 0 127 0" result="hardAlpha"/>
<feMorphology radius="1" operator="erode" in="SourceAlpha" result="effect2_dropShadow_8655_8020"/>
<feOffset dy="4"/>
<feGaussianBlur stdDeviation="3"/>
<feComposite in2="hardAlpha" operator="out"/>
<feColorMatrix type="matrix" values="0 0 0 0 0 0 0 0 0 0 0 0 0 0 0 0 0 0 0.1 0"/>
<feBlend mode="normal" in2="effect1_dropShadow_8655_8020" result="effect2_dropShadow_8655_8020"/>
<feBlend mode="normal" in="SourceGraphic" in2="effect2_dropShadow_8655_8020" result="shape"/>
</filter>
<linearGradient id="paint0_linear_8655_8020" x1="504.5" y1="19" x2="155.726" y2="449.24" gradientUnits="userSpaceOnUse">
<stop stop-color="#6779FF" stop-opacity="0.2"/>
<stop offset="0.25" stop-color="#93C1FF" stop-opacity="0.2"/>
<stop offset="0.891262" stop-color="#7599F4" stop-opacity="0.2"/>
<stop offset="1" stop-color="#9FBFFF" stop-opacity="0.61"/>
</linearGradient>
<linearGradient id="paint1_linear_8655_8020" x1="477.372" y1="47.4148" x2="342.522" y2="217.443" gradientUnits="userSpaceOnUse">
<stop stop-color="#318EFF"/>
<stop offset="1" stop-color="#318EFF" stop-opacity="0"/>
</linearGradient>
<clipPath id="clip0_8655_8020">
<path d="M5 29C5 13.536 17.536 1 33 1H518C533.464 1 546 13.536 546 29V403C546 418.464 533.464 431 518 431H33C17.536 431 5 418.464 5 403V29Z" fill="white"/>
</clipPath>
</defs>
</svg>
