<svg width="551" height="440" viewBox="0 0 551 440" fill="none" xmlns="http://www.w3.org/2000/svg">
<g filter="url(#filter0_dd_8655_7863)">
<g clip-path="url(#clip0_8655_7863)">
<path d="M5 29C5 13.536 17.536 1 33 1H518C533.464 1 546 13.536 546 29V403C546 418.464 533.464 431 518 431H33C17.536 431 5 418.464 5 403V29Z" fill="url(#paint0_linear_8655_7863)"/>
<path d="M212.238 -7.88004H265.646M212.238 -7.88004L185.524 -54.16M212.238 -7.88004H158.82M212.238 -7.88004L238.942 -54.16M212.238 -7.88004L238.942 38.4M212.238 -7.88004L185.524 38.4M265.646 -7.88004L292.351 -54.16L265.646 -100.44M265.646 -7.88004H319.065M265.646 -7.88004L238.942 -54.16M265.646 -7.88004L292.351 38.4L265.646 84.68M265.646 -7.88004L238.942 38.4M265.646 -100.44H212.238M265.646 -100.44L292.351 -146.72L265.646 -193H212.238M265.646 -100.44H319.065L345.769 -54.16L319.065 -7.88004M265.646 -100.44L238.942 -54.16M212.238 -100.44L185.524 -54.16M212.238 -100.44L238.942 -54.16M212.238 -100.44L158.82 -100.44M212.238 -100.44L238.942 -146.72L212.238 -193M212.238 -100.44L185.524 -146.72M185.524 -54.16L158.82 -7.88004M185.524 -54.16L158.82 -100.44M212.238 362.336H265.646M212.238 362.336L185.524 316.056M212.238 362.336H158.82M212.238 362.336L238.942 316.056M212.238 362.336L238.942 408.616M212.238 362.336L185.524 408.616M265.646 362.336L292.351 316.056L265.646 269.776M265.646 362.336H319.065M265.646 362.336L238.942 316.056M265.646 362.336L292.351 408.616L265.646 454.896M265.646 362.336L238.942 408.616M265.646 269.776H212.238M265.646 269.776L292.351 223.496L265.646 177.216H212.238M265.646 269.776H319.065L345.769 316.056L319.065 362.336M265.646 269.776L238.942 316.056M212.238 269.776L185.524 316.056M212.238 269.776L238.942 316.056M212.238 269.776H158.82M212.238 269.776L238.942 223.496L212.238 177.216M212.238 269.776L185.524 223.496M185.524 316.056L158.82 362.336M185.524 316.056L158.82 269.776M51.9925 -100.44H105.411M51.9925 -100.44L25.2881 -146.72M51.9925 -100.44L78.697 -54.16M51.9925 -100.44H-1.41637M51.9925 -100.44L25.2881 -54.16M51.9925 -100.44L78.6972 -146.72M105.411 -100.44L132.115 -146.72M105.411 -100.44H158.82M105.411 -100.44L78.6972 -146.72M105.411 -100.44L132.115 -54.16M105.411 -100.44L78.697 -54.16M132.115 -146.72L105.411 -193M132.115 -146.72L158.82 -193M132.115 -146.72L158.82 -100.44M105.411 -193H51.9925M105.411 -193H158.82M105.411 -193L78.6972 -146.72M51.9925 -193L25.2881 -146.72M51.9925 -193L78.6972 -146.72M51.9925 -193H-1.41637M25.2881 -146.72L-1.41637 -100.44M25.2881 -146.72L-1.41637 -193M51.9925 269.776H105.411M51.9925 269.776L25.2881 223.496M51.9925 269.776L78.697 316.056M51.9925 269.776H-1.41637M51.9925 269.776L25.2881 316.056M51.9925 269.776L78.6972 223.496M105.411 269.776L132.115 223.496M105.411 269.776H158.82M105.411 269.776L78.6972 223.496M105.411 269.776L132.115 316.056M105.411 269.776L78.697 316.056M132.115 223.496L105.411 177.216M132.115 223.496L158.82 177.216M132.115 223.496L158.82 269.776M105.411 177.216H51.9925M105.411 177.216H158.82M105.411 177.216L78.6972 223.496M51.9925 177.216L25.2881 223.496M51.9925 177.216L78.6972 223.496M51.9925 177.216H-1.41637M25.2881 223.496L-1.41637 269.776M25.2881 223.496L-1.41637 177.216M158.82 -100.44L185.524 -146.72M158.82 -100.44L132.115 -54.16M185.524 -146.72L158.82 -193M185.524 -146.72L212.238 -193M158.82 -193H212.238M158.82 269.776L185.524 223.496M158.82 269.776L132.115 316.056M185.524 223.496L158.82 177.216M185.524 223.496L212.238 177.216M158.82 177.216H212.238M-54.8344 -100.44H-1.41637M-54.8344 -100.44L-81.5389 -146.72L-54.8344 -193H-1.41637M-54.8344 -100.44L-81.5389 -54.16L-54.8344 -7.88004M-1.41637 -100.44L-28.13 -54.16L-1.41641 -7.88004M-1.41637 -100.44L25.2881 -54.16M-1.41637 -100.44L-28.13 -146.72L-1.41637 -193M-54.8344 269.776H-1.41637M-54.8344 269.776L-81.5389 223.496L-54.8344 177.216H-1.41637M-54.8344 269.776L-81.5389 316.056L-54.8344 362.336M-1.41637 269.776L-28.13 316.056L-1.41641 362.336M-1.41637 269.776L25.2881 316.056M-1.41637 269.776L-28.13 223.496L-1.41637 177.216M-1.41641 -7.88004H51.9925M-1.41641 -7.88004H-54.8344M-1.41641 -7.88004L25.2881 -54.16M-1.41641 -7.88004L25.2881 38.4M-1.41641 -7.88004L-28.13 38.4L-1.41637 84.68M51.9925 -7.88004L78.697 -54.16M51.9925 -7.88004H105.411M51.9925 -7.88004L25.2881 -54.16M51.9925 -7.88004L78.697 38.4M51.9925 -7.88004L25.2881 38.4M78.697 -54.16L105.411 -7.88004M-1.41641 362.336H51.9925M-1.41641 362.336H-54.8344M-1.41641 362.336L25.2881 316.056M-1.41641 362.336L25.2881 408.616M-1.41641 362.336L-28.13 408.616L-1.41637 454.896M51.9925 362.336L78.697 316.056M51.9925 362.336H105.411M51.9925 362.336L25.2881 316.056M51.9925 362.336L78.697 408.616M51.9925 362.336L25.2881 408.616M78.697 316.056L105.411 362.336M105.411 -7.88004L132.115 -54.16M105.411 -7.88004H158.82M105.411 -7.88004L132.115 38.4M105.411 -7.88004L78.697 38.4M132.115 -54.16L158.82 -7.88004M105.411 362.336L132.115 316.056M105.411 362.336H158.82M105.411 362.336L132.115 408.616M105.411 362.336L78.697 408.616M132.115 316.056L158.82 362.336M158.82 -7.88004L132.115 38.4M158.82 -7.88004L185.524 38.4M158.82 362.336L132.115 408.616M158.82 362.336L185.524 408.616M-54.8344 -7.88004L-81.5389 38.4L-54.8344 84.68M-54.8344 362.336L-81.5389 408.616L-54.8344 454.896M319.065 -7.88004L345.769 38.4L319.065 84.68M319.065 362.336L345.769 408.616L319.065 454.896M-1.41637 177.24H-54.8344L-81.5389 130.96L-54.8344 84.68M-1.41637 177.24L25.2881 130.96M-1.41637 177.24H51.9925M-1.41637 177.24L-28.13 130.96L-1.41637 84.68M25.2881 130.96L-1.41637 84.68M25.2881 130.96L51.9925 84.68M25.2881 130.96L51.9925 177.24M-1.41637 84.68H-54.8344M-1.41637 84.68L25.2881 38.4M-1.41637 84.68H51.9925M-1.41637 547.456H-54.8344L-81.5389 501.176L-54.8344 454.896M-1.41637 547.456L25.2881 501.176M-1.41637 547.456H51.9925M-1.41637 547.456L-28.13 501.176L-1.41637 454.896M25.2881 501.176L-1.41637 454.896M25.2881 501.176L51.9925 454.896M25.2881 501.176L51.9925 547.456M-1.41637 454.896H-54.8344M-1.41637 454.896L25.2881 408.616M-1.41637 454.896H51.9925M-1.41637 640H-54.8344L-81.5389 593.72L-54.8344 547.44H-1.41637M-1.41637 640L25.2881 593.72M-1.41637 640H51.9925M-1.41637 640L-28.13 593.72L-1.41637 547.44M25.2881 593.72L-1.41637 547.44M25.2881 593.72L51.9925 547.44M25.2881 593.72L51.9925 640M-1.41637 547.44H51.9925M25.2881 38.4L51.9925 84.68M25.2881 408.616L51.9925 454.896M51.9925 84.68L78.697 38.4M51.9925 84.68H105.411M51.9925 84.68L78.697 130.96M78.697 38.4L105.411 84.68M51.9925 454.896L78.697 408.616M51.9925 454.896H105.411M51.9925 454.896L78.697 501.176M78.697 408.616L105.411 454.896M105.411 84.68L132.115 38.4M105.411 84.68H158.82M105.411 84.68L132.115 130.96M105.411 84.68L78.697 130.96M132.115 38.4L158.82 84.68M105.411 454.896L132.115 408.616M105.411 454.896H158.82M105.411 454.896L132.115 501.176M105.411 454.896L78.697 501.176M132.115 408.616L158.82 454.896M51.9925 177.24L78.697 130.96M51.9925 177.24H105.411M78.697 130.96L105.411 177.24M51.9925 547.456L78.697 501.176M51.9925 547.456H105.411M78.697 501.176L105.411 547.456M51.9925 640L78.697 593.72M51.9925 640H105.411M78.697 593.72L51.9925 547.44M78.697 593.72L105.411 547.44M78.697 593.72L105.411 640M51.9925 547.44H105.411M158.82 84.68H212.238M158.82 84.68L185.524 38.4M158.82 84.68L185.524 130.96M158.82 84.68L132.115 130.96M212.238 84.68L238.942 38.4M212.238 84.68L238.942 130.96M212.238 84.68H265.646M212.238 84.68L185.524 130.96M212.238 84.68L185.524 38.4M238.942 38.4L265.646 84.68M158.82 454.896H212.238M158.82 454.896L185.524 408.616M158.82 454.896L185.524 501.176M158.82 454.896L132.115 501.176M212.238 454.896L238.942 408.616M212.238 454.896L238.942 501.176M212.238 454.896H265.646M212.238 454.896L185.524 501.176M212.238 454.896L185.524 408.616M238.942 408.616L265.646 454.896M105.411 177.24L132.115 130.96M105.411 177.24H158.82M132.115 130.96L158.82 177.24M105.411 547.456L132.115 501.176M105.411 547.456H158.82M132.115 501.176L158.82 547.456M105.411 640L132.115 593.72M105.411 640H158.82M132.115 593.72L105.411 547.44M132.115 593.72L158.82 547.44M132.115 593.72L158.82 640M105.411 547.44H158.82M158.82 177.24L185.524 130.96M158.82 177.24H212.238M185.524 130.96L212.238 177.24M158.82 547.456L185.524 501.176M158.82 547.456H212.238M185.524 501.176L212.238 547.456M158.82 640L185.524 593.72M158.82 640H212.238M185.524 593.72L158.82 547.44M185.524 593.72L212.238 547.44M185.524 593.72L212.238 640M158.82 547.44H212.238M212.238 177.24L238.942 130.96M212.238 177.24H265.646M238.942 130.96L265.646 84.68M238.942 130.96L265.646 177.24M212.238 547.456L238.942 501.176M212.238 547.456H265.646M238.942 501.176L265.646 454.896M238.942 501.176L265.646 547.456M212.238 640L238.942 593.72M212.238 640H265.646M238.942 593.72L212.238 547.44M238.942 593.72L265.646 547.44M238.942 593.72L265.646 640M212.238 547.44H265.646M639.262 -100.44H692.68M639.262 -100.44L612.558 -146.72L639.262 -193M639.262 -100.44L665.967 -54.16L639.262 -7.88004M639.262 -100.44L585.853 -100.44M639.262 -100.44L612.558 -54.16M639.262 -100.44L665.967 -146.72L639.262 -193M692.68 -100.44L719.385 -146.72L692.68 -193H639.262M692.68 -100.44L719.385 -54.16L692.68 -7.88004M639.262 -193H585.853L559.149 -146.72L585.853 -100.44M639.262 269.776H692.68M639.262 269.776L612.558 223.496L639.262 177.216M639.262 269.776L665.967 316.056L639.262 362.336M639.262 269.776H585.853M639.262 269.776L612.558 316.056M639.262 269.776L665.967 223.496L639.262 177.216M692.68 269.776L719.385 223.496L692.68 177.216H639.262M692.68 269.776L719.385 316.056L692.68 362.336M639.262 177.216H585.853L559.149 223.496L585.853 269.776M585.853 -7.88004H639.262M585.853 -7.88004L559.149 -54.16L585.853 -100.44M585.853 -7.88004L559.149 38.4L585.853 84.68M585.853 -7.88004H532.435M585.853 -7.88004L612.558 -54.16M585.853 -7.88004L612.558 38.4M639.262 -7.88004H692.68M639.262 -7.88004L612.558 -54.16M639.262 -7.88004L665.967 38.4L639.262 84.68M639.262 -7.88004L612.558 38.4M585.853 -100.44L612.558 -54.16M585.853 -100.44H532.435M585.853 362.336H639.262M585.853 362.336L559.149 316.056L585.853 269.776M585.853 362.336L559.149 408.616L585.853 454.896M585.853 362.336H532.435M585.853 362.336L612.558 316.056M585.853 362.336L612.558 408.616M639.262 362.336H692.68M639.262 362.336L612.558 316.056M639.262 362.336L665.967 408.616L639.262 454.896M639.262 362.336L612.558 408.616M585.853 269.776L612.558 316.056M585.853 269.776H532.435M692.68 -7.88004L719.385 38.4L692.68 84.68M692.68 362.336L719.385 408.616L692.68 454.896M585.853 84.68H639.262M585.853 84.68L559.149 130.96L585.853 177.24M585.853 84.68L612.558 130.96M585.853 84.68H532.435M585.853 84.68L612.558 38.4M639.262 84.68H692.68M639.262 84.68L612.558 38.4M639.262 84.68L665.967 130.96L639.262 177.24M639.262 84.68L612.558 130.96M585.853 454.896H639.262M585.853 454.896L559.149 501.176L585.853 547.456M585.853 454.896L612.558 501.176M585.853 454.896H532.435M585.853 454.896L612.558 408.616M639.262 454.896H692.68M639.262 454.896L612.558 408.616M639.262 454.896L665.967 501.176L639.262 547.456M639.262 454.896L612.558 501.176M692.68 84.68L719.385 130.96L692.68 177.24H639.262M692.68 454.896L719.385 501.176L692.68 547.456H639.262M585.853 177.24H639.262M585.853 177.24H532.435M585.853 177.24L612.558 130.96M639.262 177.24L612.558 130.96M585.853 547.456H639.262M585.853 547.456H532.435M585.853 547.456L612.558 501.176M639.262 547.456L612.558 501.176M585.853 640H639.262M585.853 640L559.149 593.72L585.853 547.44M585.853 640H532.435M585.853 640L612.558 593.72M639.262 640L665.967 593.72L639.262 547.44M639.262 640H692.68L719.385 593.72L692.68 547.44H639.262M639.262 640L612.558 593.72M639.262 547.44H585.853M639.262 547.44L612.558 593.72M585.853 547.44L612.558 593.72M585.853 547.44H532.435M265.646 177.24L292.351 130.96L265.646 84.68M265.646 177.24H319.065L345.769 130.96L319.065 84.68M265.646 84.68H319.065M265.646 547.456L292.351 501.176L265.646 454.896M265.646 547.456H319.065L345.769 501.176L319.065 454.896M265.646 454.896H319.065M265.646 640L292.351 593.72L265.646 547.44M265.646 640H319.065L345.769 593.72L319.065 547.44H265.646M479.026 -7.88004H532.435M479.026 -7.88004L452.313 -54.16M479.026 -7.88004H425.608M479.026 -7.88004L505.731 -54.16M479.026 -7.88004L505.731 38.4M479.026 -7.88004L452.313 38.4M532.435 -7.88004L559.14 -54.16L532.435 -100.44M532.435 -7.88004L505.731 -54.16M532.435 -7.88004L559.14 38.4L532.435 84.68M532.435 -7.88004L505.731 38.4M532.435 -100.44H479.026M532.435 -100.44L559.14 -146.72L532.435 -193H479.026M532.435 -100.44L505.731 -54.16M479.026 -100.44L452.313 -54.16M479.026 -100.44L505.731 -54.16M479.026 -100.44L425.608 -100.44M479.026 -100.44L505.731 -146.72L479.026 -193M479.026 -100.44L452.313 -146.72M452.313 -54.16L425.608 -7.88004M452.313 -54.16L425.608 -100.44M479.026 362.336H532.435M479.026 362.336L452.313 316.056M479.026 362.336H425.608M479.026 362.336L505.731 316.056M479.026 362.336L505.731 408.616M479.026 362.336L452.313 408.616M532.435 362.336L559.14 316.056L532.435 269.776M532.435 362.336L505.731 316.056M532.435 362.336L559.14 408.616L532.435 454.896M532.435 362.336L505.731 408.616M532.435 269.776H479.026M532.435 269.776L559.14 223.496L532.435 177.216H479.026M532.435 269.776L505.731 316.056M479.026 269.776L452.313 316.056M479.026 269.776L505.731 316.056M479.026 269.776H425.608M479.026 269.776L505.731 223.496L479.026 177.216M479.026 269.776L452.313 223.496M452.313 316.056L425.608 362.336M452.313 316.056L425.608 269.776M318.781 -100.44H372.19M318.781 -100.44L292.077 -146.72L318.781 -193H372.19M318.781 -100.44L292.077 -54.16L318.781 -7.88004M372.19 -100.44L398.904 -146.72M372.19 -100.44H425.608M372.19 -100.44L345.486 -146.72L372.19 -193M372.19 -100.44L398.904 -54.16M372.19 -100.44L345.486 -54.16L372.19 -7.88004M398.904 -146.72L372.19 -193M398.904 -146.72L425.608 -193M398.904 -146.72L425.608 -100.44M372.19 -193H425.608M318.781 269.776H372.19M318.781 269.776L292.077 223.496L318.781 177.216H372.19M318.781 269.776L292.077 316.056L318.781 362.336M372.19 269.776L398.904 223.496M372.19 269.776H425.608M372.19 269.776L345.486 223.496L372.19 177.216M372.19 269.776L398.904 316.056M372.19 269.776L345.486 316.056L372.19 362.336M398.904 223.496L372.19 177.216M398.904 223.496L425.608 177.216M398.904 223.496L425.608 269.776M372.19 177.216H425.608M425.608 -100.44L452.313 -146.72M425.608 -100.44L398.904 -54.16M452.313 -146.72L425.608 -193M452.313 -146.72L479.026 -193M425.608 -193H479.026M425.608 269.776L452.313 223.496M425.608 269.776L398.904 316.056M452.313 223.496L425.608 177.216M452.313 223.496L479.026 177.216M425.608 177.216H479.026M318.781 -7.88004H372.19M318.781 -7.88004L292.077 38.4L318.781 84.68M372.19 -7.88004L398.904 -54.16M372.19 -7.88004H425.608M372.19 -7.88004L398.904 38.4M372.19 -7.88004L345.486 38.4L372.19 84.68M398.904 -54.16L425.608 -7.88004M318.781 362.336H372.19M318.781 362.336L292.077 408.616L318.781 454.896M372.19 362.336L398.904 316.056M372.19 362.336H425.608M372.19 362.336L398.904 408.616M372.19 362.336L345.486 408.616L372.19 454.896M398.904 316.056L425.608 362.336M425.608 -7.88004L398.904 38.4M425.608 -7.88004L452.313 38.4M425.608 362.336L398.904 408.616M425.608 362.336L452.313 408.616M318.781 84.68H372.19M318.781 84.68L292.077 130.96L318.781 177.24H372.19M372.19 84.68L398.904 38.4M372.19 84.68H425.608M372.19 84.68L398.904 130.96M372.19 84.68L345.486 130.96L372.19 177.24M398.904 38.4L425.608 84.68M318.781 454.896H372.19M318.781 454.896L292.077 501.176L318.781 547.456H372.19M372.19 454.896L398.904 408.616M372.19 454.896H425.608M372.19 454.896L398.904 501.176M372.19 454.896L345.486 501.176L372.19 547.456M398.904 408.616L425.608 454.896M425.608 84.68H479.026M425.608 84.68L452.313 38.4M425.608 84.68L452.313 130.96M425.608 84.68L398.904 130.96M479.026 84.68L505.731 38.4M479.026 84.68L505.731 130.96M479.026 84.68H532.435M479.026 84.68L452.313 130.96M479.026 84.68L452.313 38.4M505.731 38.4L532.435 84.68M425.608 454.896H479.026M425.608 454.896L452.313 408.616M425.608 454.896L452.313 501.176M425.608 454.896L398.904 501.176M479.026 454.896L505.731 408.616M479.026 454.896L505.731 501.176M479.026 454.896H532.435M479.026 454.896L452.313 501.176M479.026 454.896L452.313 408.616M505.731 408.616L532.435 454.896M372.19 177.24L398.904 130.96M372.19 177.24H425.608M398.904 130.96L425.608 177.24M372.19 547.456L398.904 501.176M372.19 547.456H425.608M398.904 501.176L425.608 547.456M372.19 640H318.781L292.077 593.72L318.781 547.44H372.19M372.19 640L398.904 593.72M372.19 640H425.608M372.19 640L345.486 593.72L372.19 547.44M398.904 593.72L372.19 547.44M398.904 593.72L425.608 547.44M398.904 593.72L425.608 640M372.19 547.44H425.608M425.608 177.24L452.313 130.96M425.608 177.24H479.026M452.313 130.96L479.026 177.24M425.608 547.456L452.313 501.176M425.608 547.456H479.026M452.313 501.176L479.026 547.456M425.608 640L452.313 593.72M425.608 640H479.026M452.313 593.72L425.608 547.44M452.313 593.72L479.026 547.44M452.313 593.72L479.026 640M425.608 547.44H479.026M479.026 177.24L505.731 130.96M479.026 177.24H532.435M505.731 130.96L532.435 84.68M505.731 130.96L532.435 177.24M479.026 547.456L505.731 501.176M479.026 547.456H532.435M505.731 501.176L532.435 454.896M505.731 501.176L532.435 547.456M479.026 640L505.731 593.72M479.026 640H532.435M505.731 593.72L479.026 547.44M505.731 593.72L532.435 547.44M505.731 593.72L532.435 640M479.026 547.44H532.435M532.435 177.24L559.14 130.96L532.435 84.68M532.435 547.456L559.14 501.176L532.435 454.896M532.435 640L559.14 593.72L532.435 547.44M265.637 -100.44H319.046L345.76 -146.72L319.046 -193H265.637L238.933 -146.72L265.637 -100.44ZM265.637 269.776H319.046L345.76 223.496L319.046 177.216H265.637L238.933 223.496L265.637 269.776ZM532.426 -100.44H585.835L612.539 -146.72L585.835 -193H532.426L505.713 -146.72L532.426 -100.44ZM532.426 269.776H585.835L612.539 223.496L585.835 177.216H532.426L505.713 223.496L532.426 269.776ZM692.887 177.208H746.296L773 130.928L746.296 84.648H692.887L666.182 130.928L692.887 177.208ZM692.887 547.424H746.296L773 501.144L746.296 454.864H692.887L666.182 501.144L692.887 547.424ZM692.887 639.968H746.296L773 593.688L746.296 547.408H692.887L666.182 593.688L692.887 639.968ZM692.887 84.7201H746.296L773 38.4401L746.296 -7.83991H692.887L666.182 38.4401L692.887 84.7201ZM692.887 454.936H746.296L773 408.656L746.296 362.376H692.887L666.182 408.656L692.887 454.936ZM692.887 -7.84798H746.296L773 -54.128L746.296 -100.408H692.887L666.182 -54.128L692.887 -7.84798ZM692.887 362.368H746.296L773 316.088L746.296 269.808H692.887L666.182 316.088L692.887 362.368ZM692.887 -100.416H746.296L773 -146.696L746.296 -192.976H692.887L666.182 -146.696L692.887 -100.416ZM692.887 269.8H746.296L773 223.52L746.296 177.24H692.887L666.182 223.52L692.887 269.8ZM-108.286 -7.84797H-54.8775L-28.173 -54.128L-54.8775 -100.408H-108.286L-135 -54.128L-108.286 -7.84797ZM-108.286 362.368H-54.8775L-28.173 316.088L-54.8775 269.808H-108.286L-135 316.088L-108.286 362.368ZM-108.286 84.64H-54.8775L-28.173 38.36L-54.8775 -7.92004H-108.286L-135 38.36L-108.286 84.64ZM-108.286 454.856H-54.8775L-28.173 408.576L-54.8775 362.296H-108.286L-135 408.576L-108.286 454.856ZM-108.286 177.208H-54.8775L-28.173 130.928L-54.8775 84.648H-108.286L-135 130.928L-108.286 177.208ZM-108.286 547.424H-54.8775L-28.173 501.144L-54.8775 454.864H-108.286L-135 501.144L-108.286 547.424ZM-108.286 639.968H-54.8775L-28.173 593.688L-54.8775 547.408H-108.286L-135 593.688L-108.286 639.968ZM-108.286 -100.416H-54.8775L-28.173 -146.696L-54.8775 -192.976H-108.286L-135 -146.696L-108.286 -100.416ZM-108.286 269.8H-54.8775L-28.173 223.52L-54.8775 177.24H-108.286L-135 223.52L-108.286 269.8Z" stroke="url(#paint1_linear_8655_7863)" stroke-opacity="0.15" stroke-miterlimit="10"/>
</g>
</g>
<defs>
<filter id="filter0_dd_8655_7863" x="0" y="0" width="551" height="440" filterUnits="userSpaceOnUse" color-interpolation-filters="sRGB">
<feFlood flood-opacity="0" result="BackgroundImageFix"/>
<feColorMatrix in="SourceAlpha" type="matrix" values="0 0 0 0 0 0 0 0 0 0 0 0 0 0 0 0 0 0 127 0" result="hardAlpha"/>
<feMorphology radius="2" operator="erode" in="SourceAlpha" result="effect1_dropShadow_8655_7863"/>
<feOffset dy="2"/>
<feGaussianBlur stdDeviation="2"/>
<feComposite in2="hardAlpha" operator="out"/>
<feColorMatrix type="matrix" values="0 0 0 0 0 0 0 0 0 0 0 0 0 0 0 0 0 0 0.1 0"/>
<feBlend mode="normal" in2="BackgroundImageFix" result="effect1_dropShadow_8655_7863"/>
<feColorMatrix in="SourceAlpha" type="matrix" values="0 0 0 0 0 0 0 0 0 0 0 0 0 0 0 0 0 0 127 0" result="hardAlpha"/>
<feMorphology radius="1" operator="erode" in="SourceAlpha" result="effect2_dropShadow_8655_7863"/>
<feOffset dy="4"/>
<feGaussianBlur stdDeviation="3"/>
<feComposite in2="hardAlpha" operator="out"/>
<feColorMatrix type="matrix" values="0 0 0 0 0 0 0 0 0 0 0 0 0 0 0 0 0 0 0.1 0"/>
<feBlend mode="normal" in2="effect1_dropShadow_8655_7863" result="effect2_dropShadow_8655_7863"/>
<feBlend mode="normal" in="SourceGraphic" in2="effect2_dropShadow_8655_7863" result="shape"/>
</filter>
<linearGradient id="paint0_linear_8655_7863" x1="28" y1="892" x2="275" y2="113" gradientUnits="userSpaceOnUse">
<stop stop-color="#E8E7EB"/>
<stop offset="0.429669" stop-color="#A3BCF1"/>
<stop offset="1" stop-color="#FCFCFC"/>
</linearGradient>
<linearGradient id="paint1_linear_8655_7863" x1="628.426" y1="-45.2644" x2="120.52" y2="596.512" gradientUnits="userSpaceOnUse">
<stop stop-color="#318EFF"/>
<stop offset="0.5" stop-color="#318EFF" stop-opacity="0"/>
<stop offset="1" stop-color="#318EFF"/>
</linearGradient>
<clipPath id="clip0_8655_7863">
<path d="M5 29C5 13.536 17.536 1 33 1H518C533.464 1 546 13.536 546 29V403C546 418.464 533.464 431 518 431H33C17.536 431 5 418.464 5 403V29Z" fill="white"/>
</clipPath>
</defs>
</svg>
