<svg width="1122" height="288" viewBox="0 0 1122 288" fill="none" xmlns="http://www.w3.org/2000/svg">
<g filter="url(#filter0_dd_7598_12282)">
<g clip-path="url(#clip0_7598_12282)">
<path d="M5 29C5 13.536 17.536 1 33 1H1088.98C1104.44 1 1116.98 13.536 1116.98 29V250.95C1116.98 266.414 1104.44 278.95 1088.98 278.95H33C17.536 278.95 5 266.414 5 250.95V29Z" fill="url(#paint0_linear_7598_12282)" shape-rendering="crispEdges"/>
<line x1="203.5" y1="332" x2="203.5" y2="32" stroke="url(#paint1_linear_7598_12282)"/>
<line x1="153.5" y1="332" x2="153.5" y2="32" stroke="url(#paint2_linear_7598_12282)"/>
<line x1="103.5" y1="332" x2="103.5" y2="32" stroke="url(#paint3_linear_7598_12282)"/>
<line x1="53.5" y1="332" x2="53.5" y2="32" stroke="url(#paint4_linear_7598_12282)"/>
<line x1="248" y1="232.5" x2="2" y2="232.5" stroke="url(#paint5_linear_7598_12282)"/>
<line x1="248" y1="182.5" x2="2" y2="182.5" stroke="url(#paint6_linear_7598_12282)"/>
<line x1="248" y1="132.5" x2="2" y2="132.5" stroke="url(#paint7_linear_7598_12282)"/>
<line x1="248" y1="82.5" x2="2" y2="82.5" stroke="url(#paint8_linear_7598_12282)"/>
</g>
</g>
<defs>
<filter id="filter0_dd_7598_12282" x="0" y="0" width="1121.98" height="287.95" filterUnits="userSpaceOnUse" color-interpolation-filters="sRGB">
<feFlood flood-opacity="0" result="BackgroundImageFix"/>
<feColorMatrix in="SourceAlpha" type="matrix" values="0 0 0 0 0 0 0 0 0 0 0 0 0 0 0 0 0 0 127 0" result="hardAlpha"/>
<feMorphology radius="2" operator="erode" in="SourceAlpha" result="effect1_dropShadow_7598_12282"/>
<feOffset dy="2"/>
<feGaussianBlur stdDeviation="2"/>
<feComposite in2="hardAlpha" operator="out"/>
<feColorMatrix type="matrix" values="0 0 0 0 0 0 0 0 0 0 0 0 0 0 0 0 0 0 0.1 0"/>
<feBlend mode="normal" in2="BackgroundImageFix" result="effect1_dropShadow_7598_12282"/>
<feColorMatrix in="SourceAlpha" type="matrix" values="0 0 0 0 0 0 0 0 0 0 0 0 0 0 0 0 0 0 127 0" result="hardAlpha"/>
<feMorphology radius="1" operator="erode" in="SourceAlpha" result="effect2_dropShadow_7598_12282"/>
<feOffset dy="4"/>
<feGaussianBlur stdDeviation="3"/>
<feComposite in2="hardAlpha" operator="out"/>
<feColorMatrix type="matrix" values="0 0 0 0 0 0 0 0 0 0 0 0 0 0 0 0 0 0 0.1 0"/>
<feBlend mode="normal" in2="effect1_dropShadow_7598_12282" result="effect2_dropShadow_7598_12282"/>
<feBlend mode="normal" in="SourceGraphic" in2="effect2_dropShadow_7598_12282" result="shape"/>
</filter>
<linearGradient id="paint0_linear_7598_12282" x1="321.5" y1="1.00001" x2="322.822" y2="279.017" gradientUnits="userSpaceOnUse">
<stop stop-color="#635BFF" stop-opacity="0.3"/>
<stop offset="0.5" stop-color="#3581FF" stop-opacity="0.2"/>
<stop offset="1" stop-color="#2E96FF" stop-opacity="0.2"/>
</linearGradient>
<linearGradient id="paint1_linear_7598_12282" x1="204.5" y1="332" x2="204.5" y2="32" gradientUnits="userSpaceOnUse">
<stop stop-color="white" stop-opacity="0.4"/>
<stop offset="1" stop-color="white" stop-opacity="0"/>
</linearGradient>
<linearGradient id="paint2_linear_7598_12282" x1="154.5" y1="332" x2="154.5" y2="32" gradientUnits="userSpaceOnUse">
<stop stop-color="white" stop-opacity="0.4"/>
<stop offset="1" stop-color="white" stop-opacity="0"/>
</linearGradient>
<linearGradient id="paint3_linear_7598_12282" x1="104.5" y1="332" x2="104.5" y2="32" gradientUnits="userSpaceOnUse">
<stop stop-color="white" stop-opacity="0.4"/>
<stop offset="1" stop-color="white" stop-opacity="0"/>
</linearGradient>
<linearGradient id="paint4_linear_7598_12282" x1="54.5" y1="332" x2="54.5" y2="32" gradientUnits="userSpaceOnUse">
<stop stop-color="white" stop-opacity="0.4"/>
<stop offset="1" stop-color="white" stop-opacity="0"/>
</linearGradient>
<linearGradient id="paint5_linear_7598_12282" x1="1.99999" y1="231.5" x2="248" y2="231.5" gradientUnits="userSpaceOnUse">
<stop stop-color="white" stop-opacity="0.4"/>
<stop offset="1" stop-color="white" stop-opacity="0"/>
</linearGradient>
<linearGradient id="paint6_linear_7598_12282" x1="1.99999" y1="181.5" x2="248" y2="181.5" gradientUnits="userSpaceOnUse">
<stop stop-color="white" stop-opacity="0.4"/>
<stop offset="1" stop-color="white" stop-opacity="0"/>
</linearGradient>
<linearGradient id="paint7_linear_7598_12282" x1="1.99999" y1="131.5" x2="248" y2="131.5" gradientUnits="userSpaceOnUse">
<stop stop-color="white" stop-opacity="0.4"/>
<stop offset="1" stop-color="white" stop-opacity="0"/>
</linearGradient>
<linearGradient id="paint8_linear_7598_12282" x1="1.99999" y1="81.5" x2="248" y2="81.5" gradientUnits="userSpaceOnUse">
<stop stop-color="white" stop-opacity="0.4"/>
<stop offset="1" stop-color="white" stop-opacity="0"/>
</linearGradient>
<clipPath id="clip0_7598_12282">
<path d="M5 29C5 13.536 17.536 1 33 1H1088.98C1104.44 1 1116.98 13.536 1116.98 29V250.95C1116.98 266.414 1104.44 278.95 1088.98 278.95H33C17.536 278.95 5 266.414 5 250.95V29Z" fill="white"/>
</clipPath>
</defs>
</svg>
