<svg width="30" height="30" viewBox="0 0 30 30" fill="none" xmlns="http://www.w3.org/2000/svg">
<path d="M3.2998 0.75H11.7002C13.1084 0.750105 14.2499 1.89163 14.25 3.2998V11.5918C14.25 13.8285 16.0632 15.6415 18.2998 15.6416H26.7002C28.1084 15.6417 29.25 16.7842 29.25 18.1924V26.7002C29.2499 28.1083 28.1083 29.2499 26.7002 29.25H18.2998C16.8917 29.2499 15.7501 28.1083 15.75 26.7002V18.4082C15.75 16.1716 13.9369 14.3575 11.7002 14.3574H3.2998C1.89155 14.3573 0.75 13.2159 0.75 11.8076V3.2998C0.750106 1.89163 1.89163 0.750106 3.2998 0.75Z" stroke="white" stroke-width="1.5"/>
</svg>
