<svg width="350" height="727" viewBox="0 0 350 727" fill="none" xmlns="http://www.w3.org/2000/svg">
<path d="M-362.188 38.6815L-319.518 72.9167L-327.394 18.2918L-284.725 52.5271L-292.6 -2.09789L-249.931 32.1374L-257.807 -22.4875L-215.138 11.7477L-222.999 -42.8858L-180.33 -8.65052L-188.205 -63.2755L-145.536 -29.0402L-153.412 -83.6651L-110.728 -49.4384L-118.604 -104.063L-75.9346 -69.8281L-83.81 -124.453L-41.1264 -90.2263L-49.0019 -144.851L-6.33285 -110.616L-14.1938 -165.249L28.4752 -131.014L20.5997 -185.639L63.2687 -151.404L55.3933 -206.029L98.0623 -171.794L90.1868 -226.418L132.87 -192.192L124.995 -246.817L167.664 -212.581L159.803 -267.215L202.472 -232.98L194.611 -287.613L237.295 -253.386L229.419 -308.011L272.088 -273.776L264.227 -328.41L306.911 -294.183L299.05 -348.816L341.734 -314.59M-220.506 287.765L-177.837 322.001L-185.712 267.376L-143.043 301.611L-150.919 246.986L-108.25 281.221L-116.125 226.596L-73.4561 260.832L-81.3171 206.198L-38.648 240.433L-46.5235 185.809L-3.85448 220.044L-11.73 165.419L30.9536 199.646L23.0781 145.021L65.7472 179.256L57.8716 124.631L100.555 158.858L92.6798 104.233L135.349 138.468L127.488 83.8345L170.157 118.07L162.281 63.4448L204.95 97.6801L197.075 43.0552L239.744 77.2904L231.868 22.6655L274.552 56.8922L266.677 2.26726L309.346 36.5025L301.485 -18.131L344.154 16.1043L336.293 -38.5292L378.977 -4.30249L371.101 -58.9274L413.77 -24.6922L405.909 -79.3256L448.593 -45.0989L440.732 -99.7324L483.415 -65.5057M-291.347 163.223L-248.678 197.459L-256.553 142.834L-213.884 177.069L-221.76 122.444L-179.091 156.679L-186.966 102.054L-144.297 136.29L-152.158 81.6562L-109.489 115.891L-117.364 61.2665L-74.6953 95.5018L-82.5708 40.8769L-39.8872 75.1036L-47.7627 20.4786L-5.0937 54.7139L-12.9692 0.0889534L29.7144 34.3157L21.8389 -20.3093L64.508 13.926L56.6471 -40.7075L99.3161 -6.47222L91.4406 -61.0972L134.11 -26.8619L126.234 -81.4868L168.903 -47.2515L161.028 -101.876L203.711 -67.6498L195.836 -122.275L238.505 -88.0395L230.644 -142.673L273.313 -108.438L265.452 -163.071L308.136 -128.844L300.26 -183.469L342.929 -149.234L335.068 -203.868L377.752 -169.641L369.891 -224.274L412.575 -190.048M-149.665 412.308L-106.996 446.543L-114.872 391.918L-72.2027 426.153L-80.0782 371.528L-37.4092 405.764L-45.2847 351.139L-2.61567 385.374L-10.4766 330.74L32.1925 364.976L24.3169 310.351L66.986 344.586L59.1105 289.961L101.794 324.188L93.9186 269.563L136.588 303.798L128.712 249.173L171.396 283.4L163.52 228.775L206.189 263.01L198.328 208.377L240.997 242.612L233.122 187.987L275.791 222.222L267.915 167.597L310.584 201.833L302.709 147.208L345.393 181.434L337.517 126.809L380.186 161.045L372.325 106.411L414.994 140.646L407.133 86.013L449.817 120.24L441.941 65.6148L484.611 99.85L476.75 45.2165L519.433 79.4432L511.572 24.8098L554.256 59.0365M-41.8368 601.876L0.832306 636.111L-7.04324 581.486L35.6258 615.722L27.7503 561.097L70.4194 595.332L62.5438 540.707L105.213 574.942L97.3519 520.309L140.021 554.544L132.145 499.919L174.815 534.154L166.939 479.53L209.623 513.756L201.747 459.131L244.416 493.367L236.541 438.742L279.224 472.968L271.349 418.343L314.018 452.579L306.157 397.945L348.826 432.18L340.95 377.555L383.62 411.791L375.744 357.166L418.413 391.401L410.537 336.776L453.221 371.003L445.346 316.378L488.015 350.613L480.154 295.98L522.823 330.215L514.962 275.581L557.646 309.808L549.77 255.183L592.439 289.418L584.578 234.785L627.262 269.012L619.401 214.378L662.085 248.605M-328.334 98.1971L-285.665 132.432L-293.541 77.8074L-250.872 112.043L-258.747 57.4178L-216.078 91.653L-223.954 37.0281L-181.284 71.2633L-189.145 16.6299L-146.476 50.8651L-154.352 -3.75983L-111.683 30.4754L-119.558 -24.1495L-76.8747 10.0772L-84.7502 -44.5477L-42.0812 -10.3125L-49.9567 -64.9374L-7.27304 -30.7107L-15.1485 -85.3356L27.5205 -51.1004L19.6596 -105.734L62.3286 -71.4986L54.4531 -126.124L97.1221 -91.8882L89.2467 -146.513L131.916 -112.278L124.04 -166.903L166.724 -132.676L158.848 -187.301L201.517 -153.066L193.656 -207.699L236.325 -173.464L228.465 -228.098L271.148 -193.871L263.273 -248.496L305.942 -214.261L298.081 -268.894L340.764 -234.667L332.904 -289.301L375.587 -255.074M-186.652 347.281L-143.983 381.516L-151.859 326.892L-109.19 361.127L-117.065 306.502L-74.3964 340.737L-82.2719 286.112L-39.6029 320.347L-47.4638 265.714L-4.79473 299.949L-12.6702 245.324L29.9988 279.56L22.1233 224.935L64.807 259.161L56.9314 204.536L99.6004 238.772L91.7249 184.147L134.409 218.373L126.533 163.748L169.202 197.984L161.341 143.35L204.01 177.586L196.135 122.961L238.804 157.196L230.928 102.571L273.597 136.806L265.722 82.1812L308.405 116.408L300.53 61.783L343.199 96.0183L335.338 41.3847L378.007 75.6201L370.146 20.9866L412.83 55.2133L404.954 0.588339L447.623 34.8236L439.762 -19.8099L482.446 14.4168L474.585 -40.2167L517.269 -5.98992M-78.8244 536.85L-36.1554 571.085L-44.0309 516.46L-1.36184 550.695L-9.23736 496.07L33.4317 530.306L25.5562 475.681L68.2252 509.916L60.3643 455.282L103.033 489.518L95.1578 434.893L137.827 469.128L129.951 414.503L172.635 448.73L164.759 394.105L207.429 428.34L199.553 373.715L242.237 407.942L234.361 353.317L277.03 387.552L269.169 332.919L311.838 367.154L303.963 312.529L346.632 346.764L338.756 292.139L381.425 326.375L373.55 271.75L416.233 305.976L408.358 251.351L451.027 285.587L443.166 230.953L485.835 265.189L477.974 210.555L520.658 244.782L512.782 190.157L555.451 224.392L547.591 169.759L590.274 203.985L582.413 149.352L625.097 183.579M-257.493 222.739L-214.824 256.974L-222.7 202.349L-180.031 236.585L-187.906 181.96L-145.237 216.195L-153.113 161.57L-110.444 195.805L-118.305 141.172L-75.6355 175.407L-83.511 120.782L-40.8419 155.017L-48.7174 100.393L-6.03378 134.619L-13.9093 79.9943L28.7597 114.23L20.8842 59.6046L63.5679 93.8314L55.6924 39.2064L98.3614 73.4416L90.5005 18.8082L133.17 53.0435L125.294 -1.58149L167.963 32.6538L160.088 -21.9712L202.757 12.2641L194.881 -42.3608L237.565 -8.13412L229.689 -62.7591L272.358 -28.5238L264.497 -83.1573L307.166 -48.922L299.305 -103.555L341.989 -69.3288L334.114 -123.954L376.783 -89.7185L368.922 -144.352L411.605 -110.125L403.744 -164.759L446.428 -130.532M-115.812 471.823L-73.143 506.059L-81.0185 451.434L-38.3495 485.669L-46.225 431.044L-3.55596 465.279L-11.4315 410.654L31.2376 444.89L23.3766 390.256L66.0457 424.491L58.1702 369.866L100.839 404.102L92.9637 349.477L135.647 383.703L127.772 329.078L170.441 363.314L162.565 308.689L205.249 342.916L197.374 288.291L240.043 322.526L232.182 267.892L274.851 302.128L266.975 247.503L309.644 281.738L301.769 227.113L344.438 261.348L336.562 206.723L379.246 240.95L371.37 186.325L414.039 220.56L406.179 165.927L448.848 200.162L440.987 145.529L483.67 179.755L475.795 125.13L518.464 159.366L510.603 104.732L553.286 138.959L545.426 84.3254L588.109 118.552M-7.98367 661.392L34.6854 695.627L26.8099 641.002L69.4789 675.237L61.6034 620.612L104.272 654.848L96.3969 600.223L139.066 634.458L131.205 579.825L173.874 614.06L165.999 559.435L208.668 593.67L200.792 539.045L243.476 573.272L235.6 518.647L278.269 552.882L270.394 498.257L313.077 532.484L305.202 477.859L347.871 512.094L340.01 457.461L382.679 491.696L374.804 437.071L417.473 471.306L409.597 416.681L452.266 450.917L444.391 396.292L487.074 430.519L479.199 375.894L521.868 410.129L514.007 355.495L556.676 389.731L548.815 335.097L591.499 369.324L583.623 314.699L626.292 348.934L618.431 294.301L661.115 328.527L653.254 273.894L695.938 308.121M-345.261 68.4393L-302.592 102.675L-310.467 48.0497L-267.798 82.2849L-275.674 27.66L-233.005 61.8953L-240.88 7.27032L-198.211 41.5056L-206.072 -13.1279L-163.403 21.1074L-171.279 -33.5176L-128.61 0.717693L-136.485 -53.9073L-93.8015 -19.6806L-101.677 -74.3055L-59.008 -40.0702L-66.8835 -94.6952L-24.1999 -60.4684L-32.0753 -115.093L10.5937 -80.8581L2.73278 -135.492L45.4018 -101.256L37.5263 -155.881L80.1953 -121.646L72.3198 -176.271L114.989 -142.036L107.113 -196.661L149.797 -162.434L141.921 -217.059L184.591 -182.824L176.73 -237.457L219.399 -203.222L211.538 -257.855L254.221 -223.629L246.346 -278.254L289.015 -244.018L281.154 -298.652L323.838 -264.425L315.977 -319.059L358.66 -284.832M-203.579 317.523L-160.91 351.759L-168.786 297.134L-126.117 331.369L-133.992 276.744L-91.3232 310.979L-99.1987 256.354L-56.5297 290.59L-64.3906 235.956L-21.7216 270.191L-29.5971 215.567L13.072 249.802L5.19648 195.177L47.8802 229.404L40.0046 174.779L82.6737 209.014L74.7981 154.389L117.482 188.616L109.606 133.991L152.275 168.226L144.414 113.592L187.083 147.828L179.208 93.2028L221.877 127.438L214.001 72.8132L256.67 107.048L248.795 52.4235L291.479 86.6502L283.603 32.0253L326.272 66.2606L318.411 11.627L361.08 45.8623L353.219 -8.77119L395.903 25.4555L388.027 -29.1694L430.697 5.06586L422.836 -49.5677L465.519 -15.3409L457.658 -69.9744L500.342 -35.7477M-274.42 192.981L-231.751 227.217L-239.627 172.592L-196.958 206.827L-204.833 152.202L-162.164 186.437L-170.04 131.812L-127.37 166.048L-135.231 111.414L-92.5623 145.649L-100.438 91.0244L-57.7688 125.26L-65.6443 70.6347L-22.9607 104.861L-30.8362 50.2365L11.8328 84.4717L3.95733 29.8468L46.641 64.0735L38.7655 9.44855L81.4345 43.6838L73.5736 -10.9497L116.243 23.2856L108.367 -31.3393L151.036 2.89596L143.161 -51.729L185.83 -17.4937L177.954 -72.1187L220.638 -37.8919L212.762 -92.5169L255.431 -58.2816L247.57 -112.915L290.239 -78.6798L282.379 -133.313L325.062 -99.0866L317.187 -153.712L359.856 -119.476L351.995 -174.11L394.678 -139.883L386.818 -194.517L429.501 -160.29M-132.738 442.065L-90.0694 476.301L-97.9449 421.676L-55.2759 455.911L-63.1514 401.286L-20.4824 435.521L-28.3579 380.896L14.3112 415.132L6.45024 360.498L49.1193 394.733L41.2438 340.108L83.9128 374.344L76.0373 319.719L118.721 353.945L110.845 299.321L153.514 333.556L145.639 278.931L188.323 313.158L180.447 258.533L223.116 292.768L215.255 238.134L257.924 272.37L250.049 217.745L292.718 251.98L284.842 197.355L327.511 231.59L319.636 176.965L362.319 211.192L354.444 156.567L397.113 190.802L389.252 136.169L431.921 170.404L424.06 115.771L466.744 149.997L458.868 95.3726L501.537 129.608L493.676 74.9743L536.36 109.201L528.499 54.5675L571.183 88.7942M-24.9102 631.634L17.7589 665.869L9.88334 611.244L52.5524 645.48L44.6769 590.855L87.3459 625.09L79.4704 570.465L122.139 604.7L114.279 550.067L156.948 584.302L149.072 529.677L191.741 563.912L183.866 509.287L226.549 543.514L218.674 488.889L261.343 523.124L253.467 468.499L296.151 502.726L288.275 448.101L330.944 482.337L323.083 427.703L365.753 461.938L357.877 407.313L400.546 441.549L392.671 386.924L435.34 421.159L427.464 366.534L470.148 400.761L462.272 346.136L504.941 380.371L497.08 325.738L539.749 359.973L531.888 305.339L574.572 339.566L566.697 284.941L609.366 319.176L601.505 264.543L644.188 298.77L636.327 244.136L679.011 278.363M-311.408 127.955L-268.739 162.19L-276.614 107.565L-233.945 141.801L-241.821 87.1756L-199.152 121.411L-207.027 66.786L-164.358 101.021L-172.219 46.3877L-129.55 80.623L-137.425 25.9981L-94.7564 60.2333L-102.632 5.60839L-59.9483 39.8351L-67.8238 -14.7898L-25.1548 19.4454L-33.0302 -35.1795L9.65337 -0.952785L1.77789 -55.5777L44.447 -21.3425L36.586 -75.976L79.255 -41.7407L71.3795 -96.3656L114.049 -62.1303L106.173 -116.755L148.842 -82.52L140.967 -137.145L183.65 -102.918L175.775 -157.543L218.444 -123.308L210.583 -177.941L253.252 -143.706L245.391 -198.34L288.075 -164.113L280.199 -218.738L322.868 -184.503L315.007 -239.136L357.691 -204.909L349.83 -259.543L392.514 -225.316M-169.726 377.039L-127.057 411.274L-134.933 356.649L-92.2635 390.885L-100.139 336.26L-57.47 370.495L-65.3455 315.87L-22.6764 350.105L-30.5374 295.472L12.1317 329.707L4.25616 275.082L46.9253 309.317L39.0497 254.692L81.7334 288.919L73.8579 234.294L116.527 268.53L108.651 213.905L151.335 248.131L143.46 193.506L186.129 227.742L178.268 173.108L220.937 207.343L213.061 152.718L255.73 186.954L247.855 132.329L290.524 166.564L282.648 111.939L325.332 146.166L317.456 91.5409L360.125 125.776L352.265 71.1426L394.934 105.378L387.073 50.7445L429.756 84.9712L421.881 30.3462L464.55 64.5815L456.689 9.94797L499.372 44.1747L491.512 -10.4588L534.195 23.768M-61.8977 566.608L-19.2286 600.843L-27.1042 546.218L15.5649 580.453L7.68939 525.828L50.3585 560.064L42.4829 505.439L85.152 539.674L77.291 485.04L119.96 519.276L112.085 464.651L154.754 498.886L146.878 444.261L189.562 478.488L181.686 423.863L224.355 458.098L216.48 403.473L259.163 437.7L251.288 383.075L293.957 417.31L286.096 362.677L328.765 396.912L320.89 342.287L363.559 376.522L355.683 321.897L398.352 356.133L390.477 301.508L433.16 335.734L425.285 281.109L467.954 315.345L460.093 260.711L502.762 294.946L494.901 240.313L537.585 274.54L529.709 219.915L572.378 254.15L564.517 199.516L607.201 233.743L599.34 179.11L642.024 213.336M-240.567 252.497L-197.898 286.732L-205.773 232.107L-163.104 266.343L-170.98 211.718L-128.311 245.953L-136.186 191.328L-93.5172 225.563L-101.378 170.93L-58.7091 205.165L-66.5846 150.54L-23.9156 184.775L-31.7911 130.15L10.8926 164.377L3.01708 109.752L45.6861 143.987L37.8106 89.3625L80.4942 123.589L72.6187 68.9642L115.288 103.199L107.427 48.566L150.096 82.8012L142.22 28.1763L184.889 62.4116L177.014 7.78666L219.683 42.0219L211.807 -12.603L254.491 21.6237L246.616 -33.0012L289.285 1.23403L281.424 -53.3995L324.093 -19.1642L316.232 -73.7977L358.915 -39.571L351.04 -94.1959L393.709 -59.9607L385.848 -114.594L428.532 -80.3675L420.671 -135.001L463.354 -100.774M-98.8854 501.581L-56.2163 535.816L-64.0918 481.191L-21.4228 515.427L-29.2983 460.802L13.3708 495.037L5.49524 440.412L48.1643 474.647L40.3034 420.014L82.9724 454.249L75.0969 399.624L117.766 433.859L109.89 379.235L152.574 413.461L144.699 358.836L187.368 393.072L179.492 338.447L222.176 372.673L214.3 318.048L256.969 352.284L249.108 297.65L291.777 331.885L283.902 277.261L326.571 311.496L318.695 256.871L361.364 291.106L353.489 236.481L396.173 270.708L388.297 216.083L430.966 250.318L423.105 195.685L465.774 229.92L457.913 175.286L500.597 209.513L492.721 154.888L535.391 189.124L527.53 134.49L570.213 168.717L562.352 114.083L605.036 148.31M8.9427 691.15L51.6117 725.385L43.7362 670.76L86.4053 704.995L78.5298 650.37L121.199 684.605L113.323 629.981L155.992 664.216L148.131 609.582L190.8 643.818L182.925 589.193L225.594 623.428L217.718 568.803L260.402 603.03L252.527 548.405L295.196 582.64L287.32 528.015L330.004 562.242L322.128 507.617L364.797 541.852L356.936 487.219L399.605 521.454L391.73 466.829L434.399 501.064L426.523 446.439L469.192 480.675L461.317 426.05L504.001 460.276L496.125 405.651L538.794 439.887L530.933 385.253L573.602 419.488L565.741 364.855L608.425 399.082L600.549 344.457L643.219 378.692L635.358 324.058L678.041 358.285L670.18 303.652L712.864 337.878" stroke="url(#paint0_linear_7435_16848)" stroke-opacity="0.09" stroke-miterlimit="10"/>
<defs>
<linearGradient id="paint0_linear_7435_16848" x1="345.167" y1="9.90861" x2="261.502" y2="298.468" gradientUnits="userSpaceOnUse">
<stop stop-color="white"/>
<stop offset="1" stop-color="white" stop-opacity="0"/>
</linearGradient>
</defs>
</svg>
