<svg width="566" height="280" viewBox="0 0 566 280" fill="none" xmlns="http://www.w3.org/2000/svg">
<path d="M621.776 -181.49H581.695M621.776 -181.49L641.812 -216.245L621.776 -251H581.695L561.658 -216.245M621.776 -181.49L641.812 -146.735L621.776 -111.981M581.695 -181.49L561.658 -216.245M581.695 -181.49L561.658 -146.735M561.658 -216.245L541.622 -251H501.541L481.504 -216.245M561.658 -216.245L541.622 -181.49M621.776 96.5485H581.695M621.776 96.5485L641.812 61.7937L621.776 27.0388M621.776 96.5485L641.812 131.303L621.776 166.058M581.695 96.5485L561.658 61.7937M581.695 96.5485L561.658 131.303M561.658 61.7937L581.695 27.0388M561.658 61.7937L541.622 27.0388M561.658 61.7937L541.622 96.5485M581.695 27.0388H621.776M581.695 27.0388L561.658 -7.71601M621.776 27.0388L641.812 -7.71601L621.776 -42.4709M621.776 -42.4709H581.695M621.776 -42.4709L641.812 -77.2258L621.776 -111.981M581.695 -42.4709L561.658 -77.2258M581.695 -42.4709L561.658 -7.71601M561.658 -77.2258L581.695 -111.981M561.658 -77.2258L541.622 -111.981M561.658 -77.2258L541.622 -42.4709M581.695 -111.981H621.776M581.695 -111.981L561.658 -146.735M621.776 235.568H581.695M621.776 235.568L641.812 200.813L621.776 166.058M621.776 235.568L641.812 270.323L621.776 305.078M581.695 235.568L561.658 200.813M581.695 235.568L561.658 270.323M561.658 200.813L581.695 166.058M561.658 200.813L541.622 166.058M561.658 200.813L541.622 235.568M581.695 166.058H621.776M581.695 166.058L561.658 131.303M621.776 374.587H581.695M621.776 374.587L641.812 339.832L621.776 305.078M621.776 374.587L641.812 409.342L621.776 444.097H581.695L561.658 409.342M581.695 374.587L561.658 339.832M581.695 374.587L561.658 409.342M561.658 339.832L581.695 305.078M561.658 339.832L541.622 305.078M561.658 339.832L541.622 374.587M581.695 305.078H621.776M581.695 305.078L561.658 270.323M561.658 -146.735L541.622 -181.49M561.658 -146.735L541.622 -111.981M561.658 131.303L541.622 96.5485M561.658 131.303L541.622 166.058M561.658 -7.71601L541.622 -42.4709M561.658 -7.71601L541.622 27.0388M561.658 270.323L541.622 235.568M561.658 270.323L541.622 305.078M561.658 409.342L541.622 374.587M561.658 409.342L541.622 444.097H501.541L481.504 409.342M301.159 -181.49H261.078M301.159 -181.49L321.196 -216.245M301.159 -181.49L321.196 -146.735M261.078 -181.49L241.042 -216.245M261.078 -181.49L241.042 -146.735M241.042 -216.245L261.078 -251H301.159L321.196 -216.245M241.042 -216.245L221.005 -251H180.924L160.887 -216.245M241.042 -216.245L221.005 -181.49M321.196 -216.245L341.233 -181.49M321.196 -216.245L341.233 -251H381.313L401.35 -216.245M301.159 96.5485H261.078M301.159 96.5485L321.196 61.7937M301.159 96.5485L321.196 131.303M261.078 96.5485L241.042 61.7937M261.078 96.5485L241.042 131.303M241.042 61.7937L261.078 27.0388M241.042 61.7937L221.005 27.0388M241.042 61.7937L221.005 96.5485M261.078 27.0388H301.159M261.078 27.0388L241.042 -7.71601M301.159 27.0388L321.196 61.7937M301.159 27.0388L321.196 -7.71601M321.196 61.7937L341.233 96.5485M321.196 61.7937L341.233 27.0388M301.159 -42.4709H261.078M301.159 -42.4709L321.196 -77.2258M301.159 -42.4709L321.196 -7.71601M261.078 -42.4709L241.042 -77.2258M261.078 -42.4709L241.042 -7.71601M241.042 -77.2258L261.078 -111.981M241.042 -77.2258L221.005 -111.981M241.042 -77.2258L221.005 -42.4709M261.078 -111.981H301.159M261.078 -111.981L241.042 -146.735M301.159 -111.981L321.196 -77.2258M301.159 -111.981L321.196 -146.735M321.196 -77.2258L341.233 -42.4709M321.196 -77.2258L341.233 -111.981M301.159 235.568H261.078M301.159 235.568L321.196 200.813M301.159 235.568L321.196 270.323M261.078 235.568L241.042 200.813M261.078 235.568L241.042 270.323M241.042 200.813L261.078 166.058M241.042 200.813L221.005 166.058M241.042 200.813L221.005 235.568M261.078 166.058H301.159M261.078 166.058L241.042 131.303M301.159 166.058L321.196 200.813M301.159 166.058L321.196 131.303M321.196 200.813L341.233 235.568M321.196 200.813L341.233 166.058M301.159 374.587H261.078M301.159 374.587L321.196 339.832M301.159 374.587L321.196 409.342M261.078 374.587L241.042 339.832M261.078 374.587L241.042 409.342M241.042 339.832L261.078 305.078M241.042 339.832L221.005 305.078M241.042 339.832L221.005 374.587M261.078 305.078H301.159M261.078 305.078L241.042 270.323M301.159 305.078L321.196 339.832M301.159 305.078L321.196 270.323M321.196 339.832L341.233 374.587M321.196 339.832L341.233 305.078M241.042 -146.735L221.005 -181.49M241.042 -146.735L221.005 -111.981M321.196 -146.735L341.233 -111.981M321.196 -146.735L341.233 -181.49M241.042 131.303L221.005 96.5485M241.042 131.303L221.005 166.058M321.196 131.303L341.233 166.058M321.196 131.303L341.233 96.5485M241.042 -7.71601L221.005 -42.4709M241.042 -7.71601L221.005 27.0388M321.196 -7.71601L341.233 27.0388M321.196 -7.71601L341.233 -42.4709M241.042 270.323L221.005 235.568M241.042 270.323L221.005 305.078M321.196 270.323L341.233 305.078M321.196 270.323L341.233 235.568M241.042 409.342L261.078 444.097H301.159L321.196 409.342M241.042 409.342L221.005 374.587M241.042 409.342L221.005 444.097H180.924L160.887 409.342M321.196 409.342L341.233 444.097H381.313L401.35 409.342M321.196 409.342L341.233 374.587M461.467 -181.49H421.387M461.467 -181.49L481.504 -216.245M461.467 -181.49L481.504 -146.735M421.387 -181.49L401.35 -216.245M421.387 -181.49L401.35 -146.735M401.35 -216.245L421.387 -251H461.467L481.504 -216.245M401.35 -216.245L381.313 -181.49M481.504 -216.245L501.541 -181.49M461.467 96.5485H421.387M461.467 96.5485L481.504 61.7937M461.467 96.5485L481.504 131.303M421.387 96.5485L401.35 61.7937M421.387 96.5485L401.35 131.303M401.35 61.7937L421.387 27.0388M401.35 61.7937L381.313 27.0388M401.35 61.7937L381.313 96.5485M421.387 27.0388H461.467M421.387 27.0388L401.35 -7.71601M461.467 27.0388L481.504 61.7937M461.467 27.0388L481.504 -7.71601M481.504 61.7937L501.541 96.5485M481.504 61.7937L501.541 27.0388M461.467 -42.4709H421.387M461.467 -42.4709L481.504 -77.2258M461.467 -42.4709L481.504 -7.71601M421.387 -42.4709L401.35 -77.2258M421.387 -42.4709L401.35 -7.71601M401.35 -77.2258L421.387 -111.981M401.35 -77.2258L381.313 -111.981M401.35 -77.2258L381.313 -42.4709M421.387 -111.981H461.467M421.387 -111.981L401.35 -146.735M461.467 -111.981L481.504 -77.2258M461.467 -111.981L481.504 -146.735M481.504 -77.2258L501.541 -42.4709M481.504 -77.2258L501.541 -111.981M461.467 235.568H421.387M461.467 235.568L481.504 200.813M461.467 235.568L481.504 270.323M421.387 235.568L401.35 200.813M421.387 235.568L401.35 270.323M401.35 200.813L421.387 166.058M401.35 200.813L381.313 166.058M401.35 200.813L381.313 235.568M421.387 166.058H461.467M421.387 166.058L401.35 131.303M461.467 166.058L481.504 200.813M461.467 166.058L481.504 131.303M481.504 200.813L501.541 235.568M481.504 200.813L501.541 166.058M461.467 374.587H421.387M461.467 374.587L481.504 339.832M461.467 374.587L481.504 409.342M421.387 374.587L401.35 339.832M421.387 374.587L401.35 409.342M401.35 339.832L421.387 305.078M401.35 339.832L381.313 305.078M401.35 339.832L381.313 374.587M421.387 305.078H461.467M421.387 305.078L401.35 270.323M461.467 305.078L481.504 339.832M461.467 305.078L481.504 270.323M481.504 339.832L501.541 374.587M481.504 339.832L501.541 305.078M401.35 -146.735L381.313 -181.49M401.35 -146.735L381.313 -111.981M481.504 -146.735L501.541 -111.981M481.504 -146.735L501.541 -181.49M401.35 131.303L381.313 96.5485M401.35 131.303L381.313 166.058M481.504 131.303L501.541 166.058M481.504 131.303L501.541 96.5485M401.35 -7.71601L381.313 -42.4709M401.35 -7.71601L381.313 27.0388M481.504 -7.71601L501.541 27.0388M481.504 -7.71601L501.541 -42.4709M401.35 270.323L381.313 235.568M401.35 270.323L381.313 305.078M481.504 270.323L501.541 305.078M481.504 270.323L501.541 235.568M401.35 409.342L421.387 444.097H461.467L481.504 409.342M401.35 409.342L381.313 374.587M481.504 409.342L501.541 374.587M140.851 -181.49H100.77M140.851 -181.49L160.887 -216.245M140.851 -181.49L160.887 -146.735M100.77 -181.49L80.7333 -216.245M100.77 -181.49L80.7333 -146.735M80.7333 -216.245L100.77 -251H140.851L160.887 -216.245M80.7333 -216.245L60.6965 -251H20.616L0.579151 -216.245L20.616 -181.49M80.7333 -216.245L60.6965 -181.49M160.887 -216.245L180.924 -181.49M140.851 96.5485H100.77M140.851 96.5485L160.887 61.7937M140.851 96.5485L160.887 131.303M100.77 96.5485L80.7333 61.7937M100.77 96.5485L80.7333 131.303M80.7333 61.7937L100.77 27.0388M80.7333 61.7937L60.6965 27.0388M80.7333 61.7937L60.6965 96.5485M100.77 27.0388H140.851M100.77 27.0388L80.7333 -7.71601M140.851 27.0388L160.887 61.7937M140.851 27.0388L160.887 -7.71601M160.887 61.7937L180.924 96.5485M160.887 61.7937L180.924 27.0388M140.851 -42.4709H100.77M140.851 -42.4709L160.887 -77.2258M140.851 -42.4709L160.887 -7.71601M100.77 -42.4709L80.7333 -77.2258M100.77 -42.4709L80.7333 -7.71601M80.7333 -77.2258L100.77 -111.981M80.7333 -77.2258L60.6965 -111.981M80.7333 -77.2258L60.6965 -42.4709M100.77 -111.981H140.851M100.77 -111.981L80.7333 -146.735M140.851 -111.981L160.887 -77.2258M140.851 -111.981L160.887 -146.735M160.887 -77.2258L180.924 -42.4709M160.887 -77.2258L180.924 -111.981M140.851 235.568H100.77M140.851 235.568L160.887 200.813M140.851 235.568L160.887 270.323M100.77 235.568L80.7333 200.813M100.77 235.568L80.7333 270.323M80.7333 200.813L100.77 166.058M80.7333 200.813L60.6965 166.058M80.7333 200.813L60.6965 235.568M100.77 166.058H140.851M100.77 166.058L80.7333 131.303M140.851 166.058L160.887 200.813M140.851 166.058L160.887 131.303M160.887 200.813L180.924 235.568M160.887 200.813L180.924 166.058M140.851 374.587H100.77M140.851 374.587L160.887 339.832M140.851 374.587L160.887 409.342M100.77 374.587L80.7333 339.832M100.77 374.587L80.7333 409.342M80.7333 339.832L100.77 305.078M80.7333 339.832L60.6965 305.078M80.7333 339.832L60.6965 374.587M100.77 305.078H140.851M100.77 305.078L80.7333 270.323M140.851 305.078L160.887 339.832M140.851 305.078L160.887 270.323M160.887 339.832L180.924 374.587M160.887 339.832L180.924 305.078M80.7333 -146.735L60.6965 -181.49M80.7333 -146.735L60.6965 -111.981M160.887 -146.735L180.924 -111.981M160.887 -146.735L180.924 -181.49M80.7333 131.303L60.6965 96.5485M80.7333 131.303L60.6965 166.058M160.887 131.303L180.924 166.058M160.887 131.303L180.924 96.5485M80.7333 -7.71601L60.6965 -42.4709M80.7333 -7.71601L60.6965 27.0388M160.887 -7.71601L180.924 27.0388M160.887 -7.71601L180.924 -42.4709M80.7333 270.323L60.6965 235.568M80.7333 270.323L60.6965 305.078M160.887 270.323L180.924 305.078M160.887 270.323L180.924 235.568M80.7333 409.342L100.77 444.097H140.851L160.887 409.342M80.7333 409.342L60.6965 374.587M80.7333 409.342L60.6965 444.097H20.616L0.579151 409.342L20.616 374.587M160.887 409.342L180.924 374.587M541.622 -181.49H501.541M541.622 96.5485H501.541M501.541 27.0388H541.622M541.622 -42.4709H501.541M501.541 -111.981H541.622M541.622 235.568H501.541M501.541 166.058H541.622M541.622 374.587H501.541M501.541 305.078H541.622M221.005 -181.49H180.924M221.005 96.5485H180.924M180.924 27.0388H221.005M221.005 -42.4709H180.924M180.924 -111.981H221.005M221.005 235.568H180.924M180.924 166.058H221.005M221.005 374.587H180.924M180.924 305.078H221.005M381.313 -181.49H341.233M381.313 96.5485H341.233M341.233 27.0388H381.313M381.313 -42.4709H341.233M341.233 -111.981H381.313M381.313 235.568H341.233M341.233 166.058H381.313M381.313 374.587H341.233M341.233 305.078H381.313M60.6965 -181.49H20.616M20.616 -181.49L0.579151 -146.735L20.616 -111.981M60.6965 96.5485H20.616M20.616 96.5485L0.579151 61.7937L20.616 27.0388M20.616 96.5485L0.579151 131.303L20.616 166.058M20.616 27.0388H60.6965M20.616 27.0388L0.579151 -7.71601L20.616 -42.4709M60.6965 -42.4709H20.616M20.616 -42.4709L0.579151 -77.2258L20.616 -111.981M20.616 -111.981H60.6965M60.6965 235.568H20.616M20.616 235.568L0.579151 200.813L20.616 166.058M20.616 235.568L0.579151 270.323L20.616 305.078M20.616 166.058H60.6965M60.6965 374.587H20.616M20.616 374.587L0.579151 339.832L20.616 305.078M20.616 305.078H60.6965" stroke="url(#paint0_linear_7310_47359)" stroke-opacity="0.3" stroke-miterlimit="10"/>
<defs>
<linearGradient id="paint0_linear_7310_47359" x1="53.7399" y1="-154.076" x2="587.201" y2="343.099" gradientUnits="userSpaceOnUse">
<stop stop-color="#318EFF"/>
<stop offset="0.5" stop-color="#318EFF" stop-opacity="0"/>
<stop offset="1" stop-color="#318EFF"/>
</linearGradient>
</defs>
</svg>
