<svg width="243" height="264" viewBox="0 0 243 264" fill="none" xmlns="http://www.w3.org/2000/svg">
<line x1="198.5" y1="300" x2="198.5" y2="-2.18557e-08" stroke="url(#paint0_linear_7280_4898)"/>
<line x1="148.5" y1="300" x2="148.5" y2="-2.18557e-08" stroke="url(#paint1_linear_7280_4898)"/>
<line x1="98.5" y1="300" x2="98.5" y2="-2.18557e-08" stroke="url(#paint2_linear_7280_4898)"/>
<line x1="48.5" y1="300" x2="48.5" y2="-2.18557e-08" stroke="url(#paint3_linear_7280_4898)"/>
<line x1="243" y1="250.5" x2="-3" y2="250.5" stroke="url(#paint4_linear_7280_4898)"/>
<line x1="243" y1="200.5" x2="-3" y2="200.5" stroke="url(#paint5_linear_7280_4898)"/>
<line x1="243" y1="150.5" x2="-3" y2="150.5" stroke="url(#paint6_linear_7280_4898)"/>
<line x1="243" y1="100.5" x2="-3" y2="100.5" stroke="url(#paint7_linear_7280_4898)"/>
<line x1="243" y1="50.5" x2="-3" y2="50.5" stroke="url(#paint8_linear_7280_4898)"/>
<defs>
<linearGradient id="paint0_linear_7280_4898" x1="199.5" y1="300" x2="199.5" y2="-2.62731e-05" gradientUnits="userSpaceOnUse">
<stop stop-color="white" stop-opacity="0.4"/>
<stop offset="1" stop-color="white" stop-opacity="0"/>
</linearGradient>
<linearGradient id="paint1_linear_7280_4898" x1="149.5" y1="300" x2="149.5" y2="-2.62731e-05" gradientUnits="userSpaceOnUse">
<stop stop-color="white" stop-opacity="0.4"/>
<stop offset="1" stop-color="white" stop-opacity="0"/>
</linearGradient>
<linearGradient id="paint2_linear_7280_4898" x1="99.5" y1="300" x2="99.5" y2="-2.62731e-05" gradientUnits="userSpaceOnUse">
<stop stop-color="white" stop-opacity="0.4"/>
<stop offset="1" stop-color="white" stop-opacity="0"/>
</linearGradient>
<linearGradient id="paint3_linear_7280_4898" x1="49.5" y1="300" x2="49.5" y2="-2.62731e-05" gradientUnits="userSpaceOnUse">
<stop stop-color="white" stop-opacity="0.4"/>
<stop offset="1" stop-color="white" stop-opacity="0"/>
</linearGradient>
<linearGradient id="paint4_linear_7280_4898" x1="-3.00001" y1="249.5" x2="243" y2="249.5" gradientUnits="userSpaceOnUse">
<stop stop-color="white" stop-opacity="0.4"/>
<stop offset="1" stop-color="white" stop-opacity="0"/>
</linearGradient>
<linearGradient id="paint5_linear_7280_4898" x1="-3.00001" y1="199.5" x2="243" y2="199.5" gradientUnits="userSpaceOnUse">
<stop stop-color="white" stop-opacity="0.4"/>
<stop offset="1" stop-color="white" stop-opacity="0"/>
</linearGradient>
<linearGradient id="paint6_linear_7280_4898" x1="-3.00001" y1="149.5" x2="243" y2="149.5" gradientUnits="userSpaceOnUse">
<stop stop-color="white" stop-opacity="0.4"/>
<stop offset="1" stop-color="white" stop-opacity="0"/>
</linearGradient>
<linearGradient id="paint7_linear_7280_4898" x1="-3.00001" y1="99.5" x2="243" y2="99.5" gradientUnits="userSpaceOnUse">
<stop stop-color="white" stop-opacity="0.4"/>
<stop offset="1" stop-color="white" stop-opacity="0"/>
</linearGradient>
<linearGradient id="paint8_linear_7280_4898" x1="-3.00001" y1="49.5" x2="243" y2="49.5" gradientUnits="userSpaceOnUse">
<stop stop-color="white" stop-opacity="0.4"/>
<stop offset="1" stop-color="white" stop-opacity="0"/>
</linearGradient>
</defs>
</svg>
