<svg width="343" height="240" viewBox="0 0 343 240" fill="none" xmlns="http://www.w3.org/2000/svg">
<g clip-path="url(#clip0_7310_47037)">
<rect width="343" height="240" rx="20" fill="url(#paint0_linear_7310_47037)"/>
<g opacity="0.3" filter="url(#filter0_f_7310_47037)">
<g filter="url(#filter1_i_7310_47037)">
<path d="M171.888 113.119C163.651 113.119 155.495 111.436 147.885 108.166C140.276 104.897 133.361 100.105 127.537 94.0632C121.713 88.0219 117.093 80.8498 113.941 72.9565C110.789 65.0631 109.166 56.603 109.166 48.0593C109.166 39.5156 110.789 31.0556 113.941 23.1622C117.093 15.2688 121.713 8.09675 127.537 2.05543C133.361 -3.98589 140.276 -8.77812 147.885 -12.0477C155.495 -15.3172 163.651 -17 171.888 -17L171.888 48.0593L171.888 113.119Z" fill="#D1D8FF"/>
</g>
<g filter="url(#filter2_i_7310_47037)">
<path d="M171.886 113.119C180.122 113.119 188.278 111.436 195.888 108.166C203.498 104.897 210.412 100.105 216.237 94.0632C222.061 88.0219 226.681 80.8498 229.833 72.9565C232.985 65.0631 234.607 56.603 234.607 48.0593C234.607 39.5156 232.985 31.0556 229.833 23.1622C226.681 15.2688 222.061 8.09675 216.237 2.05543C210.412 -3.98589 203.498 -8.77812 195.888 -12.0477C188.278 -15.3172 180.122 -17 171.886 -17L171.886 48.0593L171.886 113.119Z" fill="#D2D7FF"/>
</g>
<g filter="url(#filter3_i_7310_47037)">
<path d="M43.2304 112.663C41.0986 104.41 40.5547 95.8029 41.6298 87.3323C42.7049 78.8617 45.378 70.6936 49.4963 63.2946C53.6147 55.8955 59.0977 49.4103 65.6323 44.2092C72.167 39.0081 79.6252 35.193 87.5813 32.9817C95.5374 30.7705 103.835 30.2063 112.002 31.3215C120.168 32.4367 128.042 35.2093 135.176 39.4812C142.309 43.753 148.561 49.4404 153.575 56.2186C158.589 62.9968 162.267 70.733 164.399 78.9856L103.815 95.8242L43.2304 112.663Z" fill="#D1D8FF"/>
</g>
<g filter="url(#filter4_i_7310_47037)">
<path d="M300.527 112.663C302.659 104.41 303.203 95.8029 302.128 87.3323C301.053 78.8617 298.38 70.6936 294.261 63.2946C290.143 55.8955 284.66 49.4103 278.125 44.2092C271.591 39.0081 264.133 35.193 256.177 32.9817C248.22 30.7705 239.922 30.2063 231.756 31.3215C223.59 32.4367 215.715 35.2093 208.582 39.4812C201.449 43.753 195.197 49.4404 190.183 56.2186C185.168 62.9968 181.49 70.733 179.359 78.9856L239.943 95.8242L300.527 112.663Z" fill="#D1D8FF"/>
</g>
<g filter="url(#filter5_i_7310_47037)">
<path d="M171.888 109.881C163.651 109.881 155.495 111.564 147.885 114.834C140.276 118.103 133.361 122.895 127.537 128.937C121.713 134.978 117.093 142.15 113.941 150.044C110.789 157.937 109.166 166.397 109.166 174.941C109.166 183.484 110.789 191.944 113.941 199.838C117.093 207.731 121.713 214.903 127.537 220.945C133.361 226.986 140.276 231.778 147.885 235.048C155.495 238.317 163.651 240 171.888 240L171.888 174.941L171.888 109.881Z" fill="#D1D8FF"/>
</g>
<g filter="url(#filter6_i_7310_47037)">
<path d="M171.886 109.881C180.122 109.881 188.278 111.564 195.888 114.834C203.498 118.103 210.412 122.895 216.237 128.937C222.061 134.978 226.681 142.15 229.833 150.044C232.985 157.937 234.607 166.397 234.607 174.941C234.607 183.484 232.985 191.944 229.833 199.838C226.681 207.731 222.061 214.903 216.237 220.945C210.412 226.986 203.498 231.778 195.888 235.048C188.278 238.317 180.122 240 171.886 240L171.886 174.941L171.886 109.881Z" fill="#D2D7FF"/>
</g>
<g filter="url(#filter7_i_7310_47037)">
<path d="M43.2304 110.337C41.0986 118.59 40.5547 127.197 41.6298 135.668C42.7049 144.138 45.378 152.306 49.4963 159.705C53.6147 167.105 59.0977 173.59 65.6323 178.791C72.167 183.992 79.6252 187.807 87.5813 190.018C95.5374 192.23 103.835 192.794 112.002 191.679C120.168 190.563 128.042 187.791 135.176 183.519C142.309 179.247 148.561 173.56 153.575 166.781C158.589 160.003 162.267 152.267 164.399 144.014L103.815 127.176L43.2304 110.337Z" fill="#D1D8FF"/>
</g>
<g filter="url(#filter8_i_7310_47037)">
<path d="M300.527 110.337C302.659 118.59 303.203 127.197 302.128 135.668C301.053 144.138 298.38 152.306 294.261 159.705C290.143 167.105 284.66 173.59 278.125 178.791C271.591 183.992 264.133 187.807 256.177 190.018C248.22 192.23 239.922 192.794 231.756 191.679C223.59 190.563 215.715 187.791 208.582 183.519C201.449 179.247 195.197 173.56 190.183 166.781C185.168 160.003 181.49 152.267 179.359 144.014L239.943 127.176L300.527 110.337Z" fill="#D1D8FF"/>
</g>
</g>
<foreignObject x="-4.5" y="48" width="359.5" height="144"><div xmlns="http://www.w3.org/1999/xhtml" style="backdrop-filter:blur(10px);clip-path:url(#bgblur_1_7310_47037_clip_path);height:100%;width:100%"></div></foreignObject><path data-figma-bg-blur-radius="20" d="M25.208 73H325.293V68.1465H335.001V77.8545H330.286V162.292H335.001V172H325.293V167H25.208V171.854H15.5V162.146H20.2109V77.708H15.5V68H25.208V73Z" fill="white" fill-opacity="0.5"/>
<path d="M54.035 111H51.2225L56.3433 96.4545H59.5961L64.7239 111H61.9114L58.0265 99.4375H57.9129L54.035 111ZM54.1274 105.297H61.7978V107.413H54.1274V105.297ZM69.2747 96.4545V111H66.6398V96.4545H69.2747ZM78.9569 111H76.1444L81.2651 96.4545H84.518L89.6458 111H86.8333L82.9484 99.4375H82.8347L78.9569 111ZM79.0492 105.297H86.7197V107.413H79.0492V105.297ZM95.8603 115.318C94.937 115.318 94.1439 115.193 93.481 114.942C92.8182 114.696 92.2855 114.364 91.883 113.947C91.4806 113.531 91.2012 113.069 91.045 112.562L93.3603 112.001C93.4645 112.214 93.616 112.425 93.8149 112.634C94.0137 112.847 94.2812 113.022 94.6174 113.159C94.9583 113.301 95.3868 113.372 95.9029 113.372C96.6321 113.372 97.2358 113.195 97.714 112.839C98.1922 112.489 98.4313 111.911 98.4313 111.107V109.04H98.3035C98.1709 109.305 97.9768 109.577 97.7211 109.857C97.4702 110.136 97.1364 110.37 96.7197 110.56C96.3078 110.749 95.7893 110.844 95.1643 110.844C94.3262 110.844 93.5663 110.647 92.8845 110.254C92.2074 109.857 91.6676 109.265 91.2651 108.479C90.8674 107.688 90.6685 106.698 90.6685 105.51C90.6685 104.312 90.8674 103.301 91.2651 102.477C91.6676 101.649 92.2097 101.021 92.8916 100.595C93.5734 100.164 94.3333 99.9489 95.1714 99.9489C95.8106 99.9489 96.3362 100.058 96.7481 100.276C97.1648 100.489 97.4962 100.747 97.7424 101.05C97.9886 101.348 98.1756 101.63 98.3035 101.895H98.4455V100.091H100.981V111.178C100.981 112.11 100.759 112.882 100.313 113.493C99.8684 114.104 99.2599 114.561 98.4881 114.864C97.7164 115.167 96.8404 115.318 95.8603 115.318ZM95.8816 108.827C96.4261 108.827 96.8901 108.694 97.2737 108.429C97.6572 108.164 97.9484 107.783 98.1472 107.286C98.3461 106.788 98.4455 106.192 98.4455 105.496C98.4455 104.809 98.3461 104.208 98.1472 103.692C97.9531 103.176 97.6643 102.776 97.2808 102.491C96.902 102.203 96.4356 102.058 95.8816 102.058C95.3087 102.058 94.8305 102.207 94.447 102.506C94.0634 102.804 93.7746 103.214 93.5805 103.734C93.3864 104.25 93.2893 104.838 93.2893 105.496C93.2893 106.163 93.3864 106.748 93.5805 107.25C93.7793 107.747 94.0705 108.135 94.4541 108.415C94.8423 108.689 95.3182 108.827 95.8816 108.827ZM108.446 111.213C107.352 111.213 106.407 110.986 105.612 110.531C104.821 110.072 104.213 109.423 103.786 108.585C103.36 107.742 103.147 106.75 103.147 105.609C103.147 104.487 103.36 103.502 103.786 102.655C104.217 101.803 104.819 101.14 105.59 100.666C106.362 100.188 107.269 99.9489 108.311 99.9489C108.983 99.9489 109.617 100.058 110.214 100.276C110.815 100.489 111.346 100.82 111.805 101.27C112.269 101.72 112.634 102.293 112.899 102.989C113.164 103.68 113.296 104.504 113.296 105.46V106.249H104.355V104.516H110.832C110.827 104.023 110.721 103.585 110.512 103.202C110.304 102.813 110.013 102.508 109.639 102.286C109.269 102.063 108.839 101.952 108.346 101.952C107.821 101.952 107.359 102.08 106.961 102.335C106.563 102.586 106.253 102.918 106.031 103.33C105.813 103.737 105.702 104.184 105.697 104.672V106.185C105.697 106.819 105.813 107.364 106.045 107.818C106.277 108.268 106.601 108.614 107.018 108.855C107.435 109.092 107.922 109.21 108.481 109.21C108.855 109.21 109.194 109.158 109.497 109.054C109.8 108.945 110.062 108.786 110.285 108.578C110.508 108.37 110.676 108.112 110.789 107.804L113.19 108.074C113.038 108.708 112.75 109.262 112.323 109.736C111.902 110.205 111.362 110.569 110.704 110.83C110.046 111.085 109.293 111.213 108.446 111.213ZM118.042 104.608V111H115.471V100.091H117.929V101.945H118.057C118.308 101.334 118.708 100.848 119.257 100.489C119.811 100.129 120.495 99.9489 121.31 99.9489C122.062 99.9489 122.718 100.11 123.277 100.432C123.84 100.754 124.276 101.22 124.584 101.831C124.896 102.442 125.05 103.183 125.045 104.054V111H122.474V104.452C122.474 103.723 122.285 103.152 121.906 102.74C121.532 102.328 121.014 102.122 120.351 102.122C119.901 102.122 119.501 102.222 119.15 102.42C118.805 102.615 118.533 102.896 118.334 103.266C118.14 103.635 118.042 104.082 118.042 104.608ZM133.106 100.091V102.08H126.835V100.091H133.106ZM128.383 97.4773H130.954V107.719C130.954 108.064 131.006 108.33 131.111 108.514C131.22 108.694 131.362 108.817 131.537 108.884C131.712 108.95 131.906 108.983 132.119 108.983C132.28 108.983 132.427 108.971 132.56 108.947C132.697 108.924 132.801 108.902 132.872 108.884L133.305 110.893C133.168 110.941 132.971 110.993 132.716 111.05C132.465 111.107 132.157 111.14 131.792 111.149C131.149 111.168 130.569 111.071 130.052 110.858C129.536 110.64 129.127 110.304 128.824 109.849C128.525 109.395 128.379 108.827 128.383 108.145V97.4773ZM143.723 102.974L141.379 103.23C141.312 102.993 141.196 102.771 141.031 102.562C140.87 102.354 140.652 102.186 140.377 102.058C140.103 101.93 139.767 101.866 139.369 101.866C138.834 101.866 138.384 101.982 138.019 102.214C137.66 102.446 137.482 102.747 137.487 103.116C137.482 103.434 137.598 103.692 137.835 103.891C138.076 104.089 138.474 104.253 139.028 104.381L140.889 104.778C141.921 105.001 142.688 105.354 143.19 105.837C143.696 106.32 143.952 106.952 143.957 107.733C143.952 108.42 143.751 109.026 143.353 109.551C142.96 110.072 142.413 110.479 141.713 110.773C141.012 111.066 140.207 111.213 139.298 111.213C137.963 111.213 136.888 110.934 136.073 110.375C135.259 109.812 134.774 109.028 134.617 108.024L137.125 107.783C137.238 108.275 137.48 108.647 137.849 108.898C138.218 109.149 138.699 109.274 139.291 109.274C139.902 109.274 140.392 109.149 140.761 108.898C141.135 108.647 141.322 108.337 141.322 107.967C141.322 107.655 141.201 107.397 140.96 107.193C140.723 106.99 140.354 106.833 139.852 106.724L137.991 106.334C136.945 106.116 136.17 105.749 135.669 105.233C135.167 104.712 134.918 104.054 134.923 103.259C134.918 102.586 135.1 102.004 135.47 101.511C135.844 101.014 136.362 100.631 137.025 100.361C137.693 100.086 138.462 99.9489 139.333 99.9489C140.612 99.9489 141.618 100.221 142.352 100.766C143.09 101.31 143.547 102.046 143.723 102.974ZM147.661 111.156C147.23 111.156 146.861 111.005 146.553 110.702C146.245 110.399 146.093 110.029 146.098 109.594C146.093 109.168 146.245 108.803 146.553 108.5C146.861 108.197 147.23 108.045 147.661 108.045C148.077 108.045 148.44 108.197 148.747 108.5C149.06 108.803 149.219 109.168 149.223 109.594C149.219 109.883 149.143 110.145 148.996 110.382C148.854 110.619 148.665 110.808 148.428 110.95C148.196 111.088 147.94 111.156 147.661 111.156ZM147.661 103.372C147.23 103.372 146.861 103.221 146.553 102.918C146.245 102.61 146.093 102.241 146.098 101.81C146.093 101.384 146.245 101.019 146.553 100.716C146.861 100.408 147.23 100.254 147.661 100.254C148.077 100.254 148.44 100.408 148.747 100.716C149.06 101.019 149.219 101.384 149.223 101.81C149.219 102.094 149.143 102.354 148.996 102.591C148.854 102.828 148.665 103.017 148.428 103.159C148.196 103.301 147.94 103.372 147.661 103.372ZM156.313 98.6634V96.4545H167.918V98.6634H163.422V111H160.809V98.6634H156.313ZM172.613 104.608V111H170.042V96.4545H172.556V101.945H172.684C172.939 101.329 173.335 100.844 173.87 100.489C174.41 100.129 175.096 99.9489 175.93 99.9489C176.687 99.9489 177.348 100.107 177.911 100.425C178.475 100.742 178.91 101.206 179.218 101.817C179.53 102.428 179.687 103.173 179.687 104.054V111H177.116V104.452C177.116 103.718 176.926 103.147 176.547 102.74C176.173 102.328 175.648 102.122 174.971 102.122C174.516 102.122 174.109 102.222 173.749 102.42C173.394 102.615 173.115 102.896 172.911 103.266C172.712 103.635 172.613 104.082 172.613 104.608ZM187.137 111.213C186.043 111.213 185.099 110.986 184.303 110.531C183.512 110.072 182.904 109.423 182.478 108.585C182.052 107.742 181.839 106.75 181.839 105.609C181.839 104.487 182.052 103.502 182.478 102.655C182.909 101.803 183.51 101.14 184.282 100.666C185.054 100.188 185.96 99.9489 187.002 99.9489C187.674 99.9489 188.309 100.058 188.905 100.276C189.507 100.489 190.037 100.82 190.496 101.27C190.96 101.72 191.325 102.293 191.59 102.989C191.855 103.68 191.988 104.504 191.988 105.46V106.249H183.046V104.516H189.523C189.519 104.023 189.412 103.585 189.204 103.202C188.995 102.813 188.704 102.508 188.33 102.286C187.961 102.063 187.53 101.952 187.038 101.952C186.512 101.952 186.05 102.08 185.653 102.335C185.255 102.586 184.945 102.918 184.722 103.33C184.504 103.737 184.393 104.184 184.388 104.672V106.185C184.388 106.819 184.504 107.364 184.736 107.818C184.968 108.268 185.293 108.614 185.709 108.855C186.126 109.092 186.614 109.21 187.172 109.21C187.547 109.21 187.885 109.158 188.188 109.054C188.491 108.945 188.754 108.786 188.976 108.578C189.199 108.37 189.367 108.112 189.481 107.804L191.881 108.074C191.73 108.708 191.441 109.262 191.015 109.736C190.593 110.205 190.054 110.569 189.395 110.83C188.737 111.085 187.984 111.213 187.137 111.213ZM199.237 111V96.4545H204.806C205.857 96.4545 206.73 96.6203 207.426 96.9517C208.127 97.2784 208.65 97.7259 208.996 98.294C209.346 98.8622 209.522 99.5062 209.522 100.226C209.522 100.818 209.408 101.324 209.181 101.746C208.953 102.162 208.648 102.501 208.264 102.761C207.881 103.022 207.452 103.209 206.979 103.322V103.464C207.495 103.493 207.99 103.652 208.463 103.94C208.942 104.224 209.332 104.627 209.635 105.148C209.938 105.669 210.09 106.298 210.09 107.037C210.09 107.79 209.907 108.467 209.543 109.068C209.178 109.665 208.629 110.136 207.895 110.482C207.161 110.827 206.238 111 205.125 111H199.237ZM201.872 108.798H204.706C205.663 108.798 206.352 108.616 206.773 108.251C207.199 107.882 207.412 107.409 207.412 106.831C207.412 106.4 207.306 106.012 207.093 105.666C206.879 105.316 206.576 105.041 206.183 104.842C205.79 104.639 205.322 104.537 204.777 104.537H201.872V108.798ZM201.872 102.641H204.479C204.933 102.641 205.343 102.558 205.708 102.392C206.072 102.222 206.359 101.982 206.567 101.675C206.78 101.362 206.887 100.993 206.887 100.567C206.887 100.003 206.688 99.5393 206.29 99.1747C205.897 98.8101 205.312 98.6278 204.536 98.6278H201.872V102.641ZM217.098 111.213C216.004 111.213 215.06 110.986 214.264 110.531C213.473 110.072 212.865 109.423 212.439 108.585C212.013 107.742 211.8 106.75 211.8 105.609C211.8 104.487 212.013 103.502 212.439 102.655C212.87 101.803 213.471 101.14 214.243 100.666C215.015 100.188 215.921 99.9489 216.963 99.9489C217.635 99.9489 218.27 100.058 218.866 100.276C219.468 100.489 219.998 100.82 220.457 101.27C220.921 101.72 221.286 102.293 221.551 102.989C221.816 103.68 221.949 104.504 221.949 105.46V106.249H213.007V104.516H219.484C219.48 104.023 219.373 103.585 219.165 103.202C218.956 102.813 218.665 102.508 218.291 102.286C217.922 102.063 217.491 101.952 216.998 101.952C216.473 101.952 216.011 102.08 215.614 102.335C215.216 102.586 214.906 102.918 214.683 103.33C214.465 103.737 214.354 104.184 214.349 104.672V106.185C214.349 106.819 214.465 107.364 214.697 107.818C214.929 108.268 215.254 108.614 215.67 108.855C216.087 109.092 216.575 109.21 217.133 109.21C217.507 109.21 217.846 109.158 218.149 109.054C218.452 108.945 218.715 108.786 218.937 108.578C219.16 108.37 219.328 108.112 219.442 107.804L221.842 108.074C221.691 108.708 221.402 109.262 220.976 109.736C220.554 110.205 220.015 110.569 219.356 110.83C218.698 111.085 217.945 111.213 217.098 111.213ZM228.868 115.318C227.945 115.318 227.152 115.193 226.489 114.942C225.826 114.696 225.293 114.364 224.891 113.947C224.488 113.531 224.209 113.069 224.053 112.562L226.368 112.001C226.472 112.214 226.624 112.425 226.823 112.634C227.022 112.847 227.289 113.022 227.625 113.159C227.966 113.301 228.395 113.372 228.911 113.372C229.64 113.372 230.244 113.195 230.722 112.839C231.2 112.489 231.439 111.911 231.439 111.107V109.04H231.311C231.179 109.305 230.985 109.577 230.729 109.857C230.478 110.136 230.144 110.37 229.727 110.56C229.316 110.749 228.797 110.844 228.172 110.844C227.334 110.844 226.574 110.647 225.892 110.254C225.215 109.857 224.675 109.265 224.273 108.479C223.875 107.688 223.676 106.698 223.676 105.51C223.676 104.312 223.875 103.301 224.273 102.477C224.675 101.649 225.218 101.021 225.899 100.595C226.581 100.164 227.341 99.9489 228.179 99.9489C228.818 99.9489 229.344 100.058 229.756 100.276C230.173 100.489 230.504 100.747 230.75 101.05C230.996 101.348 231.183 101.63 231.311 101.895H231.453V100.091H233.989V111.178C233.989 112.11 233.766 112.882 233.321 113.493C232.876 114.104 232.268 114.561 231.496 114.864C230.724 115.167 229.848 115.318 228.868 115.318ZM228.889 108.827C229.434 108.827 229.898 108.694 230.281 108.429C230.665 108.164 230.956 107.783 231.155 107.286C231.354 106.788 231.453 106.192 231.453 105.496C231.453 104.809 231.354 104.208 231.155 103.692C230.961 103.176 230.672 102.776 230.289 102.491C229.91 102.203 229.443 102.058 228.889 102.058C228.317 102.058 227.838 102.207 227.455 102.506C227.071 102.804 226.782 103.214 226.588 103.734C226.394 104.25 226.297 104.838 226.297 105.496C226.297 106.163 226.394 106.748 226.588 107.25C226.787 107.747 227.078 108.135 227.462 108.415C227.85 108.689 228.326 108.827 228.889 108.827ZM236.624 111V100.091H239.195V111H236.624ZM237.916 98.5426C237.509 98.5426 237.159 98.4077 236.865 98.1378C236.572 97.8632 236.425 97.5341 236.425 97.1506C236.425 96.7623 236.572 96.4332 236.865 96.1634C237.159 95.8887 237.509 95.7514 237.916 95.7514C238.328 95.7514 238.679 95.8887 238.968 96.1634C239.261 96.4332 239.408 96.7623 239.408 97.1506C239.408 97.5341 239.261 97.8632 238.968 98.1378C238.679 98.4077 238.328 98.5426 237.916 98.5426ZM244.41 104.608V111H241.839V100.091H244.296V101.945H244.424C244.675 101.334 245.075 100.848 245.624 100.489C246.178 100.129 246.862 99.9489 247.677 99.9489C248.43 99.9489 249.085 100.11 249.644 100.432C250.207 100.754 250.643 101.22 250.951 101.831C251.263 102.442 251.417 103.183 251.413 104.054V111H248.841V104.452C248.841 103.723 248.652 103.152 248.273 102.74C247.899 102.328 247.381 102.122 246.718 102.122C246.268 102.122 245.868 102.222 245.518 102.42C245.172 102.615 244.9 102.896 244.701 103.266C244.507 103.635 244.41 104.082 244.41 104.608ZM256.597 104.608V111H254.026V100.091H256.484V101.945H256.611C256.862 101.334 257.262 100.848 257.812 100.489C258.366 100.129 259.05 99.9489 259.864 99.9489C260.617 99.9489 261.273 100.11 261.832 100.432C262.395 100.754 262.831 101.22 263.138 101.831C263.451 102.442 263.605 103.183 263.6 104.054V111H261.029V104.452C261.029 103.723 260.84 103.152 260.461 102.74C260.087 102.328 259.568 102.122 258.905 102.122C258.456 102.122 258.056 102.222 257.705 102.42C257.359 102.615 257.087 102.896 256.888 103.266C256.694 103.635 256.597 104.082 256.597 104.608ZM266.214 111V100.091H268.785V111H266.214ZM267.506 98.5426C267.099 98.5426 266.749 98.4077 266.455 98.1378C266.162 97.8632 266.015 97.5341 266.015 97.1506C266.015 96.7623 266.162 96.4332 266.455 96.1634C266.749 95.8887 267.099 95.7514 267.506 95.7514C267.918 95.7514 268.269 95.8887 268.557 96.1634C268.851 96.4332 268.998 96.7623 268.998 97.1506C268.998 97.5341 268.851 97.8632 268.557 98.1378C268.269 98.4077 267.918 98.5426 267.506 98.5426ZM274 104.608V111H271.428V100.091H273.886V101.945H274.014C274.265 101.334 274.665 100.848 275.214 100.489C275.768 100.129 276.452 99.9489 277.267 99.9489C278.019 99.9489 278.675 100.11 279.234 100.432C279.797 100.754 280.233 101.22 280.541 101.831C280.853 102.442 281.007 103.183 281.002 104.054V111H278.431V104.452C278.431 103.723 278.242 103.152 277.863 102.74C277.489 102.328 276.971 102.122 276.308 102.122C275.858 102.122 275.458 102.222 275.107 102.42C274.762 102.615 274.49 102.896 274.291 103.266C274.097 103.635 274 104.082 274 104.608ZM288.36 115.318C287.437 115.318 286.644 115.193 285.981 114.942C285.318 114.696 284.785 114.364 284.383 113.947C283.981 113.531 283.701 113.069 283.545 112.562L285.86 112.001C285.964 112.214 286.116 112.425 286.315 112.634C286.514 112.847 286.781 113.022 287.117 113.159C287.458 113.301 287.887 113.372 288.403 113.372C289.132 113.372 289.736 113.195 290.214 112.839C290.692 112.489 290.931 111.911 290.931 111.107V109.04H290.803C290.671 109.305 290.477 109.577 290.221 109.857C289.97 110.136 289.636 110.37 289.22 110.56C288.808 110.749 288.289 110.844 287.664 110.844C286.826 110.844 286.066 110.647 285.384 110.254C284.707 109.857 284.168 109.265 283.765 108.479C283.367 107.688 283.169 106.698 283.169 105.51C283.169 104.312 283.367 103.301 283.765 102.477C284.168 101.649 284.71 101.021 285.392 100.595C286.073 100.164 286.833 99.9489 287.671 99.9489C288.311 99.9489 288.836 100.058 289.248 100.276C289.665 100.489 289.996 100.747 290.242 101.05C290.489 101.348 290.676 101.63 290.803 101.895H290.946V100.091H293.481V111.178C293.481 112.11 293.259 112.882 292.813 113.493C292.368 114.104 291.76 114.561 290.988 114.864C290.216 115.167 289.34 115.318 288.36 115.318ZM288.382 108.827C288.926 108.827 289.39 108.694 289.774 108.429C290.157 108.164 290.448 107.783 290.647 107.286C290.846 106.788 290.946 106.192 290.946 105.496C290.946 104.809 290.846 104.208 290.647 103.692C290.453 103.176 290.164 102.776 289.781 102.491C289.402 102.203 288.936 102.058 288.382 102.058C287.809 102.058 287.33 102.207 286.947 102.506C286.563 102.804 286.275 103.214 286.08 103.734C285.886 104.25 285.789 104.838 285.789 105.496C285.789 106.163 285.886 106.748 286.08 107.25C286.279 107.747 286.571 108.135 286.954 108.415C287.342 108.689 287.818 108.827 288.382 108.827ZM63.4038 143.213C62.3385 143.213 61.4152 142.979 60.6339 142.51C59.8527 142.041 59.2466 141.385 58.8157 140.543C58.3896 139.7 58.1765 138.715 58.1765 137.588C58.1765 136.461 58.3896 135.474 58.8157 134.626C59.2466 133.779 59.8527 133.121 60.6339 132.652C61.4152 132.183 62.3385 131.949 63.4038 131.949C64.4692 131.949 65.3924 132.183 66.1737 132.652C66.9549 133.121 67.5586 133.779 67.9848 134.626C68.4156 135.474 68.6311 136.461 68.6311 137.588C68.6311 138.715 68.4156 139.7 67.9848 140.543C67.5586 141.385 66.9549 142.041 66.1737 142.51C65.3924 142.979 64.4692 143.213 63.4038 143.213ZM63.418 141.153C63.9957 141.153 64.4786 140.995 64.8669 140.678C65.2551 140.356 65.544 139.925 65.7334 139.385C65.9275 138.845 66.0245 138.244 66.0245 137.581C66.0245 136.913 65.9275 136.31 65.7334 135.77C65.544 135.225 65.2551 134.792 64.8669 134.47C64.4786 134.148 63.9957 133.987 63.418 133.987C62.8262 133.987 62.3337 134.148 61.9407 134.47C61.5525 134.792 61.2613 135.225 61.0672 135.77C60.8778 136.31 60.7831 136.913 60.7831 137.581C60.7831 138.244 60.8778 138.845 61.0672 139.385C61.2613 139.925 61.5525 140.356 61.9407 140.678C62.3337 140.995 62.8262 141.153 63.418 141.153ZM76.3388 132.091V134.08H69.89V132.091H76.3388ZM71.5022 143V131.061C71.5022 130.327 71.6537 129.716 71.9567 129.229C72.2645 128.741 72.6764 128.376 73.1925 128.135C73.7086 127.893 74.2815 127.773 74.9113 127.773C75.3563 127.773 75.7517 127.808 76.0973 127.879C76.443 127.95 76.6987 128.014 76.8644 128.071L76.353 130.06C76.2441 130.027 76.1068 129.993 75.9411 129.96C75.7754 129.922 75.5907 129.903 75.3871 129.903C74.9089 129.903 74.5704 130.019 74.3715 130.251C74.1774 130.479 74.0803 130.805 74.0803 131.232V143H71.5022ZM86.4525 143.22C85.7612 143.22 85.1385 143.097 84.5846 142.851C84.0353 142.6 83.5997 142.231 83.2777 141.743C82.9605 141.255 82.8019 140.654 82.8019 139.939C82.8019 139.323 82.9155 138.814 83.1428 138.412C83.3701 138.009 83.6802 137.688 84.0732 137.446C84.4662 137.205 84.9089 137.022 85.4013 136.899C85.8985 136.771 86.4122 136.679 86.9425 136.622C87.5817 136.556 88.1002 136.497 88.4979 136.445C88.8956 136.388 89.1845 136.303 89.3644 136.189C89.5491 136.071 89.6414 135.888 89.6414 135.642V135.599C89.6414 135.064 89.4828 134.65 89.1655 134.357C88.8483 134.063 88.3914 133.916 87.7948 133.916C87.1651 133.916 86.6655 134.054 86.2962 134.328C85.9316 134.603 85.6854 134.927 85.5576 135.301L83.157 134.96C83.3464 134.297 83.6589 133.743 84.0945 133.298C84.5301 132.848 85.0628 132.512 85.6925 132.29C86.3223 132.062 87.0183 131.949 87.7806 131.949C88.3062 131.949 88.8294 132.01 89.3502 132.134C89.871 132.257 90.3469 132.46 90.7777 132.744C91.2086 133.024 91.5543 133.405 91.8147 133.888C92.0798 134.371 92.2124 134.974 92.2124 135.699V143H89.7408V141.501H89.6556C89.4993 141.804 89.2792 142.089 88.9951 142.354C88.7157 142.614 88.363 142.825 87.9368 142.986C87.5154 143.142 87.0206 143.22 86.4525 143.22ZM87.1201 141.331C87.6362 141.331 88.0836 141.229 88.4624 141.026C88.8412 140.817 89.1324 140.543 89.336 140.202C89.5443 139.861 89.6485 139.489 89.6485 139.087V137.801C89.568 137.867 89.4307 137.929 89.2366 137.986C89.0472 138.043 88.8341 138.092 88.5973 138.135C88.3606 138.178 88.1262 138.215 87.8942 138.249C87.6622 138.282 87.461 138.31 87.2905 138.334C86.907 138.386 86.5637 138.471 86.2607 138.589C85.9577 138.708 85.7186 138.874 85.5434 139.087C85.3682 139.295 85.2806 139.565 85.2806 139.896C85.2806 140.37 85.4534 140.727 85.7991 140.969C86.1447 141.21 86.585 141.331 87.1201 141.331ZM99.8722 143V128.455H105.44C106.492 128.455 107.365 128.62 108.061 128.952C108.762 129.278 109.285 129.726 109.631 130.294C109.981 130.862 110.156 131.506 110.156 132.226C110.156 132.818 110.043 133.324 109.815 133.746C109.588 134.162 109.283 134.501 108.899 134.761C108.516 135.022 108.087 135.209 107.614 135.322V135.464C108.13 135.493 108.625 135.652 109.098 135.94C109.576 136.224 109.967 136.627 110.27 137.148C110.573 137.669 110.724 138.298 110.724 139.037C110.724 139.79 110.542 140.467 110.178 141.068C109.813 141.665 109.264 142.136 108.53 142.482C107.796 142.827 106.873 143 105.76 143H99.8722ZM102.507 140.798H105.341C106.297 140.798 106.986 140.616 107.408 140.251C107.834 139.882 108.047 139.409 108.047 138.831C108.047 138.4 107.94 138.012 107.727 137.666C107.514 137.316 107.211 137.041 106.818 136.842C106.425 136.639 105.956 136.537 105.412 136.537H102.507V140.798ZM102.507 134.641H105.114C105.568 134.641 105.978 134.558 106.342 134.392C106.707 134.222 106.993 133.982 107.202 133.675C107.415 133.362 107.521 132.993 107.521 132.567C107.521 132.003 107.322 131.539 106.925 131.175C106.532 130.81 105.947 130.628 105.171 130.628H102.507V134.641ZM119.856 138.412V132.091H122.427V143H119.934V141.061H119.821C119.575 141.672 119.17 142.171 118.606 142.56C118.048 142.948 117.359 143.142 116.539 143.142C115.825 143.142 115.192 142.983 114.643 142.666C114.099 142.344 113.673 141.878 113.365 141.267C113.057 140.652 112.903 139.908 112.903 139.037V132.091H115.474V138.639C115.474 139.33 115.664 139.88 116.042 140.287C116.421 140.694 116.918 140.898 117.534 140.898C117.913 140.898 118.28 140.805 118.635 140.621C118.99 140.436 119.281 140.161 119.508 139.797C119.74 139.428 119.856 138.966 119.856 138.412ZM133.693 134.974L131.349 135.23C131.283 134.993 131.167 134.771 131.001 134.562C130.84 134.354 130.623 134.186 130.348 134.058C130.073 133.93 129.737 133.866 129.34 133.866C128.804 133.866 128.355 133.982 127.99 134.214C127.63 134.446 127.453 134.747 127.457 135.116C127.453 135.434 127.569 135.692 127.805 135.891C128.047 136.089 128.445 136.253 128.999 136.381L130.859 136.778C131.892 137.001 132.659 137.354 133.161 137.837C133.667 138.32 133.923 138.952 133.928 139.733C133.923 140.42 133.722 141.026 133.324 141.551C132.931 142.072 132.384 142.479 131.683 142.773C130.983 143.066 130.178 143.213 129.269 143.213C127.933 143.213 126.858 142.934 126.044 142.375C125.23 141.812 124.744 141.028 124.588 140.024L127.095 139.783C127.209 140.275 127.45 140.647 127.82 140.898C128.189 141.149 128.67 141.274 129.261 141.274C129.872 141.274 130.362 141.149 130.732 140.898C131.106 140.647 131.293 140.337 131.293 139.967C131.293 139.655 131.172 139.397 130.93 139.193C130.694 138.99 130.324 138.833 129.822 138.724L127.962 138.334C126.915 138.116 126.141 137.749 125.639 137.233C125.137 136.712 124.889 136.054 124.894 135.259C124.889 134.586 125.071 134.004 125.44 133.511C125.814 133.014 126.333 132.631 126.996 132.361C127.663 132.086 128.433 131.949 129.304 131.949C130.582 131.949 131.589 132.221 132.322 132.766C133.061 133.31 133.518 134.046 133.693 134.974ZM136.048 143V132.091H138.619V143H136.048ZM137.34 130.543C136.933 130.543 136.583 130.408 136.289 130.138C135.996 129.863 135.849 129.534 135.849 129.151C135.849 128.762 135.996 128.433 136.289 128.163C136.583 127.889 136.933 127.751 137.34 127.751C137.752 127.751 138.103 127.889 138.391 128.163C138.685 128.433 138.832 128.762 138.832 129.151C138.832 129.534 138.685 129.863 138.391 130.138C138.103 130.408 137.752 130.543 137.34 130.543ZM143.833 136.608V143H141.262V132.091H143.72V133.945H143.848C144.099 133.334 144.499 132.848 145.048 132.489C145.602 132.129 146.286 131.949 147.101 131.949C147.853 131.949 148.509 132.11 149.068 132.432C149.631 132.754 150.067 133.22 150.375 133.831C150.687 134.442 150.841 135.183 150.836 136.054V143H148.265V136.452C148.265 135.723 148.076 135.152 147.697 134.74C147.323 134.328 146.805 134.122 146.142 134.122C145.692 134.122 145.292 134.222 144.941 134.42C144.596 134.615 144.324 134.896 144.125 135.266C143.931 135.635 143.833 136.082 143.833 136.608ZM158.28 143.213C157.186 143.213 156.241 142.986 155.446 142.531C154.655 142.072 154.047 141.423 153.62 140.585C153.194 139.742 152.981 138.75 152.981 137.609C152.981 136.487 153.194 135.502 153.62 134.655C154.051 133.803 154.653 133.14 155.424 132.666C156.196 132.188 157.103 131.949 158.145 131.949C158.817 131.949 159.451 132.058 160.048 132.276C160.649 132.489 161.18 132.82 161.639 133.27C162.103 133.72 162.467 134.293 162.733 134.989C162.998 135.68 163.13 136.504 163.13 137.46V138.249H154.189V136.516H160.666C160.661 136.023 160.555 135.585 160.346 135.202C160.138 134.813 159.847 134.508 159.473 134.286C159.103 134.063 158.673 133.952 158.18 133.952C157.655 133.952 157.193 134.08 156.795 134.335C156.397 134.586 156.087 134.918 155.865 135.33C155.647 135.737 155.536 136.184 155.531 136.672V138.185C155.531 138.819 155.647 139.364 155.879 139.818C156.111 140.268 156.435 140.614 156.852 140.855C157.269 141.092 157.756 141.21 158.315 141.21C158.689 141.21 159.028 141.158 159.331 141.054C159.634 140.945 159.896 140.786 160.119 140.578C160.342 140.37 160.51 140.112 160.623 139.804L163.024 140.074C162.872 140.708 162.583 141.262 162.157 141.736C161.736 142.205 161.196 142.569 160.538 142.83C159.88 143.085 159.127 143.213 158.28 143.213ZM173.928 134.974L171.584 135.23C171.518 134.993 171.402 134.771 171.236 134.562C171.075 134.354 170.857 134.186 170.582 134.058C170.308 133.93 169.972 133.866 169.574 133.866C169.039 133.866 168.589 133.982 168.224 134.214C167.865 134.446 167.687 134.747 167.692 135.116C167.687 135.434 167.803 135.692 168.04 135.891C168.281 136.089 168.679 136.253 169.233 136.381L171.094 136.778C172.126 137.001 172.893 137.354 173.395 137.837C173.902 138.32 174.157 138.952 174.162 139.733C174.157 140.42 173.956 141.026 173.558 141.551C173.165 142.072 172.618 142.479 171.918 142.773C171.217 143.066 170.412 143.213 169.503 143.213C168.168 143.213 167.093 142.934 166.278 142.375C165.464 141.812 164.979 141.028 164.822 140.024L167.33 139.783C167.443 140.275 167.685 140.647 168.054 140.898C168.423 141.149 168.904 141.274 169.496 141.274C170.107 141.274 170.597 141.149 170.966 140.898C171.34 140.647 171.527 140.337 171.527 139.967C171.527 139.655 171.406 139.397 171.165 139.193C170.928 138.99 170.559 138.833 170.057 138.724L168.196 138.334C167.15 138.116 166.376 137.749 165.874 137.233C165.372 136.712 165.123 136.054 165.128 135.259C165.123 134.586 165.305 134.004 165.675 133.511C166.049 133.014 166.567 132.631 167.23 132.361C167.898 132.086 168.667 131.949 169.538 131.949C170.817 131.949 171.823 132.221 172.557 132.766C173.296 133.31 173.752 134.046 173.928 134.974ZM184.904 134.974L182.56 135.23C182.494 134.993 182.378 134.771 182.212 134.562C182.051 134.354 181.834 134.186 181.559 134.058C181.284 133.93 180.948 133.866 180.55 133.866C180.015 133.866 179.566 133.982 179.201 134.214C178.841 134.446 178.664 134.747 178.668 135.116C178.664 135.434 178.78 135.692 179.016 135.891C179.258 136.089 179.656 136.253 180.21 136.381L182.07 136.778C183.103 137.001 183.87 137.354 184.371 137.837C184.878 138.32 185.134 138.952 185.139 139.733C185.134 140.42 184.933 141.026 184.535 141.551C184.142 142.072 183.595 142.479 182.894 142.773C182.193 143.066 181.389 143.213 180.479 143.213C179.144 143.213 178.069 142.934 177.255 142.375C176.441 141.812 175.955 141.028 175.799 140.024L178.306 139.783C178.42 140.275 178.661 140.647 179.031 140.898C179.4 141.149 179.88 141.274 180.472 141.274C181.083 141.274 181.573 141.149 181.943 140.898C182.317 140.647 182.504 140.337 182.504 139.967C182.504 139.655 182.383 139.397 182.141 139.193C181.905 138.99 181.535 138.833 181.033 138.724L179.173 138.334C178.126 138.116 177.352 137.749 176.85 137.233C176.348 136.712 176.1 136.054 176.104 135.259C176.1 134.586 176.282 134.004 176.651 133.511C177.025 133.014 177.544 132.631 178.207 132.361C178.874 132.086 179.644 131.949 180.515 131.949C181.793 131.949 182.8 132.221 183.533 132.766C184.272 133.31 184.729 134.046 184.904 134.974ZM192.333 143V128.455H197.788C198.905 128.455 199.843 128.649 200.6 129.037C201.362 129.425 201.938 129.97 202.326 130.67C202.719 131.366 202.916 132.179 202.916 133.107C202.916 134.039 202.717 134.849 202.319 135.536C201.926 136.217 201.346 136.745 200.579 137.119C199.812 137.489 198.87 137.673 197.752 137.673H193.867V135.486H197.397C198.05 135.486 198.586 135.396 199.002 135.216C199.419 135.031 199.727 134.764 199.925 134.413C200.129 134.058 200.231 133.623 200.231 133.107C200.231 132.59 200.129 132.15 199.925 131.786C199.722 131.416 199.412 131.137 198.995 130.947C198.578 130.753 198.041 130.656 197.383 130.656H194.968V143H192.333ZM199.847 136.409L203.448 143H200.508L196.971 136.409H199.847ZM209.901 143.213C208.807 143.213 207.862 142.986 207.067 142.531C206.276 142.072 205.668 141.423 205.242 140.585C204.815 139.742 204.602 138.75 204.602 137.609C204.602 136.487 204.815 135.502 205.242 134.655C205.672 133.803 206.274 133.14 207.046 132.666C207.817 132.188 208.724 131.949 209.766 131.949C210.438 131.949 211.072 132.058 211.669 132.276C212.27 132.489 212.801 132.82 213.26 133.27C213.724 133.72 214.089 134.293 214.354 134.989C214.619 135.68 214.751 136.504 214.751 137.46V138.249H205.81V136.516H212.287C212.282 136.023 212.176 135.585 211.967 135.202C211.759 134.813 211.468 134.508 211.094 134.286C210.724 134.063 210.294 133.952 209.801 133.952C209.276 133.952 208.814 134.08 208.416 134.335C208.019 134.586 207.708 134.918 207.486 135.33C207.268 135.737 207.157 136.184 207.152 136.672V138.185C207.152 138.819 207.268 139.364 207.5 139.818C207.732 140.268 208.056 140.614 208.473 140.855C208.89 141.092 209.377 141.21 209.936 141.21C210.31 141.21 210.649 141.158 210.952 141.054C211.255 140.945 211.518 140.786 211.74 140.578C211.963 140.37 212.131 140.112 212.244 139.804L214.645 140.074C214.493 140.708 214.205 141.262 213.778 141.736C213.357 142.205 212.817 142.569 212.159 142.83C211.501 143.085 210.748 143.213 209.901 143.213ZM226.358 132.091L222.473 143H219.633L215.748 132.091H218.489L220.996 140.195H221.11L223.624 132.091H226.358ZM232.525 143.213C231.46 143.213 230.536 142.979 229.755 142.51C228.974 142.041 228.368 141.385 227.937 140.543C227.511 139.7 227.298 138.715 227.298 137.588C227.298 136.461 227.511 135.474 227.937 134.626C228.368 133.779 228.974 133.121 229.755 132.652C230.536 132.183 231.46 131.949 232.525 131.949C233.59 131.949 234.514 132.183 235.295 132.652C236.076 133.121 236.68 133.779 237.106 134.626C237.537 135.474 237.752 136.461 237.752 137.588C237.752 138.715 237.537 139.7 237.106 140.543C236.68 141.385 236.076 142.041 235.295 142.51C234.514 142.979 233.59 143.213 232.525 143.213ZM232.539 141.153C233.117 141.153 233.6 140.995 233.988 140.678C234.376 140.356 234.665 139.925 234.854 139.385C235.049 138.845 235.146 138.244 235.146 137.581C235.146 136.913 235.049 136.31 234.854 135.77C234.665 135.225 234.376 134.792 233.988 134.47C233.6 134.148 233.117 133.987 232.539 133.987C231.947 133.987 231.455 134.148 231.062 134.47C230.674 134.792 230.382 135.225 230.188 135.77C229.999 136.31 229.904 136.913 229.904 137.581C229.904 138.244 229.999 138.845 230.188 139.385C230.382 139.925 230.674 140.356 231.062 140.678C231.455 140.995 231.947 141.153 232.539 141.153ZM242.505 128.455V143H239.934V128.455H242.505ZM252.102 138.412V132.091H254.673V143H252.18V141.061H252.067C251.821 141.672 251.416 142.171 250.852 142.56C250.294 142.948 249.605 143.142 248.786 143.142C248.071 143.142 247.438 142.983 246.889 142.666C246.345 142.344 245.919 141.878 245.611 141.267C245.303 140.652 245.149 139.908 245.149 139.037V132.091H247.72V138.639C247.72 139.33 247.91 139.88 248.288 140.287C248.667 140.694 249.164 140.898 249.78 140.898C250.159 140.898 250.526 140.805 250.881 140.621C251.236 140.436 251.527 140.161 251.754 139.797C251.986 139.428 252.102 138.966 252.102 138.412ZM262.765 132.091V134.08H256.493V132.091H262.765ZM258.042 129.477H260.613V139.719C260.613 140.064 260.665 140.33 260.769 140.514C260.878 140.694 261.02 140.817 261.195 140.884C261.37 140.95 261.564 140.983 261.777 140.983C261.938 140.983 262.085 140.971 262.218 140.947C262.355 140.924 262.459 140.902 262.53 140.884L262.963 142.893C262.826 142.941 262.63 142.993 262.374 143.05C262.123 143.107 261.815 143.14 261.451 143.149C260.807 143.168 260.227 143.071 259.711 142.858C259.195 142.64 258.785 142.304 258.482 141.849C258.184 141.395 258.037 140.827 258.042 140.145V129.477ZM264.915 143V132.091H267.486V143H264.915ZM266.207 130.543C265.8 130.543 265.45 130.408 265.156 130.138C264.863 129.863 264.716 129.534 264.716 129.151C264.716 128.762 264.863 128.433 265.156 128.163C265.45 127.889 265.8 127.751 266.207 127.751C266.619 127.751 266.97 127.889 267.259 128.163C267.552 128.433 267.699 128.762 267.699 129.151C267.699 129.534 267.552 129.863 267.259 130.138C266.97 130.408 266.619 130.543 266.207 130.543ZM274.888 143.213C273.823 143.213 272.9 142.979 272.118 142.51C271.337 142.041 270.731 141.385 270.3 140.543C269.874 139.7 269.661 138.715 269.661 137.588C269.661 136.461 269.874 135.474 270.3 134.626C270.731 133.779 271.337 133.121 272.118 132.652C272.9 132.183 273.823 131.949 274.888 131.949C275.954 131.949 276.877 132.183 277.658 132.652C278.439 133.121 279.043 133.779 279.469 134.626C279.9 135.474 280.115 136.461 280.115 137.588C280.115 138.715 279.9 139.7 279.469 140.543C279.043 141.385 278.439 142.041 277.658 142.51C276.877 142.979 275.954 143.213 274.888 143.213ZM274.902 141.153C275.48 141.153 275.963 140.995 276.351 140.678C276.74 140.356 277.028 139.925 277.218 139.385C277.412 138.845 277.509 138.244 277.509 137.581C277.509 136.913 277.412 136.31 277.218 135.77C277.028 135.225 276.74 134.792 276.351 134.47C275.963 134.148 275.48 133.987 274.902 133.987C274.311 133.987 273.818 134.148 273.425 134.47C273.037 134.792 272.746 135.225 272.552 135.77C272.362 136.31 272.267 136.913 272.267 137.581C272.267 138.244 272.362 138.845 272.552 139.385C272.746 139.925 273.037 140.356 273.425 140.678C273.818 140.995 274.311 141.153 274.902 141.153ZM284.869 136.608V143H282.298V132.091H284.755V133.945H284.883C285.134 133.334 285.534 132.848 286.083 132.489C286.637 132.129 287.321 131.949 288.136 131.949C288.889 131.949 289.544 132.11 290.103 132.432C290.666 132.754 291.102 133.22 291.41 133.831C291.722 134.442 291.876 135.183 291.871 136.054V143H289.3V136.452C289.3 135.723 289.111 135.152 288.732 134.74C288.358 134.328 287.84 134.122 287.177 134.122C286.727 134.122 286.327 134.222 285.977 134.42C285.631 134.615 285.359 134.896 285.16 135.266C284.966 135.635 284.869 136.082 284.869 136.608Z" fill="#101828"/>
</g>
<defs>
<filter id="filter0_f_7310_47037" x="37.0938" y="-21" width="269.57" height="265" filterUnits="userSpaceOnUse" color-interpolation-filters="sRGB">
<feFlood flood-opacity="0" result="BackgroundImageFix"/>
<feBlend mode="normal" in="SourceGraphic" in2="BackgroundImageFix" result="shape"/>
<feGaussianBlur stdDeviation="2" result="effect1_foregroundBlur_7310_47037"/>
</filter>
<filter id="filter1_i_7310_47037" x="109.164" y="-17" width="82.7266" height="130.119" filterUnits="userSpaceOnUse" color-interpolation-filters="sRGB">
<feFlood flood-opacity="0" result="BackgroundImageFix"/>
<feBlend mode="normal" in="SourceGraphic" in2="BackgroundImageFix" result="shape"/>
<feColorMatrix in="SourceAlpha" type="matrix" values="0 0 0 0 0 0 0 0 0 0 0 0 0 0 0 0 0 0 127 0" result="hardAlpha"/>
<feOffset dx="20"/>
<feGaussianBlur stdDeviation="12"/>
<feComposite in2="hardAlpha" operator="arithmetic" k2="-1" k3="1"/>
<feColorMatrix type="matrix" values="0 0 0 0 0.231373 0 0 0 0 0.419608 0 0 0 0 1 0 0 0 0.5 0"/>
<feBlend mode="normal" in2="shape" result="effect1_innerShadow_7310_47037"/>
</filter>
<filter id="filter2_i_7310_47037" x="151.883" y="-17" width="82.7266" height="130.119" filterUnits="userSpaceOnUse" color-interpolation-filters="sRGB">
<feFlood flood-opacity="0" result="BackgroundImageFix"/>
<feBlend mode="normal" in="SourceGraphic" in2="BackgroundImageFix" result="shape"/>
<feColorMatrix in="SourceAlpha" type="matrix" values="0 0 0 0 0 0 0 0 0 0 0 0 0 0 0 0 0 0 127 0" result="hardAlpha"/>
<feOffset dx="-20"/>
<feGaussianBlur stdDeviation="12"/>
<feComposite in2="hardAlpha" operator="arithmetic" k2="-1" k3="1"/>
<feColorMatrix type="matrix" values="0 0 0 0 0.231373 0 0 0 0 0.419608 0 0 0 0 1 0 0 0 0.5 0"/>
<feBlend mode="normal" in2="shape" result="effect1_innerShadow_7310_47037"/>
</filter>
<filter id="filter3_i_7310_47037" x="41.0938" y="30.7656" width="143.305" height="81.8965" filterUnits="userSpaceOnUse" color-interpolation-filters="sRGB">
<feFlood flood-opacity="0" result="BackgroundImageFix"/>
<feBlend mode="normal" in="SourceGraphic" in2="BackgroundImageFix" result="shape"/>
<feColorMatrix in="SourceAlpha" type="matrix" values="0 0 0 0 0 0 0 0 0 0 0 0 0 0 0 0 0 0 127 0" result="hardAlpha"/>
<feOffset dx="20"/>
<feGaussianBlur stdDeviation="12"/>
<feComposite in2="hardAlpha" operator="arithmetic" k2="-1" k3="1"/>
<feColorMatrix type="matrix" values="0 0 0 0 0.231373 0 0 0 0 0.419608 0 0 0 0 1 0 0 0 0.5 0"/>
<feBlend mode="normal" in2="shape" result="effect1_innerShadow_7310_47037"/>
</filter>
<filter id="filter4_i_7310_47037" x="179.359" y="30.7656" width="143.305" height="81.8965" filterUnits="userSpaceOnUse" color-interpolation-filters="sRGB">
<feFlood flood-opacity="0" result="BackgroundImageFix"/>
<feBlend mode="normal" in="SourceGraphic" in2="BackgroundImageFix" result="shape"/>
<feColorMatrix in="SourceAlpha" type="matrix" values="0 0 0 0 0 0 0 0 0 0 0 0 0 0 0 0 0 0 127 0" result="hardAlpha"/>
<feOffset dx="20"/>
<feGaussianBlur stdDeviation="12"/>
<feComposite in2="hardAlpha" operator="arithmetic" k2="-1" k3="1"/>
<feColorMatrix type="matrix" values="0 0 0 0 0.231373 0 0 0 0 0.419608 0 0 0 0 1 0 0 0 0.5 0"/>
<feBlend mode="normal" in2="shape" result="effect1_innerShadow_7310_47037"/>
</filter>
<filter id="filter5_i_7310_47037" x="109.164" y="109.881" width="82.7266" height="130.119" filterUnits="userSpaceOnUse" color-interpolation-filters="sRGB">
<feFlood flood-opacity="0" result="BackgroundImageFix"/>
<feBlend mode="normal" in="SourceGraphic" in2="BackgroundImageFix" result="shape"/>
<feColorMatrix in="SourceAlpha" type="matrix" values="0 0 0 0 0 0 0 0 0 0 0 0 0 0 0 0 0 0 127 0" result="hardAlpha"/>
<feOffset dx="20"/>
<feGaussianBlur stdDeviation="12"/>
<feComposite in2="hardAlpha" operator="arithmetic" k2="-1" k3="1"/>
<feColorMatrix type="matrix" values="0 0 0 0 0.231373 0 0 0 0 0.419608 0 0 0 0 1 0 0 0 0.5 0"/>
<feBlend mode="normal" in2="shape" result="effect1_innerShadow_7310_47037"/>
</filter>
<filter id="filter6_i_7310_47037" x="151.883" y="109.881" width="82.7266" height="130.119" filterUnits="userSpaceOnUse" color-interpolation-filters="sRGB">
<feFlood flood-opacity="0" result="BackgroundImageFix"/>
<feBlend mode="normal" in="SourceGraphic" in2="BackgroundImageFix" result="shape"/>
<feColorMatrix in="SourceAlpha" type="matrix" values="0 0 0 0 0 0 0 0 0 0 0 0 0 0 0 0 0 0 127 0" result="hardAlpha"/>
<feOffset dx="-20"/>
<feGaussianBlur stdDeviation="12"/>
<feComposite in2="hardAlpha" operator="arithmetic" k2="-1" k3="1"/>
<feColorMatrix type="matrix" values="0 0 0 0 0.231373 0 0 0 0 0.419608 0 0 0 0 1 0 0 0 0.5 0"/>
<feBlend mode="normal" in2="shape" result="effect1_innerShadow_7310_47037"/>
</filter>
<filter id="filter7_i_7310_47037" x="41.0938" y="110.338" width="143.305" height="81.8965" filterUnits="userSpaceOnUse" color-interpolation-filters="sRGB">
<feFlood flood-opacity="0" result="BackgroundImageFix"/>
<feBlend mode="normal" in="SourceGraphic" in2="BackgroundImageFix" result="shape"/>
<feColorMatrix in="SourceAlpha" type="matrix" values="0 0 0 0 0 0 0 0 0 0 0 0 0 0 0 0 0 0 127 0" result="hardAlpha"/>
<feOffset dx="20"/>
<feGaussianBlur stdDeviation="12"/>
<feComposite in2="hardAlpha" operator="arithmetic" k2="-1" k3="1"/>
<feColorMatrix type="matrix" values="0 0 0 0 0.231373 0 0 0 0 0.419608 0 0 0 0 1 0 0 0 0.5 0"/>
<feBlend mode="normal" in2="shape" result="effect1_innerShadow_7310_47037"/>
</filter>
<filter id="filter8_i_7310_47037" x="179.359" y="110.338" width="143.305" height="81.8965" filterUnits="userSpaceOnUse" color-interpolation-filters="sRGB">
<feFlood flood-opacity="0" result="BackgroundImageFix"/>
<feBlend mode="normal" in="SourceGraphic" in2="BackgroundImageFix" result="shape"/>
<feColorMatrix in="SourceAlpha" type="matrix" values="0 0 0 0 0 0 0 0 0 0 0 0 0 0 0 0 0 0 127 0" result="hardAlpha"/>
<feOffset dx="20"/>
<feGaussianBlur stdDeviation="12"/>
<feComposite in2="hardAlpha" operator="arithmetic" k2="-1" k3="1"/>
<feColorMatrix type="matrix" values="0 0 0 0 0.231373 0 0 0 0 0.419608 0 0 0 0 1 0 0 0 0.5 0"/>
<feBlend mode="normal" in2="shape" result="effect1_innerShadow_7310_47037"/>
</filter>
<clipPath id="bgblur_1_7310_47037_clip_path" transform="translate(4.5 -48)"><path d="M25.208 73H325.293V68.1465H335.001V77.8545H330.286V162.292H335.001V172H325.293V167H25.208V171.854H15.5V162.146H20.2109V77.708H15.5V68H25.208V73Z"/>
</clipPath><linearGradient id="paint0_linear_7310_47037" x1="97.6272" y1="7.61128e-06" x2="100.823" y2="240.021" gradientUnits="userSpaceOnUse">
<stop stop-color="#635BFF" stop-opacity="0.3"/>
<stop offset="0.5" stop-color="#3581FF" stop-opacity="0.2"/>
<stop offset="1" stop-color="#2E96FF" stop-opacity="0.2"/>
</linearGradient>
<clipPath id="clip0_7310_47037">
<rect width="343" height="240" rx="20" fill="white"/>
</clipPath>
</defs>
</svg>
