<svg xmlns="http://www.w3.org/2000/svg" width="551" height="440" fill="none"><g filter="url(#a)"><g clip-path="url(#b)"><path fill="url(#c)" d="M5 29C5 13.536 17.536 1 33 1h485c15.464 0 28 12.536 28 28v374c0 15.464-12.536 28-28 28H33c-15.464 0-28-12.536-28-28z" shape-rendering="crispEdges"/><path stroke="url(#d)" stroke-miterlimit="10" stroke-opacity=".15" d="M45.03 26.366H77.63m-32.598 0L28.734-1.901l16.297-28.267h32.598L93.925-1.901M45.031 26.366 28.734 54.632 45.031 82.9m32.598-56.533L93.925-1.902M77.63 26.366l16.296 28.266m0-56.533 16.296-28.267h32.599l16.296 28.267m-65.19 0 16.295 28.267m-65.19 226.133h32.598m-32.598 0-16.297-28.266 16.297-28.267m0 56.533-16.297 28.267 16.297 28.267m32.598-56.534 16.296-28.266M77.63 252.499l16.296 28.267m0-56.533L77.63 195.966m16.296 28.267 16.296-28.267m-16.296 28.267 16.296 28.266m-32.592-56.533H45.03m32.598 0 16.296-28.267m-48.894 28.267-16.297-28.267 16.297-28.267m0 0h32.598m-32.598 0-16.297-28.266 16.297-28.267m32.598 56.533 16.296-28.266M77.63 139.432l16.296 28.267m0-56.533L77.63 82.899m16.296 28.267 16.296-28.267m-16.296 28.267 16.296 28.266M77.629 82.899H45.03m32.598 0 16.296-28.267M45.031 365.566h32.598m-32.598 0L28.734 337.3l16.297-28.267m0 56.533-16.297 28.267L45.031 422.1m32.598-56.534L93.925 337.3M77.63 365.566l16.296 28.267m0-56.533L77.63 309.033M93.925 337.3l16.296-28.267M93.925 337.3l16.296 28.266m-32.592-56.533H45.03m32.598 0 16.296-28.267M45.031 478.633h32.598m-32.598 0-16.297-28.266L45.031 422.1m0 56.533L28.734 506.9l16.297 28.267h32.598L93.925 506.9M77.63 478.633l16.296-28.266M77.63 478.633 93.925 506.9m0-56.533L77.63 422.1m16.296 28.267 16.296-28.267m-16.296 28.267 16.296 28.266M77.629 422.1H45.03m32.598 0 16.296-28.267m0-339.2 16.296-28.268M93.925 54.633 110.221 82.9M93.925 280.766l16.296-28.267m-16.296 28.267 16.296 28.267M93.925 167.699l16.296-28.267m-16.296 28.267 16.296 28.267M93.925 393.833l16.296-28.267m-16.296 28.267 16.296 28.267m-16.296 84.8 16.296-28.267M93.925 506.9l16.296 28.267h32.599l16.296-28.267M305.794 26.366h32.598m-32.598 0L289.498-1.901m16.296 28.267-16.296 28.266m48.894-28.266 16.296-28.267m-16.296 28.267 16.296 28.266m0-56.533-16.296-28.267h-32.598L289.498-1.901m65.19 0 16.297-28.267h32.598l16.296 28.267m-65.191 0 16.297 28.267M289.498-1.901l-16.297 28.267m16.297-28.267-16.297-28.267h-32.598L224.307-1.901m81.487 254.4h32.598m-32.598 0-16.296-28.266m16.296 28.266-16.296 28.267m48.894-28.267 16.296-28.266m-16.296 28.266 16.296 28.267m0-56.533-16.296-28.267m16.296 28.267 16.297-28.267m-16.297 28.267 16.297 28.266m-32.593-56.533h-32.598m32.598 0 16.296-28.267m-48.894 28.267-16.296 28.267m16.296-28.267-16.296-28.267m0 56.534-16.297 28.266m16.297-28.266-16.297-28.267m32.593-56.534h32.598m-32.598 0-16.296-28.266m16.296 28.266-16.296 28.267m48.894-28.267 16.296-28.266m-16.296 28.266 16.296 28.267m0-56.533-16.296-28.267m16.296 28.267 16.297-28.267m-16.297 28.267 16.297 28.266m-32.593-56.533h-32.598m32.598 0 16.296-28.267M305.794 82.9l-16.296 28.267m16.296-28.267-16.296-28.267m0 56.534-16.297 28.266m16.297-28.266-16.297-28.267m32.593 282.667h32.598m-32.598 0L289.498 337.3m16.296 28.266-16.296 28.267m48.894-28.267 16.296-28.266m-16.296 28.266 16.296 28.267m0-56.533-16.296-28.267m16.296 28.267 16.297-28.267M354.688 337.3l16.297 28.266m-32.593-56.533h-32.598m32.598 0 16.296-28.267m-48.894 28.267L289.498 337.3m16.296-28.267-16.296-28.267m0 56.534-16.297 28.266m16.297-28.266-16.297-28.267m32.593 169.6h32.598m-32.598 0-16.296-28.266m16.296 28.266L289.498 506.9m48.894-28.267 16.296-28.266m-16.296 28.266 16.296 28.267m0-56.533L338.392 422.1m16.296 28.267 16.297-28.267m-16.297 28.267 16.297 28.266M338.392 422.1h-32.598m32.598 0 16.296-28.267M305.794 422.1l-16.296 28.267m16.296-28.267-16.296-28.267m0 56.534-16.297 28.266m16.297-28.266L273.201 422.1m81.487-367.468 16.297-28.266m-16.297 28.266L370.985 82.9m-81.487-28.267L273.201 82.9m16.297-28.267-16.297-28.266m81.487 254.4 16.297-28.267m-16.297 28.267 16.297 28.267m-81.487-28.267-16.297 28.267m16.297-28.267-16.297-28.267m81.487-84.8 16.297-28.267m-16.297 28.267 16.297 28.267m-81.487-28.267-16.297 28.267m16.297-28.267-16.297-28.267m81.487 254.401 16.297-28.267m-16.297 28.267 16.297 28.267m-81.487-28.267L273.201 422.1m16.297-28.267-16.297-28.267M354.688 506.9l-16.296 28.267h-32.598L289.498 506.9m65.19 0 16.297-28.267M354.688 506.9l16.297 28.267h32.598l16.296-28.267m-130.381 0-16.297 28.267h-32.598L224.307 506.9m65.191 0-16.297-28.267M175.412 26.366h32.598m-32.598 0L159.116-1.901m16.296 28.267-16.296 28.266m48.894-28.266 16.297-28.267M208.01 26.366l16.297 28.266m0-56.533L208.01-30.168h-32.598L159.116-1.901m65.191 0 16.296 28.267M159.116-1.901 142.82 26.366m32.592 226.133h32.598m-32.598 0-16.296-28.266m16.296 28.266-16.296 28.267m48.894-28.267 16.297-28.266m-16.297 28.266 16.297 28.267m0-56.533-16.297-28.267m16.297 28.267 16.296-28.267m-16.296 28.267 16.296 28.266m-32.593-56.533h-32.598m32.598 0 16.297-28.267m-48.895 28.267-16.296 28.267m16.296-28.267-16.296-28.267m0 56.534-16.296 28.266m16.296-28.266-16.296-28.267m32.592-56.534h32.598m-32.598 0-16.296-28.266m16.296 28.266-16.296 28.267m48.894-28.267 16.297-28.266m-16.297 28.266 16.297 28.267m0-56.533L208.01 82.899m16.297 28.267 16.296-28.267m-16.296 28.267 16.296 28.266M208.01 82.899h-32.598m32.598 0 16.297-28.267M175.412 82.9l-16.296 28.267m16.296-28.267-16.296-28.267m0 56.534-16.296 28.266m16.296-28.266L142.82 82.899m32.592 282.667h32.598m-32.598 0L159.116 337.3m16.296 28.266-16.296 28.267m48.894-28.267 16.297-28.266m-16.297 28.266 16.297 28.267m0-56.533-16.297-28.267m16.297 28.267 16.296-28.267M224.307 337.3l16.296 28.266m-32.593-56.533h-32.598m32.598 0 16.297-28.267m-48.895 28.267L159.116 337.3m16.296-28.267-16.296-28.267m0 56.534-16.296 28.266m16.296-28.266-16.296-28.267m32.592 169.6h32.598m-32.598 0-16.296-28.266m16.296 28.266L159.116 506.9m48.894-28.267 16.297-28.266m-16.297 28.266 16.297 28.267m0-56.533L208.01 422.1m16.297 28.267 16.296-28.267m-16.296 28.267 16.296 28.266M208.01 422.1h-32.598m32.598 0 16.297-28.267M175.412 422.1l-16.296 28.267m16.296-28.267-16.296-28.267m0 56.534-16.296 28.266m16.296-28.266L142.82 422.1m81.487-367.468 16.296-28.266m-16.296 28.266L240.603 82.9m-81.487-28.267L142.82 82.9m16.296-28.267L142.82 26.366m81.487 254.4 16.296-28.267m-16.296 28.267 16.296 28.267m-81.487-28.267-16.296 28.267m16.296-28.267-16.296-28.267m81.487-84.8 16.296-28.267m-16.296 28.267 16.296 28.267m-81.487-28.267-16.296 28.267m16.296-28.267-16.296-28.267m81.487 254.401 16.296-28.267m-16.296 28.267 16.296 28.267m-81.487-28.267L142.82 422.1m16.296-28.267-16.296-28.267M224.307 506.9l-16.297 28.267h-32.598L159.116 506.9m65.191 0 16.296-28.267M159.116 506.9l-16.296-28.267M436.176 26.366h32.598m-32.598 0L419.879-1.901m16.297 28.267-16.297 28.266m48.895-28.266L485.07-1.901m-16.296 28.267 16.296 28.266m0-56.533-16.296-28.267h-32.598L419.879-1.901m65.191 0 16.296-28.267h32.599l16.296 28.267-16.296 28.267M485.07-1.901l16.296 28.267M419.879-1.901l-16.296 28.267m32.593 226.133h32.598m-32.598 0-16.297-28.266m16.297 28.266-16.297 28.267m48.895-28.267 16.296-28.266m-16.296 28.266 16.296 28.267m0-56.533-16.296-28.267m16.296 28.267 16.296-28.267m-16.296 28.267 16.296 28.266m-32.592-56.533h-32.598m32.598 0 16.296-28.267m-48.894 28.267-16.297 28.267m16.297-28.267-16.297-28.267m0 56.534-16.296 28.266m16.296-28.266-16.296-28.267m32.593-56.534h32.598m-32.598 0-16.297-28.266m16.297 28.266-16.297 28.267m48.895-28.267 16.296-28.266m-16.296 28.266 16.296 28.267m0-56.533-16.296-28.267m16.296 28.267 16.296-28.267m-16.296 28.267 16.296 28.266m-32.592-56.533h-32.598m32.598 0 16.296-28.267M436.176 82.9l-16.297 28.267m16.297-28.267-16.297-28.267m0 56.534-16.296 28.266m16.296-28.266-16.296-28.267m32.593 282.667h32.598m-32.598 0L419.879 337.3m16.297 28.266-16.297 28.267m48.895-28.267L485.07 337.3m-16.296 28.266 16.296 28.267m0-56.533-16.296-28.267M485.07 337.3l16.296-28.267M485.07 337.3l16.296 28.266m-32.592-56.533h-32.598m32.598 0 16.296-28.267m-48.894 28.267L419.879 337.3m16.297-28.267-16.297-28.267m0 56.534-16.296 28.266m16.296-28.266-16.296-28.267m32.593 169.6h32.598m-32.598 0-16.297-28.266m16.297 28.266L419.879 506.9m48.895-28.267 16.296-28.266m-16.296 28.266L485.07 506.9m0-56.533L468.774 422.1m16.296 28.267 16.296-28.267m-16.296 28.267 16.296 28.266M468.774 422.1h-32.598m32.598 0 16.296-28.267M436.176 422.1l-16.297 28.267m16.297-28.267-16.297-28.267m0 56.534-16.296 28.266m16.296-28.266L403.583 422.1M485.07 54.632l16.296-28.266M485.07 54.632 501.366 82.9m-81.487-28.267L403.583 82.9m16.296-28.267-16.296-28.266m81.487 254.4 16.296-28.267m-16.296 28.267 16.296 28.267m-81.487-28.267-16.296 28.267m16.296-28.267-16.296-28.267m81.487-84.8 16.296-28.267m-16.296 28.267 16.296 28.267m-81.487-28.267-16.296 28.267m16.296-28.267-16.296-28.267m81.487 254.401 16.296-28.267m-16.296 28.267 16.296 28.267m-81.487-28.267L403.583 422.1m16.296-28.267-16.296-28.267M485.07 506.9l-16.296 28.267h-32.598L419.879 506.9m65.191 0 16.296-28.267M485.07 506.9l16.296 28.267h32.599l16.296-28.267-16.296-28.267M419.879 506.9l-16.296-28.267M110.221 26.366h32.599m-32.599 226.133h32.599m0-56.533h-32.599m0-56.534h32.599m0-56.533h-32.599m0 282.667h32.599m0-56.533h-32.599m0 169.6h32.599m0-56.533h-32.599M370.985 26.366h32.598m-32.598 226.133h32.598m0-56.533h-32.598m0-56.534h32.598m0-56.533h-32.598m0 282.667h32.598m0-56.533h-32.598m0 169.6h32.598m0-56.533h-32.598M240.603 26.366h32.598m-32.598 226.133h32.598m0-56.533h-32.598m0-56.534h32.598m0-56.533h-32.598m0 282.667h32.598m0-56.533h-32.598m0 169.6h32.598m0-56.533h-32.598M501.366 26.366h32.599m0 0 16.296 28.266L533.965 82.9m-32.599 169.6h32.599m0 0 16.296-28.266-16.296-28.267m0 56.533 16.296 28.267-16.296 28.267m0-113.067h-32.599m32.599 0 16.296-28.267-16.296-28.267m-32.599 0h32.599m0 0 16.296-28.266-16.296-28.267m0 0h-32.599m0 282.667h32.599m0 0 16.296-28.266-16.296-28.267m0 56.533 16.296 28.267-16.296 28.267m0-113.067h-32.599m0 169.6h32.599m0 0 16.296-28.266-16.296-28.267m0 0h-32.599"/></g></g><defs><linearGradient id="c" x1="504.5" x2="155.726" y1="19" y2="449.24" gradientUnits="userSpaceOnUse"><stop stop-color="#6779FF" stop-opacity=".2"/><stop offset=".25" stop-color="#93C1FF" stop-opacity=".2"/><stop offset=".891" stop-color="#7599F4" stop-opacity=".2"/><stop offset="1" stop-color="#9FBFFF" stop-opacity=".61"/></linearGradient><linearGradient id="d" x1="477.372" x2="342.522" y1="47.415" y2="217.443" gradientUnits="userSpaceOnUse"><stop stop-color="#318EFF"/><stop offset="1" stop-color="#318EFF" stop-opacity="0"/></linearGradient><clipPath id="b"><path fill="#fff" d="M5 29C5 13.536 17.536 1 33 1h485c15.464 0 28 12.536 28 28v374c0 15.464-12.536 28-28 28H33c-15.464 0-28-12.536-28-28z"/></clipPath><filter id="a" width="551" height="440" x="0" y="0" color-interpolation-filters="sRGB" filterUnits="userSpaceOnUse"><feFlood flood-opacity="0" result="BackgroundImageFix"/><feColorMatrix in="SourceAlpha" result="hardAlpha" values="0 0 0 0 0 0 0 0 0 0 0 0 0 0 0 0 0 0 127 0"/><feMorphology in="SourceAlpha" radius="2" result="effect1_dropShadow_8655_8020"/><feOffset dy="2"/><feGaussianBlur stdDeviation="2"/><feComposite in2="hardAlpha" operator="out"/><feColorMatrix values="0 0 0 0 0 0 0 0 0 0 0 0 0 0 0 0 0 0 0.1 0"/><feBlend in2="BackgroundImageFix" result="effect1_dropShadow_8655_8020"/><feColorMatrix in="SourceAlpha" result="hardAlpha" values="0 0 0 0 0 0 0 0 0 0 0 0 0 0 0 0 0 0 127 0"/><feMorphology in="SourceAlpha" radius="1" result="effect2_dropShadow_8655_8020"/><feOffset dy="4"/><feGaussianBlur stdDeviation="3"/><feComposite in2="hardAlpha" operator="out"/><feColorMatrix values="0 0 0 0 0 0 0 0 0 0 0 0 0 0 0 0 0 0 0.1 0"/><feBlend in2="effect1_dropShadow_8655_8020" result="effect2_dropShadow_8655_8020"/><feBlend in="SourceGraphic" in2="effect2_dropShadow_8655_8020" result="shape"/></filter></defs></svg>