<svg xmlns="http://www.w3.org/2000/svg" width="551" height="440" fill="none"><g filter="url(#a)"><g clip-path="url(#b)"><path fill="url(#c)" d="M5 29C5 13.536 17.536 1 33 1h485c15.464 0 28 12.536 28 28v374c0 15.464-12.536 28-28 28H33c-15.464 0-28-12.536-28-28z"/><path stroke="url(#d)" stroke-miterlimit="10" stroke-opacity=".15" d="M212.238-7.88h53.408m-53.408 0-26.714-46.28m26.714 46.28H158.82m53.418 0 26.704-46.28M212.238-7.88l26.704 46.28M212.238-7.88 185.524 38.4m80.122-46.28 26.705-46.28-26.705-46.28m0 92.56h53.419m-53.419 0-26.704-46.28m26.704 46.28 26.705 46.28-26.705 46.28m0-92.56L238.942 38.4m26.704-138.84h-53.408m53.408 0 26.705-46.28L265.646-193h-53.408m53.408 92.56h53.419l26.704 46.28-26.704 46.28m-53.419-92.56-26.704 46.28m-26.704-46.28-26.714 46.28m26.714-46.28 26.704 46.28m-26.704-46.28H158.82m53.418 0 26.704-46.28L212.238-193m0 92.56-26.714-46.28m0 92.56L158.82-7.88m26.704-46.28-26.704-46.28m53.418 462.776h53.408m-53.408 0-26.714-46.28m26.714 46.28H158.82m53.418 0 26.704-46.28m-26.704 46.28 26.704 46.28m-26.704-46.28-26.714 46.28m80.122-46.28 26.705-46.28-26.705-46.28m0 92.56h53.419m-53.419 0-26.704-46.28m26.704 46.28 26.705 46.28-26.705 46.28m0-92.56-26.704 46.28m26.704-138.84h-53.408m53.408 0 26.705-46.28-26.705-46.28h-53.408m53.408 92.56h53.419l26.704 46.28-26.704 46.28m-53.419-92.56-26.704 46.28m-26.704-46.28-26.714 46.28m26.714-46.28 26.704 46.28m-26.704-46.28H158.82m53.418 0 26.704-46.28-26.704-46.28m0 92.56-26.714-46.28m0 92.56-26.704 46.28m26.704-46.28-26.704-46.28M51.993-100.44h53.418m-53.418 0-26.705-46.28m26.705 46.28 26.704 46.28m-26.705-46.28H-1.416m53.409 0L25.288-54.16m26.705-46.28 26.704-46.28m26.714 46.28 26.704-46.28m-26.704 46.28h53.409m-53.409 0-26.714-46.28m26.714 46.28 26.704 46.28m-26.704-46.28L78.697-54.16m53.418-92.56L105.411-193m26.704 46.28L158.82-193m-26.705 46.28 26.705 46.28M105.411-193H51.993m53.418 0h53.409m-53.409 0-26.714 46.28M51.992-193l-26.704 46.28M51.993-193l26.704 46.28M51.992-193H-1.416m26.704 46.28-26.704 46.28m26.704-46.28L-1.416-193m53.409 462.776h53.418m-53.418 0-26.705-46.28m26.705 46.28 26.704 46.28m-26.705-46.28H-1.416m53.409 0-26.705 46.28m26.705-46.28 26.704-46.28m26.714 46.28 26.704-46.28m-26.704 46.28h53.409m-53.409 0-26.714-46.28m26.714 46.28 26.704 46.28m-26.704-46.28-26.714 46.28m53.418-92.56-26.704-46.28m26.704 46.28 26.705-46.28m-26.705 46.28 26.705 46.28m-53.409-92.56H51.993m53.418 0h53.409m-53.409 0-26.714 46.28m-26.705-46.28-26.704 46.28m26.705-46.28 26.704 46.28m-26.705-46.28H-1.416m26.704 46.28-26.704 46.28m26.704-46.28-26.704-46.28M158.82-100.44l26.704-46.28m-26.704 46.28-26.705 46.28m53.409-92.56L158.82-193m26.704 46.28L212.238-193m-53.418 0h53.418M158.82 269.776l26.704-46.28m-26.704 46.28-26.705 46.28m53.409-92.56-26.704-46.28m26.704 46.28 26.714-46.28m-53.418 0h53.418M-54.834-100.44h53.418m-53.418 0-26.705-46.28L-54.834-193h53.418m-53.418 92.56L-81.54-54.16l26.705 46.28m53.418-92.56L-28.13-54.16-1.416-7.88m0-92.56 26.704 46.28m-26.704-46.28-26.714-46.28L-1.416-193m-53.418 462.776h53.418m-53.418 0-26.705-46.28 26.705-46.28h53.418m-53.418 92.56-26.705 46.28 26.705 46.28m53.418-92.56-26.714 46.28 26.714 46.28m0-92.56 26.704 46.28m-26.704-46.28-26.714-46.28 26.714-46.28m0-185.096h53.409m-53.41 0h-53.417m53.418 0 26.704-46.28M-1.416-7.88 25.288 38.4M-1.416-7.88-28.13 38.4l26.714 46.28M51.993-7.88l26.704-46.28M51.992-7.88h53.419m-53.418 0L25.288-54.16M51.993-7.88 78.697 38.4M51.992-7.88 25.289 38.4m53.409-92.56 26.714 46.28M-1.416 362.336h53.409m-53.41 0h-53.417m53.418 0 26.704-46.28m-26.704 46.28 26.704 46.28m-26.704-46.28-26.714 46.28 26.714 46.28m53.409-92.56 26.704-46.28m-26.705 46.28h53.419m-53.418 0-26.705-46.28m26.705 46.28 26.704 46.28m-26.705-46.28-26.704 46.28m53.409-92.56 26.714 46.28m0-370.216 26.704-46.28M105.411-7.88h53.409m-53.409 0 26.704 46.28M105.411-7.88 78.697 38.4m53.418-92.56L158.82-7.88m-53.409 370.216 26.704-46.28m-26.704 46.28h53.409m-53.409 0 26.704 46.28m-26.704-46.28-26.714 46.28m53.418-92.56 26.705 46.28m0-370.216L132.115 38.4M158.82-7.88l26.704 46.28M158.82 362.336l-26.705 46.28m26.705-46.28 26.704 46.28M-54.834-7.88-81.54 38.4l26.705 46.28m0 277.656-26.705 46.28 26.705 46.28M319.065-7.88l26.704 46.28-26.704 46.28m0 277.656 26.704 46.28-26.704 46.28M-1.416 177.24h-53.418l-26.705-46.28 26.705-46.28m53.418 92.56 26.704-46.28m-26.704 46.28h53.409m-53.41 0-26.713-46.28 26.714-46.28m26.704 46.28L-1.416 84.68m26.704 46.28 26.705-46.28m-26.705 46.28 26.705 46.28m-53.41-92.56h-53.417m53.418 0L25.288 38.4M-1.416 84.68h53.409m-53.41 462.776h-53.417l-26.705-46.28 26.705-46.28m53.418 92.56 26.704-46.28m-26.704 46.28h53.409m-53.41 0-26.713-46.28 26.714-46.28m26.704 46.28-26.704-46.28m26.704 46.28 26.705-46.28m-26.705 46.28 26.705 46.28m-53.41-92.56h-53.417m53.418 0 26.704-46.28m-26.704 46.28h53.409M-1.417 640h-53.417l-26.705-46.28 26.705-46.28h53.418m0 92.56 26.704-46.28M-1.416 640h53.409m-53.41 0-26.713-46.28 26.714-46.28m26.704 46.28-26.704-46.28m26.704 46.28 26.705-46.28m-26.705 46.28L51.993 640m-53.41-92.56h53.41M25.288 38.4l26.705 46.28M25.288 408.616l26.705 46.28m0-370.216L78.697 38.4M51.992 84.68h53.419m-53.418 0 26.704 46.28m0-92.56 26.714 46.28M51.993 454.896l26.704-46.28m-26.705 46.28h53.419m-53.418 0 26.704 46.28m0-92.56 26.714 46.28m0-370.216 26.704-46.28m-26.704 46.28h53.409m-53.409 0 26.704 46.28m-26.704-46.28-26.714 46.28m53.418-92.56 26.705 46.28m-53.409 370.216 26.704-46.28m-26.704 46.28h53.409m-53.409 0 26.704 46.28m-26.704-46.28-26.714 46.28m53.418-92.56 26.705 46.28M51.993 177.24l26.704-46.28m-26.705 46.28h53.419m-26.714-46.28 26.714 46.28M51.993 547.456l26.704-46.28m-26.705 46.28h53.419m-26.714-46.28 26.714 46.28M51.993 640l26.704-46.28M51.992 640h53.419m-26.714-46.28-26.705-46.28m26.705 46.28 26.714-46.28m-26.714 46.28L105.411 640m-53.418-92.56h53.418M158.82 84.68h53.418m-53.418 0 26.704-46.28M158.82 84.68l26.704 46.28M158.82 84.68l-26.705 46.28m80.123-46.28 26.704-46.28m-26.704 46.28 26.704 46.28m-26.704-46.28h53.408m-53.408 0-26.714 46.28m26.714-46.28L185.524 38.4m53.418 0 26.704 46.28M158.82 454.896h53.418m-53.418 0 26.704-46.28m-26.704 46.28 26.704 46.28m-26.704-46.28-26.705 46.28m80.123-46.28 26.704-46.28m-26.704 46.28 26.704 46.28m-26.704-46.28h53.408m-53.408 0-26.714 46.28m26.714-46.28-26.714-46.28m53.418 0 26.704 46.28M105.411 177.24l26.704-46.28m-26.704 46.28h53.409m-26.705-46.28 26.705 46.28m-53.409 370.216 26.704-46.28m-26.704 46.28h53.409m-26.705-46.28 26.705 46.28M105.411 640l26.704-46.28M105.411 640h53.409m-26.705-46.28-26.704-46.28m26.704 46.28 26.705-46.28m-26.705 46.28L158.82 640m-53.409-92.56h53.409m0-370.2 26.704-46.28m-26.704 46.28h53.418m-26.714-46.28 26.714 46.28M158.82 547.456l26.704-46.28m-26.704 46.28h53.418m-26.714-46.28 26.714 46.28M158.82 640l26.704-46.28M158.82 640h53.418m-26.714-46.28-26.704-46.28m26.704 46.28 26.714-46.28m-26.714 46.28L212.238 640m-53.418-92.56h53.418m0-370.2 26.704-46.28m-26.704 46.28h53.408m-26.704-46.28 26.704-46.28m-26.704 46.28 26.704 46.28m-53.408 370.216 26.704-46.28m-26.704 46.28h53.408m-26.704-46.28 26.704-46.28m-26.704 46.28 26.704 46.28M212.238 640l26.704-46.28M212.238 640h53.408m-26.704-46.28-26.704-46.28m26.704 46.28 26.704-46.28m-26.704 46.28L265.646 640m-53.408-92.56h53.408m373.616-647.88h53.418m-53.418 0-26.704-46.28L639.262-193m0 92.56 26.705 46.28-26.705 46.28m0-92.56h-53.409m53.409 0-26.704 46.28m26.704-46.28 26.705-46.28L639.262-193m53.418 92.56 26.705-46.28L692.68-193h-53.418m53.418 92.56 26.705 46.28L692.68-7.88M639.262-193h-53.409l-26.704 46.28 26.704 46.28m53.409 370.216h53.418m-53.418 0-26.704-46.28 26.704-46.28m0 92.56 26.705 46.28-26.705 46.28m0-92.56h-53.409m53.409 0-26.704 46.28m26.704-46.28 26.705-46.28-26.705-46.28m53.418 92.56 26.705-46.28-26.705-46.28h-53.418m53.418 92.56 26.705 46.28-26.705 46.28m-53.418-185.12h-53.409l-26.704 46.28 26.704 46.28m0-277.656h53.409m-53.409 0-26.704-46.28 26.704-46.28m0 92.56L559.149 38.4l26.704 46.28m0-92.56h-53.418m53.418 0 26.705-46.28M585.853-7.88l26.705 46.28m26.704-46.28h53.418m-53.418 0-26.704-46.28m26.704 46.28 26.705 46.28-26.705 46.28m0-92.56L612.558 38.4m-26.705-138.84 26.705 46.28m-26.705-46.28h-53.418m53.418 462.776h53.409m-53.409 0-26.704-46.28 26.704-46.28m0 92.56-26.704 46.28 26.704 46.28m0-92.56h-53.418m53.418 0 26.705-46.28m-26.705 46.28 26.705 46.28m26.704-46.28h53.418m-53.418 0-26.704-46.28m26.704 46.28 26.705 46.28-26.705 46.28m0-92.56-26.704 46.28m-26.705-138.84 26.705 46.28m-26.705-46.28h-53.418M692.68-7.88l26.705 46.28-26.705 46.28m0 277.656 26.705 46.28-26.705 46.28M585.853 84.68h53.409m-53.409 0-26.704 46.28 26.704 46.28m0-92.56 26.705 46.28m-26.705-46.28h-53.418m53.418 0 26.705-46.28m26.704 46.28h53.418m-53.418 0L612.558 38.4m26.704 46.28 26.705 46.28-26.705 46.28m0-92.56-26.704 46.28m-26.705 323.936h53.409m-53.409 0-26.704 46.28 26.704 46.28m0-92.56 26.705 46.28m-26.705-46.28h-53.418m53.418 0 26.705-46.28m26.704 46.28h53.418m-53.418 0-26.704-46.28m26.704 46.28 26.705 46.28-26.705 46.28m0-92.56-26.704 46.28M692.68 84.68l26.705 46.28-26.705 46.28h-53.418m53.418 277.656 26.705 46.28-26.705 46.28h-53.418M585.853 177.24h53.409m-53.409 0h-53.418m53.418 0 26.705-46.28m26.704 46.28-26.704-46.28m-26.705 416.496h53.409m-53.409 0h-53.418m53.418 0 26.705-46.28m26.704 46.28-26.704-46.28M585.853 640h53.409m-53.409 0-26.704-46.28 26.704-46.28m0 92.56h-53.418m53.418 0 26.705-46.28M639.262 640l26.705-46.28-26.705-46.28m0 92.56h53.418l26.705-46.28-26.705-46.28h-53.418m0 92.56-26.704-46.28m26.704-46.28h-53.409m53.409 0-26.704 46.28m-26.705-46.28 26.705 46.28m-26.705-46.28h-53.418m-266.789-370.2 26.705-46.28-26.705-46.28m0 92.56h53.419l26.704-46.28-26.704-46.28m-53.419 0h53.419m-53.419 462.776 26.705-46.28-26.705-46.28m0 92.56h53.419l26.704-46.28-26.704-46.28m-53.419 0h53.419M265.646 640l26.705-46.28-26.705-46.28m0 92.56h53.419l26.704-46.28-26.704-46.28h-53.419M479.026-7.88h53.409m-53.409 0-26.713-46.28m26.713 46.28h-53.418m53.418 0 26.705-46.28M479.026-7.88l26.705 46.28M479.026-7.88 452.313 38.4m80.122-46.28 26.705-46.28-26.705-46.28m0 92.56-26.704-46.28m26.704 46.28L559.14 38.4l-26.705 46.28m0-92.56L505.731 38.4m26.704-138.84h-53.409m53.409 0 26.705-46.28L532.435-193h-53.409m53.409 92.56-26.704 46.28m-26.705-46.28-26.713 46.28m26.713-46.28 26.705 46.28m-26.705-46.28h-53.418m53.418 0 26.705-46.28L479.026-193m0 92.56-26.713-46.28m0 92.56L425.608-7.88m26.705-46.28-26.705-46.28m53.418 462.776h53.409m-53.409 0-26.713-46.28m26.713 46.28h-53.418m53.418 0 26.705-46.28m-26.705 46.28 26.705 46.28m-26.705-46.28-26.713 46.28m80.122-46.28 26.705-46.28-26.705-46.28m0 92.56-26.704-46.28m26.704 46.28 26.705 46.28-26.705 46.28m0-92.56-26.704 46.28m26.704-138.84h-53.409m53.409 0 26.705-46.28-26.705-46.28h-53.409m53.409 92.56-26.704 46.28m-26.705-46.28-26.713 46.28m26.713-46.28 26.705 46.28m-26.705-46.28h-53.418m53.418 0 26.705-46.28-26.705-46.28m0 92.56-26.713-46.28m0 92.56-26.705 46.28m26.705-46.28-26.705-46.28M318.781-100.44h53.409m-53.409 0-26.704-46.28L318.781-193h53.409m-53.409 92.56-26.704 46.28 26.704 46.28m53.409-92.56 26.714-46.28m-26.714 46.28h53.418m-53.418 0-26.704-46.28L372.19-193m0 92.56 26.714 46.28m-26.714-46.28-26.704 46.28L372.19-7.88m26.714-138.84L372.19-193m26.714 46.28L425.608-193m-26.704 46.28 26.704 46.28M372.19-193h53.418M318.781 269.776h53.409m-53.409 0-26.704-46.28 26.704-46.28h53.409m-53.409 92.56-26.704 46.28 26.704 46.28m53.409-92.56 26.714-46.28m-26.714 46.28h53.418m-53.418 0-26.704-46.28 26.704-46.28m0 92.56 26.714 46.28m-26.714-46.28-26.704 46.28 26.704 46.28m26.714-138.84-26.714-46.28m26.714 46.28 26.704-46.28m-26.704 46.28 26.704 46.28m-53.418-92.56h53.418m0-277.656 26.705-46.28m-26.705 46.28-26.704 46.28m53.409-92.56L425.608-193m26.705 46.28L479.026-193m-53.418 0h53.418m-53.418 462.776 26.705-46.28m-26.705 46.28-26.704 46.28m53.409-92.56-26.705-46.28m26.705 46.28 26.713-46.28m-53.418 0h53.418M318.781-7.88h53.409m-53.409 0L292.077 38.4l26.704 46.28M372.19-7.88l26.714-46.28M372.19-7.88h53.418m-53.418 0 26.714 46.28M372.19-7.88 345.486 38.4l26.704 46.28m26.714-138.84 26.704 46.28M318.781 362.336h53.409m-53.409 0-26.704 46.28 26.704 46.28m53.409-92.56 26.714-46.28m-26.714 46.28h53.418m-53.418 0 26.714 46.28m-26.714-46.28-26.704 46.28 26.704 46.28m26.714-138.84 26.704 46.28m0-370.216L398.904 38.4m26.704-46.28 26.705 46.28m-26.705 323.936-26.704 46.28m26.704-46.28 26.705 46.28M318.781 84.68h53.409m-53.409 0-26.704 46.28 26.704 46.28h53.409m0-92.56 26.714-46.28M372.19 84.68h53.418m-53.418 0 26.714 46.28M372.19 84.68l-26.704 46.28 26.704 46.28M398.904 38.4l26.704 46.28M318.781 454.896h53.409m-53.409 0-26.704 46.28 26.704 46.28h53.409m0-92.56 26.714-46.28m-26.714 46.28h53.418m-53.418 0 26.714 46.28m-26.714-46.28-26.704 46.28 26.704 46.28m26.714-138.84 26.704 46.28m0-370.216h53.418m-53.418 0 26.705-46.28m-26.705 46.28 26.705 46.28m-26.705-46.28-26.704 46.28m80.122-46.28 26.705-46.28m-26.705 46.28 26.705 46.28m-26.705-46.28h53.409m-53.409 0-26.713 46.28m26.713-46.28L452.313 38.4m53.418 0 26.704 46.28M425.608 454.896h53.418m-53.418 0 26.705-46.28m-26.705 46.28 26.705 46.28m-26.705-46.28-26.704 46.28m80.122-46.28 26.705-46.28m-26.705 46.28 26.705 46.28m-26.705-46.28h53.409m-53.409 0-26.713 46.28m26.713-46.28-26.713-46.28m53.418 0 26.704 46.28M372.19 177.24l26.714-46.28m-26.714 46.28h53.418m-26.704-46.28 26.704 46.28M372.19 547.456l26.714-46.28m-26.714 46.28h53.418m-26.704-46.28 26.704 46.28M372.19 640h-53.409l-26.704-46.28 26.704-46.28h53.409m0 92.56 26.714-46.28M372.19 640h53.418m-53.418 0-26.704-46.28 26.704-46.28m26.714 46.28-26.714-46.28m26.714 46.28 26.704-46.28m-26.704 46.28L425.608 640m-53.418-92.56h53.418m0-370.2 26.705-46.28m-26.705 46.28h53.418m-26.713-46.28 26.713 46.28m-53.418 370.216 26.705-46.28m-26.705 46.28h53.418m-26.713-46.28 26.713 46.28M425.608 640l26.705-46.28M425.608 640h53.418m-26.713-46.28-26.705-46.28m26.705 46.28 26.713-46.28m-26.713 46.28L479.026 640m-53.418-92.56h53.418m0-370.2 26.705-46.28m-26.705 46.28h53.409m-26.704-46.28 26.704-46.28m-26.704 46.28 26.704 46.28m-53.409 370.216 26.705-46.28m-26.705 46.28h53.409m-26.704-46.28 26.704-46.28m-26.704 46.28 26.704 46.28M479.026 640l26.705-46.28M479.026 640h53.409m-26.704-46.28-26.705-46.28m26.705 46.28 26.704-46.28m-26.704 46.28L532.435 640m-53.409-92.56h53.409m0-370.2 26.705-46.28-26.705-46.28m0 462.776 26.705-46.28-26.705-46.28m0 185.104 26.705-46.28-26.705-46.28M265.637-100.44h53.409l26.714-46.28L319.046-193h-53.409l-26.704 46.28zm0 370.216h53.409l26.714-46.28-26.714-46.28h-53.409l-26.704 46.28zM532.426-100.44h53.409l26.704-46.28L585.835-193h-53.409l-26.713 46.28zm0 370.216h53.409l26.704-46.28-26.704-46.28h-53.409l-26.713 46.28zm160.461-92.568h53.409L773 130.928l-26.704-46.28h-53.409l-26.705 46.28zm0 370.216h53.409L773 501.144l-26.704-46.28h-53.409l-26.705 46.28zm0 92.544h53.409L773 593.688l-26.704-46.28h-53.409l-26.705 46.28zm0-555.248h53.409L773 38.44 746.296-7.84h-53.409l-26.705 46.28zm0 370.216h53.409L773 408.656l-26.704-46.28h-53.409l-26.705 46.28zm0-462.784h53.409L773-54.128l-26.704-46.28h-53.409l-26.705 46.28zm0 370.216h53.409L773 316.088l-26.704-46.28h-53.409l-26.705 46.28zm0-462.784h53.409L773-146.696l-26.704-46.28h-53.409l-26.705 46.28zm0 370.216h53.409L773 223.52l-26.704-46.28h-53.409l-26.705 46.28zM-108.286-7.848h53.409l26.704-46.28-26.704-46.28h-53.409L-135-54.128zm0 370.216h53.409l26.704-46.28-26.704-46.28h-53.409L-135 316.088zm0-277.728h53.409l26.704-46.28-26.704-46.28h-53.409L-135 38.36zm0 370.216h53.409l26.704-46.28-26.704-46.28h-53.409L-135 408.576zm0-277.648h53.409l26.704-46.28-26.704-46.28h-53.409L-135 130.928zm0 370.216h53.409l26.704-46.28-26.704-46.28h-53.409L-135 501.144zm0 92.544h53.409l26.704-46.28-26.704-46.28h-53.409L-135 593.688zm0-740.384h53.409l26.704-46.28-26.704-46.28h-53.409L-135-146.696zm0 370.216h53.409l26.704-46.28-26.704-46.28h-53.409L-135 223.52z"/></g></g><defs><linearGradient id="c" x1="28" x2="275" y1="892" y2="113" gradientUnits="userSpaceOnUse"><stop stop-color="#E8E7EB"/><stop offset=".43" stop-color="#A3BCF1"/><stop offset="1" stop-color="#FCFCFC"/></linearGradient><linearGradient id="d" x1="628.426" x2="120.52" y1="-45.264" y2="596.512" gradientUnits="userSpaceOnUse"><stop stop-color="#318EFF"/><stop offset=".5" stop-color="#318EFF" stop-opacity="0"/><stop offset="1" stop-color="#318EFF"/></linearGradient><clipPath id="b"><path fill="#fff" d="M5 29C5 13.536 17.536 1 33 1h485c15.464 0 28 12.536 28 28v374c0 15.464-12.536 28-28 28H33c-15.464 0-28-12.536-28-28z"/></clipPath><filter id="a" width="551" height="440" x="0" y="0" color-interpolation-filters="sRGB" filterUnits="userSpaceOnUse"><feFlood flood-opacity="0" result="BackgroundImageFix"/><feColorMatrix in="SourceAlpha" result="hardAlpha" values="0 0 0 0 0 0 0 0 0 0 0 0 0 0 0 0 0 0 127 0"/><feMorphology in="SourceAlpha" radius="2" result="effect1_dropShadow_8655_7863"/><feOffset dy="2"/><feGaussianBlur stdDeviation="2"/><feComposite in2="hardAlpha" operator="out"/><feColorMatrix values="0 0 0 0 0 0 0 0 0 0 0 0 0 0 0 0 0 0 0.1 0"/><feBlend in2="BackgroundImageFix" result="effect1_dropShadow_8655_7863"/><feColorMatrix in="SourceAlpha" result="hardAlpha" values="0 0 0 0 0 0 0 0 0 0 0 0 0 0 0 0 0 0 127 0"/><feMorphology in="SourceAlpha" radius="1" result="effect2_dropShadow_8655_7863"/><feOffset dy="4"/><feGaussianBlur stdDeviation="3"/><feComposite in2="hardAlpha" operator="out"/><feColorMatrix values="0 0 0 0 0 0 0 0 0 0 0 0 0 0 0 0 0 0 0.1 0"/><feBlend in2="effect1_dropShadow_8655_7863" result="effect2_dropShadow_8655_7863"/><feBlend in="SourceGraphic" in2="effect2_dropShadow_8655_7863" result="shape"/></filter></defs></svg>