<svg xmlns="http://www.w3.org/2000/svg" width="1122" height="288" fill="none"><g filter="url(#a)"><g clip-path="url(#b)"><path fill="url(#c)" d="M5 29C5 13.536 17.536 1 33 1h1055.98c15.46 0 28 12.536 28 28v221.95c0 15.464-12.54 28-28 28H33c-15.464 0-28-12.536-28-28z" shape-rendering="crispEdges"/><path stroke="url(#d)" d="M203.5 332V32"/><path stroke="url(#e)" d="M153.5 332V32"/><path stroke="url(#f)" d="M103.5 332V32"/><path stroke="url(#g)" d="M53.5 332V32"/><path stroke="url(#h)" d="M248 232.5H2"/><path stroke="url(#i)" d="M248 182.5H2"/><path stroke="url(#j)" d="M248 132.5H2"/><path stroke="url(#k)" d="M248 82.5H2"/></g></g><defs><linearGradient id="c" x1="321.5" x2="322.822" y1="1" y2="279.017" gradientUnits="userSpaceOnUse"><stop stop-color="#635BFF" stop-opacity=".3"/><stop offset=".5" stop-color="#3581FF" stop-opacity=".2"/><stop offset="1" stop-color="#2E96FF" stop-opacity=".2"/></linearGradient><linearGradient id="d" x1="204.5" x2="204.5" y1="332" y2="32" gradientUnits="userSpaceOnUse"><stop stop-color="#fff" stop-opacity=".4"/><stop offset="1" stop-color="#fff" stop-opacity="0"/></linearGradient><linearGradient id="e" x1="154.5" x2="154.5" y1="332" y2="32" gradientUnits="userSpaceOnUse"><stop stop-color="#fff" stop-opacity=".4"/><stop offset="1" stop-color="#fff" stop-opacity="0"/></linearGradient><linearGradient id="f" x1="104.5" x2="104.5" y1="332" y2="32" gradientUnits="userSpaceOnUse"><stop stop-color="#fff" stop-opacity=".4"/><stop offset="1" stop-color="#fff" stop-opacity="0"/></linearGradient><linearGradient id="g" x1="54.5" x2="54.5" y1="332" y2="32" gradientUnits="userSpaceOnUse"><stop stop-color="#fff" stop-opacity=".4"/><stop offset="1" stop-color="#fff" stop-opacity="0"/></linearGradient><linearGradient id="h" x1="2" x2="248" y1="231.5" y2="231.5" gradientUnits="userSpaceOnUse"><stop stop-color="#fff" stop-opacity=".4"/><stop offset="1" stop-color="#fff" stop-opacity="0"/></linearGradient><linearGradient id="i" x1="2" x2="248" y1="181.5" y2="181.5" gradientUnits="userSpaceOnUse"><stop stop-color="#fff" stop-opacity=".4"/><stop offset="1" stop-color="#fff" stop-opacity="0"/></linearGradient><linearGradient id="j" x1="2" x2="248" y1="131.5" y2="131.5" gradientUnits="userSpaceOnUse"><stop stop-color="#fff" stop-opacity=".4"/><stop offset="1" stop-color="#fff" stop-opacity="0"/></linearGradient><linearGradient id="k" x1="2" x2="248" y1="81.5" y2="81.5" gradientUnits="userSpaceOnUse"><stop stop-color="#fff" stop-opacity=".4"/><stop offset="1" stop-color="#fff" stop-opacity="0"/></linearGradient><clipPath id="b"><path fill="#fff" d="M5 29C5 13.536 17.536 1 33 1h1055.98c15.46 0 28 12.536 28 28v221.95c0 15.464-12.54 28-28 28H33c-15.464 0-28-12.536-28-28z"/></clipPath><filter id="a" width="1121.98" height="287.95" x="0" y="0" color-interpolation-filters="sRGB" filterUnits="userSpaceOnUse"><feFlood flood-opacity="0" result="BackgroundImageFix"/><feColorMatrix in="SourceAlpha" result="hardAlpha" values="0 0 0 0 0 0 0 0 0 0 0 0 0 0 0 0 0 0 127 0"/><feMorphology in="SourceAlpha" radius="2" result="effect1_dropShadow_7598_12282"/><feOffset dy="2"/><feGaussianBlur stdDeviation="2"/><feComposite in2="hardAlpha" operator="out"/><feColorMatrix values="0 0 0 0 0 0 0 0 0 0 0 0 0 0 0 0 0 0 0.1 0"/><feBlend in2="BackgroundImageFix" result="effect1_dropShadow_7598_12282"/><feColorMatrix in="SourceAlpha" result="hardAlpha" values="0 0 0 0 0 0 0 0 0 0 0 0 0 0 0 0 0 0 127 0"/><feMorphology in="SourceAlpha" radius="1" result="effect2_dropShadow_7598_12282"/><feOffset dy="4"/><feGaussianBlur stdDeviation="3"/><feComposite in2="hardAlpha" operator="out"/><feColorMatrix values="0 0 0 0 0 0 0 0 0 0 0 0 0 0 0 0 0 0 0.1 0"/><feBlend in2="effect1_dropShadow_7598_12282" result="effect2_dropShadow_7598_12282"/><feBlend in="SourceGraphic" in2="effect2_dropShadow_7598_12282" result="shape"/></filter></defs></svg>