<svg xmlns="http://www.w3.org/2000/svg" width="551" height="388" fill="none"><g filter="url(#a)"><g clip-path="url(#b)"><rect width="541" height="378" x="5" y="1" fill="url(#c)" rx="28"/><path stroke="url(#d)" stroke-miterlimit="10" stroke-opacity=".2" d="M602 259.796 436 334l-166-74.204m332-32.2L436 301.8l-166-74.204m332-32.199-166 74.204-166-74.204m332-32.2-166 74.204-166-74.204m332-32.199-166 74.204-166-74.204m332-32.2-166 74.204-166-74.204m332-32.2-166 74.205-166-74.204m332-32.2-166 74.204-166-74.204m332-32.2L436 76.405 270 2.2M602-30 436 44.204 270-30"/></g></g><defs><linearGradient id="c" x1="612.5" x2="72" y1="439" y2="64.5" gradientUnits="userSpaceOnUse"><stop offset=".144" stop-color="#D8EBFF"/><stop offset="1" stop-color="#fff"/></linearGradient><linearGradient id="d" x1="448.704" x2="563.002" y1="166.259" y2="17.104" gradientUnits="userSpaceOnUse"><stop stop-color="#318EFF" stop-opacity="0"/><stop offset="1" stop-color="#318EFF"/></linearGradient><clipPath id="b"><rect width="541" height="378" x="5" y="1" fill="#fff" rx="28"/></clipPath><filter id="a" width="551" height="388" x="0" y="0" color-interpolation-filters="sRGB" filterUnits="userSpaceOnUse"><feFlood flood-opacity="0" result="BackgroundImageFix"/><feColorMatrix in="SourceAlpha" result="hardAlpha" values="0 0 0 0 0 0 0 0 0 0 0 0 0 0 0 0 0 0 127 0"/><feMorphology in="SourceAlpha" radius="2" result="effect1_dropShadow_8655_7809"/><feOffset dy="2"/><feGaussianBlur stdDeviation="2"/><feComposite in2="hardAlpha" operator="out"/><feColorMatrix values="0 0 0 0 0 0 0 0 0 0 0 0 0 0 0 0 0 0 0.1 0"/><feBlend in2="BackgroundImageFix" result="effect1_dropShadow_8655_7809"/><feColorMatrix in="SourceAlpha" result="hardAlpha" values="0 0 0 0 0 0 0 0 0 0 0 0 0 0 0 0 0 0 127 0"/><feMorphology in="SourceAlpha" radius="1" result="effect2_dropShadow_8655_7809"/><feOffset dy="4"/><feGaussianBlur stdDeviation="3"/><feComposite in2="hardAlpha" operator="out"/><feColorMatrix values="0 0 0 0 0 0 0 0 0 0 0 0 0 0 0 0 0 0 0.1 0"/><feBlend in2="effect1_dropShadow_8655_7809" result="effect2_dropShadow_8655_7809"/><feBlend in="SourceGraphic" in2="effect2_dropShadow_8655_7809" result="shape"/></filter></defs></svg>