<svg width="370" height="240" viewBox="0 0 370 240" fill="none" xmlns="http://www.w3.org/2000/svg">
<g clip-path="url(#clip0_8839_26513)">
<rect width="370" height="240" rx="20" fill="url(#paint0_linear_8839_26513)"/>
<g opacity="0.3" filter="url(#filter0_f_8839_26513)">
<g filter="url(#filter1_i_8839_26513)">
<path d="M185 109.334C176.201 109.334 167.489 107.601 159.36 104.234C151.231 100.867 143.845 95.9316 137.624 89.7101C131.402 83.4886 126.467 76.1026 123.1 67.9737C119.733 59.8449 118 51.1325 118 42.334C118 33.5354 119.733 24.823 123.1 16.6942C126.467 8.56536 131.402 1.17934 137.624 -5.04218C143.845 -11.2637 151.231 -16.1989 159.36 -19.566C167.489 -22.933 176.201 -24.666 185 -24.666L185 42.334L185 109.334Z" fill="#D1D8FF"/>
</g>
<g filter="url(#filter2_i_8839_26513)">
<path d="M185 109.334C193.799 109.334 202.511 107.601 210.64 104.234C218.769 100.867 226.155 95.9316 232.376 89.7101C238.598 83.4886 243.533 76.1026 246.9 67.9737C250.267 59.8449 252 51.1325 252 42.334C252 33.5354 250.267 24.823 246.9 16.6942C243.533 8.56536 238.598 1.17934 232.376 -5.04218C226.155 -11.2637 218.769 -16.1989 210.64 -19.566C202.511 -22.933 193.799 -24.666 185 -24.666L185 42.334L185 109.334Z" fill="#D2D7FF"/>
</g>
<g filter="url(#filter3_i_8839_26513)">
<path d="M47.5767 108.863C45.2994 100.364 44.7184 91.5003 45.8669 82.7771C47.0153 74.0538 49.8707 65.6421 54.27 58.0223C58.6693 50.4025 64.5263 43.7239 71.5067 38.3676C78.487 33.0114 86.454 29.0825 94.9528 26.8053C103.452 24.528 112.316 23.9471 121.039 25.0955C129.762 26.244 138.174 29.0993 145.794 33.4986C153.413 37.8979 160.092 43.7549 165.448 50.7353C170.805 57.7157 174.733 65.6827 177.011 74.1814L112.294 91.5223L47.5767 108.863Z" fill="#D1D8FF"/>
</g>
<g filter="url(#filter4_i_8839_26513)">
<path d="M322.423 108.863C324.701 100.364 325.282 91.5003 324.133 82.7771C322.985 74.0538 320.129 65.6421 315.73 58.0223C311.331 50.4025 305.474 43.7239 298.493 38.3676C291.513 33.0114 283.546 29.0825 275.047 26.8053C266.548 24.528 257.684 23.9471 248.961 25.0955C240.238 26.244 231.826 29.0993 224.206 33.4986C216.587 37.8979 209.908 43.7549 204.552 50.7353C199.195 57.7157 195.267 65.6827 192.989 74.1814L257.706 91.5223L322.423 108.863Z" fill="#D1D8FF"/>
</g>
<g filter="url(#filter5_i_8839_26513)">
<path d="M185 106C176.201 106 167.489 107.733 159.36 111.1C151.231 114.467 143.845 119.402 137.624 125.624C131.402 131.845 126.467 139.231 123.1 147.36C119.733 155.489 118 164.201 118 173C118 181.799 119.733 190.511 123.1 198.64C126.467 206.769 131.402 214.155 137.624 220.376C143.845 226.598 151.231 231.533 159.36 234.9C167.489 238.267 176.201 240 185 240L185 173L185 106Z" fill="#D1D8FF"/>
</g>
<g filter="url(#filter6_i_8839_26513)">
<path d="M185 106C193.799 106 202.511 107.733 210.64 111.1C218.769 114.467 226.155 119.402 232.376 125.624C238.598 131.845 243.533 139.231 246.9 147.36C250.267 155.489 252 164.201 252 173C252 181.799 250.267 190.511 246.9 198.64C243.533 206.769 238.598 214.155 232.376 220.376C226.155 226.598 218.769 231.533 210.64 234.9C202.511 238.267 193.799 240 185 240L185 173L185 106Z" fill="#D2D7FF"/>
</g>
<g filter="url(#filter7_i_8839_26513)">
<path d="M47.5767 106.471C45.2994 114.97 44.7184 123.834 45.8669 132.557C47.0153 141.28 49.8707 149.692 54.27 157.312C58.6693 164.931 64.5263 171.61 71.5067 176.966C78.487 182.323 86.454 186.251 94.9528 188.529C103.452 190.806 112.316 191.387 121.039 190.238C129.762 189.09 138.174 186.235 145.794 181.835C153.413 177.436 160.092 171.579 165.448 164.599C170.805 157.618 174.733 149.651 177.011 141.153L112.294 123.812L47.5767 106.471Z" fill="#D1D8FF"/>
</g>
<g filter="url(#filter8_i_8839_26513)">
<path d="M322.423 106.471C324.701 114.97 325.282 123.834 324.133 132.557C322.985 141.28 320.129 149.692 315.73 157.312C311.331 164.931 305.474 171.61 298.493 176.966C291.513 182.323 283.546 186.251 275.047 188.529C266.548 190.806 257.684 191.387 248.961 190.238C240.238 189.09 231.826 186.235 224.206 181.835C216.587 177.436 209.908 171.579 204.552 164.599C199.195 157.618 195.267 149.651 192.989 141.153L257.706 123.812L322.423 106.471Z" fill="#D1D8FF"/>
</g>
</g>
<foreignObject x="-4.5" y="48" width="379" height="144"><div xmlns="http://www.w3.org/1999/xhtml" style="backdrop-filter:blur(10px);clip-path:url(#bgblur_1_8839_26513_clip_path);height:100%;width:100%"></div></foreignObject><path data-figma-bg-blur-radius="20" d="M25.5 73H344.5V68H354.5V78H349.5V162H354.5V172H344.5V167H25.5V172H15.5V162H20.5V78H15.5V68H25.5V73Z" fill="white" fill-opacity="0.5"/>
<path d="M39.549 113H36.174L42.3189 95.5455H46.2223L52.3757 113H49.0007L44.3388 99.125H44.2024L39.549 113ZM39.6598 106.156H48.8643V108.696H39.6598V106.156ZM57.8366 95.5455V113H54.6747V95.5455H57.8366ZM69.4553 113H66.0803L72.2251 95.5455H76.1286L82.282 113H78.907L74.245 99.125H74.1087L69.4553 113ZM69.5661 106.156H78.7706V108.696H69.5661V106.156ZM89.7393 118.182C88.6314 118.182 87.6797 118.031 86.8842 117.73C86.0888 117.435 85.4496 117.037 84.9666 116.537C84.4837 116.037 84.1484 115.483 83.9609 114.875L86.7393 114.202C86.8643 114.457 87.0462 114.71 87.2848 114.96C87.5234 115.216 87.8445 115.426 88.2479 115.591C88.657 115.761 89.1712 115.847 89.7905 115.847C90.6655 115.847 91.3899 115.634 91.9638 115.207C92.5376 114.787 92.8246 114.094 92.8246 113.128V110.648H92.6712C92.5121 110.966 92.2791 111.293 91.9723 111.628C91.6712 111.963 91.2706 112.244 90.7706 112.472C90.2763 112.699 89.6541 112.812 88.9041 112.812C87.8984 112.812 86.9865 112.577 86.1683 112.105C85.3558 111.628 84.7081 110.918 84.2251 109.974C83.7479 109.026 83.5092 107.838 83.5092 106.412C83.5092 104.974 83.7479 103.761 84.2251 102.773C84.7081 101.778 85.3587 101.026 86.1768 100.514C86.995 99.9972 87.907 99.7386 88.9126 99.7386C89.6797 99.7386 90.3104 99.8693 90.8047 100.131C91.3047 100.386 91.7024 100.696 91.9979 101.06C92.2933 101.418 92.5178 101.756 92.6712 102.074H92.8416V99.9091H95.8842V113.213C95.8842 114.332 95.6172 115.259 95.0831 115.991C94.549 116.724 93.8189 117.273 92.8928 117.636C91.9666 118 90.9155 118.182 89.7393 118.182ZM89.7649 110.392C90.4183 110.392 90.9751 110.233 91.4354 109.915C91.8956 109.597 92.245 109.139 92.4837 108.543C92.7223 107.946 92.8416 107.23 92.8416 106.395C92.8416 105.571 92.7223 104.849 92.4837 104.23C92.2507 103.611 91.9041 103.131 91.4439 102.79C90.9893 102.443 90.4297 102.27 89.7649 102.27C89.0774 102.27 88.5036 102.449 88.0433 102.807C87.5831 103.165 87.2365 103.656 87.0036 104.281C86.7706 104.901 86.6541 105.605 86.6541 106.395C86.6541 107.196 86.7706 107.898 87.0036 108.5C87.2422 109.097 87.5916 109.562 88.0518 109.898C88.5178 110.227 89.0888 110.392 89.7649 110.392ZM104.842 113.256C103.529 113.256 102.396 112.983 101.441 112.438C100.492 111.886 99.7621 111.108 99.2507 110.102C98.7393 109.091 98.4837 107.901 98.4837 106.531C98.4837 105.185 98.7393 104.003 99.2507 102.986C99.7678 101.963 100.489 101.168 101.415 100.599C102.342 100.026 103.43 99.7386 104.68 99.7386C105.487 99.7386 106.248 99.8693 106.964 100.131C107.685 100.386 108.322 100.784 108.873 101.324C109.43 101.864 109.867 102.551 110.185 103.386C110.504 104.216 110.663 105.205 110.663 106.352V107.298H99.9325V105.219H107.705C107.7 104.628 107.572 104.102 107.322 103.642C107.072 103.176 106.722 102.81 106.273 102.543C105.83 102.276 105.313 102.142 104.722 102.142C104.092 102.142 103.538 102.295 103.06 102.602C102.583 102.903 102.211 103.301 101.944 103.795C101.683 104.284 101.549 104.821 101.543 105.406V107.222C101.543 107.983 101.683 108.636 101.961 109.182C102.239 109.722 102.629 110.136 103.129 110.426C103.629 110.71 104.214 110.852 104.884 110.852C105.333 110.852 105.739 110.79 106.103 110.665C106.467 110.534 106.782 110.344 107.049 110.094C107.316 109.844 107.518 109.534 107.654 109.165L110.535 109.489C110.353 110.25 110.006 110.915 109.495 111.483C108.989 112.045 108.342 112.483 107.552 112.795C106.762 113.102 105.859 113.256 104.842 113.256ZM116.358 105.33V113H113.273V99.9091H116.222V102.134H116.375C116.676 101.401 117.156 100.818 117.815 100.386C118.48 99.9545 119.301 99.7386 120.278 99.7386C121.182 99.7386 121.969 99.9318 122.639 100.318C123.315 100.705 123.838 101.264 124.207 101.997C124.582 102.73 124.767 103.619 124.761 104.665V113H121.676V105.142C121.676 104.267 121.449 103.582 120.994 103.088C120.545 102.594 119.923 102.347 119.128 102.347C118.588 102.347 118.108 102.466 117.688 102.705C117.273 102.937 116.946 103.276 116.707 103.719C116.474 104.162 116.358 104.699 116.358 105.33ZM134.435 99.9091V102.295H126.909V99.9091H134.435ZM128.767 96.7727H131.852V109.062C131.852 109.477 131.915 109.795 132.04 110.017C132.17 110.233 132.341 110.381 132.551 110.46C132.761 110.54 132.994 110.58 133.25 110.58C133.443 110.58 133.619 110.565 133.778 110.537C133.943 110.509 134.068 110.483 134.153 110.46L134.673 112.872C134.509 112.929 134.273 112.991 133.966 113.06C133.665 113.128 133.295 113.168 132.858 113.179C132.085 113.202 131.389 113.085 130.77 112.83C130.151 112.568 129.659 112.165 129.295 111.619C128.938 111.074 128.761 110.392 128.767 109.574V96.7727ZM147.174 103.369L144.362 103.676C144.282 103.392 144.143 103.125 143.944 102.875C143.751 102.625 143.489 102.423 143.16 102.27C142.83 102.116 142.427 102.04 141.95 102.04C141.308 102.04 140.768 102.179 140.33 102.457C139.898 102.736 139.685 103.097 139.691 103.54C139.685 103.92 139.825 104.23 140.109 104.469C140.398 104.707 140.876 104.903 141.54 105.057L143.773 105.534C145.012 105.801 145.933 106.224 146.535 106.804C147.143 107.384 147.45 108.142 147.455 109.08C147.45 109.903 147.208 110.631 146.731 111.261C146.259 111.886 145.603 112.375 144.762 112.727C143.921 113.08 142.955 113.256 141.864 113.256C140.262 113.256 138.972 112.92 137.995 112.25C137.018 111.574 136.435 110.634 136.248 109.429L139.256 109.139C139.393 109.73 139.683 110.176 140.126 110.477C140.569 110.778 141.146 110.929 141.856 110.929C142.589 110.929 143.177 110.778 143.62 110.477C144.069 110.176 144.293 109.804 144.293 109.361C144.293 108.986 144.148 108.676 143.859 108.432C143.575 108.187 143.131 108 142.529 107.869L140.296 107.401C139.04 107.139 138.112 106.699 137.509 106.08C136.907 105.455 136.609 104.665 136.614 103.71C136.609 102.903 136.827 102.205 137.271 101.614C137.719 101.017 138.342 100.557 139.137 100.233C139.938 99.9034 140.862 99.7386 141.907 99.7386C143.441 99.7386 144.648 100.065 145.529 100.719C146.415 101.372 146.964 102.256 147.174 103.369ZM151.9 113.188C151.383 113.188 150.94 113.006 150.57 112.642C150.201 112.278 150.019 111.835 150.025 111.312C150.019 110.801 150.201 110.364 150.57 110C150.94 109.636 151.383 109.455 151.9 109.455C152.4 109.455 152.835 109.636 153.204 110C153.579 110.364 153.769 110.801 153.775 111.312C153.769 111.659 153.678 111.974 153.502 112.259C153.332 112.543 153.104 112.77 152.82 112.94C152.542 113.105 152.235 113.188 151.9 113.188ZM151.9 103.847C151.383 103.847 150.94 103.665 150.57 103.301C150.201 102.932 150.019 102.489 150.025 101.972C150.019 101.46 150.201 101.023 150.57 100.659C150.94 100.29 151.383 100.105 151.9 100.105C152.4 100.105 152.835 100.29 153.204 100.659C153.579 101.023 153.769 101.46 153.775 101.972C153.769 102.312 153.678 102.625 153.502 102.909C153.332 103.193 153.104 103.42 152.82 103.591C152.542 103.761 152.235 103.847 151.9 103.847ZM162.283 98.196V95.5455H176.209V98.196H170.814V113H167.678V98.196H162.283ZM181.842 105.33V113H178.757V95.5455H181.774V102.134H181.928C182.234 101.395 182.709 100.812 183.351 100.386C183.999 99.9545 184.822 99.7386 185.822 99.7386C186.732 99.7386 187.524 99.929 188.2 100.31C188.876 100.69 189.399 101.247 189.768 101.98C190.143 102.713 190.331 103.608 190.331 104.665V113H187.246V105.142C187.246 104.261 187.018 103.577 186.564 103.088C186.115 102.594 185.484 102.347 184.672 102.347C184.126 102.347 183.638 102.466 183.206 102.705C182.78 102.937 182.445 103.276 182.2 103.719C181.962 104.162 181.842 104.699 181.842 105.33ZM199.271 113.256C197.959 113.256 196.825 112.983 195.871 112.438C194.922 111.886 194.192 111.108 193.68 110.102C193.169 109.091 192.913 107.901 192.913 106.531C192.913 105.185 193.169 104.003 193.68 102.986C194.197 101.963 194.919 101.168 195.845 100.599C196.771 100.026 197.859 99.7386 199.109 99.7386C199.916 99.7386 200.678 99.8693 201.393 100.131C202.115 100.386 202.751 100.784 203.303 101.324C203.859 101.864 204.297 102.551 204.615 103.386C204.933 104.216 205.092 105.205 205.092 106.352V107.298H194.362V105.219H202.135C202.129 104.628 202.001 104.102 201.751 103.642C201.501 103.176 201.152 102.81 200.703 102.543C200.26 102.276 199.743 102.142 199.152 102.142C198.521 102.142 197.967 102.295 197.49 102.602C197.013 102.903 196.641 103.301 196.374 103.795C196.112 104.284 195.979 104.821 195.973 105.406V107.222C195.973 107.983 196.112 108.636 196.391 109.182C196.669 109.722 197.058 110.136 197.558 110.426C198.058 110.71 198.643 110.852 199.314 110.852C199.763 110.852 200.169 110.79 200.533 110.665C200.896 110.534 201.212 110.344 201.479 110.094C201.746 109.844 201.947 109.534 202.084 109.165L204.964 109.489C204.783 110.25 204.436 110.915 203.925 111.483C203.419 112.045 202.771 112.483 201.982 112.795C201.192 113.102 200.288 113.256 199.271 113.256ZM213.792 113V95.5455H220.474C221.735 95.5455 222.783 95.7443 223.619 96.142C224.46 96.5341 225.087 97.071 225.502 97.7528C225.923 98.4347 226.133 99.2074 226.133 100.071C226.133 100.781 225.996 101.389 225.724 101.895C225.451 102.395 225.085 102.801 224.624 103.114C224.164 103.426 223.65 103.651 223.082 103.787V103.957C223.701 103.991 224.295 104.182 224.863 104.528C225.437 104.869 225.906 105.352 226.269 105.977C226.633 106.602 226.815 107.358 226.815 108.244C226.815 109.148 226.596 109.96 226.158 110.682C225.721 111.398 225.062 111.963 224.181 112.378C223.3 112.793 222.192 113 220.857 113H213.792ZM216.954 110.358H220.354C221.502 110.358 222.329 110.139 222.835 109.702C223.346 109.259 223.602 108.69 223.602 107.997C223.602 107.48 223.474 107.014 223.218 106.599C222.962 106.179 222.599 105.849 222.127 105.611C221.656 105.366 221.093 105.244 220.44 105.244H216.954V110.358ZM216.954 102.969H220.082C220.627 102.969 221.119 102.869 221.556 102.67C221.994 102.466 222.337 102.179 222.587 101.81C222.843 101.435 222.971 100.991 222.971 100.48C222.971 99.804 222.732 99.2472 222.255 98.8097C221.783 98.3722 221.082 98.1534 220.15 98.1534H216.954V102.969ZM235.224 113.256C233.912 113.256 232.778 112.983 231.824 112.438C230.875 111.886 230.145 111.108 229.634 110.102C229.122 109.091 228.866 107.901 228.866 106.531C228.866 105.185 229.122 104.003 229.634 102.986C230.151 101.963 230.872 101.168 231.798 100.599C232.724 100.026 233.812 99.7386 235.062 99.7386C235.869 99.7386 236.631 99.8693 237.347 100.131C238.068 100.386 238.705 100.784 239.256 101.324C239.813 101.864 240.25 102.551 240.568 103.386C240.886 104.216 241.045 105.205 241.045 106.352V107.298H230.315V105.219H238.088C238.082 104.628 237.955 104.102 237.705 103.642C237.455 103.176 237.105 102.81 236.656 102.543C236.213 102.276 235.696 102.142 235.105 102.142C234.474 102.142 233.92 102.295 233.443 102.602C232.966 102.903 232.594 103.301 232.327 103.795C232.065 104.284 231.932 104.821 231.926 105.406V107.222C231.926 107.983 232.065 108.636 232.344 109.182C232.622 109.722 233.011 110.136 233.511 110.426C234.011 110.71 234.597 110.852 235.267 110.852C235.716 110.852 236.122 110.79 236.486 110.665C236.849 110.534 237.165 110.344 237.432 110.094C237.699 109.844 237.901 109.534 238.037 109.165L240.918 109.489C240.736 110.25 240.389 110.915 239.878 111.483C239.372 112.045 238.724 112.483 237.935 112.795C237.145 113.102 236.241 113.256 235.224 113.256ZM249.349 118.182C248.241 118.182 247.289 118.031 246.494 117.73C245.698 117.435 245.059 117.037 244.576 116.537C244.093 116.037 243.758 115.483 243.57 114.875L246.349 114.202C246.474 114.457 246.656 114.71 246.894 114.96C247.133 115.216 247.454 115.426 247.857 115.591C248.266 115.761 248.781 115.847 249.4 115.847C250.275 115.847 250.999 115.634 251.573 115.207C252.147 114.787 252.434 114.094 252.434 113.128V110.648H252.281C252.121 110.966 251.888 111.293 251.582 111.628C251.281 111.963 250.88 112.244 250.38 112.472C249.886 112.699 249.263 112.812 248.513 112.812C247.508 112.812 246.596 112.577 245.778 112.105C244.965 111.628 244.317 110.918 243.835 109.974C243.357 109.026 243.119 107.838 243.119 106.412C243.119 104.974 243.357 103.761 243.835 102.773C244.317 101.778 244.968 101.026 245.786 100.514C246.604 99.9972 247.516 99.7386 248.522 99.7386C249.289 99.7386 249.92 99.8693 250.414 100.131C250.914 100.386 251.312 100.696 251.607 101.06C251.903 101.418 252.127 101.756 252.281 102.074H252.451V99.9091H255.494V113.213C255.494 114.332 255.227 115.259 254.692 115.991C254.158 116.724 253.428 117.273 252.502 117.636C251.576 118 250.525 118.182 249.349 118.182ZM249.374 110.392C250.028 110.392 250.585 110.233 251.045 109.915C251.505 109.597 251.854 109.139 252.093 108.543C252.332 107.946 252.451 107.23 252.451 106.395C252.451 105.571 252.332 104.849 252.093 104.23C251.86 103.611 251.513 103.131 251.053 102.79C250.599 102.443 250.039 102.27 249.374 102.27C248.687 102.27 248.113 102.449 247.653 102.807C247.192 103.165 246.846 103.656 246.613 104.281C246.38 104.901 246.263 105.605 246.263 106.395C246.263 107.196 246.38 107.898 246.613 108.5C246.852 109.097 247.201 109.562 247.661 109.898C248.127 110.227 248.698 110.392 249.374 110.392ZM258.656 113V99.9091H261.741V113H258.656ZM260.207 98.0511C259.718 98.0511 259.298 97.8892 258.945 97.5653C258.593 97.2358 258.417 96.8409 258.417 96.3807C258.417 95.9148 258.593 95.5199 258.945 95.196C259.298 94.8665 259.718 94.7017 260.207 94.7017C260.701 94.7017 261.121 94.8665 261.468 95.196C261.82 95.5199 261.996 95.9148 261.996 96.3807C261.996 96.8409 261.82 97.2358 261.468 97.5653C261.121 97.8892 260.701 98.0511 260.207 98.0511ZM267.999 105.33V113H264.913V99.9091H267.862V102.134H268.016C268.317 101.401 268.797 100.818 269.456 100.386C270.121 99.9545 270.942 99.7386 271.919 99.7386C272.822 99.7386 273.609 99.9318 274.28 100.318C274.956 100.705 275.479 101.264 275.848 101.997C276.223 102.73 276.408 103.619 276.402 104.665V113H273.317V105.142C273.317 104.267 273.089 103.582 272.635 103.088C272.186 102.594 271.564 102.347 270.768 102.347C270.229 102.347 269.749 102.466 269.328 102.705C268.913 102.937 268.587 103.276 268.348 103.719C268.115 104.162 267.999 104.699 267.999 105.33ZM282.624 105.33V113H279.538V99.9091H282.487V102.134H282.641C282.942 101.401 283.422 100.818 284.081 100.386C284.746 99.9545 285.567 99.7386 286.544 99.7386C287.447 99.7386 288.234 99.9318 288.905 100.318C289.581 100.705 290.104 101.264 290.473 101.997C290.848 102.73 291.033 103.619 291.027 104.665V113H287.942V105.142C287.942 104.267 287.714 103.582 287.26 103.088C286.811 102.594 286.189 102.347 285.393 102.347C284.854 102.347 284.374 102.466 283.953 102.705C283.538 102.937 283.212 103.276 282.973 103.719C282.74 104.162 282.624 104.699 282.624 105.33ZM294.163 113V99.9091H297.249V113H294.163ZM295.714 98.0511C295.226 98.0511 294.805 97.8892 294.453 97.5653C294.101 97.2358 293.925 96.8409 293.925 96.3807C293.925 95.9148 294.101 95.5199 294.453 95.196C294.805 94.8665 295.226 94.7017 295.714 94.7017C296.209 94.7017 296.629 94.8665 296.976 95.196C297.328 95.5199 297.504 95.9148 297.504 96.3807C297.504 96.8409 297.328 97.2358 296.976 97.5653C296.629 97.8892 296.209 98.0511 295.714 98.0511ZM303.506 105.33V113H300.421V99.9091H303.37V102.134H303.523C303.825 101.401 304.305 100.818 304.964 100.386C305.629 99.9545 306.45 99.7386 307.427 99.7386C308.33 99.7386 309.117 99.9318 309.788 100.318C310.464 100.705 310.987 101.264 311.356 101.997C311.731 102.73 311.915 103.619 311.91 104.665V113H308.825V105.142C308.825 104.267 308.597 103.582 308.143 103.088C307.694 102.594 307.072 102.347 306.276 102.347C305.737 102.347 305.256 102.466 304.836 102.705C304.421 102.937 304.094 103.276 303.856 103.719C303.623 104.162 303.506 104.699 303.506 105.33ZM320.739 118.182C319.631 118.182 318.68 118.031 317.884 117.73C317.089 117.435 316.45 117.037 315.967 116.537C315.484 116.037 315.148 115.483 314.961 114.875L317.739 114.202C317.864 114.457 318.046 114.71 318.285 114.96C318.523 115.216 318.844 115.426 319.248 115.591C319.657 115.761 320.171 115.847 320.79 115.847C321.665 115.847 322.39 115.634 322.964 115.207C323.538 114.787 323.825 114.094 323.825 113.128V110.648H323.671C323.512 110.966 323.279 111.293 322.972 111.628C322.671 111.963 322.271 112.244 321.771 112.472C321.276 112.699 320.654 112.812 319.904 112.812C318.898 112.812 317.987 112.577 317.168 112.105C316.356 111.628 315.708 110.918 315.225 109.974C314.748 109.026 314.509 107.838 314.509 106.412C314.509 104.974 314.748 103.761 315.225 102.773C315.708 101.778 316.359 101.026 317.177 100.514C317.995 99.9972 318.907 99.7386 319.913 99.7386C320.68 99.7386 321.31 99.8693 321.805 100.131C322.305 100.386 322.702 100.696 322.998 101.06C323.293 101.418 323.518 101.756 323.671 102.074H323.842V99.9091H326.884V113.213C326.884 114.332 326.617 115.259 326.083 115.991C325.549 116.724 324.819 117.273 323.893 117.636C322.967 118 321.915 118.182 320.739 118.182ZM320.765 110.392C321.418 110.392 321.975 110.233 322.435 109.915C322.896 109.597 323.245 109.139 323.484 108.543C323.722 107.946 323.842 107.23 323.842 106.395C323.842 105.571 323.722 104.849 323.484 104.23C323.251 103.611 322.904 103.131 322.444 102.79C321.989 102.443 321.43 102.27 320.765 102.27C320.077 102.27 319.504 102.449 319.043 102.807C318.583 103.165 318.237 103.656 318.004 104.281C317.771 104.901 317.654 105.605 317.654 106.395C317.654 107.196 317.771 107.898 318.004 108.5C318.242 109.097 318.592 109.562 319.052 109.898C319.518 110.227 320.089 110.392 320.765 110.392ZM50.7915 145.256C49.5131 145.256 48.4052 144.974 47.4677 144.412C46.5302 143.849 45.8029 143.062 45.2859 142.051C44.7745 141.04 44.5188 139.858 44.5188 138.506C44.5188 137.153 44.7745 135.969 45.2859 134.952C45.8029 133.935 46.5302 133.145 47.4677 132.582C48.4052 132.02 49.5131 131.739 50.7915 131.739C52.07 131.739 53.1779 132.02 54.1154 132.582C55.0529 133.145 55.7773 133.935 56.2887 134.952C56.8058 135.969 57.0643 137.153 57.0643 138.506C57.0643 139.858 56.8058 141.04 56.2887 142.051C55.7773 143.062 55.0529 143.849 54.1154 144.412C53.1779 144.974 52.07 145.256 50.7915 145.256ZM50.8086 142.784C51.5018 142.784 52.0813 142.594 52.5472 142.213C53.0131 141.827 53.3597 141.31 53.587 140.662C53.82 140.014 53.9364 139.293 53.9364 138.497C53.9364 137.696 53.82 136.972 53.587 136.324C53.3597 135.67 53.0131 135.151 52.5472 134.764C52.0813 134.378 51.5018 134.185 50.8086 134.185C50.0984 134.185 49.5075 134.378 49.0359 134.764C48.57 135.151 48.2205 135.67 47.9876 136.324C47.7603 136.972 47.6467 137.696 47.6467 138.497C47.6467 139.293 47.7603 140.014 47.9876 140.662C48.2205 141.31 48.57 141.827 49.0359 142.213C49.5075 142.594 50.0984 142.784 50.8086 142.784ZM66.3136 131.909V134.295H58.5749V131.909H66.3136ZM60.5096 145V130.673C60.5096 129.793 60.6914 129.06 61.055 128.474C61.4244 127.889 61.9187 127.452 62.538 127.162C63.1573 126.872 63.8448 126.727 64.6005 126.727C65.1346 126.727 65.609 126.77 66.0238 126.855C66.4386 126.94 66.7454 127.017 66.9442 127.085L66.3306 129.472C66.1999 129.432 66.0352 129.392 65.8363 129.352C65.6374 129.307 65.4158 129.284 65.1715 129.284C64.5977 129.284 64.1914 129.423 63.9528 129.702C63.7198 129.974 63.6033 130.366 63.6033 130.878V145H60.5096ZM78.4499 145.264C77.6204 145.264 76.8732 145.116 76.2085 144.821C75.5494 144.52 75.0266 144.077 74.6403 143.491C74.2596 142.906 74.0692 142.185 74.0692 141.327C74.0692 140.588 74.2056 139.977 74.4783 139.494C74.7511 139.011 75.1232 138.625 75.5948 138.335C76.0664 138.045 76.5977 137.827 77.1886 137.679C77.7852 137.526 78.4016 137.415 79.038 137.347C79.805 137.267 80.4272 137.196 80.9045 137.134C81.3817 137.065 81.7283 136.963 81.9442 136.827C82.1658 136.685 82.2766 136.466 82.2766 136.17V136.119C82.2766 135.477 82.0863 134.98 81.7056 134.628C81.3249 134.276 80.7766 134.099 80.0607 134.099C79.305 134.099 78.7056 134.264 78.2624 134.594C77.8249 134.923 77.5295 135.312 77.3761 135.761L74.4954 135.352C74.7227 134.557 75.0977 133.892 75.6204 133.358C76.1431 132.818 76.7823 132.415 77.538 132.148C78.2937 131.875 79.1289 131.739 80.0437 131.739C80.6744 131.739 81.3022 131.812 81.9272 131.96C82.5522 132.108 83.1232 132.352 83.6403 132.693C84.1573 133.028 84.5721 133.486 84.8846 134.065C85.2028 134.645 85.3619 135.369 85.3619 136.239V145H82.396V143.202H82.2937C82.1062 143.565 81.842 143.906 81.5011 144.224C81.1658 144.537 80.7425 144.79 80.2312 144.983C79.7255 145.17 79.1317 145.264 78.4499 145.264ZM79.2511 142.997C79.8704 142.997 80.4073 142.875 80.8619 142.631C81.3164 142.381 81.6658 142.051 81.9102 141.642C82.1602 141.233 82.2852 140.787 82.2852 140.304V138.761C82.1886 138.841 82.0238 138.915 81.7908 138.983C81.5636 139.051 81.3079 139.111 81.0238 139.162C80.7397 139.213 80.4585 139.259 80.18 139.298C79.9016 139.338 79.6602 139.372 79.4556 139.401C78.9954 139.463 78.5835 139.565 78.2198 139.707C77.8562 139.849 77.5692 140.048 77.359 140.304C77.1488 140.554 77.0437 140.878 77.0437 141.276C77.0437 141.844 77.2511 142.273 77.6658 142.562C78.0806 142.852 78.609 142.997 79.2511 142.997ZM94.5536 145V127.545H101.235C102.497 127.545 103.545 127.744 104.38 128.142C105.221 128.534 105.849 129.071 106.264 129.753C106.684 130.435 106.895 131.207 106.895 132.071C106.895 132.781 106.758 133.389 106.485 133.895C106.213 134.395 105.846 134.801 105.386 135.114C104.926 135.426 104.412 135.651 103.843 135.787V135.957C104.463 135.991 105.056 136.182 105.625 136.528C106.199 136.869 106.667 137.352 107.031 137.977C107.395 138.602 107.576 139.358 107.576 140.244C107.576 141.148 107.358 141.96 106.92 142.682C106.483 143.398 105.824 143.963 104.943 144.378C104.062 144.793 102.954 145 101.619 145H94.5536ZM97.7156 142.358H101.116C102.264 142.358 103.091 142.139 103.596 141.702C104.108 141.259 104.363 140.69 104.363 139.997C104.363 139.48 104.235 139.014 103.98 138.599C103.724 138.179 103.36 137.849 102.889 137.611C102.417 137.366 101.855 137.244 101.201 137.244H97.7156V142.358ZM97.7156 134.969H100.843C101.389 134.969 101.88 134.869 102.318 134.67C102.755 134.466 103.099 134.179 103.349 133.81C103.605 133.435 103.733 132.991 103.733 132.48C103.733 131.804 103.494 131.247 103.017 130.81C102.545 130.372 101.843 130.153 100.912 130.153H97.7156V134.969ZM118.534 139.494V131.909H121.62V145H118.628V142.673H118.492C118.196 143.406 117.711 144.006 117.034 144.472C116.364 144.937 115.537 145.17 114.554 145.17C113.696 145.17 112.938 144.98 112.279 144.599C111.625 144.213 111.114 143.653 110.745 142.92C110.375 142.182 110.191 141.29 110.191 140.244V131.909H113.276V139.767C113.276 140.597 113.503 141.256 113.958 141.744C114.412 142.233 115.009 142.477 115.748 142.477C116.202 142.477 116.642 142.366 117.069 142.145C117.495 141.923 117.844 141.594 118.117 141.156C118.395 140.713 118.534 140.159 118.534 139.494ZM135.139 135.369L132.326 135.676C132.247 135.392 132.108 135.125 131.909 134.875C131.716 134.625 131.454 134.423 131.125 134.27C130.795 134.116 130.392 134.04 129.914 134.04C129.272 134.04 128.733 134.179 128.295 134.457C127.863 134.736 127.65 135.097 127.656 135.54C127.65 135.92 127.789 136.23 128.074 136.469C128.363 136.707 128.841 136.903 129.505 137.057L131.738 137.534C132.977 137.801 133.897 138.224 134.5 138.804C135.108 139.384 135.414 140.142 135.42 141.08C135.414 141.903 135.173 142.631 134.696 143.261C134.224 143.886 133.568 144.375 132.727 144.727C131.886 145.08 130.92 145.256 129.829 145.256C128.227 145.256 126.937 144.92 125.96 144.25C124.983 143.574 124.4 142.634 124.213 141.429L127.221 141.139C127.358 141.73 127.647 142.176 128.091 142.477C128.534 142.778 129.11 142.929 129.821 142.929C130.554 142.929 131.142 142.778 131.585 142.477C132.034 142.176 132.258 141.804 132.258 141.361C132.258 140.986 132.113 140.676 131.824 140.432C131.539 140.187 131.096 140 130.494 139.869L128.261 139.401C127.005 139.139 126.076 138.699 125.474 138.08C124.872 137.455 124.574 136.665 124.579 135.71C124.574 134.903 124.792 134.205 125.235 133.614C125.684 133.017 126.306 132.557 127.102 132.233C127.903 131.903 128.826 131.739 129.872 131.739C131.406 131.739 132.613 132.065 133.494 132.719C134.38 133.372 134.929 134.256 135.139 135.369ZM137.964 145V131.909H141.049V145H137.964ZM139.515 130.051C139.027 130.051 138.606 129.889 138.254 129.565C137.902 129.236 137.725 128.841 137.725 128.381C137.725 127.915 137.902 127.52 138.254 127.196C138.606 126.866 139.027 126.702 139.515 126.702C140.01 126.702 140.43 126.866 140.777 127.196C141.129 127.52 141.305 127.915 141.305 128.381C141.305 128.841 141.129 129.236 140.777 129.565C140.43 129.889 140.01 130.051 139.515 130.051ZM147.307 137.33V145H144.222V131.909H147.171V134.134H147.324C147.625 133.401 148.105 132.818 148.765 132.386C149.429 131.955 150.25 131.739 151.228 131.739C152.131 131.739 152.918 131.932 153.588 132.318C154.265 132.705 154.787 133.264 155.157 133.997C155.532 134.73 155.716 135.619 155.711 136.665V145H152.625V137.142C152.625 136.267 152.398 135.582 151.944 135.088C151.495 134.594 150.873 134.347 150.077 134.347C149.537 134.347 149.057 134.466 148.637 134.705C148.222 134.937 147.895 135.276 147.657 135.719C147.424 136.162 147.307 136.699 147.307 137.33ZM164.642 145.256C163.33 145.256 162.196 144.983 161.242 144.438C160.293 143.886 159.563 143.108 159.051 142.102C158.54 141.091 158.284 139.901 158.284 138.531C158.284 137.185 158.54 136.003 159.051 134.986C159.569 133.963 160.29 133.168 161.216 132.599C162.142 132.026 163.23 131.739 164.48 131.739C165.287 131.739 166.049 131.869 166.765 132.131C167.486 132.386 168.123 132.784 168.674 133.324C169.23 133.864 169.668 134.551 169.986 135.386C170.304 136.216 170.463 137.205 170.463 138.352V139.298H159.733V137.219H167.506C167.5 136.628 167.373 136.102 167.123 135.642C166.873 135.176 166.523 134.81 166.074 134.543C165.631 134.276 165.114 134.142 164.523 134.142C163.892 134.142 163.338 134.295 162.861 134.602C162.384 134.903 162.012 135.301 161.745 135.795C161.483 136.284 161.35 136.821 161.344 137.406V139.222C161.344 139.983 161.483 140.636 161.762 141.182C162.04 141.722 162.429 142.136 162.929 142.426C163.429 142.71 164.015 142.852 164.685 142.852C165.134 142.852 165.54 142.79 165.904 142.665C166.267 142.534 166.583 142.344 166.85 142.094C167.117 141.844 167.319 141.534 167.455 141.165L170.336 141.489C170.154 142.25 169.807 142.915 169.296 143.483C168.79 144.045 168.142 144.483 167.353 144.795C166.563 145.102 165.659 145.256 164.642 145.256ZM183.42 135.369L180.608 135.676C180.528 135.392 180.389 135.125 180.19 134.875C179.997 134.625 179.735 134.423 179.406 134.27C179.076 134.116 178.673 134.04 178.196 134.04C177.554 134.04 177.014 134.179 176.576 134.457C176.145 134.736 175.931 135.097 175.937 135.54C175.931 135.92 176.071 136.23 176.355 136.469C176.645 136.707 177.122 136.903 177.787 137.057L180.02 137.534C181.258 137.801 182.179 138.224 182.781 138.804C183.389 139.384 183.696 140.142 183.701 141.08C183.696 141.903 183.454 142.631 182.977 143.261C182.505 143.886 181.849 144.375 181.008 144.727C180.167 145.08 179.201 145.256 178.11 145.256C176.508 145.256 175.218 144.92 174.241 144.25C173.264 143.574 172.681 142.634 172.494 141.429L175.502 141.139C175.639 141.73 175.929 142.176 176.372 142.477C176.815 142.778 177.392 142.929 178.102 142.929C178.835 142.929 179.423 142.778 179.866 142.477C180.315 142.176 180.539 141.804 180.539 141.361C180.539 140.986 180.395 140.676 180.105 140.432C179.821 140.187 179.377 140 178.775 139.869L176.542 139.401C175.287 139.139 174.358 138.699 173.755 138.08C173.153 137.455 172.855 136.665 172.86 135.71C172.855 134.903 173.074 134.205 173.517 133.614C173.966 133.017 174.588 132.557 175.383 132.233C176.184 131.903 177.108 131.739 178.153 131.739C179.687 131.739 180.895 132.065 181.775 132.719C182.662 133.372 183.21 134.256 183.42 135.369ZM196.592 135.369L193.779 135.676C193.7 135.392 193.561 135.125 193.362 134.875C193.169 134.625 192.907 134.423 192.578 134.27C192.248 134.116 191.845 134.04 191.368 134.04C190.725 134.04 190.186 134.179 189.748 134.457C189.316 134.736 189.103 135.097 189.109 135.54C189.103 135.92 189.243 136.23 189.527 136.469C189.816 136.707 190.294 136.903 190.958 137.057L193.191 137.534C194.43 137.801 195.35 138.224 195.953 138.804C196.561 139.384 196.868 140.142 196.873 141.08C196.868 141.903 196.626 142.631 196.149 143.261C195.677 143.886 195.021 144.375 194.18 144.727C193.339 145.08 192.373 145.256 191.282 145.256C189.68 145.256 188.39 144.92 187.413 144.25C186.436 143.574 185.853 142.634 185.666 141.429L188.674 141.139C188.811 141.73 189.1 142.176 189.544 142.477C189.987 142.778 190.564 142.929 191.274 142.929C192.007 142.929 192.595 142.778 193.038 142.477C193.487 142.176 193.711 141.804 193.711 141.361C193.711 140.986 193.566 140.676 193.277 140.432C192.993 140.187 192.549 140 191.947 139.869L189.714 139.401C188.458 139.139 187.529 138.699 186.927 138.08C186.325 137.455 186.027 136.665 186.032 135.71C186.027 134.903 186.245 134.205 186.689 133.614C187.137 133.017 187.76 132.557 188.555 132.233C189.356 131.903 190.279 131.739 191.325 131.739C192.859 131.739 194.066 132.065 194.947 132.719C195.833 133.372 196.382 134.256 196.592 135.369ZM205.507 145V127.545H212.052C213.393 127.545 214.518 127.778 215.427 128.244C216.342 128.71 217.032 129.364 217.498 130.205C217.97 131.04 218.206 132.014 218.206 133.128C218.206 134.247 217.967 135.219 217.49 136.043C217.018 136.861 216.322 137.494 215.402 137.943C214.481 138.386 213.35 138.608 212.01 138.608H207.348V135.983H211.583C212.368 135.983 213.01 135.875 213.51 135.659C214.01 135.437 214.379 135.116 214.618 134.696C214.862 134.27 214.984 133.747 214.984 133.128C214.984 132.509 214.862 131.98 214.618 131.543C214.373 131.099 214.001 130.764 213.501 130.537C213.001 130.304 212.356 130.188 211.566 130.188H208.669V145H205.507ZM214.524 137.091L218.845 145H215.316L211.072 137.091H214.524ZM226.588 145.256C225.275 145.256 224.142 144.983 223.187 144.438C222.238 143.886 221.508 143.108 220.997 142.102C220.485 141.091 220.23 139.901 220.23 138.531C220.23 137.185 220.485 136.003 220.997 134.986C221.514 133.963 222.235 133.168 223.162 132.599C224.088 132.026 225.176 131.739 226.426 131.739C227.233 131.739 227.994 131.869 228.71 132.131C229.431 132.386 230.068 132.784 230.619 133.324C231.176 133.864 231.613 134.551 231.931 135.386C232.25 136.216 232.409 137.205 232.409 138.352V139.298H221.679V137.219H229.451C229.446 136.628 229.318 136.102 229.068 135.642C228.818 135.176 228.468 134.81 228.02 134.543C227.576 134.276 227.059 134.142 226.468 134.142C225.838 134.142 225.284 134.295 224.806 134.602C224.329 134.903 223.957 135.301 223.69 135.795C223.429 136.284 223.295 136.821 223.289 137.406V139.222C223.289 139.983 223.429 140.636 223.707 141.182C223.985 141.722 224.375 142.136 224.875 142.426C225.375 142.71 225.96 142.852 226.63 142.852C227.079 142.852 227.485 142.79 227.849 142.665C228.213 142.534 228.528 142.344 228.795 142.094C229.062 141.844 229.264 141.534 229.4 141.165L232.281 141.489C232.099 142.25 231.752 142.915 231.241 143.483C230.735 144.045 230.088 144.483 229.298 144.795C228.508 145.102 227.605 145.256 226.588 145.256ZM246.337 131.909L241.675 145H238.266L233.604 131.909H236.894L239.902 141.634H240.039L243.056 131.909H246.337ZM253.737 145.256C252.458 145.256 251.35 144.974 250.413 144.412C249.475 143.849 248.748 143.062 248.231 142.051C247.72 141.04 247.464 139.858 247.464 138.506C247.464 137.153 247.72 135.969 248.231 134.952C248.748 133.935 249.475 133.145 250.413 132.582C251.35 132.02 252.458 131.739 253.737 131.739C255.015 131.739 256.123 132.02 257.061 132.582C257.998 133.145 258.723 133.935 259.234 134.952C259.751 135.969 260.01 137.153 260.01 138.506C260.01 139.858 259.751 141.04 259.234 142.051C258.723 143.062 257.998 143.849 257.061 144.412C256.123 144.974 255.015 145.256 253.737 145.256ZM253.754 142.784C254.447 142.784 255.027 142.594 255.493 142.213C255.958 141.827 256.305 141.31 256.532 140.662C256.765 140.014 256.882 139.293 256.882 138.497C256.882 137.696 256.765 136.972 256.532 136.324C256.305 135.67 255.958 135.151 255.493 134.764C255.027 134.378 254.447 134.185 253.754 134.185C253.044 134.185 252.453 134.378 251.981 134.764C251.515 135.151 251.166 135.67 250.933 136.324C250.706 136.972 250.592 137.696 250.592 138.497C250.592 139.293 250.706 140.014 250.933 140.662C251.166 141.31 251.515 141.827 251.981 142.213C252.453 142.594 253.044 142.784 253.754 142.784ZM265.713 127.545V145H262.628V127.545H265.713ZM277.23 139.494V131.909H280.315V145H277.324V142.673H277.187C276.892 143.406 276.406 144.006 275.73 144.472C275.059 144.937 274.233 145.17 273.25 145.17C272.392 145.17 271.633 144.98 270.974 144.599C270.321 144.213 269.809 143.653 269.44 142.92C269.071 142.182 268.886 141.29 268.886 140.244V131.909H271.971V139.767C271.971 140.597 272.199 141.256 272.653 141.744C273.108 142.233 273.704 142.477 274.443 142.477C274.897 142.477 275.338 142.366 275.764 142.145C276.19 141.923 276.539 141.594 276.812 141.156C277.091 140.713 277.23 140.159 277.23 139.494ZM290.025 131.909V134.295H282.499V131.909H290.025ZM284.357 128.773H287.442V141.062C287.442 141.477 287.505 141.795 287.63 142.017C287.76 142.233 287.931 142.381 288.141 142.46C288.351 142.54 288.584 142.58 288.84 142.58C289.033 142.58 289.209 142.565 289.368 142.537C289.533 142.509 289.658 142.483 289.743 142.46L290.263 144.872C290.098 144.929 289.863 144.991 289.556 145.06C289.255 145.128 288.885 145.168 288.448 145.179C287.675 145.202 286.979 145.085 286.36 144.83C285.74 144.568 285.249 144.165 284.885 143.619C284.527 143.074 284.351 142.392 284.357 141.574V128.773ZM292.605 145V131.909H295.69V145H292.605ZM294.156 130.051C293.667 130.051 293.247 129.889 292.895 129.565C292.542 129.236 292.366 128.841 292.366 128.381C292.366 127.915 292.542 127.52 292.895 127.196C293.247 126.866 293.667 126.702 294.156 126.702C294.65 126.702 295.071 126.866 295.417 127.196C295.77 127.52 295.946 127.915 295.946 128.381C295.946 128.841 295.77 129.236 295.417 129.565C295.071 129.889 294.65 130.051 294.156 130.051ZM304.573 145.256C303.294 145.256 302.186 144.974 301.249 144.412C300.311 143.849 299.584 143.062 299.067 142.051C298.556 141.04 298.3 139.858 298.3 138.506C298.3 137.153 298.556 135.969 299.067 134.952C299.584 133.935 300.311 133.145 301.249 132.582C302.186 132.02 303.294 131.739 304.573 131.739C305.851 131.739 306.959 132.02 307.897 132.582C308.834 133.145 309.559 133.935 310.07 134.952C310.587 135.969 310.846 137.153 310.846 138.506C310.846 139.858 310.587 141.04 310.07 142.051C309.559 143.062 308.834 143.849 307.897 144.412C306.959 144.974 305.851 145.256 304.573 145.256ZM304.59 142.784C305.283 142.784 305.863 142.594 306.328 142.213C306.794 141.827 307.141 141.31 307.368 140.662C307.601 140.014 307.718 139.293 307.718 138.497C307.718 137.696 307.601 136.972 307.368 136.324C307.141 135.67 306.794 135.151 306.328 134.764C305.863 134.378 305.283 134.185 304.59 134.185C303.88 134.185 303.289 134.378 302.817 134.764C302.351 135.151 302.002 135.67 301.769 136.324C301.542 136.972 301.428 137.696 301.428 138.497C301.428 139.293 301.542 140.014 301.769 140.662C302.002 141.31 302.351 141.827 302.817 142.213C303.289 142.594 303.88 142.784 304.59 142.784ZM316.549 137.33V145H313.464V131.909H316.413V134.134H316.566C316.868 133.401 317.348 132.818 318.007 132.386C318.672 131.955 319.493 131.739 320.47 131.739C321.373 131.739 322.16 131.932 322.831 132.318C323.507 132.705 324.029 133.264 324.399 133.997C324.774 134.73 324.958 135.619 324.953 136.665V145H321.868V137.142C321.868 136.267 321.64 135.582 321.186 135.088C320.737 134.594 320.115 134.347 319.319 134.347C318.779 134.347 318.299 134.466 317.879 134.705C317.464 134.937 317.137 135.276 316.899 135.719C316.666 136.162 316.549 136.699 316.549 137.33Z" fill="#101828"/>
</g>
<defs>
<filter id="filter0_f_8839_26513" x="41.2969" y="-28.666" width="287.406" height="272.666" filterUnits="userSpaceOnUse" color-interpolation-filters="sRGB">
<feFlood flood-opacity="0" result="BackgroundImageFix"/>
<feBlend mode="normal" in="SourceGraphic" in2="BackgroundImageFix" result="shape"/>
<feGaussianBlur stdDeviation="2" result="effect1_foregroundBlur_8839_26513"/>
</filter>
<filter id="filter1_i_8839_26513" x="118" y="-24.666" width="87" height="134" filterUnits="userSpaceOnUse" color-interpolation-filters="sRGB">
<feFlood flood-opacity="0" result="BackgroundImageFix"/>
<feBlend mode="normal" in="SourceGraphic" in2="BackgroundImageFix" result="shape"/>
<feColorMatrix in="SourceAlpha" type="matrix" values="0 0 0 0 0 0 0 0 0 0 0 0 0 0 0 0 0 0 127 0" result="hardAlpha"/>
<feOffset dx="20"/>
<feGaussianBlur stdDeviation="12"/>
<feComposite in2="hardAlpha" operator="arithmetic" k2="-1" k3="1"/>
<feColorMatrix type="matrix" values="0 0 0 0 0.231373 0 0 0 0 0.419608 0 0 0 0 1 0 0 0 0.5 0"/>
<feBlend mode="normal" in2="shape" result="effect1_innerShadow_8839_26513"/>
</filter>
<filter id="filter2_i_8839_26513" x="165" y="-24.666" width="87" height="134" filterUnits="userSpaceOnUse" color-interpolation-filters="sRGB">
<feFlood flood-opacity="0" result="BackgroundImageFix"/>
<feBlend mode="normal" in="SourceGraphic" in2="BackgroundImageFix" result="shape"/>
<feColorMatrix in="SourceAlpha" type="matrix" values="0 0 0 0 0 0 0 0 0 0 0 0 0 0 0 0 0 0 127 0" result="hardAlpha"/>
<feOffset dx="-20"/>
<feGaussianBlur stdDeviation="12"/>
<feComposite in2="hardAlpha" operator="arithmetic" k2="-1" k3="1"/>
<feColorMatrix type="matrix" values="0 0 0 0 0.231373 0 0 0 0 0.419608 0 0 0 0 1 0 0 0 0.5 0"/>
<feBlend mode="normal" in2="shape" result="effect1_innerShadow_8839_26513"/>
</filter>
<filter id="filter3_i_8839_26513" x="45.2969" y="24.5225" width="151.711" height="84.3408" filterUnits="userSpaceOnUse" color-interpolation-filters="sRGB">
<feFlood flood-opacity="0" result="BackgroundImageFix"/>
<feBlend mode="normal" in="SourceGraphic" in2="BackgroundImageFix" result="shape"/>
<feColorMatrix in="SourceAlpha" type="matrix" values="0 0 0 0 0 0 0 0 0 0 0 0 0 0 0 0 0 0 127 0" result="hardAlpha"/>
<feOffset dx="20"/>
<feGaussianBlur stdDeviation="12"/>
<feComposite in2="hardAlpha" operator="arithmetic" k2="-1" k3="1"/>
<feColorMatrix type="matrix" values="0 0 0 0 0.231373 0 0 0 0 0.419608 0 0 0 0 1 0 0 0 0.5 0"/>
<feBlend mode="normal" in2="shape" result="effect1_innerShadow_8839_26513"/>
</filter>
<filter id="filter4_i_8839_26513" x="192.992" y="24.5225" width="151.711" height="84.3408" filterUnits="userSpaceOnUse" color-interpolation-filters="sRGB">
<feFlood flood-opacity="0" result="BackgroundImageFix"/>
<feBlend mode="normal" in="SourceGraphic" in2="BackgroundImageFix" result="shape"/>
<feColorMatrix in="SourceAlpha" type="matrix" values="0 0 0 0 0 0 0 0 0 0 0 0 0 0 0 0 0 0 127 0" result="hardAlpha"/>
<feOffset dx="20"/>
<feGaussianBlur stdDeviation="12"/>
<feComposite in2="hardAlpha" operator="arithmetic" k2="-1" k3="1"/>
<feColorMatrix type="matrix" values="0 0 0 0 0.231373 0 0 0 0 0.419608 0 0 0 0 1 0 0 0 0.5 0"/>
<feBlend mode="normal" in2="shape" result="effect1_innerShadow_8839_26513"/>
</filter>
<filter id="filter5_i_8839_26513" x="118" y="106" width="87" height="134" filterUnits="userSpaceOnUse" color-interpolation-filters="sRGB">
<feFlood flood-opacity="0" result="BackgroundImageFix"/>
<feBlend mode="normal" in="SourceGraphic" in2="BackgroundImageFix" result="shape"/>
<feColorMatrix in="SourceAlpha" type="matrix" values="0 0 0 0 0 0 0 0 0 0 0 0 0 0 0 0 0 0 127 0" result="hardAlpha"/>
<feOffset dx="20"/>
<feGaussianBlur stdDeviation="12"/>
<feComposite in2="hardAlpha" operator="arithmetic" k2="-1" k3="1"/>
<feColorMatrix type="matrix" values="0 0 0 0 0.231373 0 0 0 0 0.419608 0 0 0 0 1 0 0 0 0.5 0"/>
<feBlend mode="normal" in2="shape" result="effect1_innerShadow_8839_26513"/>
</filter>
<filter id="filter6_i_8839_26513" x="165" y="106" width="87" height="134" filterUnits="userSpaceOnUse" color-interpolation-filters="sRGB">
<feFlood flood-opacity="0" result="BackgroundImageFix"/>
<feBlend mode="normal" in="SourceGraphic" in2="BackgroundImageFix" result="shape"/>
<feColorMatrix in="SourceAlpha" type="matrix" values="0 0 0 0 0 0 0 0 0 0 0 0 0 0 0 0 0 0 127 0" result="hardAlpha"/>
<feOffset dx="-20"/>
<feGaussianBlur stdDeviation="12"/>
<feComposite in2="hardAlpha" operator="arithmetic" k2="-1" k3="1"/>
<feColorMatrix type="matrix" values="0 0 0 0 0.231373 0 0 0 0 0.419608 0 0 0 0 1 0 0 0 0.5 0"/>
<feBlend mode="normal" in2="shape" result="effect1_innerShadow_8839_26513"/>
</filter>
<filter id="filter7_i_8839_26513" x="45.2969" y="106.471" width="151.711" height="84.3408" filterUnits="userSpaceOnUse" color-interpolation-filters="sRGB">
<feFlood flood-opacity="0" result="BackgroundImageFix"/>
<feBlend mode="normal" in="SourceGraphic" in2="BackgroundImageFix" result="shape"/>
<feColorMatrix in="SourceAlpha" type="matrix" values="0 0 0 0 0 0 0 0 0 0 0 0 0 0 0 0 0 0 127 0" result="hardAlpha"/>
<feOffset dx="20"/>
<feGaussianBlur stdDeviation="12"/>
<feComposite in2="hardAlpha" operator="arithmetic" k2="-1" k3="1"/>
<feColorMatrix type="matrix" values="0 0 0 0 0.231373 0 0 0 0 0.419608 0 0 0 0 1 0 0 0 0.5 0"/>
<feBlend mode="normal" in2="shape" result="effect1_innerShadow_8839_26513"/>
</filter>
<filter id="filter8_i_8839_26513" x="192.992" y="106.471" width="151.711" height="84.3408" filterUnits="userSpaceOnUse" color-interpolation-filters="sRGB">
<feFlood flood-opacity="0" result="BackgroundImageFix"/>
<feBlend mode="normal" in="SourceGraphic" in2="BackgroundImageFix" result="shape"/>
<feColorMatrix in="SourceAlpha" type="matrix" values="0 0 0 0 0 0 0 0 0 0 0 0 0 0 0 0 0 0 127 0" result="hardAlpha"/>
<feOffset dx="20"/>
<feGaussianBlur stdDeviation="12"/>
<feComposite in2="hardAlpha" operator="arithmetic" k2="-1" k3="1"/>
<feColorMatrix type="matrix" values="0 0 0 0 0.231373 0 0 0 0 0.419608 0 0 0 0 1 0 0 0 0.5 0"/>
<feBlend mode="normal" in2="shape" result="effect1_innerShadow_8839_26513"/>
</filter>
<clipPath id="bgblur_1_8839_26513_clip_path" transform="translate(4.5 -48)"><path d="M25.5 73H344.5V68H354.5V78H349.5V162H354.5V172H344.5V167H25.5V172H15.5V162H20.5V78H15.5V68H25.5V73Z"/>
</clipPath><linearGradient id="paint0_linear_8839_26513" x1="105.312" y1="7.61128e-06" x2="108.275" y2="240.027" gradientUnits="userSpaceOnUse">
<stop stop-color="#635BFF" stop-opacity="0.3"/>
<stop offset="0.5" stop-color="#3581FF" stop-opacity="0.2"/>
<stop offset="1" stop-color="#2E96FF" stop-opacity="0.2"/>
</linearGradient>
<clipPath id="clip0_8839_26513">
<rect width="370" height="240" rx="20" fill="white"/>
</clipPath>
</defs>
</svg>
