<svg width="30" height="30" viewBox="0 0 30 30" fill="none" xmlns="http://www.w3.org/2000/svg">
<path d="M7.60742 0.75C11.0773 0.750139 13.9363 3.36963 14.3145 6.73828L15.8037 6.74805C16.2251 3.42607 19.0633 0.857422 22.5 0.857422H29.25V7.60742C29.2499 11.0773 26.6304 13.9363 23.2617 14.3145L23.252 15.8037C26.5739 16.2251 29.1426 19.0633 29.1426 22.5V29.25H22.3926C18.9226 29.2498 16.0637 26.6304 15.6855 23.2617L14.1963 23.252C13.7748 26.5739 10.9366 29.1426 7.5 29.1426H0.75V22.3926C0.750162 18.9227 3.36963 16.0637 6.73828 15.6855L6.74805 14.1963C3.42606 13.7748 0.857422 10.9367 0.857422 7.5V0.75H7.60742Z" stroke="white" stroke-width="1.5"/>
</svg>
