<svg width="30" height="30" viewBox="0 0 30 30" fill="none" xmlns="http://www.w3.org/2000/svg">
<path d="M15.4814 4.51465C21.0485 -0.138266 25.6987 0.080885 27.8086 2.19043C29.9185 4.3001 30.1387 8.95112 25.4854 14.5195L25.083 15L25.4854 15.4814C30.1382 21.0451 29.9187 25.6958 27.8086 27.8066C25.6985 29.9172 21.0482 30.138 15.4814 25.4854L15 25.083L14.5195 25.4854C8.95105 30.1387 4.30006 29.9192 2.19043 27.8096C0.0808178 25.6999 -0.138714 21.049 4.51465 15.4805L4.91699 15L4.51465 14.5195C-0.138723 8.95106 0.0808028 4.30006 2.19043 2.19043C4.30006 0.0808029 8.95106 -0.138723 14.5195 4.51465L15 4.91699L15.4814 4.51465ZM15 8.7002C11.5206 8.7002 8.7002 11.5206 8.7002 15C8.7002 18.4795 11.5206 21.2998 15 21.2998C18.4795 21.2998 21.2998 18.4795 21.2998 15C21.2998 11.5206 18.4795 8.7002 15 8.7002Z" stroke="white" stroke-width="1.5"/>
</svg>
