<svg width="30" height="30" viewBox="0 0 30 30" fill="none" xmlns="http://www.w3.org/2000/svg">
<path d="M15.0391 17.168C15.1664 17.5363 15.3617 17.8969 15.6094 18.2461C16.061 18.8828 16.7132 19.5317 17.5381 20.1943C18.9473 21.3264 19.6406 22.7769 19.6406 24.6094C19.6406 25.4672 19.4282 26.246 19.0039 26.9609L19 26.9668C18.5968 27.6613 18.052 28.2061 17.3574 28.6094L17.3496 28.6133L17.3428 28.6182C16.662 29.0354 15.8878 29.25 15 29.25C14.1422 29.25 13.3633 29.0378 12.6484 28.6133L12.6426 28.6094L12.3867 28.4502C11.8079 28.0654 11.3323 27.5707 10.9561 26.959C10.5592 26.2466 10.3594 25.468 10.3594 24.6094C10.3594 23.475 10.6183 22.5908 11.0869 21.9092C11.6151 21.1411 12.4543 20.2089 13.6299 19.1094C14.2898 18.5077 14.7943 17.8592 15.0391 17.168ZM5.39062 10.3594C7.10823 10.3594 8.57398 11.0454 9.82422 12.4844C10.5351 13.3025 11.2049 13.9458 11.832 14.3906C12.1804 14.6377 12.5397 14.8367 12.9033 14.9658C12.5526 15.0993 12.2064 15.303 11.8721 15.5469C11.2556 15.9966 10.5859 16.648 9.86426 17.4766L9.85938 17.4814C8.60987 18.9431 7.13289 19.6406 5.39062 19.6406C4.52914 19.6406 3.74848 19.4387 3.03418 19.0391C2.33744 18.6091 1.77793 18.0489 1.34863 17.3516C0.950873 16.6387 0.75 15.8595 0.75 15C0.75 14.1346 0.953386 13.3675 1.35156 12.6816L1.35059 12.6807C1.78216 11.956 2.34283 11.4009 3.0332 11L3.03906 10.9961C3.75397 10.5716 4.53286 10.3594 5.39062 10.3594ZM24.6094 10.3594C25.4671 10.3594 26.2292 10.572 26.9131 10.9912L26.9365 11.0049C27.6562 11.4097 28.2095 11.954 28.6094 12.6426L28.6133 12.6504L28.6182 12.6572C29.0354 13.3379 29.25 14.1122 29.25 15C29.25 15.8578 29.0378 16.6368 28.6133 17.3516L28.6094 17.3574C28.2085 18.0479 27.6526 18.6074 26.9277 19.0391C26.2419 19.4372 25.4748 19.6406 24.6094 19.6406C23.5147 19.6406 22.6124 19.3756 21.8691 18.874C21.0701 18.3164 20.1479 17.4852 19.1025 16.3633C18.4965 15.7 17.8441 15.1942 17.1475 14.9531C17.5009 14.8242 17.8493 14.6305 18.1875 14.3906C18.817 13.9442 19.4809 13.2982 20.1797 12.4785L20.1846 12.4736C21.3755 11.0492 22.8344 10.3594 24.6094 10.3594ZM15 0.75C15.8578 0.75 16.6198 0.962677 17.3037 1.38184L17.3125 1.38672C18.0402 1.81882 18.598 2.37994 19 3.07227L19.0039 3.08008L19.0088 3.08691C19.4279 3.77081 19.6406 4.53281 19.6406 5.39062C19.6406 7.10824 18.9545 8.57398 17.5156 9.82422C16.6975 10.5351 16.0542 11.2049 15.6094 11.832C15.3721 12.1666 15.1773 12.5106 15.0479 12.8594C14.8068 12.158 14.2984 11.5002 13.6299 10.8906L12.7324 10.0713C12.1348 9.52116 11.5768 8.85716 11.0615 8.07324C10.6042 7.35421 10.3594 6.47098 10.3594 5.39062C10.3594 4.52521 10.5628 3.75814 10.9609 3.07227L10.96 3.07129C11.3915 2.34663 11.9522 1.79149 12.6426 1.39062L12.6484 1.38672C13.3633 0.962272 14.1422 0.75 15 0.75Z" stroke="white" stroke-width="1.5"/>
</svg>
