<svg width="229" height="29" viewBox="0 0 229 29" fill="none" xmlns="http://www.w3.org/2000/svg">
<path d="M16.4601 21.2218C14.6631 21.2218 13.5839 19.6972 13.5839 17.2558V17.2453C13.5839 14.8039 14.6631 13.2846 16.4601 13.2846C18.2572 13.2846 19.3469 14.8039 19.3469 17.2453V17.2558C19.3469 19.6972 18.2572 21.2218 16.4601 21.2218ZM16.4601 20.1268C17.4241 20.1268 17.9847 19.0476 17.9847 17.2558V17.2453C17.9847 15.4536 17.4241 14.3848 16.4601 14.3848C15.4961 14.3848 14.946 15.4536 14.946 17.2453V17.2558C14.946 19.0476 15.4961 20.1268 16.4601 20.1268ZM23.2921 13.2846C24.9058 13.2846 26.3099 14.4319 26.3099 17.1563V17.1667C26.3099 19.7129 25.1625 21.2218 23.2607 21.2218C21.8723 21.2218 20.835 20.3993 20.594 19.2414L20.5835 19.1838H21.9143L21.93 19.2362C22.1291 19.7653 22.5953 20.1111 23.2607 20.1111C24.4605 20.1111 24.9687 18.9376 25.0263 17.4916C25.0263 17.4339 25.0315 17.3763 25.0315 17.3187H24.9267C24.6491 17.9159 23.9889 18.4451 22.9516 18.4451C21.5004 18.4451 20.484 17.3868 20.484 15.9513V15.9408C20.484 14.4057 21.6523 13.2846 23.2921 13.2846ZM23.2869 17.4077C24.1409 17.4077 24.7958 16.7895 24.7958 15.9356V15.9251C24.7958 15.0606 24.1409 14.3848 23.3026 14.3848C22.4696 14.3848 21.8042 15.0501 21.8042 15.8936V15.9041C21.8042 16.7791 22.4277 17.4077 23.2869 17.4077ZM28.4738 16.1346C27.9971 16.1346 27.6408 15.7679 27.6408 15.3069C27.6408 14.8406 27.9971 14.4791 28.4738 14.4791C28.9558 14.4791 29.3068 14.8406 29.3068 15.3069C29.3068 15.7679 28.9558 16.1346 28.4738 16.1346ZM28.4738 20.0221C27.9971 20.0221 27.6408 19.6606 27.6408 19.1943C27.6408 18.728 27.9971 18.3665 28.4738 18.3665C28.9558 18.3665 29.3068 18.728 29.3068 19.1943C29.3068 19.6606 28.9558 20.0221 28.4738 20.0221ZM32.6653 21.0332V14.8039H32.5763L30.6954 16.1346V14.8615L32.6706 13.4732H34.017V21.0332H32.6653ZM39.3925 21.0332V19.582H35.6937V18.4765C36.6734 16.7738 37.7475 15.0344 38.7743 13.4732H40.6866V18.466H41.703V19.582H40.6866V21.0332H39.3925ZM36.9511 18.4975H39.4135V14.5524H39.3349C38.5595 15.7365 37.6846 17.1353 36.9511 18.4189V18.4975Z" fill="white"/>
<path fill-rule="evenodd" clip-rule="evenodd" d="M181.853 13.7773H181.245C180.909 13.7773 180.636 14.0467 180.636 14.3789V19.592C180.636 19.9242 180.909 20.1935 181.245 20.1935H181.853C182.189 20.1935 182.462 19.9242 182.462 19.592V14.3789C182.462 14.0467 182.189 13.7773 181.853 13.7773ZM178.405 15.1809H179.013C179.35 15.1809 179.622 15.4502 179.622 15.7824V19.592C179.622 19.9242 179.35 20.1935 179.013 20.1935H178.405C178.069 20.1935 177.796 19.9242 177.796 19.592V15.7824C177.796 15.4502 178.069 15.1809 178.405 15.1809ZM176.174 16.5844H175.565C175.229 16.5844 174.957 16.8537 174.957 17.1859V19.592C174.957 19.9242 175.229 20.1935 175.565 20.1935H176.174C176.51 20.1935 176.782 19.9242 176.782 19.592V17.1859C176.782 16.8537 176.51 16.5844 176.174 16.5844ZM173.334 17.7874H172.726C172.39 17.7874 172.117 18.0567 172.117 18.3889V19.592C172.117 19.9242 172.39 20.1935 172.726 20.1935H173.334C173.67 20.1935 173.943 19.9242 173.943 19.592V18.3889C173.943 18.0567 173.67 17.7874 173.334 17.7874Z" fill="white"/>
<path fill-rule="evenodd" clip-rule="evenodd" d="M191.415 15.1515C192.769 15.1515 194.071 15.6653 195.052 16.5866C195.126 16.6577 195.244 16.6568 195.317 16.5846L196.023 15.8806C196.06 15.844 196.08 15.7943 196.08 15.7427C196.08 15.691 196.059 15.6417 196.021 15.6054C193.446 13.168 189.384 13.168 186.809 15.6054C186.772 15.6416 186.75 15.691 186.75 15.7426C186.75 15.7943 186.77 15.8439 186.807 15.8806L187.513 16.5846C187.586 16.6569 187.704 16.6578 187.778 16.5866C188.759 15.6652 190.061 15.1515 191.415 15.1515ZM191.415 17.4418C192.159 17.4418 192.876 17.7148 193.428 18.2079C193.502 18.2779 193.62 18.2764 193.692 18.2045L194.398 17.5005C194.435 17.4636 194.456 17.4135 194.455 17.3615C194.455 17.3094 194.433 17.2597 194.395 17.2236C192.716 15.681 190.116 15.681 188.437 17.2236C188.399 17.2597 188.378 17.3094 188.377 17.3615C188.377 17.4136 188.397 17.4637 188.434 17.5005L189.14 18.2045C189.212 18.2764 189.33 18.2779 189.404 18.2079C189.955 17.7151 190.672 17.4421 191.415 17.4418ZM192.828 18.9828C192.829 19.035 192.809 19.0853 192.771 19.1219L191.551 20.3381C191.515 20.3739 191.466 20.394 191.415 20.394C191.364 20.394 191.316 20.3739 191.28 20.3381L190.06 19.1219C190.022 19.0853 190.001 19.0349 190.002 18.9827C190.003 18.9305 190.026 18.8811 190.065 18.8461C190.845 18.1951 191.986 18.1951 192.765 18.8461C192.804 18.8811 192.827 18.9306 192.828 18.9828Z" fill="white"/>
<g opacity="0.5">
<path fill-rule="evenodd" clip-rule="evenodd" d="M200.375 15.5656C200.375 14.578 201.176 13.7773 202.163 13.7773H214.324C215.311 13.7773 216.112 14.578 216.112 15.5656V19.4998C216.112 20.4875 215.311 21.2881 214.324 21.2881H202.163C201.176 21.2881 200.375 20.4875 200.375 19.4998V15.5656ZM202.163 14.4927H214.324C214.916 14.4927 215.397 14.973 215.397 15.5656V19.4998C215.397 20.0924 214.916 20.5728 214.324 20.5728H202.163C201.571 20.5728 201.09 20.0924 201.09 19.4998V15.5656C201.09 14.973 201.571 14.4927 202.163 14.4927Z" fill="white"/>
<path d="M217.9 17.6665C217.9 18.3331 217.444 18.8932 216.827 19.052V16.2809C217.444 16.4398 217.9 16.9999 217.9 17.6665Z" fill="white"/>
</g>
<rect x="201.812" y="15.208" width="12.8756" height="4.64953" rx="0.715312" fill="white"/>
</svg>
