<svg width="1394" height="511" viewBox="0 0 1394 511" fill="none" xmlns="http://www.w3.org/2000/svg">
<path d="M696.768 0.541597V20.3732L779.534 23.2057L814.696 24.3961L803.876 46.1533L885.019 54.6518L907.419 56.9754L886.913 79.8939L965.239 94.0595L974.059 95.6455L944.959 118.934L1015.23 137.858M1015.23 137.858L979.419 160.522L1031.46 181.288M1015.23 137.858L1051.96 116.95L1047.69 115.761L974.489 95.5043L1004.41 74.313L986.229 71.225L907.899 57.0606L928.679 36.3221L896.217 32.9225L815.074 24.4241H814.317L825.136 5.0464L949.559 17.9084L928.679 36.2381L1006.84 50.4026L1034.7 55.3042L1004.41 74.3702L1077.98 94.4563L1090.69 97.9411L1052.39 116.837L1118.06 143.071L1073.92 161.202L1119.79 188.229L1072.19 205.227L1100.1 231.518L1051.42 247.014L1063.91 271.378M1015.23 137.858L1073.81 161.287L1031.46 181.288M1031.46 181.288L991.209 202.847L1027.07 223.925M1031.46 181.288L1072.19 205.256L1027.07 223.925M1063.91 271.378L1114.28 259.253L1100.05 231.546L1151.22 217.948L1119.74 188.342L1169.24 173.356L1118.01 143.184L1163.23 127.234L1156.53 124.402L1090.64 98.0543L1129.32 81.3398L1108.22 75.5314L1034.81 55.3322L1065.1 38.7309L1167.89 67.061L1129.15 81.2255L1195.1 107.573L1209 113.239L1163.07 127.093L1218.19 159.531L1219.87 160.494M1063.91 271.378V296.167L1017.18 307.131L1006.36 328.406L965.029 338.549L946.469 356.029L912.119 365.944M1063.91 271.378L1017.5 285.543V307.131L974.709 320.106L965.239 338.549L928.349 350.873L912.119 365.944M1027.07 223.925L984.989 244.096L1006.63 264.268L965.299 282.965L974.759 301.408L936.569 318.832V334.866L903.409 351.411L896.217 365.264M1027.07 223.925L1051.63 247.042L1006.46 264.268L1017.28 285.515L974.489 301.408V320.134L936.299 335.008L928.129 350.901L896.217 365.264M896.217 365.264L869.17 381.44L858.35 391.526L858.891 391.696L858.188 391.895L856.565 392.348H856.241L850.831 393.822L849.1 394.302L839.525 396.938L836.658 397.731L829.788 399.629L828.814 399.883L832.763 390.308L823.351 381.44M896.217 365.264L882.423 378.239L861.163 390.535L862.191 390.053L861.055 390.506L858.567 391.498L856.565 392.32H856.078L869.17 381.327L875.39 369.485L903.139 351.467V337.529L936.299 318.747L928.129 302.853L965.029 283.022L946.469 265.542L984.879 244.152L953.669 225.739L991.099 202.904L944.899 184.517M823.351 381.44L837.632 358.04L822.377 349.059L839.958 324.214L817.671 315.29L836.442 288.829L805.932 280.331L823.459 252.34L783.753 245.144L797.655 215.965L748.158 210.809L756.056 181.005L696.93 179.022V149.558L629.202 151.853L619.736 123.211M823.351 381.44L809.665 373.367M823.351 381.44L815.507 402.292L812.261 402.887L801.929 396.824L809.665 373.367M944.899 184.517L978.879 160.466L917.149 143.468L945.169 118.678L867.168 104.514L886.913 79.6966L874.633 78.4211L793.49 69.9226L804.255 46.0961L779.642 45.2746L696.876 42.4421V20.2589L661.66 21.4493L578.948 24.2817L568.129 4.90403L444.142 17.7661L464.915 36.2381M944.899 184.517L890.808 169.587L917.419 143.694L848.181 131.116L867.439 104.768L864.95 104.485L783.807 95.9863L793.977 70.149L779.804 69.695L697.038 66.8626V42.4701L672.425 43.3197L589.659 46.1533H589.334L578.515 24.3669L546.058 27.7385L464.915 36.2381M944.899 184.517L913.259 209.703H913.639L953.669 225.682L919.369 249.536L946.419 265.486L912.069 287.867L928.299 302.938L896.217 323.931M619.736 123.211L545.355 130.917L526.151 104.57L448.145 118.736L418.934 95.5043L414.606 96.6947L341.307 116.95M619.736 123.211L696.768 120.605V149.558L764.657 151.569L756.056 180.949L813.127 186.869L797.655 215.907L843.691 224.407L823.459 252.426L858.891 262.17L836.712 288.773L862.299 299.284L840.066 324.355H839.796L857.214 334.582L837.47 358.182L847.964 368.04M619.736 123.211L609.999 95.8731L607.51 96.1275L526.367 104.627L506.19 79.7807L497.372 81.3959L419.042 95.5615L389.127 74.3702L376.902 77.8259L303.061 98.0543V97.8279L264.383 81.1123L250.481 86.7783L184.538 113.126L138.666 101.794M809.665 373.367L822.431 349.032L802.849 341.212L817.725 315.262L791.326 308.009L805.986 280.416L771.798 274.211M809.665 373.367L792.084 366.341L802.903 341.24L779.804 334.866L791.38 308.038L761.52 302.541M341.307 116.95L303.332 98.0543L296.624 100.887L230.844 127.093L184.971 113.239L177.722 117.517L122.653 149.955L70.7224 141.824M341.307 116.95L275.743 143.184L230.411 127.093L228.788 128.056L173.936 160.635L122.491 150.096L119.516 152.391L79.3774 190.213M341.307 116.95L378.633 137.858L448.145 118.792L476.167 143.581L545.355 131.002L563.585 158.624L629.04 151.825L637.641 181.288L696.768 179.305V209.052L747.996 210.779L740.964 240.697L783.591 245.116L771.798 274.211M847.964 368.04L869.17 345.83L857.214 334.498L882.152 311.041M847.964 368.04L853.374 378.438L839.471 397.164L836.496 397.958L832.601 390.45L847.964 368.04ZM70.7224 141.824L24.1464 185.68L79.3774 190.213M70.7224 141.824L83.5424 134.26L138.72 101.794L159.709 93.2951L226.03 67.033L255.674 58.9022L328.865 38.6457L366.083 31.9025L444.575 17.7381L487.364 13.2904L568.507 4.79083L614.218 3.23281L696.984 0.400391L742.749 1.9584L825.461 4.79083L868.25 9.21043L949.389 17.71L986.559 24.4521L1064.94 38.6177L1094.53 46.7485L1167.89 66.9478L1188.93 75.4462L1254.87 101.794M70.7224 141.824L30.6914 179.758L24.2544 185.68L2.61643 227.608L0.398438 231.915M79.3774 190.213L134.717 197.153M79.3774 190.213V190.693L57.7394 232.622M771.798 274.211L761.52 302.541M771.798 274.211L735.013 270.386L741.18 240.81L696.984 239.308M1254.87 101.794L1267.69 109.386L1322.71 141.824L1328.98 147.745L1369.39 185.68M1254.87 101.794L1322.65 141.824L1271.15 149.955L1311.51 187.889L1313.94 190.213L1258.66 197.153M1254.87 101.794L1209 113.126L1264.07 145.677L1271.32 149.955L1219.87 160.494M0.398438 231.915L57.7394 232.622M0.398438 231.915V278.942M134.717 197.153L173.665 160.494L224.461 173.356M134.717 197.153L189.299 206.445L224.461 173.356M134.717 197.153L115.026 235.767L57.7394 232.622M57.7394 232.622V275.798L0.398438 278.942M761.52 302.541L729.766 299.34M761.52 302.541L753.568 330.049L779.534 334.753L771.095 360.505L791.921 366.171L785.43 390.11L801.659 396.654L800.847 404.785L797.71 405.238H813.181L845.151 399.572L847.856 399.063L849.533 398.75L866.14 395.747L890.862 397.759L944.959 382.829L978.929 385.917L1031.02 365.095L1073.38 368.608L1119.25 341.609L1168.75 344.584L1204.56 311.664M696.984 239.308V209.052L645.756 210.779L637.641 181.118L580.571 187.011L563.585 158.68L502.673 169.73L476.167 143.637L414.768 160.466L378.957 137.802L319.885 161.287L275.743 143.156L224.461 173.356M696.984 239.308L652.788 240.81M696.984 239.308V269.112L734.851 270.386L729.766 299.34M729.766 299.34L696.822 298.207V269.112L658.955 270.386L652.788 240.81M729.766 299.34L725.709 327.245L753.622 330.079L747.78 356.369L771.095 360.618L766.064 384.953L785.43 390.28L783.807 406.966L843.312 397.192L838.335 398.071L836.55 398.41L829.409 399.714L828.436 399.883L815.128 402.292L811.883 402.887L800.631 404.926L797.277 405.549L783.591 406.966L767.795 408.581L764.17 408.978L747.942 410.677L743.452 410.82L720.786 411.584L697.309 412.378H696.713L673.615 411.584L650.678 410.82L645.269 410.649L629.04 408.949L625.308 408.553L609.512 406.938L595.826 405.521L592.472 404.898L581.22 402.858L577.974 402.264L564.667 399.855L563.693 399.686L556.552 398.382L554.767 398.043L549.79 397.164H553.956L540.053 378.438V389.005L518.091 369.741L524.149 381.583L497.102 365.406L510.896 378.352L481.089 366.115L504.459 379.854L474.273 372.007M1204.56 311.664L1258.98 313.704L1278.78 275.09L1336.07 275.798M1204.56 311.664L1222.2 276.789L1278.73 275.09V235.767L1336.01 232.622L1335.74 232.141L1314.1 190.213L1369.39 185.68M1204.56 311.664L1151.33 312.146L1119.85 341.778L1072.24 341.411L1031.46 365.264L991.209 364.67L944.899 383.113H913.259L865.924 396.144L852.075 396.824H850.128L844.718 397.108H843.528L845.963 396.428L847.531 396.031L855.267 393.906L855.808 393.736H856.295L885.019 385.832L913.909 383L953.939 366.992L991.369 364.783L1027.24 343.705L1072.35 341.411L1100.27 315.119L1151.44 312.287L1167.67 281.123L1222.74 276.987V241.433L1279.27 235.767L1258.66 197.153M224.461 173.356L274.12 188.342M652.788 240.81L645.323 210.893L595.826 216.05L580.354 187.011L527.179 196.671L502.457 169.587L448.362 184.517L414.39 160.466L362.296 181.288L319.993 161.315L274.12 188.342M652.788 240.81L609.945 245.087L596.042 215.907L550.007 224.407L527.503 196.756L480.17 209.789L448.524 184.603L402.651 202.932L362.458 181.373L321.724 205.341L274.12 188.342M274.12 188.342L242.691 218.061L189.461 206.558L171.61 241.433L115.08 235.767V275.09H114.755L57.4684 275.798L57.7394 276.308L79.3774 318.237L24.1464 325.205L71.1554 369.032L122.653 358.494L82.0284 320.531L79.5934 318.237L134.879 313.704H134.608L114.81 275.09L171.339 276.789M0.398438 278.942L22.0364 320.871L24.2544 325.205L64.5554 363.14L70.8304 369.06L125.953 401.498L138.882 409.034M138.882 409.034L204.824 435.381L225.813 443.881L299.112 464.023L328.703 472.154L407.033 486.32L444.25 493.062L525.393 501.561L568.237 506.009L650.949 508.841L696.713 510.4V488.217V468.387V413.596L720.786 411.556L720.299 401.328L696.713 400.536V377.729L672.533 378.551L671.505 353.819M138.882 409.034L225.435 443.796L264.383 427.195L198.387 400.762L184.484 395.096L230.357 383.764H230.844L175.613 351.467L173.936 350.504L224.731 344.838L189.569 311.749L242.799 312.23L226.571 281.067L279.53 287.583V259.253L329.676 271.378L342.551 247.042L387.721 264.268L409.359 244.096L447.821 265.486H447.226L474.273 249.536M138.882 409.034L184.755 395.181L129.469 362.743L122.221 358.494L173.665 350.363L134.717 313.704L189.299 311.664L171.339 276.789M171.339 276.789L226.516 280.925V249.111L279.53 259.196L293.757 231.489L342.443 246.986L367.002 223.868L409.034 244.039L440.301 225.624L474.273 249.536M171.339 276.789V241.32L226.3 249.111L242.529 217.948L293.703 231.546L321.616 205.256L366.732 223.925L402.543 202.847L440.031 225.682L480.062 209.703L508.948 235.71L550.007 224.378L570.238 252.426L609.945 245.23L621.954 274.211L658.793 270.216L663.878 299.171L696.822 298.037V326.084L725.709 327.076L722.787 353.592L747.834 356.17L744.372 380.817L766.01 384.756L764.279 407.42M474.273 372.007L508.894 385.86L480.007 383.028L527.341 396.059L541.135 396.739H543.137L548.546 397.023H550.007L547.573 396.342L546.436 396.031L538.701 393.906L538.16 393.736H537.673L508.948 385.832L533.94 391.498L534.806 391.696L535.509 391.895L537.132 392.348H537.457L542.866 393.822L544.597 394.302L554.172 396.938L557.039 397.731L563.909 399.629L565.099 399.883L560.826 390.365M474.273 372.007L447.226 356.057M474.273 372.007L439.977 366.992L480.007 383H448.578L502.673 397.928L476.167 403.086L545.355 415.863L526.151 425.665L565.478 429.743L597.178 433.03L609.999 434.361H614.002L696.768 437.195V425.863L770.175 423.398H773.745L775.098 424.899L783.537 434.192L797.493 432.718L828.057 429.574L867.384 425.494L887.346 438.299L896.163 436.685L974.489 422.519L1004.41 436.487L1017.23 432.974L1090.64 412.774V413.029L1129.32 427.195L1143.22 421.529L1209.16 395.181L1255.03 409.034L1322.98 369.032L1271.48 358.494M1336.07 275.798V232.622L1393.3 231.915V278.942L1336.07 275.798ZM1336.07 275.798L1314.43 317.727L1314.16 318.237L1258.66 313.704L1219.71 350.363L1168.86 344.697L1118.01 374.925M1369.39 185.68L1371.61 189.985L1393.25 231.915V279.027L1391.03 283.334L1369.39 325.262L1363.12 331.183L1322.81 369.118L1309.99 376.681L1254.65 409.006L1233.61 417.506L1167.67 443.852L1138.08 451.983L1064.73 472.183L1027.51 478.925L949.179 493.09L906.389 497.538L825.244 506.037L779.534 507.567L696.768 510.4V488.217V488.36L727.061 487.34L809.827 484.506L814.696 484.336H814.209L825.028 506.15L949.449 493.26L928.569 472.523L847.423 481.021L814.966 484.421L813.722 482.069L804.417 465.071L804.147 464.93L721.381 467.764L696.768 468.585V488.416L614.002 485.583L585.223 484.591L578.84 484.393L497.697 475.894L465.239 472.523M1369.39 185.68L1393.14 231.915V278.97L1369.39 325.205L1314.27 318.237L1273.97 356.17L1271.48 358.494M1258.66 197.153L1219.87 160.494M1258.66 197.153L1204.56 206.445M1118.01 374.925L1073.87 368.777L1015.23 392.234M1118.01 374.925L1052.39 401.159L1015.23 392.234M1118.01 374.925L1163.23 383.764L1164.91 382.801L1220.03 350.363L1271.48 358.494M1015.23 392.234L979.419 386.201L917.689 403.199L891.186 398.043L842.501 406.966L840.229 407.363H839.958L830.654 409.034L813.668 405.606L756.597 411.528L748.699 410.592L744.209 410.735L743.831 403.652L721.056 401.272L721.651 378.608L697.471 377.786V352.941L671.505 353.819M1015.23 392.234L945.069 411.33L917.049 403.142L847.802 415.692L837.47 411.924L836.009 411.386L829.734 409.091L764.279 415.891L755.678 411.584L696.551 413.596V418.185L663.228 417.052L628.824 415.891L563.368 409.091L580.354 405.664L548.384 399.998L545.679 399.488L544.002 399.176L527.395 396.172L502.673 398.184L551.738 407.108L554.01 407.504L563.314 409.177L557.039 411.471L555.579 412.009L545.192 415.777L559.69 417.278H560.177L619.682 423.426L624.55 423.597L696.713 426.032V418.157L731.118 416.996L764.441 415.863L773.691 423.511L833.196 417.363H833.683L848.126 415.863L867.384 425.637L945.389 411.471L974.489 422.633L978.819 421.443L1052.18 401.244L1090.47 412.888L1097.18 410.197L1163.07 383.849L1209 395.181L1216.19 390.932L1271.48 358.494M671.505 353.819L668.584 327.302L640.671 330.135L632.015 302.541L602.425 307.925V307.782L587.874 280.274L557.364 288.773L534.914 262.142L504.945 274.211M671.505 353.819L645.702 356.341L639.913 330.135L613.948 334.838L602.371 308.009L575.973 315.262L557.202 288.801L531.452 299.113L504.945 274.211M504.945 274.211L474.273 249.536M504.945 274.211L481.576 287.952V288.093L447.226 265.712L428.617 283.191L387.342 264.494L376.523 285.741L329.785 271.577V296.365L279.53 287.442L293.865 315.119L242.691 312.287L274.12 341.778M474.273 249.536L508.894 235.71L534.752 262.17L570.184 252.426L587.874 280.416L621.9 274.211L631.961 302.541L663.769 299.255L667.827 327.16L696.713 326.169V352.799L722.679 353.678L720.894 378.467L744.263 380.902L743.073 403.567L764.279 407.42M274.12 341.778L321.724 341.411L293.811 315.119L342.497 320.588L330.001 296.196L376.739 307.159V285.543L419.529 301.437L428.941 282.994L465.888 302.825L482.117 287.753L511.599 311.041L531.723 299.199L553.956 324.27L576.243 315.347L591.065 341.297L614.218 334.923L622.603 360.675L645.972 356.426L649.434 381.073L672.803 378.636L673.398 401.3L696.984 400.508L697.579 412.321H696.984V413.539L637.858 411.528L580.787 405.606L596.258 405.465L592.904 404.842L591.985 396.739L581.653 402.802L578.407 402.207L570.563 381.356L560.826 390.365M274.12 341.778L224.569 344.753L275.851 374.925L230.52 383.764L237.281 386.596L303.17 412.916L264.491 427.081L285.589 432.747L358.996 452.947M274.12 341.778L319.885 368.777L275.743 374.925L341.415 400.96L303.17 412.604L315.828 416.117L389.235 436.373L358.996 452.947M764.279 407.42V408.808L767.957 408.411L764.279 407.42ZM560.826 390.365L556.931 397.872L544.489 394.445L540.161 388.92L542.758 393.963L535.022 391.583L524.203 381.498L537.294 392.49V392.348L535.293 391.526L532.805 390.535L531.668 390.081L505.108 379.741L533.291 391.073L534.968 391.754L532.805 390.591L511.545 378.296L531.668 390.138L509.111 385.945L480.386 383.113L527.395 396.031L502.673 398.043L563.585 409.091L545.246 415.863L526.151 425.607L506.731 438.299L486.228 453.967L465.239 472.523M560.826 390.365L545.463 367.955L540.053 378.352L518.091 357.587V369.656L490.502 351.58L497.534 365.264L465.51 350.929L481.738 366L447.226 356.057M447.226 356.057L428.617 338.577L465.564 350.901L457.396 335.008L490.502 351.552V337.614M447.226 356.057L408.764 348.691L440.031 367.078L402.543 364.867M465.239 472.523L578.84 484.336L568.021 506.122L578.84 484.308L580.571 481.078L589.388 464.902L599.829 448.215L609.999 434.389L617.951 425.607L619.736 423.597L629.04 416.032L637.641 411.725L645.539 410.791L650.462 410.961L650.137 403.85L628.932 407.703L627.201 385.038L608.105 390.365L601.614 366.426L584.033 373.367L571.32 349.059L556.066 358.04L536.321 334.441L524.366 345.773L497.318 324.044L490.502 337.614M465.239 472.523L486.174 453.967H485.85L407.52 439.801L389.289 436.515L419.204 422.549L345.797 402.348L341.469 401.159L378.795 392.234L320.047 368.777L362.512 365.377L321.778 341.411L366.894 343.705M490.502 337.614L457.341 318.832V335.008L419.15 320.134L428.563 338.577L387.721 328.435M490.502 337.614L518.253 357.445L524.311 345.603L545.517 367.814L556.011 357.955L570.293 381.356L583.979 373.282L591.714 396.739L607.943 390.194L609.566 406.881L625.794 408.496L629.473 407.504V408.893L673.885 411.528L673.398 401.272L650.624 403.652L649.434 380.988L627.796 384.925L622.711 360.59L601.938 366.256L591.119 341.155L571.645 349.032L554.064 324.185L536.645 334.413L511.383 311.041L497.588 324.016L465.564 303.023L457.396 318.916L419.204 301.493V320.219H419.529L376.902 307.159L387.721 328.435M366.894 343.705L408.926 348.607L387.721 328.435M366.894 343.705L342.335 320.588L387.721 328.435M366.894 343.705L402.543 364.867M402.543 364.867L362.35 365.462L414.768 386.201L378.957 392.234L448.47 411.386L419.366 422.549L428.184 424.135L506.514 438.299H506.839L486.337 453.967L488.825 454.221L569.968 462.721L589.713 464.759L614.326 465.61L697.092 468.443V451.445L711.265 450.963L794.031 448.13L804.472 464.817L825.623 462.635H826.867L908.009 454.136L928.779 472.466L956.589 467.367L1034.92 453.201L1065.21 472.239L1167.99 443.909L1129.26 427.195L1055.91 447.535L1034.76 453.201L1004.41 436.515L926.019 450.68L907.849 453.995L887.346 438.328L825.893 444.759H824.974L817.563 445.524L794.085 447.96L783.915 434.135L701.203 436.969H697.146V451.133L614.38 448.301L600.207 447.819L577.974 445.495L568.291 444.504L506.19 438.356L526.151 425.551L448.145 411.386L476.167 403.199L414.444 386.201L448.416 383.113L402.543 364.867ZM1219.87 160.494L1169.02 173.356L1204.56 206.445M358.996 452.947L328.703 471.985L444.25 492.948L465.023 472.211L386.693 458.045L358.996 452.947ZM1204.56 206.445L1222.41 241.32L1167.18 249.111V280.869L1114.22 287.385L1100 315.063L1051.31 320.531M1204.56 206.445L1150.85 217.806L1167.07 248.969L1114.11 259.054V287.385L1063.81 296.139L1051.31 320.531M1051.31 320.531L1026.75 343.648L984.659 348.55L953.449 366.936L919.149 371.95M1051.31 320.531L1006.25 328.378L984.609 348.55L946.199 356L919.149 371.95M919.149 371.95L884.533 385.804L859.487 391.47L858.675 391.668L860.352 390.988L888.536 379.656L919.149 371.95ZM912.119 365.944L888.752 379.684L862.191 390.025L882.315 378.183L912.119 365.944ZM464.915 36.2381L485.85 56.8902L566.993 48.3917L589.388 46.0682L599.829 70.0358L682.54 67.2022L696.768 66.7214V92.8983L779.534 95.7307H783.537L773.745 123.211L848.072 130.804L829.896 158.341L890.808 169.389L866.14 196.756L913.469 209.789L884.587 235.795L919.209 249.62L888.59 274.211M464.915 36.2381L437.218 41.2517L358.888 55.4174L328.594 38.8161L225.813 67.1462L264.6 81.3107L337.953 61.1114L359.104 55.3042L389.344 74.3422L467.728 60.1766L485.904 56.8622L506.406 79.7807L587.549 71.2822L599.883 70.0066L609.836 95.7307L692.548 92.8983H696.605V120.463L773.583 123.07L764.333 151.598L829.788 158.398L812.802 186.728L865.978 196.389L843.366 224.124L884.425 235.456L858.567 261.916L888.59 274.211M896.217 323.931L903.249 337.614L875.499 357.445M896.217 323.931L869.17 345.66L875.499 357.445M896.217 323.931L882.152 311.041M888.59 274.211L911.959 287.952L882.152 311.041M888.59 274.211L862.029 299.199L882.152 311.041M875.499 357.445V369.514L853.536 388.779M875.499 357.445L853.536 378.211V388.779M853.536 388.779L850.939 393.822L849.208 394.302L853.536 388.779Z" stroke="url(#paint0_radial_8655_8456)" style="mix-blend-mode:screen" stroke-width="0.8" stroke-linejoin="round"/>
<defs>
<radialGradient id="paint0_radial_8655_8456" cx="0" cy="0" r="1" gradientTransform="matrix(0.484483 -374.952 500.933 0.881577 696.364 357.808)" gradientUnits="userSpaceOnUse">
<stop stop-color="#3573E9" stop-opacity="0.3"/>
<stop offset="0.238962" stop-color="#7289F3" stop-opacity="0.2"/>
<stop offset="1" stop-color="#2C2D32" stop-opacity="0.1"/>
</radialGradient>
</defs>
</svg>
