<svg width="184" height="168" viewBox="0 0 184 168" fill="none" xmlns="http://www.w3.org/2000/svg">
<rect width="102" height="36" rx="8" fill="url(#paint0_linear_6_2)" fill-opacity="0.15"/>
<rect x="0.5" y="0.5" width="101" height="35" rx="7.5" stroke="url(#paint1_linear_6_2)" stroke-opacity="0.15"/>
<path d="M43.733 23V12.8182H44.9659V17.3523H50.3949V12.8182H51.6278V23H50.3949V18.446H44.9659V23H43.733ZM53.5171 23V15.3636H54.6904V23H53.5171ZM54.1137 14.0909C53.885 14.0909 53.6878 14.013 53.5221 13.8572C53.3597 13.7015 53.2785 13.5142 53.2785 13.2955C53.2785 13.0767 53.3597 12.8894 53.5221 12.7337C53.6878 12.5779 53.885 12.5 54.1137 12.5C54.3424 12.5 54.538 12.5779 54.7004 12.7337C54.8661 12.8894 54.949 13.0767 54.949 13.2955C54.949 13.5142 54.8661 13.7015 54.7004 13.8572C54.538 14.013 54.3424 14.0909 54.1137 14.0909ZM57.9705 12.8182L57.8711 20.1364H56.7177L56.6183 12.8182H57.9705ZM57.2944 23.0795C57.0491 23.0795 56.8387 22.9917 56.663 22.8161C56.4874 22.6404 56.3995 22.4299 56.3995 22.1847C56.3995 21.9394 56.4874 21.7289 56.663 21.5533C56.8387 21.3776 57.0491 21.2898 57.2944 21.2898C57.5397 21.2898 57.7501 21.3776 57.9258 21.5533C58.1015 21.7289 58.1893 21.9394 58.1893 22.1847C58.1893 22.3471 58.1479 22.4962 58.065 22.6321C57.9855 22.768 57.8777 22.8774 57.7419 22.9602C57.6093 23.0398 57.4601 23.0795 57.2944 23.0795Z" fill="#101828"/>
<rect x="67" y="44" width="102" height="36" rx="8" fill="url(#paint2_linear_6_2)" fill-opacity="0.15"/>
<rect x="67.5" y="44.5" width="101" height="35" rx="7.5" stroke="url(#paint3_linear_6_2)" stroke-opacity="0.15"/>
<path d="M93.233 67V56.8182H96.7926C97.5019 56.8182 98.0869 56.9408 98.5476 57.1861C99.0083 57.428 99.3513 57.7545 99.5767 58.1655C99.8021 58.5732 99.9148 59.0256 99.9148 59.5227C99.9148 59.9602 99.8369 60.3215 99.6811 60.6065C99.5286 60.8916 99.3265 61.117 99.0746 61.2827C98.826 61.4484 98.5559 61.571 98.2642 61.6506V61.75C98.5758 61.7699 98.889 61.8793 99.2038 62.0781C99.5187 62.277 99.7822 62.562 99.9943 62.9332C100.206 63.3045 100.312 63.7585 100.312 64.2955C100.312 64.8059 100.196 65.2649 99.9645 65.6726C99.7325 66.0803 99.3662 66.4034 98.8658 66.642C98.3653 66.8807 97.714 67 96.9119 67H93.233ZM94.4659 65.9062H96.9119C97.7173 65.9062 98.2891 65.7505 98.6271 65.4389C98.9685 65.1241 99.1392 64.7429 99.1392 64.2955C99.1392 63.9508 99.0514 63.6326 98.8757 63.3409C98.7 63.0459 98.4498 62.8106 98.125 62.6349C97.8002 62.456 97.4157 62.3665 96.9716 62.3665H94.4659V65.9062ZM94.4659 61.2926H96.7528C97.1241 61.2926 97.4588 61.2197 97.7571 61.0739C98.0587 60.928 98.2973 60.7225 98.473 60.4574C98.652 60.1922 98.7415 59.8807 98.7415 59.5227C98.7415 59.0753 98.5857 58.6958 98.2741 58.3842C97.9626 58.0694 97.4688 57.9119 96.7926 57.9119H94.4659V61.2926ZM104.862 67.1591C104.172 67.1591 103.567 66.995 103.047 66.6669C102.53 66.3388 102.126 65.8797 101.834 65.2898C101.546 64.6998 101.401 64.0104 101.401 63.2216C101.401 62.4261 101.546 61.7318 101.834 61.1385C102.126 60.5452 102.53 60.0845 103.047 59.7564C103.567 59.4283 104.172 59.2642 104.862 59.2642C105.551 59.2642 106.154 59.4283 106.671 59.7564C107.192 60.0845 107.596 60.5452 107.884 61.1385C108.176 61.7318 108.322 62.4261 108.322 63.2216C108.322 64.0104 108.176 64.6998 107.884 65.2898C107.596 65.8797 107.192 66.3388 106.671 66.6669C106.154 66.995 105.551 67.1591 104.862 67.1591ZM104.862 66.1051C105.385 66.1051 105.816 65.9709 106.154 65.7024C106.492 65.4339 106.743 65.081 106.905 64.6435C107.067 64.206 107.149 63.732 107.149 63.2216C107.149 62.7112 107.067 62.2356 106.905 61.7947C106.743 61.3539 106.492 60.9976 106.154 60.7259C105.816 60.4541 105.385 60.3182 104.862 60.3182C104.338 60.3182 103.907 60.4541 103.569 60.7259C103.231 60.9976 102.981 61.3539 102.818 61.7947C102.656 62.2356 102.575 62.7112 102.575 63.2216C102.575 63.732 102.656 64.206 102.818 64.6435C102.981 65.081 103.231 65.4339 103.569 65.7024C103.907 65.9709 104.338 66.1051 104.862 66.1051ZM110.866 62.4062V67H109.693V59.3636H110.826V60.5568H110.926C111.105 60.169 111.377 59.8575 111.741 59.6222C112.106 59.3835 112.576 59.2642 113.153 59.2642C113.67 59.2642 114.123 59.3703 114.51 59.5824C114.898 59.7912 115.2 60.1094 115.415 60.5369C115.631 60.9612 115.738 61.4981 115.738 62.1477V67H114.565V62.2273C114.565 61.6274 114.409 61.16 114.098 60.8253C113.786 60.4872 113.359 60.3182 112.815 60.3182C112.44 60.3182 112.106 60.3994 111.811 60.5618C111.519 60.7242 111.289 60.9612 111.12 61.2727C110.951 61.5843 110.866 61.9621 110.866 62.4062ZM117.462 59.3636H118.636V67.5568C118.636 68.0275 118.554 68.4351 118.392 68.7798C118.233 69.1245 117.991 69.3913 117.666 69.5803C117.345 69.7692 116.939 69.8636 116.448 69.8636C116.408 69.8636 116.369 69.8636 116.329 69.8636C116.289 69.8636 116.249 69.8636 116.209 69.8636V68.7699C116.249 68.7699 116.286 68.7699 116.319 68.7699C116.352 68.7699 116.388 68.7699 116.428 68.7699C116.786 68.7699 117.048 68.6638 117.214 68.4517C117.379 68.2429 117.462 67.9446 117.462 67.5568V59.3636ZM118.039 58.0909C117.81 58.0909 117.613 58.013 117.447 57.8572C117.285 57.7015 117.204 57.5142 117.204 57.2955C117.204 57.0767 117.285 56.8894 117.447 56.7337C117.613 56.5779 117.81 56.5 118.039 56.5C118.268 56.5 118.463 56.5779 118.626 56.7337C118.791 56.8894 118.874 57.0767 118.874 57.2955C118.874 57.5142 118.791 57.7015 118.626 57.8572C118.463 58.013 118.268 58.0909 118.039 58.0909ZM123.467 67.1591C122.777 67.1591 122.173 66.995 121.652 66.6669C121.135 66.3388 120.731 65.8797 120.439 65.2898C120.151 64.6998 120.007 64.0104 120.007 63.2216C120.007 62.4261 120.151 61.7318 120.439 61.1385C120.731 60.5452 121.135 60.0845 121.652 59.7564C122.173 59.4283 122.777 59.2642 123.467 59.2642C124.156 59.2642 124.759 59.4283 125.276 59.7564C125.797 60.0845 126.201 60.5452 126.49 61.1385C126.781 61.7318 126.927 62.4261 126.927 63.2216C126.927 64.0104 126.781 64.6998 126.49 65.2898C126.201 65.8797 125.797 66.3388 125.276 66.6669C124.759 66.995 124.156 67.1591 123.467 67.1591ZM123.467 66.1051C123.991 66.1051 124.421 65.9709 124.759 65.7024C125.098 65.4339 125.348 65.081 125.51 64.6435C125.673 64.206 125.754 63.732 125.754 63.2216C125.754 62.7112 125.673 62.2356 125.51 61.7947C125.348 61.3539 125.098 60.9976 124.759 60.7259C124.421 60.4541 123.991 60.3182 123.467 60.3182C122.943 60.3182 122.512 60.4541 122.174 60.7259C121.836 60.9976 121.586 61.3539 121.424 61.7947C121.261 62.2356 121.18 62.7112 121.18 63.2216C121.18 63.732 121.261 64.206 121.424 64.6435C121.586 65.081 121.836 65.4339 122.174 65.7024C122.512 65.9709 122.943 66.1051 123.467 66.1051ZM133.111 63.8778V59.3636H134.284V67H133.111V65.7074H133.031C132.852 66.0952 132.574 66.425 132.196 66.6967C131.818 66.9652 131.341 67.0994 130.764 67.0994C130.287 67.0994 129.862 66.995 129.491 66.7862C129.12 66.5741 128.828 66.2559 128.616 65.8317C128.404 65.4041 128.298 64.8655 128.298 64.2159V59.3636H129.471V64.1364C129.471 64.6932 129.627 65.1373 129.939 65.4688C130.254 65.8002 130.655 65.9659 131.142 65.9659C131.434 65.9659 131.73 65.8913 132.032 65.7422C132.337 65.593 132.592 65.3643 132.797 65.0561C133.006 64.7479 133.111 64.3551 133.111 63.8778ZM136.013 67V59.3636H137.146V60.517H137.226C137.365 60.1392 137.617 59.8326 137.982 59.5973C138.346 59.362 138.757 59.2443 139.215 59.2443C139.301 59.2443 139.408 59.246 139.538 59.2493C139.667 59.2526 139.765 59.2576 139.831 59.2642V60.4574C139.791 60.4474 139.7 60.4325 139.558 60.4126C139.418 60.3894 139.271 60.3778 139.115 60.3778C138.744 60.3778 138.412 60.4557 138.121 60.6115C137.832 60.764 137.604 60.9761 137.435 61.2479C137.269 61.5163 137.186 61.8229 137.186 62.1676V67H136.013ZM142.353 56.8182L142.254 64.1364H141.1L141.001 56.8182H142.353ZM141.677 67.0795C141.432 67.0795 141.221 66.9917 141.045 66.8161C140.87 66.6404 140.782 66.4299 140.782 66.1847C140.782 65.9394 140.87 65.7289 141.045 65.5533C141.221 65.3776 141.432 65.2898 141.677 65.2898C141.922 65.2898 142.133 65.3776 142.308 65.5533C142.484 65.7289 142.572 65.9394 142.572 66.1847C142.572 66.3471 142.53 66.4962 142.447 66.6321C142.368 66.768 142.26 66.8774 142.124 66.9602C141.992 67.0398 141.843 67.0795 141.677 67.0795Z" fill="#101828"/>
<rect x="34" y="88" width="102" height="36" rx="8" fill="url(#paint4_linear_6_2)" fill-opacity="0.15"/>
<rect x="34.5" y="88.5" width="101" height="35" rx="7.5" stroke="url(#paint5_linear_6_2)" stroke-opacity="0.15"/>
<path d="M69.733 111V100.818H70.9659V105.352H76.3949V100.818H77.6278V111H76.3949V106.446H70.9659V111H69.733ZM82.6194 111.159C81.93 111.159 81.3251 110.995 80.8048 110.667C80.2877 110.339 79.8834 109.88 79.5917 109.29C79.3034 108.7 79.1592 108.01 79.1592 107.222C79.1592 106.426 79.3034 105.732 79.5917 105.138C79.8834 104.545 80.2877 104.085 80.8048 103.756C81.3251 103.428 81.93 103.264 82.6194 103.264C83.3088 103.264 83.912 103.428 84.4291 103.756C84.9494 104.085 85.3538 104.545 85.6421 105.138C85.9338 105.732 86.0796 106.426 86.0796 107.222C86.0796 108.01 85.9338 108.7 85.6421 109.29C85.3538 109.88 84.9494 110.339 84.4291 110.667C83.912 110.995 83.3088 111.159 82.6194 111.159ZM82.6194 110.105C83.1431 110.105 83.574 109.971 83.912 109.702C84.2501 109.434 84.5003 109.081 84.6627 108.643C84.8251 108.206 84.9063 107.732 84.9063 107.222C84.9063 106.711 84.8251 106.236 84.6627 105.795C84.5003 105.354 84.2501 104.998 83.912 104.726C83.574 104.454 83.1431 104.318 82.6194 104.318C82.0957 104.318 81.6649 104.454 81.3268 104.726C80.9887 104.998 80.7385 105.354 80.5761 105.795C80.4137 106.236 80.3325 106.711 80.3325 107.222C80.3325 107.732 80.4137 108.206 80.5761 108.643C80.7385 109.081 80.9887 109.434 81.3268 109.702C81.6649 109.971 82.0957 110.105 82.6194 110.105ZM88.624 100.818V111H87.4507V100.818H88.624ZM92.6001 111.179C92.1162 111.179 91.677 111.088 91.2826 110.906C90.8882 110.72 90.575 110.453 90.343 110.105C90.111 109.754 89.995 109.33 89.995 108.832C89.995 108.395 90.0811 108.04 90.2535 107.768C90.4258 107.493 90.6562 107.278 90.9445 107.122C91.2329 106.966 91.5511 106.85 91.8991 106.774C92.2504 106.695 92.6034 106.632 92.958 106.585C93.4221 106.526 93.7982 106.481 94.0866 106.451C94.3783 106.418 94.5904 106.363 94.723 106.287C94.8588 106.211 94.9268 106.078 94.9268 105.889V105.849C94.9268 105.359 94.7926 104.978 94.5241 104.706C94.2589 104.434 93.8562 104.298 93.316 104.298C92.7559 104.298 92.3167 104.421 91.9985 104.666C91.6803 104.911 91.4566 105.173 91.3274 105.452L90.2137 105.054C90.4126 104.59 90.6777 104.229 91.0092 103.97C91.3439 103.708 91.7085 103.526 92.1029 103.423C92.5007 103.317 92.8918 103.264 93.2762 103.264C93.5215 103.264 93.8032 103.294 94.1214 103.354C94.4429 103.41 94.7528 103.528 95.0511 103.707C95.3527 103.886 95.6029 104.156 95.8018 104.517C96.0007 104.878 96.1001 105.362 96.1001 105.969V111H94.9268V109.966H94.8671C94.7876 110.132 94.655 110.309 94.4694 110.498C94.2838 110.687 94.0369 110.848 93.7286 110.98C93.4204 111.113 93.0442 111.179 92.6001 111.179ZM92.7791 110.125C93.2431 110.125 93.6342 110.034 93.9524 109.852C94.2739 109.669 94.5158 109.434 94.6782 109.146C94.8439 108.857 94.9268 108.554 94.9268 108.236V107.162C94.8771 107.222 94.7677 107.276 94.5987 107.326C94.4329 107.372 94.2407 107.414 94.022 107.45C93.8065 107.483 93.5961 107.513 93.3906 107.54C93.1884 107.563 93.0243 107.583 92.8984 107.599C92.5935 107.639 92.3084 107.704 92.0433 107.793C91.7814 107.879 91.5693 108.01 91.4069 108.186C91.2478 108.358 91.1683 108.594 91.1683 108.892C91.1683 109.3 91.3191 109.608 91.6207 109.817C91.9256 110.022 92.3117 110.125 92.7791 110.125ZM99.3727 100.818L99.2733 108.136H98.1199L98.0205 100.818H99.3727ZM98.6966 111.08C98.4513 111.08 98.2409 110.992 98.0652 110.816C97.8895 110.64 97.8017 110.43 97.8017 110.185C97.8017 109.939 97.8895 109.729 98.0652 109.553C98.2409 109.378 98.4513 109.29 98.6966 109.29C98.9419 109.29 99.1523 109.378 99.328 109.553C99.5037 109.729 99.5915 109.939 99.5915 110.185C99.5915 110.347 99.5501 110.496 99.4672 110.632C99.3876 110.768 99.2799 110.877 99.144 110.96C99.0115 111.04 98.8623 111.08 98.6966 111.08Z" fill="#101828"/>
<rect x="82" y="132" width="102" height="36" rx="8" fill="url(#paint6_linear_6_2)" fill-opacity="0.15"/>
<rect x="82.5" y="132.5" width="101" height="35" rx="7.5" stroke="url(#paint7_linear_6_2)" stroke-opacity="0.15"/>
<path d="M126.426 148H125.193C125.12 147.645 124.993 147.334 124.81 147.065C124.631 146.797 124.413 146.571 124.154 146.389C123.899 146.204 123.616 146.064 123.304 145.972C122.992 145.879 122.668 145.832 122.33 145.832C121.713 145.832 121.155 145.988 120.654 146.3C120.157 146.611 119.761 147.07 119.466 147.677C119.174 148.283 119.028 149.027 119.028 149.909C119.028 150.791 119.174 151.535 119.466 152.141C119.761 152.748 120.157 153.207 120.654 153.518C121.155 153.83 121.713 153.986 122.33 153.986C122.668 153.986 122.992 153.939 123.304 153.847C123.616 153.754 123.899 153.616 124.154 153.434C124.413 153.248 124.631 153.021 124.81 152.753C124.993 152.481 125.12 152.17 125.193 151.818H126.426C126.333 152.339 126.164 152.804 125.919 153.215C125.674 153.626 125.369 153.976 125.004 154.264C124.64 154.549 124.23 154.766 123.776 154.915C123.326 155.065 122.843 155.139 122.33 155.139C121.461 155.139 120.689 154.927 120.013 154.503C119.337 154.079 118.805 153.475 118.417 152.693C118.029 151.911 117.835 150.983 117.835 149.909C117.835 148.835 118.029 147.907 118.417 147.125C118.805 146.343 119.337 145.74 120.013 145.315C120.689 144.891 121.461 144.679 122.33 144.679C122.843 144.679 123.326 144.754 123.776 144.903C124.23 145.052 124.64 145.271 125.004 145.559C125.369 145.844 125.674 146.192 125.919 146.603C126.164 147.011 126.333 147.476 126.426 148ZM127.839 155V147.364H129.013V155H127.839ZM128.436 146.091C128.207 146.091 128.01 146.013 127.844 145.857C127.682 145.701 127.601 145.514 127.601 145.295C127.601 145.077 127.682 144.889 127.844 144.734C128.01 144.578 128.207 144.5 128.436 144.5C128.665 144.5 128.86 144.578 129.023 144.734C129.188 144.889 129.271 145.077 129.271 145.295C129.271 145.514 129.188 145.701 129.023 145.857C128.86 146.013 128.665 146.091 128.436 146.091ZM132.989 155.179C132.505 155.179 132.066 155.088 131.671 154.906C131.277 154.72 130.964 154.453 130.732 154.105C130.5 153.754 130.384 153.33 130.384 152.832C130.384 152.395 130.47 152.04 130.642 151.768C130.815 151.493 131.045 151.278 131.333 151.122C131.622 150.966 131.94 150.85 132.288 150.774C132.639 150.695 132.992 150.632 133.347 150.585C133.811 150.526 134.187 150.481 134.475 150.451C134.767 150.418 134.979 150.363 135.112 150.287C135.248 150.211 135.316 150.078 135.316 149.889V149.849C135.316 149.359 135.181 148.978 134.913 148.706C134.648 148.434 134.245 148.298 133.705 148.298C133.145 148.298 132.705 148.421 132.387 148.666C132.069 148.911 131.845 149.173 131.716 149.452L130.602 149.054C130.801 148.59 131.066 148.229 131.398 147.97C131.733 147.708 132.097 147.526 132.492 147.423C132.889 147.317 133.281 147.264 133.665 147.264C133.91 147.264 134.192 147.294 134.51 147.354C134.832 147.41 135.142 147.528 135.44 147.707C135.741 147.886 135.992 148.156 136.191 148.517C136.389 148.878 136.489 149.362 136.489 149.969V155H135.316V153.966H135.256C135.176 154.132 135.044 154.309 134.858 154.498C134.673 154.687 134.426 154.848 134.117 154.98C133.809 155.113 133.433 155.179 132.989 155.179ZM133.168 154.125C133.632 154.125 134.023 154.034 134.341 153.852C134.663 153.669 134.905 153.434 135.067 153.146C135.233 152.857 135.316 152.554 135.316 152.236V151.162C135.266 151.222 135.156 151.276 134.987 151.326C134.822 151.372 134.629 151.414 134.411 151.45C134.195 151.483 133.985 151.513 133.779 151.54C133.577 151.563 133.413 151.583 133.287 151.599C132.982 151.639 132.697 151.704 132.432 151.793C132.17 151.879 131.958 152.01 131.796 152.186C131.637 152.358 131.557 152.594 131.557 152.892C131.557 153.3 131.708 153.608 132.009 153.817C132.314 154.022 132.7 154.125 133.168 154.125ZM141.313 155.159C140.623 155.159 140.018 154.995 139.498 154.667C138.981 154.339 138.577 153.88 138.285 153.29C137.997 152.7 137.852 152.01 137.852 151.222C137.852 150.426 137.997 149.732 138.285 149.138C138.577 148.545 138.981 148.085 139.498 147.756C140.018 147.428 140.623 147.264 141.313 147.264C142.002 147.264 142.605 147.428 143.122 147.756C143.643 148.085 144.047 148.545 144.335 149.138C144.627 149.732 144.773 150.426 144.773 151.222C144.773 152.01 144.627 152.7 144.335 153.29C144.047 153.88 143.643 154.339 143.122 154.667C142.605 154.995 142.002 155.159 141.313 155.159ZM141.313 154.105C141.836 154.105 142.267 153.971 142.605 153.702C142.943 153.434 143.194 153.081 143.356 152.643C143.518 152.206 143.6 151.732 143.6 151.222C143.6 150.711 143.518 150.236 143.356 149.795C143.194 149.354 142.943 148.998 142.605 148.726C142.267 148.454 141.836 148.318 141.313 148.318C140.789 148.318 140.358 148.454 140.02 148.726C139.682 148.998 139.432 149.354 139.269 149.795C139.107 150.236 139.026 150.711 139.026 151.222C139.026 151.732 139.107 152.206 139.269 152.643C139.432 153.081 139.682 153.434 140.02 153.702C140.358 153.971 140.789 154.105 141.313 154.105ZM147.695 144.818L147.596 152.136H146.442L146.343 144.818H147.695ZM147.019 155.08C146.774 155.08 146.563 154.992 146.387 154.816C146.212 154.64 146.124 154.43 146.124 154.185C146.124 153.939 146.212 153.729 146.387 153.553C146.563 153.378 146.774 153.29 147.019 153.29C147.264 153.29 147.475 153.378 147.65 153.553C147.826 153.729 147.914 153.939 147.914 154.185C147.914 154.347 147.872 154.496 147.789 154.632C147.71 154.768 147.602 154.877 147.466 154.96C147.334 155.04 147.185 155.08 147.019 155.08Z" fill="#101828"/>
<defs>
<linearGradient id="paint0_linear_6_2" x1="36.5006" y1="18" x2="68.5079" y2="18.9166" gradientUnits="userSpaceOnUse">
<stop stop-color="#635BFF" stop-opacity="0.2"/>
<stop offset="0.5" stop-color="#635BFF" stop-opacity="0.7"/>
<stop offset="1" stop-color="#635BFF"/>
</linearGradient>
<linearGradient id="paint1_linear_6_2" x1="0" y1="18" x2="102" y2="18" gradientUnits="userSpaceOnUse">
<stop stop-color="#3B6BFF"/>
<stop offset="1" stop-color="#2E96FF"/>
</linearGradient>
<linearGradient id="paint2_linear_6_2" x1="103.501" y1="62" x2="135.508" y2="62.9166" gradientUnits="userSpaceOnUse">
<stop stop-color="#635BFF" stop-opacity="0.2"/>
<stop offset="0.5" stop-color="#635BFF" stop-opacity="0.7"/>
<stop offset="1" stop-color="#635BFF"/>
</linearGradient>
<linearGradient id="paint3_linear_6_2" x1="67" y1="62" x2="169" y2="62" gradientUnits="userSpaceOnUse">
<stop stop-color="#3B6BFF"/>
<stop offset="1" stop-color="#2E96FF"/>
</linearGradient>
<linearGradient id="paint4_linear_6_2" x1="70.5006" y1="106" x2="102.508" y2="106.917" gradientUnits="userSpaceOnUse">
<stop stop-color="#635BFF" stop-opacity="0.2"/>
<stop offset="0.5" stop-color="#635BFF" stop-opacity="0.7"/>
<stop offset="1" stop-color="#635BFF"/>
</linearGradient>
<linearGradient id="paint5_linear_6_2" x1="34" y1="106" x2="136" y2="106" gradientUnits="userSpaceOnUse">
<stop stop-color="#3B6BFF"/>
<stop offset="1" stop-color="#2E96FF"/>
</linearGradient>
<linearGradient id="paint6_linear_6_2" x1="118.501" y1="150" x2="150.508" y2="150.917" gradientUnits="userSpaceOnUse">
<stop stop-color="#635BFF" stop-opacity="0.2"/>
<stop offset="0.5" stop-color="#635BFF" stop-opacity="0.7"/>
<stop offset="1" stop-color="#635BFF"/>
</linearGradient>
<linearGradient id="paint7_linear_6_2" x1="82" y1="150" x2="184" y2="150" gradientUnits="userSpaceOnUse">
<stop stop-color="#3B6BFF"/>
<stop offset="1" stop-color="#2E96FF"/>
</linearGradient>
</defs>
</svg>
