<svg width="314" height="254" viewBox="0 0 314 254" fill="none" xmlns="http://www.w3.org/2000/svg">
<path d="M10.1325 34.2583H29.7132M10.1325 34.2583L0.34375 17.2793L10.1325 0.300293H29.7132L39.502 17.2793M10.1325 34.2583L0.34375 51.2373L10.1325 68.2163M29.7132 34.2583L39.502 17.2793M29.7132 34.2583L39.502 51.2373M39.502 17.2793L49.2907 0.300293H68.8714L78.6602 17.2793M39.502 17.2793L49.2907 34.2583M10.1325 170.09H29.7132M10.1325 170.09L0.34375 153.111L10.1325 136.132M10.1325 170.09L0.34375 187.069L10.1325 204.048M29.7132 170.09L39.502 153.111M29.7132 170.09L39.502 187.069M39.502 153.111L29.7132 136.132M39.502 153.111L49.2907 136.132M39.502 153.111L49.2907 170.09M29.7132 136.132H10.1325M29.7132 136.132L39.502 119.153M10.1325 136.132L0.34375 119.153L10.1325 102.174M10.1325 102.174H29.7132M10.1325 102.174L0.34375 85.1953L10.1325 68.2163M29.7132 102.174L39.502 85.1953M29.7132 102.174L39.502 119.153M39.502 85.1953L29.7132 68.2163M39.502 85.1953L49.2907 68.2163M39.502 85.1953L49.2907 102.174M29.7132 68.2163H10.1325M29.7132 68.2163L39.502 51.2373M10.1325 238.006H29.7132M10.1325 238.006L0.34375 221.027L10.1325 204.048M10.1325 238.006L0.34375 254.985L10.1325 271.964M29.7132 238.006L39.502 221.027M29.7132 238.006L39.502 254.985M39.502 221.027L29.7132 204.048M39.502 221.027L49.2907 204.048M39.502 221.027L49.2907 238.006M29.7132 204.048H10.1325M29.7132 204.048L39.502 187.069M10.1325 305.922H29.7132M10.1325 305.922L0.34375 288.943L10.1325 271.964M10.1325 305.922L0.34375 322.901L10.1325 339.88H29.7132L39.502 322.901M29.7132 305.922L39.502 288.943M29.7132 305.922L39.502 322.901M39.502 288.943L29.7132 271.964M39.502 288.943L49.2907 271.964M39.502 288.943L49.2907 305.922M29.7132 271.964H10.1325M29.7132 271.964L39.502 254.985M39.502 51.2373L49.2907 34.2583M39.502 51.2373L49.2907 68.2163M39.502 187.069L49.2907 170.09M39.502 187.069L49.2907 204.048M39.502 119.153L49.2907 102.174M39.502 119.153L49.2907 136.132M39.502 254.985L49.2907 238.006M39.502 254.985L49.2907 271.964M39.502 322.901L49.2907 305.922M39.502 322.901L49.2907 339.88H68.8714L78.6602 322.901M166.765 34.2583H186.346M166.765 34.2583L156.977 17.2793M166.765 34.2583L156.977 51.2373M186.346 34.2583L196.135 17.2793M186.346 34.2583L196.135 51.2373M196.135 17.2793L186.346 0.300293H166.765L156.977 17.2793M196.135 17.2793L205.923 0.300293H225.504L235.293 17.2793M196.135 17.2793L205.923 34.2583M156.977 17.2793L147.188 34.2583M156.977 17.2793L147.188 0.300293H127.607L117.818 17.2793M166.765 170.09H186.346M166.765 170.09L156.977 153.111M166.765 170.09L156.977 187.069M186.346 170.09L196.135 153.111M186.346 170.09L196.135 187.069M196.135 153.111L186.346 136.132M196.135 153.111L205.923 136.132M196.135 153.111L205.923 170.09M186.346 136.132H166.765M186.346 136.132L196.135 119.153M166.765 136.132L156.977 153.111M166.765 136.132L156.977 119.153M156.977 153.111L147.188 170.09M156.977 153.111L147.188 136.132M166.765 102.174H186.346M166.765 102.174L156.977 85.1953M166.765 102.174L156.977 119.153M186.346 102.174L196.135 85.1953M186.346 102.174L196.135 119.153M196.135 85.1953L186.346 68.2163M196.135 85.1953L205.923 68.2163M196.135 85.1953L205.923 102.174M186.346 68.2163H166.765M186.346 68.2163L196.135 51.2373M166.765 68.2163L156.977 85.1953M166.765 68.2163L156.977 51.2373M156.977 85.1953L147.188 102.174M156.977 85.1953L147.188 68.2163M166.765 238.006H186.346M166.765 238.006L156.977 221.027M166.765 238.006L156.977 254.985M186.346 238.006L196.135 221.027M186.346 238.006L196.135 254.985M196.135 221.027L186.346 204.048M196.135 221.027L205.923 204.048M196.135 221.027L205.923 238.006M186.346 204.048H166.765M186.346 204.048L196.135 187.069M166.765 204.048L156.977 221.027M166.765 204.048L156.977 187.069M156.977 221.027L147.188 238.006M156.977 221.027L147.188 204.048M166.765 305.922H186.346M166.765 305.922L156.977 288.943M166.765 305.922L156.977 322.901M186.346 305.922L196.135 288.943M186.346 305.922L196.135 322.901M196.135 288.943L186.346 271.964M196.135 288.943L205.923 271.964M196.135 288.943L205.923 305.922M186.346 271.964H166.765M186.346 271.964L196.135 254.985M166.765 271.964L156.977 288.943M166.765 271.964L156.977 254.985M156.977 288.943L147.188 305.922M156.977 288.943L147.188 271.964M196.135 51.2373L205.923 34.2583M196.135 51.2373L205.923 68.2163M156.977 51.2373L147.188 68.2163M156.977 51.2373L147.188 34.2583M196.135 187.069L205.923 170.09M196.135 187.069L205.923 204.048M156.977 187.069L147.188 204.048M156.977 187.069L147.188 170.09M196.135 119.153L205.923 102.174M196.135 119.153L205.923 136.132M156.977 119.153L147.188 136.132M156.977 119.153L147.188 102.174M196.135 254.985L205.923 238.006M196.135 254.985L205.923 271.964M156.977 254.985L147.188 271.964M156.977 254.985L147.188 238.006M196.135 322.901L186.346 339.88H166.765L156.977 322.901M196.135 322.901L205.923 305.922M196.135 322.901L205.923 339.88H225.504L235.293 322.901M156.977 322.901L147.188 339.88H127.607L117.818 322.901M156.977 322.901L147.188 305.922M88.4489 34.2583H108.03M88.4489 34.2583L78.6602 17.2793M88.4489 34.2583L78.6602 51.2373M108.03 34.2583L117.818 17.2793M108.03 34.2583L117.818 51.2373M117.818 17.2793L108.03 0.300293H88.4489L78.6602 17.2793M117.818 17.2793L127.607 34.2583M78.6602 17.2793L68.8714 34.2583M88.4489 170.09H108.03M88.4489 170.09L78.6602 153.111M88.4489 170.09L78.6602 187.069M108.03 170.09L117.818 153.111M108.03 170.09L117.818 187.069M117.818 153.111L108.03 136.132M117.818 153.111L127.607 136.132M117.818 153.111L127.607 170.09M108.03 136.132H88.4489M108.03 136.132L117.818 119.153M88.4489 136.132L78.6602 153.111M88.4489 136.132L78.6602 119.153M78.6602 153.111L68.8714 170.09M78.6602 153.111L68.8714 136.132M88.4489 102.174H108.03M88.4489 102.174L78.6602 85.1953M88.4489 102.174L78.6602 119.153M108.03 102.174L117.818 85.1953M108.03 102.174L117.818 119.153M117.818 85.1953L108.03 68.2163M117.818 85.1953L127.607 68.2163M117.818 85.1953L127.607 102.174M108.03 68.2163H88.4489M108.03 68.2163L117.818 51.2373M88.4489 68.2163L78.6602 85.1953M88.4489 68.2163L78.6602 51.2373M78.6602 85.1953L68.8714 102.174M78.6602 85.1953L68.8714 68.2163M88.4489 238.006H108.03M88.4489 238.006L78.6602 221.027M88.4489 238.006L78.6602 254.985M108.03 238.006L117.818 221.027M108.03 238.006L117.818 254.985M117.818 221.027L108.03 204.048M117.818 221.027L127.607 204.048M117.818 221.027L127.607 238.006M108.03 204.048H88.4489M108.03 204.048L117.818 187.069M88.4489 204.048L78.6602 221.027M88.4489 204.048L78.6602 187.069M78.6602 221.027L68.8714 238.006M78.6602 221.027L68.8714 204.048M88.4489 305.922H108.03M88.4489 305.922L78.6602 288.943M88.4489 305.922L78.6602 322.901M108.03 305.922L117.818 288.943M108.03 305.922L117.818 322.901M117.818 288.943L108.03 271.964M117.818 288.943L127.607 271.964M117.818 288.943L127.607 305.922M108.03 271.964H88.4489M108.03 271.964L117.818 254.985M88.4489 271.964L78.6602 288.943M88.4489 271.964L78.6602 254.985M78.6602 288.943L68.8714 305.922M78.6602 288.943L68.8714 271.964M117.818 51.2373L127.607 34.2583M117.818 51.2373L127.607 68.2163M78.6602 51.2373L68.8714 68.2163M78.6602 51.2373L68.8714 34.2583M117.818 187.069L127.607 170.09M117.818 187.069L127.607 204.048M78.6602 187.069L68.8714 204.048M78.6602 187.069L68.8714 170.09M117.818 119.153L127.607 102.174M117.818 119.153L127.607 136.132M78.6602 119.153L68.8714 136.132M78.6602 119.153L68.8714 102.174M117.818 254.985L127.607 238.006M117.818 254.985L127.607 271.964M78.6602 254.985L68.8714 271.964M78.6602 254.985L68.8714 238.006M117.818 322.901L108.03 339.88H88.4489L78.6602 322.901M117.818 322.901L127.607 305.922M78.6602 322.901L68.8714 305.922M245.082 34.2583H264.662M245.082 34.2583L235.293 17.2793M245.082 34.2583L235.293 51.2373M264.662 34.2583L274.451 17.2793M264.662 34.2583L274.451 51.2373M274.451 17.2793L264.662 0.300293H245.082L235.293 17.2793M274.451 17.2793L284.24 0.300293H303.821L313.609 17.2793L303.821 34.2583M274.451 17.2793L284.24 34.2583M235.293 17.2793L225.504 34.2583M245.082 170.09H264.662M245.082 170.09L235.293 153.111M245.082 170.09L235.293 187.069M264.662 170.09L274.451 153.111M264.662 170.09L274.451 187.069M274.451 153.111L264.662 136.132M274.451 153.111L284.24 136.132M274.451 153.111L284.24 170.09M264.662 136.132H245.082M264.662 136.132L274.451 119.153M245.082 136.132L235.293 153.111M245.082 136.132L235.293 119.153M235.293 153.111L225.504 170.09M235.293 153.111L225.504 136.132M245.082 102.174H264.662M245.082 102.174L235.293 85.1953M245.082 102.174L235.293 119.153M264.662 102.174L274.451 85.1953M264.662 102.174L274.451 119.153M274.451 85.1953L264.662 68.2163M274.451 85.1953L284.24 68.2163M274.451 85.1953L284.24 102.174M264.662 68.2163H245.082M264.662 68.2163L274.451 51.2373M245.082 68.2163L235.293 85.1953M245.082 68.2163L235.293 51.2373M235.293 85.1953L225.504 102.174M235.293 85.1953L225.504 68.2163M245.082 238.006H264.662M245.082 238.006L235.293 221.027M245.082 238.006L235.293 254.985M264.662 238.006L274.451 221.027M264.662 238.006L274.451 254.985M274.451 221.027L264.662 204.048M274.451 221.027L284.24 204.048M274.451 221.027L284.24 238.006M264.662 204.048H245.082M264.662 204.048L274.451 187.069M245.082 204.048L235.293 221.027M245.082 204.048L235.293 187.069M235.293 221.027L225.504 238.006M235.293 221.027L225.504 204.048M245.082 305.922H264.662M245.082 305.922L235.293 288.943M245.082 305.922L235.293 322.901M264.662 305.922L274.451 288.943M264.662 305.922L274.451 322.901M274.451 288.943L264.662 271.964M274.451 288.943L284.24 271.964M274.451 288.943L284.24 305.922M264.662 271.964H245.082M264.662 271.964L274.451 254.985M245.082 271.964L235.293 288.943M245.082 271.964L235.293 254.985M235.293 288.943L225.504 305.922M235.293 288.943L225.504 271.964M274.451 51.2373L284.24 34.2583M274.451 51.2373L284.24 68.2163M235.293 51.2373L225.504 68.2163M235.293 51.2373L225.504 34.2583M274.451 187.069L284.24 170.09M274.451 187.069L284.24 204.048M235.293 187.069L225.504 204.048M235.293 187.069L225.504 170.09M274.451 119.153L284.24 102.174M274.451 119.153L284.24 136.132M235.293 119.153L225.504 136.132M235.293 119.153L225.504 102.174M274.451 254.985L284.24 238.006M274.451 254.985L284.24 271.964M235.293 254.985L225.504 271.964M235.293 254.985L225.504 238.006M274.451 322.901L264.662 339.88H245.082L235.293 322.901M274.451 322.901L284.24 305.922M274.451 322.901L284.24 339.88H303.821L313.609 322.901L303.821 305.922M235.293 322.901L225.504 305.922M49.2907 34.2583H68.8714M49.2907 170.09H68.8714M68.8714 136.132H49.2907M49.2907 102.174H68.8714M68.8714 68.2163H49.2907M49.2907 238.006H68.8714M68.8714 204.048H49.2907M49.2907 305.922H68.8714M68.8714 271.964H49.2907M205.923 34.2583H225.504M205.923 170.09H225.504M225.504 136.132H205.923M205.923 102.174H225.504M225.504 68.2163H205.923M205.923 238.006H225.504M225.504 204.048H205.923M205.923 305.922H225.504M225.504 271.964H205.923M127.607 34.2583H147.188M127.607 170.09H147.188M147.188 136.132H127.607M127.607 102.174H147.188M147.188 68.2163H127.607M127.607 238.006H147.188M147.188 204.048H127.607M127.607 305.922H147.188M147.188 271.964H127.607M284.24 34.2583H303.821M303.821 34.2583L313.609 51.2373L303.821 68.2163M284.24 170.09H303.821M303.821 170.09L313.609 153.111L303.821 136.132M303.821 170.09L313.609 187.069L303.821 204.048M303.821 136.132H284.24M303.821 136.132L313.609 119.153L303.821 102.174M284.24 102.174H303.821M303.821 102.174L313.609 85.1953L303.821 68.2163M303.821 68.2163H284.24M284.24 238.006H303.821M303.821 238.006L313.609 221.027L303.821 204.048M303.821 238.006L313.609 254.985L303.821 271.964M303.821 204.048H284.24M284.24 305.922H303.821M303.821 305.922L313.609 288.943L303.821 271.964M303.821 271.964H284.24" stroke="url(#paint0_linear_8467_1151)" stroke-opacity="0.8" stroke-width="0.600671" stroke-miterlimit="10"/>
<defs>
<linearGradient id="paint0_linear_8467_1151" x1="269.827" y1="46.9019" x2="-22.1562" y2="212.468" gradientUnits="userSpaceOnUse">
<stop stop-color="white"/>
<stop offset="1" stop-color="white" stop-opacity="0"/>
</linearGradient>
</defs>
</svg>
