<svg width="290" height="104" viewBox="0 0 290 104" fill="none" xmlns="http://www.w3.org/2000/svg">
<path d="M197 52H232" stroke="black" stroke-opacity="0.2"/>
<circle cx="145" cy="52" r="52" fill="url(#paint0_linear_9_52)" fill-opacity="0.06"/>
<circle cx="145" cy="52" r="40" fill="url(#paint1_linear_9_52)" fill-opacity="0.1"/>
<path d="M145.221 24.875C145.577 24.8758 145.928 24.9591 146.246 25.1191V25.1201L169.501 36.7861C169.847 36.9598 170.144 37.2188 170.363 37.5381C170.555 37.8177 170.682 38.1361 170.736 38.4697L170.755 38.6133C170.862 39.7223 173.142 66.5216 146.348 81.6621C146.01 81.8535 145.628 81.9564 145.239 81.96C144.851 81.9635 144.467 81.8676 144.126 81.6826C130.17 74.0932 124.025 63.3688 121.363 54.5117C120.031 50.0774 119.57 46.1069 119.445 43.2305C119.383 41.7928 119.404 40.6297 119.442 39.8203C119.461 39.4157 119.485 39.0994 119.504 38.8818C119.513 38.7732 119.521 38.6889 119.527 38.6309C119.534 38.5711 119.537 38.542 119.537 38.542L119.538 38.5381C119.634 37.7845 120.102 37.1245 120.785 36.7793L144.195 25.1152L144.194 25.1143C144.513 24.9557 144.865 24.8742 145.221 24.875Z" fill="white" stroke="#98B1FF" stroke-width="1.25"/>
<rect x="133" y="41" width="24" height="24" rx="12" fill="#635BFF"/>
<path fill-rule="evenodd" clip-rule="evenodd" d="M143.866 49.7648C143.866 49.079 144.429 48.8153 145.36 48.8153C146.697 48.8153 148.385 49.2197 149.721 49.9407V45.8087C148.262 45.2286 146.82 45 145.36 45C141.791 45 139.418 46.8637 139.418 49.9758C139.418 54.8286 146.099 54.0549 146.099 56.1472C146.099 56.9561 145.396 57.2198 144.411 57.2198C142.952 57.2198 141.088 56.6219 139.611 55.8132V59.9978C141.246 60.7011 142.899 61 144.411 61C148.068 61 150.582 59.1889 150.582 56.0418C150.565 50.8022 143.866 51.7341 143.866 49.7648Z" fill="white"/>
<path d="M58 52H93" stroke="black" stroke-opacity="0.2"/>
<rect x="232" y="23" width="58" height="58" rx="29" fill="white"/>
<rect x="232.5" y="23.5" width="57" height="57" rx="28.5" stroke="url(#paint2_linear_9_52)" stroke-opacity="0.15"/>
<path d="M276.99 63.8879C276.982 64.0153 276.971 64.1409 276.954 64.2641C276.945 64.3276 276.935 64.3906 276.924 64.4531C276.919 64.4784 276.914 64.5066 276.907 64.5376C276.905 64.5495 276.903 64.5613 276.901 64.5729C276.899 64.5853 276.896 64.5982 276.893 64.611C276.893 64.6116 276.893 64.6122 276.893 64.6126C276.891 64.6206 276.889 64.6289 276.887 64.6369C276.88 64.6728 276.87 64.7106 276.86 64.7503C276.858 64.7605 276.855 64.7711 276.853 64.7817C276.847 64.8028 276.841 64.8242 276.835 64.8463C276.82 64.9024 276.803 64.9581 276.784 65.0132C276.78 65.0247 276.776 65.0362 276.772 65.0481V65.0487L276.76 65.0849C276.738 65.1486 276.714 65.2114 276.687 65.2732C276.671 65.3123 276.653 65.352 276.635 65.392C276.622 65.4189 276.61 65.4461 276.596 65.4737C276.571 65.5256 276.545 65.5771 276.516 65.6261C276.503 65.6511 276.489 65.677 276.474 65.7023C276.408 65.8141 276.338 65.923 276.261 66.0277C276.183 66.1324 276.1 66.2342 276.012 66.3329C276.006 66.3409 275.998 66.3463 275.993 66.353C275.972 66.3771 275.95 66.4011 275.927 66.4251C275.91 66.4434 275.892 66.461 275.875 66.4783C275.858 66.4956 275.841 66.5122 275.824 66.5285C275.789 66.5638 275.752 66.5993 275.715 66.6336L275.711 66.6374C275.667 66.6784 275.62 66.7168 275.572 66.7501C275.571 66.7511 275.571 66.7517 275.57 66.7524H275.569C275.519 66.7886 275.466 66.8206 275.411 66.8469C275.411 66.8497 275.408 66.8497 275.408 66.8497C275.404 66.8517 275.399 66.8552 275.395 66.8571C275.354 66.8805 275.312 66.9003 275.267 66.9179H275.265C275.148 66.9625 275.025 66.9942 274.898 67.0102L265.953 68.1774C265.761 68.2018 265.563 68.1922 265.375 68.139C265.276 68.1108 265.176 68.0804 265.078 68.0484C264.948 68.0068 264.82 67.9632 264.695 67.918C264.539 67.8642 264.379 67.8037 264.217 67.7419C263.569 67.4947 262.847 67.1328 262.847 67.1328C262.684 67.0512 262.508 66.9602 262.321 66.8597C261.855 66.6073 261.803 65.9572 262.222 65.6322L265.799 62.8577C266.068 62.6495 266.444 62.6527 266.709 62.8654C267.252 63.3015 267.795 63.7377 268.338 64.1738V64.162C268.338 64.0835 268.336 64.0041 268.334 63.9234C268.333 63.8696 268.331 63.8152 268.328 63.7604C268.316 63.5135 268.295 63.2567 268.264 62.9896C268.258 62.9304 268.25 62.8705 268.243 62.8103C268.236 62.7523 268.228 62.6937 268.22 62.6357C268.216 62.6162 268.213 62.597 268.21 62.5775C268.204 62.5336 268.198 62.4891 268.191 62.4449C268.178 62.3559 268.164 62.2659 268.148 62.1752C268.11 61.9485 268.065 61.7151 268.014 61.4759C267.858 60.7182 267.64 59.9006 267.363 59.0286C265.463 53.4911 263.563 47.9529 261.662 42.4154C259.681 46.8916 256.134 54.8969 255.448 56.3927C253.968 59.6105 253.331 62.3017 253.592 64.13C253.625 64.3737 253.675 64.6007 253.745 64.8127C253.75 64.8332 253.755 64.8559 253.764 64.8764L253.765 64.8755C253.842 65.1256 254.092 65.8266 254.801 66.3521C255.357 66.7658 255.921 66.8673 256.188 66.8968C256.209 66.8942 256.23 66.8923 256.251 66.8898C256.23 66.8926 256.209 66.8949 256.188 66.8981C253.518 67.2395 250.848 67.5802 248.18 67.9216C247.882 67.9597 247.579 67.9597 247.285 67.9001C247.009 67.8431 246.752 67.7496 246.518 67.618C245.843 67.2372 245.385 66.5574 245.159 65.6002C245.128 65.4778 245.103 65.3488 245.083 65.2159C245.077 65.173 245.068 65.1297 245.065 65.0846C244.781 63.0396 245.428 60.0767 246.948 56.4677C247.905 54.194 254.451 38.0518 254.517 37.8901C254.864 37.0489 255.474 36.3997 256.237 36.0638C256.768 35.8294 257.254 35.8067 257.579 35.8102C259.938 35.8387 266.026 37.2695 266.46 37.3733C266.83 37.4969 267.317 37.7188 267.774 38.1255C268.278 38.5802 268.534 39.0638 268.64 39.2969C269.191 40.4981 270.622 44.2135 272.441 49.2905C272.469 49.3712 272.498 49.4507 272.527 49.533C272.539 49.5618 272.547 49.5861 272.554 49.6069C272.618 49.7799 272.625 49.7779 273.435 51.8957C274.844 55.5787 275.554 57.4322 275.727 57.9856C275.774 58.1416 275.822 58.2937 275.871 58.4455C276.294 59.8023 276.658 61.0054 276.851 62.0827C276.925 62.484 276.972 62.8682 276.991 63.233V63.2336C276.995 63.3086 276.998 63.3825 276.999 63.4562C277.002 63.6032 276.999 63.7473 276.991 63.8882L276.99 63.8879Z" fill="url(#paint3_linear_9_52)"/>
<path opacity="0.83" d="M261.759 42.183C262.3 41.0077 262.61 40.3038 262.744 39.9589C262.777 39.8744 262.897 39.557 263.113 39.175C263.16 39.0924 263.208 39.0129 263.256 38.9371C263.375 38.7609 263.569 38.5147 263.861 38.2822C264.489 37.7829 265.156 37.6772 265.451 37.65C265.681 37.6289 266.033 37.6231 266.453 37.725C266.713 37.789 267.144 37.9325 267.571 38.2732C267.848 38.4945 268.038 38.7299 268.161 38.9124C268.098 38.9985 268.032 39.0837 267.964 39.1679C267.126 40.2013 265.393 41.7167 261.759 42.1833V42.183Z" fill="url(#paint4_linear_9_52)" style="mix-blend-mode:multiply"/>
<path d="M276.92 64.4534C276.884 64.657 276.805 65.0365 276.593 65.473C276.298 66.0789 275.886 66.4926 275.565 66.752C274.732 66.8049 273.27 66.7901 271.6 66.1746C270.017 65.5912 268.934 64.7217 268.334 64.161C268.332 63.7428 268.3 63.2915 268.238 62.8089C268.229 62.7311 268.219 62.6536 268.206 62.5758C268.156 62.2239 268.092 61.8575 268.009 61.4745C268.876 62.0666 270.492 63.0059 272.731 63.3597C274.535 63.646 276.039 63.4388 276.987 63.2329C277.009 63.6637 276.989 64.0691 276.92 64.4534Z" fill="url(#paint5_linear_9_52)" style="mix-blend-mode:multiply"/>
<path d="M271.073 51.0764C270.842 51.7217 270.552 52.4576 270.381 52.8537C270.074 53.5662 270.094 53.5928 269.826 54.232C269.376 55.3054 268.554 57.2637 267.361 59.0266V59.0275C267.361 59.0275 267.361 59.0275 267.361 59.0275C267.358 59.0314 267.355 59.0356 267.352 59.0391C266.756 59.855 266.042 60.7097 265.19 61.5609C264.507 62.2389 263.808 62.8432 263.109 63.3802C263.035 63.4362 262.962 63.4904 262.893 63.5429C262.869 63.5618 262.843 63.5807 262.818 63.5986C262.765 63.6377 262.712 63.6764 262.659 63.7155C262.522 63.8164 262.384 63.9137 262.247 64.0088C262.186 64.0514 262.125 64.093 262.063 64.135C261.263 64.6752 260.473 65.1316 259.713 65.52C259.712 65.52 259.711 65.5207 259.709 65.5219C259.146 65.8102 258.6 66.0612 258.081 66.2771C257.636 66.4625 257.21 66.6236 256.812 66.7641C256.652 66.8205 256.486 66.8589 256.318 66.8804C256.284 66.8849 256.251 66.8887 256.218 66.8926H256.159C255.882 66.8596 255.336 66.7513 254.798 66.351C254.09 65.8255 253.84 65.1242 253.762 64.8744C253.848 64.8017 253.934 64.7287 254.019 64.6531C254.062 64.615 254.106 64.5779 254.148 64.5398C254.235 64.4642 254.322 64.3873 254.409 64.307C254.496 64.2275 254.584 64.1475 254.672 64.0652C254.762 63.9822 254.853 63.8971 254.944 63.8093C255.083 63.6777 255.218 63.5467 255.349 63.4157C255.432 63.3334 255.514 63.2521 255.592 63.1708C255.592 63.1708 255.726 63.035 255.857 62.8989C259.102 59.5335 260.837 56.3248 260.837 56.3248C261.625 54.8674 262.642 52.6193 263.264 49.6309C263.331 49.3061 263.618 49.0743 263.95 49.0791C266.22 49.1111 268.49 49.1431 270.76 49.1752C271.223 49.1816 271.548 49.6334 271.409 50.075C271.287 50.4599 271.173 50.7955 271.072 51.0764H271.073Z" fill="url(#paint6_linear_9_52)"/>
<g style="mix-blend-mode:multiply">
<path d="M271.069 51.0768C270.839 51.7221 270.549 52.458 270.378 52.8541C270.071 53.5666 270.091 53.5932 269.823 54.2324C269.373 55.3058 268.551 57.2641 267.358 59.027V59.0279C267.358 59.0279 267.358 59.0279 267.358 59.0279C267.355 59.0318 267.352 59.0359 267.349 59.0395C266.753 59.8554 266.039 60.7101 265.186 61.5613C264.504 62.2393 263.805 62.8436 263.106 63.3806C263.032 63.4366 262.959 63.4908 262.89 63.5433C262.865 63.5622 262.84 63.5811 262.815 63.599C262.762 63.6381 262.709 63.6768 262.656 63.7159C262.519 63.8168 262.381 63.9141 262.244 64.0092C262.183 64.0518 262.121 64.0934 262.06 64.1354C261.26 64.6756 260.47 65.132 259.71 65.5204C259.709 65.5204 259.708 65.5211 259.706 65.5223C259.143 65.8105 258.597 66.0616 258.078 66.2775C257.633 66.4629 257.207 66.6239 256.809 66.7645C256.649 66.8209 256.483 66.8593 256.315 66.8808C256.281 66.8853 256.248 66.8891 256.215 66.8929H256.156C255.879 66.86 255.333 66.7517 254.795 66.3514C254.087 65.8259 253.836 65.1246 253.759 64.8748C253.844 64.8021 253.931 64.7291 254.016 64.6535C254.059 64.6154 254.102 64.5783 254.145 64.5402C254.232 64.4646 254.318 64.3877 254.406 64.3074C254.493 64.2279 254.581 64.1479 254.669 64.0656C254.759 63.9826 254.85 63.8975 254.941 63.8097C255.079 63.6781 255.214 63.5471 255.346 63.4161C255.429 63.3338 255.511 63.2525 255.589 63.1712C255.589 63.1712 255.723 63.0354 255.854 62.8993C259.099 59.5339 260.834 56.3251 260.834 56.3251C261.622 54.8678 262.639 52.6197 263.261 49.6312C263.328 49.3065 263.615 49.0747 263.947 49.0795C266.217 49.1115 268.487 49.1435 270.757 49.1756C271.22 49.182 271.545 49.6338 271.406 50.0754C271.284 50.4603 271.17 50.7959 271.069 51.0768H271.069Z" fill="url(#paint7_linear_9_52)"/>
</g>
<rect y="23" width="58" height="58" rx="29" fill="white"/>
<rect x="0.5" y="23.5" width="57" height="57" rx="28.5" stroke="url(#paint8_linear_9_52)" stroke-opacity="0.15"/>
<path fill-rule="evenodd" clip-rule="evenodd" d="M15.6641 45.3335C15.6641 44.2726 16.0855 43.2552 16.8356 42.5051C17.5858 41.7549 18.6032 41.3335 19.6641 41.3335H38.3307C39.3916 41.3335 40.409 41.7549 41.1592 42.5051C41.9093 43.2552 42.3307 44.2726 42.3307 45.3335V46.6668H15.6641V45.3335ZM15.6641 49.3335V58.6668C15.6641 59.7277 16.0855 60.7451 16.8356 61.4953C17.5858 62.2454 18.6032 62.6668 19.6641 62.6668H38.3307C39.3916 62.6668 40.409 62.2454 41.1592 61.4953C41.9093 60.7451 42.3307 59.7277 42.3307 58.6668V49.3335H15.6641ZM22.3307 52.0002C21.9771 52.0002 21.638 52.1406 21.3879 52.3907C21.1379 52.6407 20.9974 52.9799 20.9974 53.3335C20.9974 53.6871 21.1379 54.0263 21.3879 54.2763C21.638 54.5264 21.9771 54.6668 22.3307 54.6668H28.9974C29.351 54.6668 29.6902 54.5264 29.9402 54.2763C30.1903 54.0263 30.3307 53.6871 30.3307 53.3335C30.3307 52.9799 30.1903 52.6407 29.9402 52.3907C29.6902 52.1406 29.351 52.0002 28.9974 52.0002H22.3307Z" fill="#7E7E7E"/>
<defs>
<linearGradient id="paint0_linear_9_52" x1="93" y1="52" x2="197" y2="52" gradientUnits="userSpaceOnUse">
<stop stop-color="#3B6BFF"/>
<stop offset="1" stop-color="#2E96FF"/>
</linearGradient>
<linearGradient id="paint1_linear_9_52" x1="105" y1="52" x2="185" y2="52" gradientUnits="userSpaceOnUse">
<stop stop-color="#3B6BFF"/>
<stop offset="1" stop-color="#2E96FF"/>
</linearGradient>
<linearGradient id="paint2_linear_9_52" x1="232" y1="52" x2="290" y2="52" gradientUnits="userSpaceOnUse">
<stop stop-color="#3B6BFF"/>
<stop offset="1" stop-color="#2E96FF"/>
</linearGradient>
<linearGradient id="paint3_linear_9_52" x1="245.239" y1="51.7325" x2="277.22" y2="52.3573" gradientUnits="userSpaceOnUse">
<stop stop-color="#249AE9"/>
<stop offset="0.06" stop-color="#2EA4EA"/>
<stop offset="0.23" stop-color="#44BAEE"/>
<stop offset="0.39" stop-color="#51C7F1"/>
<stop offset="0.54" stop-color="#56CCF2"/>
<stop offset="1" stop-color="#2F80ED"/>
</linearGradient>
<linearGradient id="paint4_linear_9_52" x1="264.001" y1="38.6811" x2="265.589" y2="41.7643" gradientUnits="userSpaceOnUse">
<stop stop-color="#021C42"/>
<stop offset="0.54" stop-color="#56CCF2" stop-opacity="0"/>
</linearGradient>
<linearGradient id="paint5_linear_9_52" x1="272.449" y1="63.3616" x2="272.214" y2="66.592" gradientUnits="userSpaceOnUse">
<stop stop-color="#56CCF2" stop-opacity="0"/>
<stop offset="1" stop-color="#021C42"/>
</linearGradient>
<linearGradient id="paint6_linear_9_52" x1="253.901" y1="57.8466" x2="271.28" y2="58.1861" gradientUnits="userSpaceOnUse">
<stop stop-color="#2F80ED"/>
<stop offset="1" stop-color="#30B9EC"/>
</linearGradient>
<linearGradient id="paint7_linear_9_52" x1="268.348" y1="50.0621" x2="256.335" y2="66.7086" gradientUnits="userSpaceOnUse">
<stop stop-color="#56CCF2" stop-opacity="0"/>
<stop offset="0.1" stop-color="#43A6D5" stop-opacity="0.21"/>
<stop offset="0.25" stop-color="#2C74AF" stop-opacity="0.5"/>
<stop offset="0.42" stop-color="#194D92" stop-opacity="0.72"/>
<stop offset="0.59" stop-color="#0C317D" stop-opacity="0.88"/>
<stop offset="0.77" stop-color="#042170" stop-opacity="0.97"/>
<stop offset="1" stop-color="#021C6D"/>
</linearGradient>
<linearGradient id="paint8_linear_9_52" x1="0" y1="52" x2="58" y2="52" gradientUnits="userSpaceOnUse">
<stop stop-color="#3B6BFF"/>
<stop offset="1" stop-color="#2E96FF"/>
</linearGradient>
</defs>
</svg>
