<svg width="343" height="182" viewBox="0 0 343 182" fill="none" xmlns="http://www.w3.org/2000/svg">
<path d="M11.2647 -66.9H32.6415M11.2647 -66.9L0.578125 -85.45L11.2647 -104H32.6415L43.3281 -85.45M11.2647 -66.9L0.578125 -48.35L11.2647 -29.8M32.6415 -66.9L43.3281 -85.45M32.6415 -66.9L43.3281 -48.35M43.3281 -85.45L54.0147 -104H75.3915L86.0781 -85.45M43.3281 -85.45L54.0147 -66.9M11.2647 81.5H32.6415M11.2647 81.5L0.578125 62.95L11.2647 44.4M11.2647 81.5L0.578125 100.05L11.2647 118.6M32.6415 81.5L43.3281 62.95M32.6415 81.5L43.3281 100.05M43.3281 62.95L32.6415 44.4M43.3281 62.95L54.0147 44.4M43.3281 62.95L54.0147 81.5M32.6415 44.4H11.2647M32.6415 44.4L43.3281 25.85M11.2647 44.4L0.578125 25.85L11.2647 7.30001M11.2647 7.30001H32.6415M11.2647 7.30001L0.578125 -11.25L11.2647 -29.8M32.6415 7.30001L43.3281 -11.25M32.6415 7.30001L43.3281 25.85M43.3281 -11.25L32.6415 -29.8M43.3281 -11.25L54.0147 -29.8M43.3281 -11.25L54.0147 7.30001M32.6415 -29.8H11.2647M32.6415 -29.8L43.3281 -48.35M11.2647 155.7H32.6415M11.2647 155.7L0.578125 137.15L11.2647 118.6M11.2647 155.7L0.578125 174.25L11.2647 192.8M32.6415 155.7L43.3281 137.15M32.6415 155.7L43.3281 174.25M43.3281 137.15L32.6415 118.6M43.3281 137.15L54.0147 118.6M43.3281 137.15L54.0147 155.7M32.6415 118.6H11.2647M32.6415 118.6L43.3281 100.05M11.2647 229.9H32.6415M11.2647 229.9L0.578125 211.35L11.2647 192.8M11.2647 229.9L0.578125 248.45L11.2647 267H32.6415L43.3281 248.45M32.6415 229.9L43.3281 211.35M32.6415 229.9L43.3281 248.45M43.3281 211.35L32.6415 192.8M43.3281 211.35L54.0147 192.8M43.3281 211.35L54.0147 229.9M32.6415 192.8H11.2647M32.6415 192.8L43.3281 174.25M43.3281 -48.35L54.0147 -66.9M43.3281 -48.35L54.0147 -29.8M43.3281 100.05L54.0147 81.5M43.3281 100.05L54.0147 118.6M43.3281 25.85L54.0147 7.30001M43.3281 25.85L54.0147 44.4M43.3281 174.25L54.0147 155.7M43.3281 174.25L54.0147 192.8M43.3281 248.45L54.0147 229.9M43.3281 248.45L54.0147 267H75.3915L86.0781 248.45M182.265 -66.9H203.642M182.265 -66.9L171.578 -85.45M182.265 -66.9L171.578 -48.35M203.642 -66.9L214.328 -85.45M203.642 -66.9L214.328 -48.35M214.328 -85.45L203.642 -104H182.265L171.578 -85.45M214.328 -85.45L225.015 -104H246.392L257.078 -85.45M214.328 -85.45L225.015 -66.9M171.578 -85.45L160.892 -66.9M171.578 -85.45L160.892 -104H139.515L128.828 -85.45M182.265 81.5H203.642M182.265 81.5L171.578 62.95M182.265 81.5L171.578 100.05M203.642 81.5L214.328 62.95M203.642 81.5L214.328 100.05M214.328 62.95L203.642 44.4M214.328 62.95L225.015 44.4M214.328 62.95L225.015 81.5M203.642 44.4H182.265M203.642 44.4L214.328 25.85M182.265 44.4L171.578 62.95M182.265 44.4L171.578 25.85M171.578 62.95L160.892 81.5M171.578 62.95L160.892 44.4M182.265 7.30001H203.642M182.265 7.30001L171.578 -11.25M182.265 7.30001L171.578 25.85M203.642 7.30001L214.328 -11.25M203.642 7.30001L214.328 25.85M214.328 -11.25L203.642 -29.8M214.328 -11.25L225.015 -29.8M214.328 -11.25L225.015 7.30001M203.642 -29.8H182.265M203.642 -29.8L214.328 -48.35M182.265 -29.8L171.578 -11.25M182.265 -29.8L171.578 -48.35M171.578 -11.25L160.892 7.30001M171.578 -11.25L160.892 -29.8M182.265 155.7H203.642M182.265 155.7L171.578 137.15M182.265 155.7L171.578 174.25M203.642 155.7L214.328 137.15M203.642 155.7L214.328 174.25M214.328 137.15L203.642 118.6M214.328 137.15L225.015 118.6M214.328 137.15L225.015 155.7M203.642 118.6H182.265M203.642 118.6L214.328 100.05M182.265 118.6L171.578 137.15M182.265 118.6L171.578 100.05M171.578 137.15L160.892 155.7M171.578 137.15L160.892 118.6M182.265 229.9H203.642M182.265 229.9L171.578 211.35M182.265 229.9L171.578 248.45M203.642 229.9L214.328 211.35M203.642 229.9L214.328 248.45M214.328 211.35L203.642 192.8M214.328 211.35L225.015 192.8M214.328 211.35L225.015 229.9M203.642 192.8H182.265M203.642 192.8L214.328 174.25M182.265 192.8L171.578 211.35M182.265 192.8L171.578 174.25M171.578 211.35L160.892 229.9M171.578 211.35L160.892 192.8M214.328 -48.35L225.015 -66.9M214.328 -48.35L225.015 -29.8M171.578 -48.35L160.892 -29.8M171.578 -48.35L160.892 -66.9M214.328 100.05L225.015 81.5M214.328 100.05L225.015 118.6M171.578 100.05L160.892 118.6M171.578 100.05L160.892 81.5M214.328 25.85L225.015 7.30001M214.328 25.85L225.015 44.4M171.578 25.85L160.892 44.4M171.578 25.85L160.892 7.30001M214.328 174.25L225.015 155.7M214.328 174.25L225.015 192.8M171.578 174.25L160.892 192.8M171.578 174.25L160.892 155.7M214.328 248.45L203.642 267H182.265L171.578 248.45M214.328 248.45L225.015 229.9M214.328 248.45L225.015 267H246.392L257.078 248.45M171.578 248.45L160.892 267H139.515L128.828 248.45M171.578 248.45L160.892 229.9M96.7647 -66.9H118.142M96.7647 -66.9L86.0781 -85.45M96.7647 -66.9L86.0781 -48.35M118.142 -66.9L128.828 -85.45M118.142 -66.9L128.828 -48.35M128.828 -85.45L118.142 -104H96.7647L86.0781 -85.45M128.828 -85.45L139.515 -66.9M86.0781 -85.45L75.3915 -66.9M96.7647 81.5H118.142M96.7647 81.5L86.0781 62.95M96.7647 81.5L86.0781 100.05M118.142 81.5L128.828 62.95M118.142 81.5L128.828 100.05M128.828 62.95L118.142 44.4M128.828 62.95L139.515 44.4M128.828 62.95L139.515 81.5M118.142 44.4H96.7647M118.142 44.4L128.828 25.85M96.7647 44.4L86.0781 62.95M96.7647 44.4L86.0781 25.85M86.0781 62.95L75.3915 81.5M86.0781 62.95L75.3915 44.4M96.7647 7.30001H118.142M96.7647 7.30001L86.0781 -11.25M96.7647 7.30001L86.0781 25.85M118.142 7.30001L128.828 -11.25M118.142 7.30001L128.828 25.85M128.828 -11.25L118.142 -29.8M128.828 -11.25L139.515 -29.8M128.828 -11.25L139.515 7.30001M118.142 -29.8H96.7647M118.142 -29.8L128.828 -48.35M96.7647 -29.8L86.0781 -11.25M96.7647 -29.8L86.0781 -48.35M86.0781 -11.25L75.3915 7.30001M86.0781 -11.25L75.3915 -29.8M96.7647 155.7H118.142M96.7647 155.7L86.0781 137.15M96.7647 155.7L86.0781 174.25M118.142 155.7L128.828 137.15M118.142 155.7L128.828 174.25M128.828 137.15L118.142 118.6M128.828 137.15L139.515 118.6M128.828 137.15L139.515 155.7M118.142 118.6H96.7647M118.142 118.6L128.828 100.05M96.7647 118.6L86.0781 137.15M96.7647 118.6L86.0781 100.05M86.0781 137.15L75.3915 155.7M86.0781 137.15L75.3915 118.6M96.7647 229.9H118.142M96.7647 229.9L86.0781 211.35M96.7647 229.9L86.0781 248.45M118.142 229.9L128.828 211.35M118.142 229.9L128.828 248.45M128.828 211.35L118.142 192.8M128.828 211.35L139.515 192.8M128.828 211.35L139.515 229.9M118.142 192.8H96.7647M118.142 192.8L128.828 174.25M96.7647 192.8L86.0781 211.35M96.7647 192.8L86.0781 174.25M86.0781 211.35L75.3915 229.9M86.0781 211.35L75.3915 192.8M128.828 -48.35L139.515 -66.9M128.828 -48.35L139.515 -29.8M86.0781 -48.35L75.3915 -29.8M86.0781 -48.35L75.3915 -66.9M128.828 100.05L139.515 81.5M128.828 100.05L139.515 118.6M86.0781 100.05L75.3915 118.6M86.0781 100.05L75.3915 81.5M128.828 25.85L139.515 7.30001M128.828 25.85L139.515 44.4M86.0781 25.85L75.3915 44.4M86.0781 25.85L75.3915 7.30001M128.828 174.25L139.515 155.7M128.828 174.25L139.515 192.8M86.0781 174.25L75.3915 192.8M86.0781 174.25L75.3915 155.7M128.828 248.45L118.142 267H96.7647L86.0781 248.45M128.828 248.45L139.515 229.9M86.0781 248.45L75.3915 229.9M267.765 -66.9H289.142M267.765 -66.9L257.078 -85.45M267.765 -66.9L257.078 -48.35M289.142 -66.9L299.828 -85.45M289.142 -66.9L299.828 -48.35M299.828 -85.45L289.142 -104H267.765L257.078 -85.45M299.828 -85.45L310.515 -104H331.892L342.578 -85.45L331.892 -66.9M299.828 -85.45L310.515 -66.9M257.078 -85.45L246.392 -66.9M267.765 81.5H289.142M267.765 81.5L257.078 62.95M267.765 81.5L257.078 100.05M289.142 81.5L299.828 62.95M289.142 81.5L299.828 100.05M299.828 62.95L289.142 44.4M299.828 62.95L310.515 44.4M299.828 62.95L310.515 81.5M289.142 44.4H267.765M289.142 44.4L299.828 25.85M267.765 44.4L257.078 62.95M267.765 44.4L257.078 25.85M257.078 62.95L246.392 81.5M257.078 62.95L246.392 44.4M267.765 7.30001H289.142M267.765 7.30001L257.078 -11.25M267.765 7.30001L257.078 25.85M289.142 7.30001L299.828 -11.25M289.142 7.30001L299.828 25.85M299.828 -11.25L289.142 -29.8M299.828 -11.25L310.515 -29.8M299.828 -11.25L310.515 7.30001M289.142 -29.8H267.765M289.142 -29.8L299.828 -48.35M267.765 -29.8L257.078 -11.25M267.765 -29.8L257.078 -48.35M257.078 -11.25L246.392 7.30001M257.078 -11.25L246.392 -29.8M267.765 155.7H289.142M267.765 155.7L257.078 137.15M267.765 155.7L257.078 174.25M289.142 155.7L299.828 137.15M289.142 155.7L299.828 174.25M299.828 137.15L289.142 118.6M299.828 137.15L310.515 118.6M299.828 137.15L310.515 155.7M289.142 118.6H267.765M289.142 118.6L299.828 100.05M267.765 118.6L257.078 137.15M267.765 118.6L257.078 100.05M257.078 137.15L246.392 155.7M257.078 137.15L246.392 118.6M267.765 229.9H289.142M267.765 229.9L257.078 211.35M267.765 229.9L257.078 248.45M289.142 229.9L299.828 211.35M289.142 229.9L299.828 248.45M299.828 211.35L289.142 192.8M299.828 211.35L310.515 192.8M299.828 211.35L310.515 229.9M289.142 192.8H267.765M289.142 192.8L299.828 174.25M267.765 192.8L257.078 211.35M267.765 192.8L257.078 174.25M257.078 211.35L246.392 229.9M257.078 211.35L246.392 192.8M299.828 -48.35L310.515 -66.9M299.828 -48.35L310.515 -29.8M257.078 -48.35L246.392 -29.8M257.078 -48.35L246.392 -66.9M299.828 100.05L310.515 81.5M299.828 100.05L310.515 118.6M257.078 100.05L246.392 118.6M257.078 100.05L246.392 81.5M299.828 25.85L310.515 7.30001M299.828 25.85L310.515 44.4M257.078 25.85L246.392 44.4M257.078 25.85L246.392 7.30001M299.828 174.25L310.515 155.7M299.828 174.25L310.515 192.8M257.078 174.25L246.392 192.8M257.078 174.25L246.392 155.7M299.828 248.45L289.142 267H267.765L257.078 248.45M299.828 248.45L310.515 229.9M299.828 248.45L310.515 267H331.892L342.578 248.45L331.892 229.9M257.078 248.45L246.392 229.9M54.0147 -66.9H75.3915M54.0147 81.5H75.3915M75.3915 44.4H54.0147M54.0147 7.30001H75.3915M75.3915 -29.8H54.0147M54.0147 155.7H75.3915M75.3915 118.6H54.0147M54.0147 229.9H75.3915M75.3915 192.8H54.0147M225.015 -66.9H246.392M225.015 81.5H246.392M246.392 44.4H225.015M225.015 7.30001H246.392M246.392 -29.8H225.015M225.015 155.7H246.392M246.392 118.6H225.015M225.015 229.9H246.392M246.392 192.8H225.015M139.515 -66.9H160.892M139.515 81.5H160.892M160.892 44.4H139.515M139.515 7.30001H160.892M160.892 -29.8H139.515M139.515 155.7H160.892M160.892 118.6H139.515M139.515 229.9H160.892M160.892 192.8H139.515M310.515 -66.9H331.892M331.892 -66.9L342.578 -48.35L331.892 -29.8M310.515 81.5H331.892M331.892 81.5L342.578 62.95L331.892 44.4M331.892 81.5L342.578 100.05L331.892 118.6M331.892 44.4H310.515M331.892 44.4L342.578 25.85L331.892 7.30001M310.515 7.30001H331.892M331.892 7.30001L342.578 -11.25L331.892 -29.8M331.892 -29.8H310.515M310.515 155.7H331.892M331.892 155.7L342.578 137.15L331.892 118.6M331.892 155.7L342.578 174.25L331.892 192.8M331.892 118.6H310.515M310.515 229.9H331.892M331.892 229.9L342.578 211.35L331.892 192.8M331.892 192.8H310.515" stroke="url(#paint0_linear_8462_901)" stroke-opacity="0.15" stroke-miterlimit="10"/>
<defs>
<linearGradient id="paint0_linear_8462_901" x1="355.078" y1="-2.49999" x2="163.018" y2="81.8629" gradientUnits="userSpaceOnUse">
<stop stop-color="#318EFF"/>
<stop offset="1" stop-color="#318EFF" stop-opacity="0"/>
</linearGradient>
</defs>
</svg>
